<svg width="146" height="628" viewBox="0 0 146 628" fill="none" xmlns="http://www.w3.org/2000/svg">
<rect x="145.5" y="0.499939" width="627" height="120" transform="rotate(90 145.5 0.499939)" fill="#E6F1F9" stroke="#051B29"/>
<mask id="path-2-inside-1_94_393" fill="white">
<path d="M42 164L42 193L4 193L4 164L42 164Z"/>
</mask>
<path d="M42 164L42 193L4 193L4 164L42 164Z" fill="#E6F1F9"/>
<path d="M4 193L3 193L3 194L4 194L4 193ZM4 164L4 163L3 163L3 164L4 164ZM42 192L4 192L4 194L42 194L42 192ZM5 193L5 164L3 164L3 193L5 193ZM4 165L42 165L42 163L4 163L4 165Z" fill="black" mask="url(#path-2-inside-1_94_393)"/>
<line x1="42" y1="177.5" x2="15" y2="177.5" stroke="black"/>
<line x1="42" y1="179.5" x2="15" y2="179.5" stroke="black"/>
<line x1="15.5" y1="178" x2="15.5" y2="179" stroke="black"/>
<line x1="41.25" y1="180" x2="41.25" y2="192" stroke="black" stroke-width="0.5"/>
<line x1="41.25" y1="165" x2="41.25" y2="177" stroke="black" stroke-width="0.5"/>
<line x1="39.25" y1="180" x2="39.25" y2="192" stroke="black" stroke-width="0.5"/>
<line x1="39.25" y1="165" x2="39.25" y2="177" stroke="black" stroke-width="0.5"/>
<line x1="37.25" y1="180" x2="37.25" y2="192" stroke="black" stroke-width="0.5"/>
<line x1="37.25" y1="165" x2="37.25" y2="177" stroke="black" stroke-width="0.5"/>
<line x1="35.25" y1="180" x2="35.25" y2="192" stroke="black" stroke-width="0.5"/>
<line x1="35.25" y1="165" x2="35.25" y2="177" stroke="black" stroke-width="0.5"/>
<line x1="33.25" y1="180" x2="33.25" y2="192" stroke="black" stroke-width="0.5"/>
<line x1="33.25" y1="165" x2="33.25" y2="177" stroke="black" stroke-width="0.5"/>
<line x1="31.25" y1="180" x2="31.25" y2="192" stroke="black" stroke-width="0.5"/>
<line x1="31.25" y1="165" x2="31.25" y2="177" stroke="black" stroke-width="0.5"/>
<line x1="29.25" y1="180" x2="29.25" y2="192" stroke="black" stroke-width="0.5"/>
<line x1="29.25" y1="165" x2="29.25" y2="177" stroke="black" stroke-width="0.5"/>
<line x1="27.25" y1="180" x2="27.25" y2="192" stroke="black" stroke-width="0.5"/>
<line x1="27.25" y1="165" x2="27.25" y2="177" stroke="black" stroke-width="0.5"/>
<line x1="25.25" y1="180" x2="25.25" y2="192" stroke="black" stroke-width="0.5"/>
<line x1="25.25" y1="165" x2="25.25" y2="177" stroke="black" stroke-width="0.5"/>
<line x1="23.25" y1="180" x2="23.25" y2="192" stroke="black" stroke-width="0.5"/>
<line x1="23.25" y1="165" x2="23.25" y2="177" stroke="black" stroke-width="0.5"/>
<line x1="21.25" y1="180" x2="21.25" y2="192" stroke="black" stroke-width="0.5"/>
<line x1="21.25" y1="165" x2="21.25" y2="177" stroke="black" stroke-width="0.5"/>
<line x1="19.25" y1="180" x2="19.25" y2="192" stroke="black" stroke-width="0.5"/>
<line x1="19.25" y1="165" x2="19.25" y2="177" stroke="black" stroke-width="0.5"/>
<line x1="17.25" y1="180" x2="17.25" y2="192" stroke="black" stroke-width="0.5"/>
<line x1="17.25" y1="165" x2="17.25" y2="177" stroke="black" stroke-width="0.5"/>
<line x1="15.25" y1="180" x2="15.25" y2="192" stroke="black" stroke-width="0.5"/>
<line x1="15.25" y1="165" x2="15.25" y2="177" stroke="black" stroke-width="0.5"/>
<rect x="145.5" y="0.499939" width="69" height="49" transform="rotate(90 145.5 0.499939)" fill="#78BFEC" stroke="#051B29"/>
<path d="M132.8 8.27994C133.349 8.27994 133.84 8.40261 134.272 8.64794C134.709 8.89861 135.048 9.23727 135.288 9.66394C135.533 10.0959 135.656 10.5786 135.656 11.1119C135.656 11.7359 135.496 12.2826 135.176 12.7519C134.856 13.2213 134.413 13.5493 133.848 13.7359L133.848 12.4479C134.115 12.3199 134.315 12.1386 134.448 11.9039C134.581 11.6746 134.648 11.4079 134.648 11.1039C134.648 10.7786 134.571 10.4879 134.416 10.2319C134.267 9.98127 134.053 9.78394 133.776 9.63994C133.499 9.50127 133.173 9.43194 132.8 9.43194C132.432 9.43194 132.107 9.50127 131.824 9.63994C131.547 9.78394 131.331 9.98127 131.176 10.2319C131.027 10.4879 130.952 10.7786 130.952 11.1039C130.952 11.4079 131.019 11.6746 131.152 11.9039C131.291 12.1386 131.493 12.3199 131.76 12.4479L131.76 13.7359C131.189 13.5493 130.744 13.2213 130.424 12.7519C130.109 12.2879 129.952 11.7413 129.952 11.1119C129.952 10.5786 130.072 10.0959 130.312 9.66394C130.557 9.23727 130.896 8.89861 131.328 8.64794C131.76 8.40261 132.251 8.27994 132.8 8.27994ZM129.928 16.6606C129.928 16.2339 130.021 15.8499 130.208 15.5086C130.4 15.1672 130.669 14.8979 131.016 14.7006C131.363 14.5086 131.763 14.4126 132.216 14.4126C132.669 14.4126 133.069 14.5112 133.416 14.7086C133.763 14.9112 134.029 15.1859 134.216 15.5326C134.408 15.8792 134.504 16.2659 134.504 16.6926C134.504 17.1192 134.408 17.5059 134.216 17.8526C134.029 18.1992 133.763 18.4712 133.416 18.6686C133.069 18.8712 132.669 18.9726 132.216 18.9726C131.763 18.9726 131.363 18.8686 131.016 18.6606C130.669 18.4579 130.4 18.1806 130.208 17.8286C130.021 17.4819 129.928 17.0926 129.928 16.6606ZM130.904 16.6606C130.904 16.8632 130.952 17.0526 131.048 17.2286C131.149 17.4099 131.299 17.5539 131.496 17.6606C131.693 17.7672 131.933 17.8206 132.216 17.8206C132.637 17.8206 132.96 17.7086 133.184 17.4846C133.413 17.2659 133.528 16.9966 133.528 16.6766C133.528 16.3566 133.413 16.0872 133.184 15.8686C132.96 15.6552 132.637 15.5486 132.216 15.5486C131.795 15.5486 131.469 15.6526 131.24 15.8606C131.016 16.0739 130.904 16.3406 130.904 16.6606ZM134.496 25.2981C134.496 25.8421 134.328 26.2795 133.992 26.6101C133.661 26.9461 133.197 27.1141 132.6 27.1141L130 27.1141L130 25.9941L132.448 25.9941C132.795 25.9941 133.059 25.9061 133.24 25.7301C133.427 25.5541 133.52 25.3141 133.52 25.0101C133.52 24.7061 133.427 24.4635 133.24 24.2821C133.059 24.1061 132.795 24.0181 132.448 24.0181L130 24.0181L130 22.8981L132.448 22.8981C132.795 22.8981 133.059 22.8101 133.24 22.6341C133.427 22.4581 133.52 22.2181 133.52 21.9141C133.52 21.6048 133.427 21.3595 133.24 21.1781C133.059 21.0021 132.795 20.9141 132.448 20.9141L130 20.9141L130 19.7941L134.432 19.7941L134.432 20.9141L133.896 20.9141C134.083 21.0581 134.229 21.2421 134.336 21.4661C134.443 21.6955 134.496 21.9461 134.496 22.2181C134.496 22.5648 134.421 22.8741 134.272 23.1461C134.128 23.4181 133.92 23.6288 133.648 23.7781C133.904 23.9221 134.109 24.1301 134.264 24.4021C134.419 24.6795 134.496 24.9781 134.496 25.2981ZM133.792 29.2969C133.995 29.4409 134.163 29.6383 134.296 29.8889C134.435 30.1449 134.504 30.4356 134.504 30.7609C134.504 31.1396 134.411 31.4809 134.224 31.7849C134.037 32.0943 133.771 32.3369 133.424 32.5129C133.083 32.6943 132.685 32.7849 132.232 32.7849C131.779 32.7849 131.376 32.6943 131.024 32.5129C130.677 32.3369 130.408 32.0943 130.216 31.7849C130.024 31.4809 129.928 31.1396 129.928 30.7609C129.928 30.4356 129.995 30.1476 130.128 29.8969C130.261 29.6516 130.429 29.4516 130.632 29.2969L127.888 29.2969L127.888 28.1769L134.432 28.1769L134.432 29.2969L133.792 29.2969ZM132.232 31.6409C132.499 31.6409 132.728 31.5849 132.92 31.4729C133.117 31.3663 133.267 31.2223 133.368 31.0409C133.469 30.8649 133.52 30.6729 133.52 30.4649C133.52 30.2623 133.467 30.0703 133.36 29.8889C133.259 29.7129 133.109 29.5689 132.912 29.4569C132.715 29.3503 132.483 29.2969 132.216 29.2969C131.949 29.2969 131.717 29.3503 131.52 29.4569C131.323 29.5689 131.171 29.7129 131.064 29.8889C130.963 30.0703 130.912 30.2623 130.912 30.4649C130.912 30.6729 130.965 30.8649 131.072 31.0409C131.179 31.2223 131.331 31.3663 131.528 31.4729C131.725 31.5849 131.96 31.6409 132.232 31.6409ZM134.432 37.7828L130 37.7828L130 36.6548L130.56 36.6548C130.368 36.5108 130.216 36.3215 130.104 36.0868C129.997 35.8575 129.944 35.6068 129.944 35.3348C129.944 34.9881 130.016 34.6815 130.16 34.4148C130.309 34.1481 130.525 33.9375 130.808 33.7828C131.096 33.6335 131.437 33.5588 131.832 33.5588L134.432 33.5588L134.432 34.6788L131.992 34.6788C131.64 34.6788 131.368 34.7668 131.176 34.9428C130.989 35.1188 130.896 35.3588 130.896 35.6628C130.896 35.9721 130.989 36.2148 131.176 36.3908C131.368 36.5668 131.64 36.6548 131.992 36.6548L134.432 36.6548L134.432 37.7828ZM133.512 40.1919L131.368 40.1919C131.219 40.1919 131.109 40.2265 131.04 40.2959C130.976 40.3705 130.944 40.4932 130.944 40.6639L130.944 41.1839L130 41.1839L130 40.4799C130 39.5359 130.459 39.0639 131.376 39.0639L133.512 39.0639L133.512 38.5359L134.432 38.5359L134.432 39.0639L135.528 39.0639L135.528 40.1919L134.432 40.1919L134.432 41.1839L133.512 41.1839L133.512 40.1919ZM132.312 46.1094C132.152 46.1094 132.008 46.0988 131.88 46.0774L131.88 42.8374C131.56 42.8641 131.309 42.9761 131.128 43.1734C130.947 43.3708 130.856 43.6134 130.856 43.9014C130.856 44.3174 131.035 44.6134 131.392 44.7894L131.392 45.9974C130.965 45.8694 130.613 45.6241 130.336 45.2614C130.064 44.8988 129.928 44.4534 129.928 43.9254C129.928 43.4988 130.021 43.1148 130.208 42.7734C130.4 42.4374 130.669 42.1734 131.016 41.9814C131.363 41.7948 131.763 41.7014 132.216 41.7014C132.675 41.7014 133.077 41.7948 133.424 41.9814C133.771 42.1681 134.037 42.4294 134.224 42.7654C134.411 43.1014 134.504 43.4881 134.504 43.9254C134.504 44.3468 134.413 44.7228 134.232 45.0534C134.051 45.3894 133.792 45.6481 133.456 45.8294C133.125 46.0161 132.744 46.1094 132.312 46.1094ZM132.632 44.9494C132.92 44.9441 133.149 44.8401 133.32 44.6374C133.496 44.4348 133.584 44.1868 133.584 43.8934C133.584 43.6161 133.499 43.3814 133.328 43.1894C133.163 43.0028 132.931 42.8881 132.632 42.8454L132.632 44.9494ZM133.744 48.0469C133.979 48.1909 134.163 48.3776 134.296 48.6069C134.429 48.8416 134.496 49.1083 134.496 49.4069L133.32 49.4069L133.32 49.1109C133.32 48.7589 133.237 48.4923 133.072 48.3109C132.907 48.1349 132.619 48.0469 132.208 48.0469L130 48.0469L130 46.9269L134.432 46.9269L134.432 48.0469L133.744 48.0469ZM123.584 12.3519L122.68 12.3519L122.68 10.8639L118 10.8639L118 9.74394L122.68 9.74394L122.68 8.25594L123.584 8.25594L123.584 12.3519ZM120.312 17.2891C120.152 17.2891 120.008 17.2785 119.88 17.2571L119.88 14.0171C119.56 14.0438 119.309 14.1558 119.128 14.3531C118.947 14.5505 118.856 14.7931 118.856 15.0811C118.856 15.4971 119.035 15.7931 119.392 15.9691L119.392 17.1771C118.965 17.0491 118.613 16.8038 118.336 16.4411C118.064 16.0785 117.928 15.6331 117.928 15.1051C117.928 14.6785 118.021 14.2945 118.208 13.9531C118.4 13.6171 118.669 13.3531 119.016 13.1611C119.363 12.9745 119.763 12.8811 120.216 12.8811C120.675 12.8811 121.077 12.9745 121.424 13.1611C121.771 13.3478 122.037 13.6091 122.224 13.9451C122.411 14.2811 122.504 14.6678 122.504 15.1051C122.504 15.5265 122.413 15.9025 122.232 16.2331C122.051 16.5691 121.792 16.8278 121.456 17.0091C121.125 17.1958 120.744 17.2891 120.312 17.2891ZM120.632 16.1291C120.92 16.1238 121.149 16.0198 121.32 15.8171C121.496 15.6145 121.584 15.3665 121.584 15.0731C121.584 14.7958 121.499 14.5611 121.328 14.3691C121.163 14.1825 120.931 14.0678 120.632 14.0251L120.632 16.1291ZM120.216 17.8186C120.675 17.8186 121.075 17.912 121.416 18.0986C121.763 18.2853 122.029 18.544 122.216 18.8746C122.408 19.2053 122.504 19.584 122.504 20.0106C122.504 20.56 122.365 21.0133 122.088 21.3706C121.816 21.7333 121.432 21.976 120.936 22.0986L120.936 20.8906C121.128 20.8266 121.277 20.7173 121.384 20.5626C121.496 20.4133 121.552 20.2266 121.552 20.0026C121.552 19.6826 121.435 19.4293 121.2 19.2426C120.971 19.056 120.643 18.9626 120.216 18.9626C119.795 18.9626 119.467 19.056 119.232 19.2426C119.003 19.4293 118.888 19.6826 118.888 20.0026C118.888 20.456 119.091 20.752 119.496 20.8906L119.496 22.0986C119.016 21.976 118.635 21.7333 118.352 21.3706C118.069 21.008 117.928 20.5546 117.928 20.0106C117.928 19.584 118.021 19.2053 118.208 18.8746C118.4 18.544 118.667 18.2853 119.008 18.0986C119.355 17.912 119.757 17.8186 120.216 17.8186ZM122.496 25.4151C122.496 25.7511 122.421 26.0498 122.272 26.3111C122.128 26.5725 121.912 26.7751 121.624 26.9191C121.341 27.0685 121 27.1431 120.6 27.1431L118 27.1431L118 26.0231L120.448 26.0231C120.8 26.0231 121.069 25.9351 121.256 25.7591C121.448 25.5831 121.544 25.3431 121.544 25.0391C121.544 24.7298 121.448 24.4845 121.256 24.3031C121.069 24.1271 120.8 24.0391 120.448 24.0391L118 24.0391L118 22.9191L123.92 22.9191L123.92 24.0391L121.88 24.0391C122.072 24.1831 122.221 24.3751 122.328 24.6151C122.44 24.8551 122.496 25.1218 122.496 25.4151ZM122.496 30.6642C122.496 31.1922 122.328 31.6189 121.992 31.9442C121.661 32.2695 121.197 32.4322 120.6 32.4322L118 32.4322L118 31.3122L120.448 31.3122C120.8 31.3122 121.069 31.2242 121.256 31.0482C121.448 30.8722 121.544 30.6322 121.544 30.3282C121.544 30.0189 121.448 29.7735 121.256 29.5922C121.069 29.4162 120.8 29.3282 120.448 29.3282L118 29.3282L118 28.2082L122.432 28.2082L122.432 29.3282L121.88 29.3282C122.072 29.4775 122.221 29.6669 122.328 29.8962C122.44 30.1309 122.496 30.3869 122.496 30.6642ZM117.928 35.4653C117.928 35.0386 118.021 34.6546 118.208 34.3133C118.4 33.9719 118.669 33.7026 119.016 33.5053C119.363 33.3133 119.763 33.2173 120.216 33.2173C120.669 33.2173 121.069 33.3159 121.416 33.5133C121.763 33.7159 122.029 33.9906 122.216 34.3373C122.408 34.6839 122.504 35.0706 122.504 35.4973C122.504 35.9239 122.408 36.3106 122.216 36.6573C122.029 37.0039 121.763 37.2759 121.416 37.4733C121.069 37.6759 120.669 37.7773 120.216 37.7773C119.763 37.7773 119.363 37.6733 119.016 37.4653C118.669 37.2626 118.4 36.9853 118.208 36.6333C118.021 36.2866 117.928 35.8973 117.928 35.4653ZM118.904 35.4653C118.904 35.6679 118.952 35.8573 119.048 36.0333C119.149 36.2146 119.299 36.3586 119.496 36.4653C119.693 36.5719 119.933 36.6253 120.216 36.6253C120.637 36.6253 120.96 36.5133 121.184 36.2893C121.413 36.0706 121.528 35.8013 121.528 35.4813C121.528 35.1613 121.413 34.8919 121.184 34.6733C120.96 34.4599 120.637 34.3533 120.216 34.3533C119.795 34.3533 119.469 34.4573 119.24 34.6653C119.016 34.8786 118.904 35.1453 118.904 35.4653ZM123.92 39.7188L118 39.7188L118 38.5988L123.92 38.5988L123.92 39.7188ZM117.928 42.7934C117.928 42.3667 118.021 41.9827 118.208 41.6414C118.4 41.3 118.669 41.0307 119.016 40.8334C119.363 40.6414 119.763 40.5454 120.216 40.5454C120.669 40.5454 121.069 40.644 121.416 40.8414C121.763 41.044 122.029 41.3187 122.216 41.6654C122.408 42.012 122.504 42.3987 122.504 42.8254C122.504 43.252 122.408 43.6387 122.216 43.9854C122.029 44.332 121.763 44.604 121.416 44.8014C121.069 45.004 120.669 45.1054 120.216 45.1054C119.763 45.1054 119.363 45.0014 119.016 44.7934C118.669 44.5907 118.4 44.3134 118.208 43.9614C118.021 43.6147 117.928 43.2254 117.928 42.7934ZM118.904 42.7934C118.904 42.996 118.952 43.1854 119.048 43.3614C119.149 43.5427 119.299 43.6867 119.496 43.7934C119.693 43.9 119.933 43.9534 120.216 43.9534C120.637 43.9534 120.96 43.8414 121.184 43.6174C121.413 43.3987 121.528 43.1294 121.528 42.8094C121.528 42.4894 121.413 42.22 121.184 42.0014C120.96 41.788 120.637 41.6814 120.216 41.6814C119.795 41.6814 119.469 41.7854 119.24 41.9934C119.016 42.2067 118.904 42.4734 118.904 42.7934ZM122.504 47.6629C122.504 47.9936 122.437 48.2843 122.304 48.5349C122.176 48.7856 122.008 48.9829 121.8 49.1269L122.432 49.1269L122.432 50.2549L117.968 50.2549C117.557 50.2549 117.192 50.1723 116.872 50.0069C116.547 49.8416 116.291 49.5936 116.104 49.2629C115.912 48.9323 115.816 48.5323 115.816 48.0629C115.816 47.4336 115.963 46.9163 116.256 46.5109C116.549 46.1109 116.949 45.8843 117.456 45.8309L117.456 46.9429C117.253 47.0016 117.093 47.1269 116.976 47.3189C116.853 47.5163 116.792 47.7536 116.792 48.0309C116.792 48.3563 116.891 48.6203 117.088 48.8229C117.28 49.0256 117.573 49.1269 117.968 49.1269L118.656 49.1269C118.448 48.9829 118.275 48.7829 118.136 48.5269C117.997 48.2763 117.928 47.9883 117.928 47.6629C117.928 47.2896 118.024 46.9483 118.216 46.6389C118.408 46.3296 118.677 46.0843 119.024 45.9029C119.376 45.7269 119.779 45.6389 120.232 45.6389C120.68 45.6389 121.077 45.7269 121.424 45.9029C121.771 46.0843 122.037 46.3269 122.224 46.6309C122.411 46.9403 122.504 47.2843 122.504 47.6629ZM120.216 49.1269C120.488 49.1269 120.72 49.0736 120.912 48.9669C121.109 48.8603 121.259 48.7163 121.36 48.5349C121.467 48.3536 121.52 48.1589 121.52 47.9509C121.52 47.7429 121.469 47.5509 121.368 47.3749C121.267 47.1989 121.117 47.0549 120.92 46.9429C120.728 46.8363 120.499 46.7829 120.232 46.7829C119.965 46.7829 119.731 46.8363 119.528 46.9429C119.331 47.0549 119.179 47.1989 119.072 47.3749C118.965 47.5563 118.912 47.7483 118.912 47.9509C118.912 48.1589 118.963 48.3536 119.064 48.5349C119.171 48.7163 119.32 48.8603 119.512 48.9669C119.709 49.0736 119.944 49.1269 120.216 49.1269ZM122.432 55.5888L115.904 52.8448L115.904 51.6528L118.112 52.6128L122.432 50.8368L122.432 52.0928L119.336 53.2368L122.432 54.3968L122.432 55.5888ZM105.944 11.1439C105.944 10.6213 106.067 10.1413 106.312 9.70394C106.557 9.2666 106.896 8.91994 107.328 8.66394C107.765 8.40794 108.259 8.27994 108.808 8.27994C109.352 8.27994 109.84 8.40794 110.272 8.66394C110.709 8.91994 111.051 9.2666 111.296 9.70394C111.541 10.1413 111.664 10.6213 111.664 11.1439C111.664 11.6719 111.541 12.1519 111.296 12.5839C111.051 13.0213 110.709 13.3653 110.272 13.6159C109.84 13.8719 109.352 13.9999 108.808 13.9999C108.259 13.9999 107.765 13.8719 107.328 13.6159C106.896 13.3653 106.557 13.0213 106.312 12.5839C106.067 12.1466 105.944 11.6666 105.944 11.1439ZM106.944 11.1439C106.944 11.4799 107.019 11.7759 107.168 12.0319C107.323 12.2879 107.541 12.4879 107.824 12.6319C108.107 12.7759 108.435 12.8479 108.808 12.8479C109.181 12.8479 109.507 12.7759 109.784 12.6319C110.067 12.4879 110.283 12.2879 110.432 12.0319C110.581 11.7759 110.656 11.4799 110.656 11.1439C110.656 10.8079 110.581 10.5093 110.432 10.2479C110.283 9.99194 110.067 9.79194 109.784 9.64794C109.507 9.50394 109.181 9.43194 108.808 9.43194C108.435 9.43194 108.107 9.50394 107.824 9.64794C107.541 9.79194 107.323 9.99194 107.168 10.2479C107.019 10.5093 106.944 10.8079 106.944 11.1439ZM109.512 16.8652L109.512 16.0892L106 16.0892L106 14.9532L109.512 14.9532L109.512 14.4492L110.432 14.4492L110.432 14.9532L110.656 14.9532C111.2 14.9532 111.6 15.1079 111.856 15.4172C112.112 15.7265 112.232 16.1932 112.216 16.8172L111.272 16.8172C111.277 16.5452 111.232 16.3559 111.136 16.2492C111.04 16.1425 110.867 16.0892 110.616 16.0892L110.432 16.0892L110.432 16.8652L109.512 16.8652ZM109.512 19.623L109.512 18.847L106 18.847L106 17.711L109.512 17.711L109.512 17.207L110.432 17.207L110.432 17.711L110.656 17.711C111.2 17.711 111.6 17.8657 111.856 18.175C112.112 18.4843 112.232 18.951 112.216 19.575L111.272 19.575C111.277 19.303 111.232 19.1137 111.136 19.007C111.04 18.9003 110.867 18.847 110.616 18.847L110.432 18.847L110.432 19.623L109.512 19.623ZM110.96 20.9168C110.96 20.7195 111.021 20.5541 111.144 20.4208C111.272 20.2928 111.429 20.2288 111.616 20.2288C111.803 20.2288 111.957 20.2928 112.08 20.4208C112.208 20.5541 112.272 20.7195 112.272 20.9168C112.272 21.1141 112.208 21.2768 112.08 21.4048C111.957 21.5381 111.803 21.6048 111.616 21.6048C111.429 21.6048 111.272 21.5381 111.144 21.4048C111.021 21.2768 110.96 21.1141 110.96 20.9168ZM110.432 21.4688L106 21.4688L106 20.3488L110.432 20.3488L110.432 21.4688ZM108.216 22.2874C108.675 22.2874 109.075 22.3807 109.416 22.5674C109.763 22.754 110.029 23.0127 110.216 23.3434C110.408 23.674 110.504 24.0527 110.504 24.4794C110.504 25.0287 110.365 25.482 110.088 25.8394C109.816 26.202 109.432 26.4447 108.936 26.5674L108.936 25.3594C109.128 25.2954 109.277 25.186 109.384 25.0314C109.496 24.882 109.552 24.6954 109.552 24.4714C109.552 24.1514 109.435 23.898 109.2 23.7114C108.971 23.5247 108.643 23.4314 108.216 23.4314C107.795 23.4314 107.467 23.5247 107.232 23.7114C107.003 23.898 106.888 24.1514 106.888 24.4714C106.888 24.9247 107.091 25.2207 107.496 25.3594L107.496 26.5674C107.016 26.4447 106.635 26.202 106.352 25.8394C106.069 25.4767 105.928 25.0234 105.928 24.4794C105.928 24.0527 106.021 23.674 106.208 23.3434C106.4 23.0127 106.667 22.754 107.008 22.5674C107.355 22.3807 107.757 22.2874 108.216 22.2874ZM108.312 31.5079C108.152 31.5079 108.008 31.4972 107.88 31.4759L107.88 28.2359C107.56 28.2625 107.309 28.3745 107.128 28.5719C106.947 28.7692 106.856 29.0119 106.856 29.2999C106.856 29.7159 107.035 30.0119 107.392 30.1879L107.392 31.3959C106.965 31.2679 106.613 31.0225 106.336 30.6599C106.064 30.2972 105.928 29.8519 105.928 29.3239C105.928 28.8972 106.021 28.5132 106.208 28.1719C106.4 27.8359 106.669 27.5719 107.016 27.3799C107.363 27.1932 107.763 27.0999 108.216 27.0999C108.675 27.0999 109.077 27.1932 109.424 27.3799C109.771 27.5665 110.037 27.8279 110.224 28.1639C110.411 28.4999 110.504 28.8865 110.504 29.3239C110.504 29.7452 110.413 30.1212 110.232 30.4519C110.051 30.7879 109.792 31.0465 109.456 31.2279C109.125 31.4145 108.744 31.5079 108.312 31.5079ZM108.632 30.3479C108.92 30.3425 109.149 30.2385 109.32 30.0359C109.496 29.8332 109.584 29.5852 109.584 29.2919C109.584 29.0145 109.499 28.7799 109.328 28.5879C109.163 28.4012 108.931 28.2865 108.632 28.2439L108.632 30.3479Z" fill="#051B29"/>
<path d="M97.5 10.9999L97.5 26.9999" stroke="black" stroke-width="2" stroke-linecap="round"/>
<rect x="145.5" y="69.4999" width="145" height="49" transform="rotate(90 145.5 69.4999)" fill="#B3D6EC" stroke="#051B29"/>
<path d="M118 121.328L118 120.208L121.832 117.672L118 117.672L118 116.552L123.592 116.552L123.592 117.672L119.752 120.208L123.592 120.208L123.592 121.328L118 121.328ZM120.312 126.555C120.152 126.555 120.008 126.544 119.88 126.523L119.88 123.283C119.56 123.309 119.309 123.421 119.128 123.619C118.947 123.816 118.856 124.059 118.856 124.347C118.856 124.763 119.035 125.059 119.392 125.235L119.392 126.443C118.965 126.315 118.613 126.069 118.336 125.707C118.064 125.344 117.928 124.899 117.928 124.371C117.928 123.944 118.021 123.56 118.208 123.219C118.4 122.883 118.669 122.619 119.016 122.427C119.363 122.24 119.763 122.147 120.216 122.147C120.675 122.147 121.077 122.24 121.424 122.427C121.771 122.613 122.037 122.875 122.224 123.211C122.411 123.547 122.504 123.933 122.504 124.371C122.504 124.792 122.413 125.168 122.232 125.499C122.051 125.835 121.792 126.093 121.456 126.275C121.125 126.461 120.744 126.555 120.312 126.555ZM120.632 125.395C120.92 125.389 121.149 125.285 121.32 125.083C121.496 124.88 121.584 124.632 121.584 124.339C121.584 124.061 121.499 123.827 121.328 123.635C121.163 123.448 120.931 123.333 120.632 123.291L120.632 125.395ZM121.512 128.676L119.368 128.676C119.219 128.676 119.109 128.711 119.04 128.78C118.976 128.855 118.944 128.978 118.944 129.148L118.944 129.668L118 129.668L118 128.964C118 128.02 118.459 127.548 119.376 127.548L121.512 127.548L121.512 127.02L122.432 127.02L122.432 127.548L123.528 127.548L123.528 128.676L122.432 128.676L122.432 129.668L121.512 129.668L121.512 128.676ZM122.432 136.618L118 135.322L118 134.114L121.096 133.306L118 132.498L118 131.282L122.432 129.978L122.432 131.114L119.056 131.898L122.432 132.746L122.432 133.93L119.064 134.762L122.432 135.546L122.432 136.618ZM117.928 139.192C117.928 138.765 118.021 138.381 118.208 138.04C118.4 137.698 118.669 137.429 119.016 137.232C119.363 137.04 119.763 136.944 120.216 136.944C120.669 136.944 121.069 137.042 121.416 137.24C121.763 137.442 122.029 137.717 122.216 138.064C122.408 138.41 122.504 138.797 122.504 139.224C122.504 139.65 122.408 140.037 122.216 140.384C122.029 140.73 121.763 141.002 121.416 141.2C121.069 141.402 120.669 141.504 120.216 141.504C119.763 141.504 119.363 141.4 119.016 141.192C118.669 140.989 118.4 140.712 118.208 140.36C118.021 140.013 117.928 139.624 117.928 139.192ZM118.904 139.192C118.904 139.394 118.952 139.584 119.048 139.76C119.149 139.941 119.299 140.085 119.496 140.192C119.693 140.298 119.933 140.352 120.216 140.352C120.637 140.352 120.96 140.24 121.184 140.016C121.413 139.797 121.528 139.528 121.528 139.208C121.528 138.888 121.413 138.618 121.184 138.4C120.96 138.186 120.637 138.08 120.216 138.08C119.795 138.08 119.469 138.184 119.24 138.392C119.016 138.605 118.904 138.872 118.904 139.192ZM121.744 143.445C121.979 143.589 122.163 143.776 122.296 144.005C122.429 144.24 122.496 144.507 122.496 144.805L121.32 144.805L121.32 144.509C121.32 144.157 121.237 143.891 121.072 143.709C120.907 143.533 120.619 143.445 120.208 143.445L118 143.445L118 142.325L122.432 142.325L122.432 143.445L121.744 143.445ZM118 148.184L119.888 146.68L118 146.68L118 145.56L123.92 145.56L123.92 146.68L120.552 146.68L122.432 148.168L122.432 149.624L120.208 147.672L118 149.64L118 148.184ZM118.888 153.258L118.888 155.098L118 155.098L118 152.138L123.584 152.138L123.584 153.258L118.888 153.258ZM120.232 155.522C120.68 155.522 121.077 155.61 121.424 155.786C121.771 155.967 122.037 156.21 122.224 156.514C122.411 156.823 122.504 157.167 122.504 157.546C122.504 157.876 122.437 158.164 122.304 158.41C122.171 158.66 122.003 158.86 121.8 159.01L122.432 159.01L122.432 160.138L118 160.138L118 159.01L118.648 159.01C118.44 158.866 118.267 158.666 118.128 158.41C117.995 158.159 117.928 157.868 117.928 157.538C117.928 157.164 118.024 156.823 118.216 156.514C118.408 156.21 118.677 155.967 119.024 155.786C119.376 155.61 119.779 155.522 120.232 155.522ZM120.216 159.01C120.488 159.01 120.72 158.956 120.912 158.85C121.109 158.743 121.259 158.599 121.36 158.418C121.467 158.236 121.52 158.042 121.52 157.834C121.52 157.626 121.469 157.434 121.368 157.258C121.267 157.082 121.117 156.938 120.92 156.826C120.728 156.719 120.499 156.666 120.232 156.666C119.965 156.666 119.731 156.719 119.528 156.826C119.331 156.938 119.179 157.082 119.072 157.258C118.965 157.439 118.912 157.631 118.912 157.834C118.912 158.042 118.963 158.236 119.064 158.418C119.171 158.599 119.32 158.743 119.512 158.85C119.709 158.956 119.944 159.01 120.216 159.01ZM121.784 162.352C121.997 162.496 122.171 162.693 122.304 162.944C122.437 163.2 122.504 163.49 122.504 163.816C122.504 164.194 122.411 164.536 122.224 164.84C122.037 165.149 121.771 165.392 121.424 165.568C121.083 165.749 120.685 165.84 120.232 165.84C119.779 165.84 119.376 165.749 119.024 165.568C118.677 165.392 118.408 165.149 118.216 164.84C118.024 164.536 117.928 164.194 117.928 163.816C117.928 163.485 117.992 163.194 118.12 162.944C118.253 162.698 118.424 162.501 118.632 162.352L118 162.352L118 161.232L123.92 161.232L123.92 162.352L121.784 162.352ZM120.232 164.696C120.499 164.696 120.728 164.64 120.92 164.528C121.117 164.421 121.267 164.277 121.368 164.096C121.469 163.92 121.52 163.728 121.52 163.52C121.52 163.317 121.467 163.125 121.36 162.944C121.259 162.768 121.109 162.624 120.912 162.512C120.715 162.405 120.483 162.352 120.216 162.352C119.949 162.352 119.717 162.405 119.52 162.512C119.323 162.624 119.171 162.768 119.064 162.944C118.963 163.125 118.912 163.317 118.912 163.52C118.912 163.728 118.965 163.92 119.072 164.096C119.179 164.277 119.331 164.421 119.528 164.528C119.725 164.64 119.96 164.696 120.232 164.696Z" fill="#051B29"/>
<path d="M98 188L98 204" stroke="black" stroke-width="2" stroke-linecap="round"/>
<rect x="145.5" y="214.5" width="96" height="49" transform="rotate(90 145.5 214.5)" fill="#B3D6EC" stroke="#051B29"/>
<path d="M123.584 239.184L118 239.184L118 238.064L120.376 238.064L120.376 235.672L118 235.672L118 234.552L123.584 234.552L123.584 235.672L121.288 235.672L121.288 238.064L123.584 238.064L123.584 239.184ZM120.232 239.998C120.68 239.998 121.077 240.086 121.424 240.262C121.771 240.444 122.037 240.686 122.224 240.99C122.411 241.3 122.504 241.644 122.504 242.022C122.504 242.353 122.437 242.641 122.304 242.886C122.171 243.137 122.003 243.337 121.8 243.486L122.432 243.486L122.432 244.614L118 244.614L118 243.486L118.648 243.486C118.44 243.342 118.267 243.142 118.128 242.886C117.995 242.636 117.928 242.345 117.928 242.014C117.928 241.641 118.024 241.3 118.216 240.99C118.408 240.686 118.677 240.444 119.024 240.262C119.376 240.086 119.779 239.998 120.232 239.998ZM120.216 243.486C120.488 243.486 120.72 243.433 120.912 243.326C121.109 243.22 121.259 243.076 121.36 242.894C121.467 242.713 121.52 242.518 121.52 242.31C121.52 242.102 121.469 241.91 121.368 241.734C121.267 241.558 121.117 241.414 120.92 241.302C120.728 241.196 120.499 241.142 120.232 241.142C119.965 241.142 119.731 241.196 119.528 241.302C119.331 241.414 119.179 241.558 119.072 241.734C118.965 241.916 118.912 242.108 118.912 242.31C118.912 242.518 118.963 242.713 119.064 242.894C119.171 243.076 119.32 243.22 119.512 243.326C119.709 243.433 119.944 243.486 120.216 243.486ZM121.744 246.828C121.979 246.972 122.163 247.159 122.296 247.388C122.429 247.623 122.496 247.89 122.496 248.188L121.32 248.188L121.32 247.892C121.32 247.54 121.237 247.274 121.072 247.092C120.907 246.916 120.619 246.828 120.208 246.828L118 246.828L118 245.708L122.432 245.708L122.432 246.828L121.744 246.828ZM120.232 248.655C120.68 248.655 121.077 248.743 121.424 248.919C121.771 249.1 122.037 249.345 122.224 249.655C122.411 249.964 122.504 250.308 122.504 250.687C122.504 250.975 122.44 251.249 122.312 251.511C122.189 251.772 122.024 251.98 121.816 252.135L123.92 252.135L123.92 253.271L118 253.271L118 252.135L118.656 252.135C118.437 251.996 118.261 251.801 118.128 251.551C117.995 251.3 117.928 251.009 117.928 250.679C117.928 250.305 118.024 249.964 118.216 249.655C118.408 249.345 118.677 249.1 119.024 248.919C119.376 248.743 119.779 248.655 120.232 248.655ZM120.216 252.143C120.488 252.143 120.72 252.089 120.912 251.983C121.109 251.876 121.259 251.732 121.36 251.551C121.467 251.369 121.52 251.175 121.52 250.967C121.52 250.759 121.469 250.567 121.368 250.391C121.267 250.215 121.117 250.071 120.92 249.959C120.728 249.852 120.499 249.799 120.232 249.799C119.965 249.799 119.731 249.852 119.528 249.959C119.331 250.071 119.179 250.215 119.072 250.391C118.965 250.572 118.912 250.764 118.912 250.967C118.912 251.175 118.963 251.369 119.064 251.551C119.171 251.732 119.32 251.876 119.512 251.983C119.709 252.089 119.944 252.143 120.216 252.143ZM122.432 260.508L118 259.212L118 258.004L121.096 257.196L118 256.388L118 255.172L122.432 253.868L122.432 255.004L119.056 255.788L122.432 256.636L122.432 257.82L119.064 258.652L122.432 259.436L122.432 260.508ZM120.232 260.826C120.68 260.826 121.077 260.914 121.424 261.09C121.771 261.272 122.037 261.514 122.224 261.818C122.411 262.128 122.504 262.472 122.504 262.85C122.504 263.181 122.437 263.469 122.304 263.714C122.171 263.965 122.003 264.165 121.8 264.314L122.432 264.314L122.432 265.442L118 265.442L118 264.314L118.648 264.314C118.44 264.17 118.267 263.97 118.128 263.714C117.995 263.464 117.928 263.173 117.928 262.842C117.928 262.469 118.024 262.128 118.216 261.818C118.408 261.514 118.677 261.272 119.024 261.09C119.376 260.914 119.779 260.826 120.232 260.826ZM120.216 264.314C120.488 264.314 120.72 264.261 120.912 264.154C121.109 264.048 121.259 263.904 121.36 263.722C121.467 263.541 121.52 263.346 121.52 263.138C121.52 262.93 121.469 262.738 121.368 262.562C121.267 262.386 121.117 262.242 120.92 262.13C120.728 262.024 120.499 261.97 120.232 261.97C119.965 261.97 119.731 262.024 119.528 262.13C119.331 262.242 119.179 262.386 119.072 262.562C118.965 262.744 118.912 262.936 118.912 263.138C118.912 263.346 118.963 263.541 119.064 263.722C119.171 263.904 119.32 264.048 119.512 264.154C119.709 264.261 119.944 264.314 120.216 264.314ZM121.744 267.656C121.979 267.8 122.163 267.987 122.296 268.216C122.429 268.451 122.496 268.718 122.496 269.016L121.32 269.016L121.32 268.72C121.32 268.368 121.237 268.102 121.072 267.92C120.907 267.744 120.619 267.656 120.208 267.656L118 267.656L118 266.536L122.432 266.536L122.432 267.656L121.744 267.656ZM120.312 273.891C120.152 273.891 120.008 273.88 119.88 273.859L119.88 270.619C119.56 270.645 119.309 270.757 119.128 270.955C118.947 271.152 118.856 271.395 118.856 271.683C118.856 272.099 119.035 272.395 119.392 272.571L119.392 273.779C118.965 273.651 118.613 273.405 118.336 273.043C118.064 272.68 117.928 272.235 117.928 271.707C117.928 271.28 118.021 270.896 118.208 270.555C118.4 270.219 118.669 269.955 119.016 269.763C119.363 269.576 119.763 269.483 120.216 269.483C120.675 269.483 121.077 269.576 121.424 269.763C121.771 269.949 122.037 270.211 122.224 270.547C122.411 270.883 122.504 271.269 122.504 271.707C122.504 272.128 122.413 272.504 122.232 272.835C122.051 273.171 121.792 273.429 121.456 273.611C121.125 273.797 120.744 273.891 120.312 273.891ZM120.632 272.731C120.92 272.725 121.149 272.621 121.32 272.419C121.496 272.216 121.584 271.968 121.584 271.675C121.584 271.397 121.499 271.163 121.328 270.971C121.163 270.784 120.931 270.669 120.632 270.627L120.632 272.731ZM118.888 277.734L118.888 279.574L118 279.574L118 276.614L123.584 276.614L123.584 277.734L118.888 277.734ZM120.232 279.998C120.68 279.998 121.077 280.086 121.424 280.262C121.771 280.444 122.037 280.686 122.224 280.99C122.411 281.3 122.504 281.644 122.504 282.022C122.504 282.353 122.437 282.641 122.304 282.886C122.171 283.137 122.003 283.337 121.8 283.486L122.432 283.486L122.432 284.614L118 284.614L118 283.486L118.648 283.486C118.44 283.342 118.267 283.142 118.128 282.886C117.995 282.636 117.928 282.345 117.928 282.014C117.928 281.641 118.024 281.3 118.216 280.99C118.408 280.686 118.677 280.444 119.024 280.262C119.376 280.086 119.779 279.998 120.232 279.998ZM120.216 283.486C120.488 283.486 120.72 283.433 120.912 283.326C121.109 283.22 121.259 283.076 121.36 282.894C121.467 282.713 121.52 282.518 121.52 282.31C121.52 282.102 121.469 281.91 121.368 281.734C121.267 281.558 121.117 281.414 120.92 281.302C120.728 281.196 120.499 281.142 120.232 281.142C119.965 281.142 119.731 281.196 119.528 281.302C119.331 281.414 119.179 281.558 119.072 281.734C118.965 281.916 118.912 282.108 118.912 282.31C118.912 282.518 118.963 282.713 119.064 282.894C119.171 283.076 119.32 283.22 119.512 283.326C119.709 283.433 119.944 283.486 120.216 283.486ZM121.784 286.828C121.997 286.972 122.171 287.17 122.304 287.42C122.437 287.676 122.504 287.967 122.504 288.292C122.504 288.671 122.411 289.012 122.224 289.316C122.037 289.626 121.771 289.868 121.424 290.044C121.083 290.226 120.685 290.316 120.232 290.316C119.779 290.316 119.376 290.226 119.024 290.044C118.677 289.868 118.408 289.626 118.216 289.316C118.024 289.012 117.928 288.671 117.928 288.292C117.928 287.962 117.992 287.671 118.12 287.42C118.253 287.175 118.424 286.978 118.632 286.828L118 286.828L118 285.708L123.92 285.708L123.92 286.828L121.784 286.828ZM120.232 289.172C120.499 289.172 120.728 289.116 120.92 289.004C121.117 288.898 121.267 288.754 121.368 288.572C121.469 288.396 121.52 288.204 121.52 287.996C121.52 287.794 121.467 287.602 121.36 287.42C121.259 287.244 121.109 287.1 120.912 286.988C120.715 286.882 120.483 286.828 120.216 286.828C119.949 286.828 119.717 286.882 119.52 286.988C119.323 287.1 119.171 287.244 119.064 287.42C118.963 287.602 118.912 287.794 118.912 287.996C118.912 288.204 118.965 288.396 119.072 288.572C119.179 288.754 119.331 288.898 119.528 289.004C119.725 289.116 119.96 289.172 120.232 289.172Z" fill="#051B29"/>
<path d="M98 226L98 242" stroke="black" stroke-width="2" stroke-linecap="round"/>
<rect x="49.5" y="192.5" width="83" height="49" transform="rotate(90 49.5 192.5)" fill="#CCE4F2" stroke="#051B29"/>
<path d="M26.8 226.288L27.832 226.288L27.832 228.216L22 228.216L22 227.064L26.8 227.064L26.8 226.288ZM24.992 229.322C25.9147 229.322 26.6373 229.488 27.16 229.818C27.6827 230.154 27.944 230.709 27.944 231.482C27.944 232.256 27.6827 232.808 27.16 233.138C26.6373 233.474 25.9147 233.642 24.992 233.642C24.064 233.642 23.336 233.474 22.808 233.138C22.28 232.808 22.016 232.256 22.016 231.482C22.016 230.709 22.28 230.154 22.808 229.818C23.336 229.488 24.064 229.322 24.992 229.322ZM24.992 232.538C25.3867 232.538 25.7173 232.512 25.984 232.458C26.256 232.41 26.4773 232.309 26.648 232.154C26.8187 232.005 26.904 231.781 26.904 231.482C26.904 231.184 26.8187 230.957 26.648 230.802C26.4773 230.653 26.256 230.552 25.984 230.498C25.7173 230.45 25.3867 230.426 24.992 230.426C24.5867 230.426 24.2453 230.45 23.968 230.498C23.696 230.546 23.4747 230.648 23.304 230.802C23.1387 230.957 23.056 231.184 23.056 231.482C23.056 231.781 23.1387 232.008 23.304 232.162C23.4747 232.317 23.696 232.418 23.968 232.466C24.2453 232.514 24.5867 232.538 24.992 232.538ZM26.8 234.358L27.832 234.358L27.832 236.286L22 236.286L22 235.134L26.8 235.134L26.8 234.358ZM23.264 237.745C23.6907 238.257 24.0453 238.665 24.328 238.969C24.616 239.273 24.9147 239.526 25.224 239.729C25.5333 239.931 25.8373 240.033 26.136 240.033C26.408 240.033 26.6213 239.969 26.776 239.841C26.9307 239.713 27.008 239.515 27.008 239.249C27.008 238.982 26.9173 238.777 26.736 238.633C26.56 238.489 26.3173 238.414 26.008 238.409L26.008 237.321C26.648 237.342 27.1333 237.531 27.464 237.889C27.7947 238.251 27.96 238.71 27.96 239.265C27.96 239.873 27.7973 240.339 27.472 240.665C27.152 240.99 26.728 241.153 26.2 241.153C25.784 241.153 25.3867 241.041 25.008 240.817C24.6293 240.593 24.2987 240.337 24.016 240.049C23.7387 239.761 23.4027 239.385 23.008 238.921L23.008 241.281L22.08 241.281L22.08 237.329L22.912 237.329L23.264 237.745Z" fill="#051B29"/>
<path d="M48 252L48 268" stroke="black" stroke-width="2" stroke-linecap="round"/>
<rect x="49.5" y="275.5" width="83" height="49" transform="rotate(90 49.5 275.5)" fill="#CCE4F2" stroke="#051B29"/>
<path d="M26.8 310.288L27.832 310.288L27.832 312.216L22 312.216L22 311.064L26.8 311.064L26.8 310.288ZM24.992 313.322C25.9147 313.322 26.6373 313.488 27.16 313.818C27.6827 314.154 27.944 314.709 27.944 315.482C27.944 316.256 27.6827 316.808 27.16 317.138C26.6373 317.474 25.9147 317.642 24.992 317.642C24.064 317.642 23.336 317.474 22.808 317.138C22.28 316.808 22.016 316.256 22.016 315.482C22.016 314.709 22.28 314.154 22.808 313.818C23.336 313.488 24.064 313.322 24.992 313.322ZM24.992 316.538C25.3867 316.538 25.7173 316.512 25.984 316.458C26.256 316.41 26.4773 316.309 26.648 316.154C26.8187 316.005 26.904 315.781 26.904 315.482C26.904 315.184 26.8187 314.957 26.648 314.802C26.4773 314.653 26.256 314.552 25.984 314.498C25.7173 314.45 25.3867 314.426 24.992 314.426C24.5867 314.426 24.2453 314.45 23.968 314.498C23.696 314.546 23.4747 314.648 23.304 314.802C23.1387 314.957 23.056 315.184 23.056 315.482C23.056 315.781 23.1387 316.008 23.304 316.162C23.4747 316.317 23.696 316.418 23.968 316.466C24.2453 316.514 24.5867 316.538 24.992 316.538ZM26.8 318.358L27.832 318.358L27.832 320.286L22 320.286L22 319.134L26.8 319.134L26.8 318.358ZM26.8 321.257L27.832 321.257L27.832 323.185L22 323.185L22 322.033L26.8 322.033L26.8 321.257Z" fill="#051B29"/>
<path d="M48 284L48 300" stroke="black" stroke-width="2" stroke-linecap="round"/>
<rect x="49.5" y="358.5" width="83" height="49" transform="rotate(90 49.5 358.5)" fill="#0076BE" stroke="#051B29"/>
<path d="M26.8 392.288L27.832 392.288L27.832 394.216L22 394.216L22 393.064L26.8 393.064L26.8 392.288ZM24.992 395.322C25.9147 395.322 26.6373 395.488 27.16 395.818C27.6827 396.154 27.944 396.709 27.944 397.482C27.944 398.256 27.6827 398.808 27.16 399.138C26.6373 399.474 25.9147 399.642 24.992 399.642C24.064 399.642 23.336 399.474 22.808 399.138C22.28 398.808 22.016 398.256 22.016 397.482C22.016 396.709 22.28 396.154 22.808 395.818C23.336 395.488 24.064 395.322 24.992 395.322ZM24.992 398.538C25.3867 398.538 25.7173 398.512 25.984 398.458C26.256 398.41 26.4773 398.309 26.648 398.154C26.8187 398.005 26.904 397.781 26.904 397.482C26.904 397.184 26.8187 396.957 26.648 396.802C26.4773 396.653 26.256 396.552 25.984 396.498C25.7173 396.45 25.3867 396.426 24.992 396.426C24.5867 396.426 24.2453 396.45 23.968 396.498C23.696 396.546 23.4747 396.648 23.304 396.802C23.1387 396.957 23.056 397.184 23.056 397.482C23.056 397.781 23.1387 398.008 23.304 398.162C23.4747 398.317 23.696 398.418 23.968 398.466C24.2453 398.514 24.5867 398.538 24.992 398.538ZM26.8 400.358L27.832 400.358L27.832 402.286L22 402.286L22 401.134L26.8 401.134L26.8 400.358ZM24.992 403.393C25.9147 403.393 26.6373 403.558 27.16 403.889C27.6827 404.225 27.944 404.779 27.944 405.553C27.944 406.326 27.6827 406.878 27.16 407.209C26.6373 407.545 25.9147 407.713 24.992 407.713C24.064 407.713 23.336 407.545 22.808 407.209C22.28 406.878 22.016 406.326 22.016 405.553C22.016 404.779 22.28 404.225 22.808 403.889C23.336 403.558 24.064 403.393 24.992 403.393ZM24.992 406.609C25.3867 406.609 25.7173 406.582 25.984 406.529C26.256 406.481 26.4773 406.379 26.648 406.225C26.8187 406.075 26.904 405.851 26.904 405.553C26.904 405.254 26.8187 405.027 26.648 404.873C26.4773 404.723 26.256 404.622 25.984 404.569C25.7173 404.521 25.3867 404.497 24.992 404.497C24.5867 404.497 24.2453 404.521 23.968 404.569C23.696 404.617 23.4747 404.718 23.304 404.873C23.1387 405.027 23.056 405.254 23.056 405.553C23.056 405.851 23.1387 406.078 23.304 406.233C23.4747 406.387 23.696 406.489 23.968 406.537C24.2453 406.585 24.5867 406.609 24.992 406.609Z" fill="#E6F1F9"/>
<path d="M48 366L48 382" stroke="black" stroke-width="2" stroke-linecap="round"/>
<rect x="49.5" y="441.5" width="56" height="49" transform="rotate(90 49.5 441.5)" fill="#E6F1F9" stroke="#051B29"/>
<path d="M28.888 448.672L28.888 450.512L28 450.512L28 447.552L33.584 447.552L33.584 448.672L28.888 448.672ZM30.232 450.936C30.68 450.936 31.0773 451.024 31.424 451.2C31.7707 451.381 32.0373 451.624 32.224 451.928C32.4107 452.237 32.504 452.581 32.504 452.96C32.504 453.29 32.4373 453.578 32.304 453.824C32.1707 454.074 32.0027 454.274 31.8 454.424L32.432 454.424L32.432 455.552L28 455.552L28 454.424L28.648 454.424C28.44 454.28 28.2667 454.08 28.128 453.824C27.9947 453.573 27.928 453.282 27.928 452.952C27.928 452.578 28.024 452.237 28.216 451.928C28.408 451.624 28.6773 451.381 29.024 451.2C29.376 451.024 29.7787 450.936 30.232 450.936ZM30.216 454.424C30.488 454.424 30.72 454.37 30.912 454.264C31.1093 454.157 31.2587 454.013 31.36 453.832C31.4667 453.65 31.52 453.456 31.52 453.248C31.52 453.04 31.4693 452.848 31.368 452.672C31.2667 452.496 31.1173 452.352 30.92 452.24C30.728 452.133 30.4987 452.08 30.232 452.08C29.9653 452.08 29.7307 452.133 29.528 452.24C29.3307 452.352 29.1787 452.496 29.072 452.672C28.9653 452.853 28.912 453.045 28.912 453.248C28.912 453.456 28.9627 453.65 29.064 453.832C29.1707 454.013 29.32 454.157 29.512 454.264C29.7093 454.37 29.944 454.424 30.216 454.424ZM30.232 456.358C30.68 456.358 31.0773 456.446 31.424 456.622C31.7707 456.803 32.0373 457.048 32.224 457.358C32.4107 457.667 32.504 458.011 32.504 458.39C32.504 458.678 32.44 458.952 32.312 459.214C32.1893 459.475 32.024 459.683 31.816 459.838L33.92 459.838L33.92 460.974L28 460.974L28 459.838L28.656 459.838C28.4373 459.699 28.2613 459.504 28.128 459.254C27.9947 459.003 27.928 458.712 27.928 458.382C27.928 458.008 28.024 457.667 28.216 457.358C28.408 457.048 28.6773 456.803 29.024 456.622C29.376 456.446 29.7787 456.358 30.232 456.358ZM30.216 459.846C30.488 459.846 30.72 459.792 30.912 459.686C31.1093 459.579 31.2587 459.435 31.36 459.254C31.4667 459.072 31.52 458.878 31.52 458.67C31.52 458.462 31.4693 458.27 31.368 458.094C31.2667 457.918 31.1173 457.774 30.92 457.662C30.728 457.555 30.4987 457.502 30.232 457.502C29.9653 457.502 29.7307 457.555 29.528 457.662C29.3307 457.774 29.1787 457.918 29.072 458.094C28.9653 458.275 28.912 458.467 28.912 458.67C28.912 458.878 28.9627 459.072 29.064 459.254C29.1707 459.435 29.32 459.579 29.512 459.686C29.7093 459.792 29.944 459.846 30.216 459.846ZM32.96 462.636C32.96 462.438 33.0213 462.273 33.144 462.14C33.272 462.012 33.4293 461.948 33.616 461.948C33.8027 461.948 33.9573 462.012 34.08 462.14C34.208 462.273 34.272 462.438 34.272 462.636C34.272 462.833 34.208 462.996 34.08 463.124C33.9573 463.257 33.8027 463.324 33.616 463.324C33.4293 463.324 33.272 463.257 33.144 463.124C33.0213 462.996 32.96 462.833 32.96 462.636ZM32.432 463.188L28 463.188L28 462.068L32.432 462.068L32.432 463.188ZM30.312 468.414C30.152 468.414 30.008 468.403 29.88 468.382L29.88 465.142C29.56 465.169 29.3093 465.281 29.128 465.478C28.9467 465.675 28.856 465.918 28.856 466.206C28.856 466.622 29.0347 466.918 29.392 467.094L29.392 468.302C28.9653 468.174 28.6133 467.929 28.336 467.566C28.064 467.203 27.928 466.758 27.928 466.23C27.928 465.803 28.0213 465.419 28.208 465.078C28.4 464.742 28.6693 464.478 29.016 464.286C29.3627 464.099 29.7627 464.006 30.216 464.006C30.6747 464.006 31.0773 464.099 31.424 464.286C31.7707 464.473 32.0373 464.734 32.224 465.07C32.4107 465.406 32.504 465.793 32.504 466.23C32.504 466.651 32.4133 467.027 32.232 467.358C32.0507 467.694 31.792 467.953 31.456 468.134C31.1253 468.321 30.744 468.414 30.312 468.414ZM30.632 467.254C30.92 467.249 31.1493 467.145 31.32 466.942C31.496 466.739 31.584 466.491 31.584 466.198C31.584 465.921 31.4987 465.686 31.328 465.494C31.1627 465.307 30.9307 465.193 30.632 465.15L30.632 467.254ZM27.928 470.928C27.928 470.565 27.992 470.24 28.12 469.952C28.2533 469.664 28.432 469.434 28.656 469.264C28.88 469.098 29.128 469.008 29.4 468.992L29.4 470.12C29.2293 470.141 29.088 470.224 28.976 470.368C28.864 470.517 28.808 470.701 28.808 470.92C28.808 471.133 28.8507 471.298 28.936 471.416C29.0213 471.538 29.1307 471.6 29.264 471.6C29.408 471.6 29.5147 471.525 29.584 471.376C29.6587 471.232 29.7387 471 29.824 470.68C29.904 470.349 29.9867 470.077 30.072 469.864C30.1573 469.656 30.288 469.474 30.464 469.32C30.64 469.17 30.8773 469.096 31.176 469.096C31.4213 469.096 31.6453 469.165 31.848 469.304C32.0507 469.448 32.2107 469.65 32.328 469.912C32.4453 470.178 32.504 470.49 32.504 470.848C32.504 471.376 32.3707 471.797 32.104 472.112C31.8427 472.426 31.488 472.6 31.04 472.632L31.04 471.56C31.216 471.544 31.3547 471.469 31.456 471.336C31.5627 471.208 31.616 471.034 31.616 470.816C31.616 470.613 31.5787 470.456 31.504 470.344C31.4293 470.237 31.3253 470.184 31.192 470.184C31.0427 470.184 30.928 470.258 30.848 470.408C30.7733 470.557 30.696 470.789 30.616 471.104C30.536 471.424 30.4533 471.688 30.368 471.896C30.2827 472.104 30.1493 472.282 29.968 472.432C29.792 472.586 29.5573 472.666 29.264 472.672C29.008 472.672 28.7787 472.6 28.576 472.456C28.3733 472.317 28.2133 472.114 28.096 471.848C27.984 471.586 27.928 471.28 27.928 470.928ZM21.584 455.016L16 453.456L16 452.136L19.976 451.088L16 449.992L15.992 448.68L21.584 447.176L21.584 448.376L17.248 449.36L21.584 450.496L21.584 451.744L17.272 452.816L21.584 453.808L21.584 455.016ZM18.232 455.459C18.68 455.459 19.0773 455.547 19.424 455.723C19.7707 455.905 20.0373 456.147 20.224 456.451C20.4107 456.761 20.504 457.105 20.504 457.483C20.504 457.814 20.4373 458.102 20.304 458.347C20.1707 458.598 20.0027 458.798 19.8 458.947L20.432 458.947L20.432 460.075L16 460.075L16 458.947L16.648 458.947C16.44 458.803 16.2667 458.603 16.128 458.347C15.9947 458.097 15.928 457.806 15.928 457.475C15.928 457.102 16.024 456.761 16.216 456.451C16.408 456.147 16.6773 455.905 17.024 455.723C17.376 455.547 17.7787 455.459 18.232 455.459ZM18.216 458.947C18.488 458.947 18.72 458.894 18.912 458.787C19.1093 458.681 19.2587 458.537 19.36 458.355C19.4667 458.174 19.52 457.979 19.52 457.771C19.52 457.563 19.4693 457.371 19.368 457.195C19.2667 457.019 19.1173 456.875 18.92 456.763C18.728 456.657 18.4987 456.603 18.232 456.603C17.9653 456.603 17.7307 456.657 17.528 456.763C17.3307 456.875 17.1787 457.019 17.072 457.195C16.9653 457.377 16.912 457.569 16.912 457.771C16.912 457.979 16.9627 458.174 17.064 458.355C17.1707 458.537 17.32 458.681 17.512 458.787C17.7093 458.894 17.944 458.947 18.216 458.947ZM15.928 462.865C15.928 462.502 15.992 462.177 16.12 461.889C16.2533 461.601 16.432 461.372 16.656 461.201C16.88 461.036 17.128 460.945 17.4 460.929L17.4 462.057C17.2293 462.078 17.088 462.161 16.976 462.305C16.864 462.454 16.808 462.638 16.808 462.857C16.808 463.07 16.8507 463.236 16.936 463.353C17.0213 463.476 17.1307 463.537 17.264 463.537C17.408 463.537 17.5147 463.462 17.584 463.313C17.6587 463.169 17.7387 462.937 17.824 462.617C17.904 462.286 17.9867 462.014 18.072 461.801C18.1573 461.593 18.288 461.412 18.464 461.257C18.64 461.108 18.8773 461.033 19.176 461.033C19.4213 461.033 19.6453 461.102 19.848 461.241C20.0507 461.385 20.2107 461.588 20.328 461.849C20.4453 462.116 20.504 462.428 20.504 462.785C20.504 463.313 20.3707 463.734 20.104 464.049C19.8427 464.364 19.488 464.537 19.04 464.569L19.04 463.497C19.216 463.481 19.3547 463.406 19.456 463.273C19.5627 463.145 19.616 462.972 19.616 462.753C19.616 462.55 19.5787 462.393 19.504 462.281C19.4293 462.174 19.3253 462.121 19.192 462.121C19.0427 462.121 18.928 462.196 18.848 462.345C18.7733 462.494 18.696 462.726 18.616 463.041C18.536 463.361 18.4533 463.625 18.368 463.833C18.2827 464.041 18.1493 464.22 17.968 464.369C17.792 464.524 17.5573 464.604 17.264 464.609C17.008 464.609 16.7787 464.537 16.576 464.393C16.3733 464.254 16.2133 464.052 16.096 463.785C15.984 463.524 15.928 463.217 15.928 462.865ZM20.496 468.024C20.496 468.36 20.4213 468.659 20.272 468.92C20.128 469.182 19.912 469.384 19.624 469.528C19.3413 469.678 19 469.752 18.6 469.752L16 469.752L16 468.632L18.448 468.632C18.8 468.632 19.0693 468.544 19.256 468.368C19.448 468.192 19.544 467.952 19.544 467.648C19.544 467.339 19.448 467.094 19.256 466.912C19.0693 466.736 18.8 466.648 18.448 466.648L16 466.648L16 465.528L21.92 465.528L21.92 466.648L19.88 466.648C20.072 466.792 20.2213 466.984 20.328 467.224C20.44 467.464 20.496 467.731 20.496 468.024ZM19.744 471.938C19.9787 472.082 20.1627 472.268 20.296 472.498C20.4293 472.732 20.496 472.999 20.496 473.298L19.32 473.298L19.32 473.002C19.32 472.65 19.2373 472.383 19.072 472.202C18.9067 472.026 18.6187 471.938 18.208 471.938L16 471.938L16 470.818L20.432 470.818L20.432 471.938L19.744 471.938ZM15.928 476.02C15.928 475.593 16.0213 475.209 16.208 474.868C16.4 474.527 16.6693 474.257 17.016 474.06C17.3627 473.868 17.7627 473.772 18.216 473.772C18.6693 473.772 19.0693 473.871 19.416 474.068C19.7627 474.271 20.0293 474.545 20.216 474.892C20.408 475.239 20.504 475.625 20.504 476.052C20.504 476.479 20.408 476.865 20.216 477.212C20.0293 477.559 19.7627 477.831 19.416 478.028C19.0693 478.231 18.6693 478.332 18.216 478.332C17.7627 478.332 17.3627 478.228 17.016 478.02C16.6693 477.817 16.4 477.54 16.208 477.188C16.0213 476.841 15.928 476.452 15.928 476.02ZM16.904 476.02C16.904 476.223 16.952 476.412 17.048 476.588C17.1493 476.769 17.2987 476.913 17.496 477.02C17.6933 477.127 17.9333 477.18 18.216 477.18C18.6373 477.18 18.96 477.068 19.184 476.844C19.4133 476.625 19.528 476.356 19.528 476.036C19.528 475.716 19.4133 475.447 19.184 475.228C18.96 475.015 18.6373 474.908 18.216 474.908C17.7947 474.908 17.4693 475.012 17.24 475.22C17.016 475.433 16.904 475.7 16.904 476.02ZM15.928 481.121C15.928 480.695 16.0213 480.311 16.208 479.969C16.4 479.628 16.6693 479.359 17.016 479.161C17.3627 478.969 17.7627 478.873 18.216 478.873C18.6693 478.873 19.0693 478.972 19.416 479.169C19.7627 479.372 20.0293 479.647 20.216 479.993C20.408 480.34 20.504 480.727 20.504 481.153C20.504 481.58 20.408 481.967 20.216 482.313C20.0293 482.66 19.7627 482.932 19.416 483.129C19.0693 483.332 18.6693 483.433 18.216 483.433C17.7627 483.433 17.3627 483.329 17.016 483.121C16.6693 482.919 16.4 482.641 16.208 482.289C16.0213 481.943 15.928 481.553 15.928 481.121ZM16.904 481.121C16.904 481.324 16.952 481.513 17.048 481.689C17.1493 481.871 17.2987 482.015 17.496 482.121C17.6933 482.228 17.9333 482.281 18.216 482.281C18.6373 482.281 18.96 482.169 19.184 481.945C19.4133 481.727 19.528 481.457 19.528 481.137C19.528 480.817 19.4133 480.548 19.184 480.329C18.96 480.116 18.6373 480.009 18.216 480.009C17.7947 480.009 17.4693 480.113 17.24 480.321C17.016 480.535 16.904 480.801 16.904 481.121ZM20.496 489.759C20.496 490.303 20.328 490.74 19.992 491.071C19.6613 491.407 19.1973 491.575 18.6 491.575L16 491.575L16 490.455L18.448 490.455C18.7947 490.455 19.0587 490.367 19.24 490.191C19.4267 490.015 19.52 489.775 19.52 489.471C19.52 489.167 19.4267 488.924 19.24 488.743C19.0587 488.567 18.7947 488.479 18.448 488.479L16 488.479L16 487.359L18.448 487.359C18.7947 487.359 19.0587 487.271 19.24 487.095C19.4267 486.919 19.52 486.679 19.52 486.375C19.52 486.066 19.4267 485.82 19.24 485.639C19.0587 485.463 18.7947 485.375 18.448 485.375L16 485.375L16 484.255L20.432 484.255L20.432 485.375L19.896 485.375C20.0827 485.519 20.2293 485.703 20.336 485.927C20.4427 486.156 20.496 486.407 20.496 486.679C20.496 487.026 20.4213 487.335 20.272 487.607C20.128 487.879 19.92 488.09 19.648 488.239C19.904 488.383 20.1093 488.591 20.264 488.863C20.4187 489.14 20.496 489.439 20.496 489.759Z" fill="#051B29"/>
<path d="M48 474L48 490" stroke="black" stroke-width="2" stroke-linecap="round"/>
<rect x="145.5" y="310.5" width="47" height="49" transform="rotate(90 145.5 310.5)" fill="#CCE4F2" stroke="#051B29"/>
<path d="M122.8 325.288L123.832 325.288L123.832 327.216L118 327.216L118 326.064L122.8 326.064L122.8 325.288ZM120.992 328.322C121.915 328.322 122.637 328.488 123.16 328.818C123.683 329.154 123.944 329.709 123.944 330.482C123.944 331.256 123.683 331.808 123.16 332.138C122.637 332.474 121.915 332.642 120.992 332.642C120.064 332.642 119.336 332.474 118.808 332.138C118.28 331.808 118.016 331.256 118.016 330.482C118.016 329.709 118.28 329.154 118.808 328.818C119.336 328.488 120.064 328.322 120.992 328.322ZM120.992 331.538C121.387 331.538 121.717 331.512 121.984 331.458C122.256 331.41 122.477 331.309 122.648 331.154C122.819 331.005 122.904 330.781 122.904 330.482C122.904 330.184 122.819 329.957 122.648 329.802C122.477 329.653 122.256 329.552 121.984 329.498C121.717 329.45 121.387 329.426 120.992 329.426C120.587 329.426 120.245 329.45 119.968 329.498C119.696 329.546 119.475 329.648 119.304 329.802C119.139 329.957 119.056 330.184 119.056 330.482C119.056 330.781 119.139 331.008 119.304 331.162C119.475 331.317 119.696 331.418 119.968 331.466C120.245 331.514 120.587 331.538 120.992 331.538ZM120.992 333.494C121.915 333.494 122.637 333.66 123.16 333.99C123.683 334.326 123.944 334.881 123.944 335.654C123.944 336.428 123.683 336.98 123.16 337.31C122.637 337.646 121.915 337.814 120.992 337.814C120.064 337.814 119.336 337.646 118.808 337.31C118.28 336.98 118.016 336.428 118.016 335.654C118.016 334.881 118.28 334.326 118.808 333.99C119.336 333.66 120.064 333.494 120.992 333.494ZM120.992 336.71C121.387 336.71 121.717 336.684 121.984 336.63C122.256 336.582 122.477 336.481 122.648 336.326C122.819 336.177 122.904 335.953 122.904 335.654C122.904 335.356 122.819 335.129 122.648 334.974C122.477 334.825 122.256 334.724 121.984 334.67C121.717 334.622 121.387 334.598 120.992 334.598C120.587 334.598 120.245 334.622 119.968 334.67C119.696 334.718 119.475 334.82 119.304 334.974C119.139 335.129 119.056 335.356 119.056 335.654C119.056 335.953 119.139 336.18 119.304 336.334C119.475 336.489 119.696 336.59 119.968 336.638C120.245 336.686 120.587 336.71 120.992 336.71ZM119.136 338.618L120.016 338.618L123.76 341.234L123.76 342.538L120.112 342.538L120.112 343.242L119.136 343.242L119.136 342.538L118 342.538L118 341.418L119.136 341.418L119.136 338.618ZM122.56 341.49L120.112 339.85L120.112 341.49L122.56 341.49Z" fill="#051B29"/>
<path d="M98 325L98 341" stroke="black" stroke-width="2" stroke-linecap="round"/>
<rect x="145.5" y="357.5" width="47" height="49" transform="rotate(90 145.5 357.5)" fill="#CCE4F2" stroke="#051B29"/>
<path d="M122.8 372.288L123.832 372.288L123.832 374.216L118 374.216L118 373.064L122.8 373.064L122.8 372.288ZM120.992 375.322C121.915 375.322 122.637 375.488 123.16 375.818C123.683 376.154 123.944 376.709 123.944 377.482C123.944 378.256 123.683 378.808 123.16 379.138C122.637 379.474 121.915 379.642 120.992 379.642C120.064 379.642 119.336 379.474 118.808 379.138C118.28 378.808 118.016 378.256 118.016 377.482C118.016 376.709 118.28 376.154 118.808 375.818C119.336 375.488 120.064 375.322 120.992 375.322ZM120.992 378.538C121.387 378.538 121.717 378.512 121.984 378.458C122.256 378.41 122.477 378.309 122.648 378.154C122.819 378.005 122.904 377.781 122.904 377.482C122.904 377.184 122.819 376.957 122.648 376.802C122.477 376.653 122.256 376.552 121.984 376.498C121.717 376.45 121.387 376.426 120.992 376.426C120.587 376.426 120.245 376.45 119.968 376.498C119.696 376.546 119.475 376.648 119.304 376.802C119.139 376.957 119.056 377.184 119.056 377.482C119.056 377.781 119.139 378.008 119.304 378.162C119.475 378.317 119.696 378.418 119.968 378.466C120.245 378.514 120.587 378.538 120.992 378.538ZM120.992 380.494C121.915 380.494 122.637 380.66 123.16 380.99C123.683 381.326 123.944 381.881 123.944 382.654C123.944 383.428 123.683 383.98 123.16 384.31C122.637 384.646 121.915 384.814 120.992 384.814C120.064 384.814 119.336 384.646 118.808 384.31C118.28 383.98 118.016 383.428 118.016 382.654C118.016 381.881 118.28 381.326 118.808 380.99C119.336 380.66 120.064 380.494 120.992 380.494ZM120.992 383.71C121.387 383.71 121.717 383.684 121.984 383.63C122.256 383.582 122.477 383.481 122.648 383.326C122.819 383.177 122.904 382.953 122.904 382.654C122.904 382.356 122.819 382.129 122.648 381.974C122.477 381.825 122.256 381.724 121.984 381.67C121.717 381.622 121.387 381.598 120.992 381.598C120.587 381.598 120.245 381.622 119.968 381.67C119.696 381.718 119.475 381.82 119.304 381.974C119.139 382.129 119.056 382.356 119.056 382.654C119.056 382.953 119.139 383.18 119.304 383.334C119.475 383.489 119.696 383.59 119.968 383.638C120.245 383.686 120.587 383.71 120.992 383.71ZM122.864 389.586L122.864 386.994L121.496 386.994C121.635 387.106 121.747 387.266 121.832 387.474C121.923 387.682 121.968 387.904 121.968 388.138C121.968 388.565 121.875 388.914 121.688 389.186C121.501 389.458 121.261 389.656 120.968 389.778C120.68 389.901 120.371 389.962 120.04 389.962C119.427 389.962 118.933 389.786 118.56 389.434C118.187 389.088 118 388.592 118 387.946C118 387.338 118.152 386.853 118.456 386.49C118.76 386.128 119.157 385.922 119.648 385.874L119.648 386.962C119.435 387.01 119.264 387.117 119.136 387.282C119.008 387.453 118.944 387.669 118.944 387.93C118.944 388.245 119.043 388.482 119.24 388.642C119.437 388.802 119.699 388.882 120.024 388.882C120.355 388.882 120.605 388.8 120.776 388.634C120.952 388.474 121.04 388.237 121.04 387.922C121.04 387.698 120.984 387.512 120.872 387.362C120.76 387.213 120.611 387.106 120.424 387.042L120.424 385.97L123.848 385.97L123.848 389.586L122.864 389.586Z" fill="#051B29"/>
<path d="M98 374L98 390" stroke="black" stroke-width="2" stroke-linecap="round"/>
<rect x="145.5" y="404.5" width="84" height="49" transform="rotate(90 145.5 404.5)" fill="#CCE4F2" stroke="#051B29"/>
<path d="M122.8 437.288L123.832 437.288L123.832 439.216L118 439.216L118 438.064L122.8 438.064L122.8 437.288ZM120.992 440.322C121.915 440.322 122.637 440.488 123.16 440.818C123.683 441.154 123.944 441.709 123.944 442.482C123.944 443.256 123.683 443.808 123.16 444.138C122.637 444.474 121.915 444.642 120.992 444.642C120.064 444.642 119.336 444.474 118.808 444.138C118.28 443.808 118.016 443.256 118.016 442.482C118.016 441.709 118.28 441.154 118.808 440.818C119.336 440.488 120.064 440.322 120.992 440.322ZM120.992 443.538C121.387 443.538 121.717 443.512 121.984 443.458C122.256 443.41 122.477 443.309 122.648 443.154C122.819 443.005 122.904 442.781 122.904 442.482C122.904 442.184 122.819 441.957 122.648 441.802C122.477 441.653 122.256 441.552 121.984 441.498C121.717 441.45 121.387 441.426 120.992 441.426C120.587 441.426 120.245 441.45 119.968 441.498C119.696 441.546 119.475 441.648 119.304 441.802C119.139 441.957 119.056 442.184 119.056 442.482C119.056 442.781 119.139 443.008 119.304 443.162C119.475 443.317 119.696 443.418 119.968 443.466C120.245 443.514 120.587 443.538 120.992 443.538ZM120.992 445.494C121.915 445.494 122.637 445.66 123.16 445.99C123.683 446.326 123.944 446.881 123.944 447.654C123.944 448.428 123.683 448.98 123.16 449.31C122.637 449.646 121.915 449.814 120.992 449.814C120.064 449.814 119.336 449.646 118.808 449.31C118.28 448.98 118.016 448.428 118.016 447.654C118.016 446.881 118.28 446.326 118.808 445.99C119.336 445.66 120.064 445.494 120.992 445.494ZM120.992 448.71C121.387 448.71 121.717 448.684 121.984 448.63C122.256 448.582 122.477 448.481 122.648 448.326C122.819 448.177 122.904 447.953 122.904 447.654C122.904 447.356 122.819 447.129 122.648 446.974C122.477 446.825 122.256 446.724 121.984 446.67C121.717 446.622 121.387 446.598 120.992 446.598C120.587 446.598 120.245 446.622 119.968 446.67C119.696 446.718 119.475 446.82 119.304 446.974C119.139 447.129 119.056 447.356 119.056 447.654C119.056 447.953 119.139 448.18 119.304 448.334C119.475 448.489 119.696 448.59 119.968 448.638C120.245 448.686 120.587 448.71 120.992 448.71ZM122.376 453.69C122.6 453.637 122.768 453.544 122.88 453.41C122.992 453.282 123.048 453.096 123.048 452.85C123.048 452.482 122.899 452.21 122.6 452.034C122.307 451.864 121.827 451.776 121.16 451.77C121.373 451.898 121.539 452.085 121.656 452.33C121.779 452.576 121.84 452.842 121.84 453.13C121.84 453.477 121.765 453.784 121.616 454.05C121.467 454.317 121.248 454.525 120.96 454.674C120.677 454.824 120.336 454.898 119.936 454.898C119.557 454.898 119.219 454.821 118.92 454.666C118.627 454.517 118.397 454.296 118.232 454.002C118.067 453.709 117.984 453.36 117.984 452.954C117.984 452.4 118.107 451.962 118.352 451.642C118.597 451.328 118.939 451.106 119.376 450.978C119.819 450.856 120.363 450.794 121.008 450.794C121.984 450.794 122.72 450.962 123.216 451.298C123.717 451.634 123.968 452.165 123.968 452.89C123.968 453.45 123.816 453.885 123.512 454.194C123.208 454.504 122.829 454.682 122.376 454.73L122.376 453.69ZM120.92 452.874C120.92 452.592 120.837 452.354 120.672 452.162C120.507 451.97 120.267 451.874 119.952 451.874C119.637 451.874 119.389 451.962 119.208 452.138C119.027 452.32 118.936 452.573 118.936 452.898C118.936 453.186 119.024 453.413 119.2 453.578C119.376 453.749 119.613 453.834 119.912 453.834C120.221 453.834 120.467 453.752 120.648 453.586C120.829 453.426 120.92 453.189 120.92 452.874Z" fill="#051B29"/>
<path d="M98 465L98 481" stroke="black" stroke-width="2" stroke-linecap="round"/>
<rect x="145.5" y="488.5" width="86" height="49" transform="rotate(90 145.5 488.5)" fill="#CCE4F2" stroke="#051B29"/>
<path d="M98 496L98 512" stroke="black" stroke-width="2" stroke-linecap="round"/>
<path d="M122.8 523.288L123.832 523.288L123.832 525.216L118 525.216L118 524.064L122.8 524.064L122.8 523.288ZM120.992 526.322C121.915 526.322 122.637 526.488 123.16 526.818C123.683 527.154 123.944 527.709 123.944 528.482C123.944 529.256 123.683 529.808 123.16 530.138C122.637 530.474 121.915 530.642 120.992 530.642C120.064 530.642 119.336 530.474 118.808 530.138C118.28 529.808 118.016 529.256 118.016 528.482C118.016 527.709 118.28 527.154 118.808 526.818C119.336 526.488 120.064 526.322 120.992 526.322ZM120.992 529.538C121.387 529.538 121.717 529.512 121.984 529.458C122.256 529.41 122.477 529.309 122.648 529.154C122.819 529.005 122.904 528.781 122.904 528.482C122.904 528.184 122.819 527.957 122.648 527.802C122.477 527.653 122.256 527.552 121.984 527.498C121.717 527.45 121.387 527.426 120.992 527.426C120.587 527.426 120.245 527.45 119.968 527.498C119.696 527.546 119.475 527.648 119.304 527.802C119.139 527.957 119.056 528.184 119.056 528.482C119.056 528.781 119.139 529.008 119.304 529.162C119.475 529.317 119.696 529.418 119.968 529.466C120.245 529.514 120.587 529.538 120.992 529.538ZM120.992 531.494C121.915 531.494 122.637 531.66 123.16 531.99C123.683 532.326 123.944 532.881 123.944 533.654C123.944 534.428 123.683 534.98 123.16 535.31C122.637 535.646 121.915 535.814 120.992 535.814C120.064 535.814 119.336 535.646 118.808 535.31C118.28 534.98 118.016 534.428 118.016 533.654C118.016 532.881 118.28 532.326 118.808 531.99C119.336 531.66 120.064 531.494 120.992 531.494ZM120.992 534.71C121.387 534.71 121.717 534.684 121.984 534.63C122.256 534.582 122.477 534.481 122.648 534.326C122.819 534.177 122.904 533.953 122.904 533.654C122.904 533.356 122.819 533.129 122.648 532.974C122.477 532.825 122.256 532.724 121.984 532.67C121.717 532.622 121.387 532.598 120.992 532.598C120.587 532.598 120.245 532.622 119.968 532.67C119.696 532.718 119.475 532.82 119.304 532.974C119.139 533.129 119.056 533.356 119.056 533.654C119.056 533.953 119.139 534.18 119.304 534.334C119.475 534.489 119.696 534.59 119.968 534.638C120.245 534.686 120.587 534.71 120.992 534.71ZM122.984 540.378L118 538.25L118 537.114L122.856 539.258L122.856 536.522L123.816 536.522L123.816 540.378L122.984 540.378Z" fill="#051B29"/>
<rect x="145.5" y="574.5" width="53" height="49" transform="rotate(90 145.5 574.5)" fill="#78BFEC" stroke="#051B29"/>
<path d="M135.584 585.352L134.68 585.352L134.68 583.864L130 583.864L130 582.744L134.68 582.744L134.68 581.256L135.584 581.256L135.584 585.352ZM132.312 590.289C132.152 590.289 132.008 590.279 131.88 590.257L131.88 587.017C131.56 587.044 131.309 587.156 131.128 587.353C130.947 587.551 130.856 587.793 130.856 588.081C130.856 588.497 131.035 588.793 131.392 588.969L131.392 590.177C130.965 590.049 130.613 589.804 130.336 589.441C130.064 589.079 129.928 588.633 129.928 588.105C129.928 587.679 130.021 587.295 130.208 586.953C130.4 586.617 130.669 586.353 131.016 586.161C131.363 585.975 131.763 585.881 132.216 585.881C132.675 585.881 133.077 585.975 133.424 586.161C133.771 586.348 134.037 586.609 134.224 586.945C134.411 587.281 134.504 587.668 134.504 588.105C134.504 588.527 134.413 588.903 134.232 589.233C134.051 589.569 133.792 589.828 133.456 590.009C133.125 590.196 132.744 590.289 132.312 590.289ZM132.632 589.129C132.92 589.124 133.149 589.02 133.32 588.817C133.496 588.615 133.584 588.367 133.584 588.073C133.584 587.796 133.499 587.561 133.328 587.369C133.163 587.183 132.931 587.068 132.632 587.025L132.632 589.129ZM132.232 590.819C132.68 590.819 133.077 590.907 133.424 591.083C133.771 591.264 134.037 591.507 134.224 591.811C134.411 592.12 134.504 592.464 134.504 592.843C134.504 593.173 134.437 593.461 134.304 593.707C134.171 593.957 134.003 594.157 133.8 594.307L134.432 594.307L134.432 595.435L130 595.435L130 594.307L130.648 594.307C130.44 594.163 130.267 593.963 130.128 593.707C129.995 593.456 129.928 593.165 129.928 592.835C129.928 592.461 130.024 592.12 130.216 591.811C130.408 591.507 130.677 591.264 131.024 591.083C131.376 590.907 131.779 590.819 132.232 590.819ZM132.216 594.307C132.488 594.307 132.72 594.253 132.912 594.147C133.109 594.04 133.259 593.896 133.36 593.715C133.467 593.533 133.52 593.339 133.52 593.131C133.52 592.923 133.469 592.731 133.368 592.555C133.267 592.379 133.117 592.235 132.92 592.123C132.728 592.016 132.499 591.963 132.232 591.963C131.965 591.963 131.731 592.016 131.528 592.123C131.331 592.235 131.179 592.379 131.072 592.555C130.965 592.736 130.912 592.928 130.912 593.131C130.912 593.339 130.963 593.533 131.064 593.715C131.171 593.896 131.32 594.04 131.512 594.147C131.709 594.253 131.944 594.307 132.216 594.307ZM132.216 596.241C132.675 596.241 133.075 596.334 133.416 596.521C133.763 596.707 134.029 596.966 134.216 597.297C134.408 597.627 134.504 598.006 134.504 598.433C134.504 598.982 134.365 599.435 134.088 599.793C133.816 600.155 133.432 600.398 132.936 600.521L132.936 599.313C133.128 599.249 133.277 599.139 133.384 598.985C133.496 598.835 133.552 598.649 133.552 598.425C133.552 598.105 133.435 597.851 133.2 597.665C132.971 597.478 132.643 597.385 132.216 597.385C131.795 597.385 131.467 597.478 131.232 597.665C131.003 597.851 130.888 598.105 130.888 598.425C130.888 598.878 131.091 599.174 131.496 599.313L131.496 600.521C131.016 600.398 130.635 600.155 130.352 599.793C130.069 599.43 129.928 598.977 129.928 598.433C129.928 598.006 130.021 597.627 130.208 597.297C130.4 596.966 130.667 596.707 131.008 596.521C131.355 596.334 131.757 596.241 132.216 596.241ZM134.496 603.837C134.496 604.173 134.421 604.472 134.272 604.733C134.128 604.994 133.912 605.197 133.624 605.341C133.341 605.49 133 605.565 132.6 605.565L130 605.565L130 604.445L132.448 604.445C132.8 604.445 133.069 604.357 133.256 604.181C133.448 604.005 133.544 603.765 133.544 603.461C133.544 603.152 133.448 602.906 133.256 602.725C133.069 602.549 132.8 602.461 132.448 602.461L130 602.461L130 601.341L135.92 601.341L135.92 602.461L133.88 602.461C134.072 602.605 134.221 602.797 134.328 603.037C134.44 603.277 134.496 603.544 134.496 603.837ZM132.312 610.75C132.152 610.75 132.008 610.739 131.88 610.718L131.88 607.478C131.56 607.505 131.309 607.617 131.128 607.814C130.947 608.011 130.856 608.254 130.856 608.542C130.856 608.958 131.035 609.254 131.392 609.43L131.392 610.638C130.965 610.51 130.613 610.265 130.336 609.902C130.064 609.539 129.928 609.094 129.928 608.566C129.928 608.139 130.021 607.755 130.208 607.414C130.4 607.078 130.669 606.814 131.016 606.622C131.363 606.435 131.763 606.342 132.216 606.342C132.675 606.342 133.077 606.435 133.424 606.622C133.771 606.809 134.037 607.07 134.224 607.406C134.411 607.742 134.504 608.129 134.504 608.566C134.504 608.987 134.413 609.363 134.232 609.694C134.051 610.03 133.792 610.289 133.456 610.47C133.125 610.657 132.744 610.75 132.312 610.75ZM132.632 609.59C132.92 609.585 133.149 609.481 133.32 609.278C133.496 609.075 133.584 608.827 133.584 608.534C133.584 608.257 133.499 608.022 133.328 607.83C133.163 607.643 132.931 607.529 132.632 607.486L132.632 609.59ZM133.744 612.688C133.979 612.832 134.163 613.018 134.296 613.248C134.429 613.482 134.496 613.749 134.496 614.048L133.32 614.048L133.32 613.752C133.32 613.4 133.237 613.133 133.072 612.952C132.907 612.776 132.619 612.688 132.208 612.688L130 612.688L130 611.568L134.432 611.568L134.432 612.688L133.744 612.688ZM135.584 615.026L135.584 616.202L133.568 615.338L133.568 614.57L135.584 615.026ZM129.928 618.701C129.928 618.338 129.992 618.013 130.12 617.725C130.253 617.437 130.432 617.208 130.656 617.037C130.88 616.872 131.128 616.781 131.4 616.765L131.4 617.893C131.229 617.914 131.088 617.997 130.976 618.141C130.864 618.29 130.808 618.474 130.808 618.693C130.808 618.906 130.851 619.072 130.936 619.189C131.021 619.312 131.131 619.373 131.264 619.373C131.408 619.373 131.515 619.298 131.584 619.149C131.659 619.005 131.739 618.773 131.824 618.453C131.904 618.122 131.987 617.85 132.072 617.637C132.157 617.429 132.288 617.248 132.464 617.093C132.64 616.944 132.877 616.869 133.176 616.869C133.421 616.869 133.645 616.938 133.848 617.077C134.051 617.221 134.211 617.424 134.328 617.685C134.445 617.952 134.504 618.264 134.504 618.621C134.504 619.149 134.371 619.57 134.104 619.885C133.843 620.2 133.488 620.373 133.04 620.405L133.04 619.333C133.216 619.317 133.355 619.242 133.456 619.109C133.563 618.981 133.616 618.808 133.616 618.589C133.616 618.386 133.579 618.229 133.504 618.117C133.429 618.01 133.325 617.957 133.192 617.957C133.043 617.957 132.928 618.032 132.848 618.181C132.773 618.33 132.696 618.562 132.616 618.877C132.536 619.197 132.453 619.461 132.368 619.669C132.283 619.877 132.149 620.056 131.968 620.205C131.792 620.36 131.557 620.44 131.264 620.445C131.008 620.445 130.779 620.373 130.576 620.229C130.373 620.09 130.213 619.888 130.096 619.621C129.984 619.36 129.928 619.053 129.928 618.701ZM118 584.432L120.176 583.2L120.176 582.672L118 582.672L118 581.552L123.584 581.552L123.584 583.648C123.584 584.08 123.507 584.448 123.352 584.752C123.203 585.056 122.997 585.283 122.736 585.432C122.48 585.587 122.192 585.664 121.872 585.664C121.504 585.664 121.171 585.557 120.872 585.344C120.579 585.131 120.376 584.813 120.264 584.392L118 585.728L118 584.432ZM121.016 582.672L121.016 583.608C121.016 583.912 121.088 584.139 121.232 584.288C121.381 584.437 121.587 584.512 121.848 584.512C122.104 584.512 122.301 584.437 122.44 584.288C122.584 584.139 122.656 583.912 122.656 583.608L122.656 582.672L121.016 582.672ZM117.928 588.645C117.928 588.218 118.021 587.834 118.208 587.493C118.4 587.152 118.669 586.882 119.016 586.685C119.363 586.493 119.763 586.397 120.216 586.397C120.669 586.397 121.069 586.496 121.416 586.693C121.763 586.896 122.029 587.17 122.216 587.517C122.408 587.864 122.504 588.25 122.504 588.677C122.504 589.104 122.408 589.49 122.216 589.837C122.029 590.184 121.763 590.456 121.416 590.653C121.069 590.856 120.669 590.957 120.216 590.957C119.763 590.957 119.363 590.853 119.016 590.645C118.669 590.442 118.4 590.165 118.208 589.813C118.021 589.466 117.928 589.077 117.928 588.645ZM118.904 588.645C118.904 588.848 118.952 589.037 119.048 589.213C119.149 589.394 119.299 589.538 119.496 589.645C119.693 589.752 119.933 589.805 120.216 589.805C120.637 589.805 120.96 589.693 121.184 589.469C121.413 589.25 121.528 588.981 121.528 588.661C121.528 588.341 121.413 588.072 121.184 587.853C120.96 587.64 120.637 587.533 120.216 587.533C119.795 587.533 119.469 587.637 119.24 587.845C119.016 588.058 118.904 588.325 118.904 588.645ZM117.928 593.747C117.928 593.32 118.021 592.936 118.208 592.595C118.4 592.253 118.669 591.984 119.016 591.787C119.363 591.595 119.763 591.499 120.216 591.499C120.669 591.499 121.069 591.597 121.416 591.795C121.763 591.997 122.029 592.272 122.216 592.619C122.408 592.965 122.504 593.352 122.504 593.779C122.504 594.205 122.408 594.592 122.216 594.939C122.029 595.285 121.763 595.557 121.416 595.755C121.069 595.957 120.669 596.059 120.216 596.059C119.763 596.059 119.363 595.955 119.016 595.747C118.669 595.544 118.4 595.267 118.208 594.915C118.021 594.568 117.928 594.179 117.928 593.747ZM118.904 593.747C118.904 593.949 118.952 594.139 119.048 594.315C119.149 594.496 119.299 594.64 119.496 594.747C119.693 594.853 119.933 594.907 120.216 594.907C120.637 594.907 120.96 594.795 121.184 594.571C121.413 594.352 121.528 594.083 121.528 593.763C121.528 593.443 121.413 593.173 121.184 592.955C120.96 592.741 120.637 592.635 120.216 592.635C119.795 592.635 119.469 592.739 119.24 592.947C119.016 593.16 118.904 593.427 118.904 593.747ZM122.496 602.384C122.496 602.928 122.328 603.365 121.992 603.696C121.661 604.032 121.197 604.2 120.6 604.2L118 604.2L118 603.08L120.448 603.08C120.795 603.08 121.059 602.992 121.24 602.816C121.427 602.64 121.52 602.4 121.52 602.096C121.52 601.792 121.427 601.549 121.24 601.368C121.059 601.192 120.795 601.104 120.448 601.104L118 601.104L118 599.984L120.448 599.984C120.795 599.984 121.059 599.896 121.24 599.72C121.427 599.544 121.52 599.304 121.52 599C121.52 598.691 121.427 598.445 121.24 598.264C121.059 598.088 120.795 598 120.448 598L118 598L118 596.88L122.432 596.88L122.432 598L121.896 598C122.083 598.144 122.229 598.328 122.336 598.552C122.443 598.781 122.496 599.032 122.496 599.304C122.496 599.651 122.421 599.96 122.272 600.232C122.128 600.504 121.92 600.715 121.648 600.864C121.904 601.008 122.109 601.216 122.264 601.488C122.419 601.765 122.496 602.064 122.496 602.384ZM104.424 583.488C104.925 582.971 105.565 582.568 106.344 582.28C107.123 581.997 107.957 581.856 108.848 581.856C109.76 581.856 110.616 582.005 111.416 582.304C112.221 582.603 112.88 583.037 113.392 583.608L113.392 584.736L113.288 584.736C112.728 584.149 112.056 583.701 111.272 583.392C110.488 583.088 109.68 582.936 108.848 582.936C108.037 582.936 107.253 583.08 106.496 583.368C105.744 583.661 105.091 584.077 104.536 584.616L104.424 584.616L104.424 583.488ZM108.8 585.163C109.349 585.163 109.84 585.285 110.272 585.531C110.709 585.781 111.048 586.12 111.288 586.547C111.533 586.979 111.656 587.461 111.656 587.995C111.656 588.619 111.496 589.165 111.176 589.635C110.856 590.104 110.413 590.432 109.848 590.619L109.848 589.331C110.115 589.203 110.315 589.021 110.448 588.787C110.581 588.557 110.648 588.291 110.648 587.987C110.648 587.661 110.571 587.371 110.416 587.115C110.267 586.864 110.053 586.667 109.776 586.523C109.499 586.384 109.173 586.315 108.8 586.315C108.432 586.315 108.107 586.384 107.824 586.523C107.547 586.667 107.331 586.864 107.176 587.115C107.027 587.371 106.952 587.661 106.952 587.987C106.952 588.291 107.019 588.557 107.152 588.787C107.291 589.021 107.493 589.203 107.76 589.331L107.76 590.619C107.189 590.432 106.744 590.104 106.424 589.635C106.109 589.171 105.952 588.624 105.952 587.995C105.952 587.461 106.072 586.979 106.312 586.547C106.557 586.12 106.896 585.781 107.328 585.531C107.76 585.285 108.251 585.163 108.8 585.163ZM105.944 593.503C105.944 593.114 106.011 592.762 106.144 592.447C106.277 592.138 106.469 591.893 106.72 591.711C106.971 591.53 107.267 591.437 107.608 591.431L107.608 592.631C107.379 592.647 107.197 592.727 107.064 592.871C106.931 593.021 106.864 593.223 106.864 593.479C106.864 593.741 106.925 593.946 107.048 594.095C107.176 594.245 107.341 594.319 107.544 594.319C107.709 594.319 107.845 594.269 107.952 594.167C108.059 594.066 108.141 593.938 108.2 593.783C108.264 593.634 108.333 593.426 108.408 593.159C108.515 592.797 108.619 592.501 108.72 592.271C108.827 592.047 108.984 591.853 109.192 591.687C109.405 591.527 109.688 591.447 110.04 591.447C110.371 591.447 110.659 591.53 110.904 591.695C111.149 591.861 111.336 592.093 111.464 592.391C111.597 592.69 111.664 593.031 111.664 593.415C111.664 593.991 111.523 594.458 111.24 594.815C110.963 595.178 110.573 595.378 110.072 595.415L110.072 594.183C110.264 594.173 110.421 594.09 110.544 593.935C110.672 593.786 110.736 593.586 110.736 593.335C110.736 593.117 110.68 592.941 110.568 592.807C110.456 592.679 110.293 592.615 110.08 592.615C109.931 592.615 109.805 592.663 109.704 592.759C109.608 592.861 109.528 592.983 109.464 593.127C109.405 593.277 109.336 593.485 109.256 593.751C109.149 594.114 109.043 594.41 108.936 594.639C108.829 594.869 108.669 595.066 108.456 595.231C108.243 595.397 107.963 595.479 107.616 595.479C107.317 595.479 107.04 595.402 106.784 595.247C106.528 595.093 106.323 594.866 106.168 594.567C106.019 594.269 105.944 593.914 105.944 593.503ZM111.584 600.25L110.68 600.25L110.68 598.762L106 598.762L106 597.642L110.68 597.642L110.68 596.154L111.584 596.154L111.584 600.25ZM104.424 600.78L104.536 600.78C105.091 601.318 105.744 601.732 106.496 602.02C107.253 602.313 108.037 602.46 108.848 602.46C109.68 602.46 110.488 602.305 111.272 601.996C112.056 601.692 112.728 601.246 113.288 600.66L113.392 600.66L113.392 601.788C112.88 602.358 112.221 602.793 111.416 603.092C110.616 603.39 109.76 603.54 108.848 603.54C107.957 603.54 107.123 603.396 106.344 603.108C105.565 602.825 104.925 602.425 104.424 601.908L104.424 600.78Z" fill="#051B29"/>
<path d="M98 593L98 609" stroke="black" stroke-width="2" stroke-linecap="round"/>
<line x1="25.5" y1="72.9999" x2="25.5" y2="110" stroke="#E6F1F9"/>
<path d="M25 74.9999L25 108" stroke="black" stroke-width="2" stroke-linecap="round"/>
<path d="M19 74.9999L19 108" stroke="black" stroke-opacity="0.5" stroke-width="2" stroke-linecap="round"/>
<path d="M13 74.9999L13 108" stroke="black" stroke-opacity="0.3" stroke-width="2" stroke-linecap="round"/>
<path d="M74 90.9999L74 373" stroke="#B3D6EC" stroke-width="5" stroke-linecap="round" stroke-dasharray="10 10"/>
<path d="M74 90.9999L35 90.9999" stroke="#B3D6EC" stroke-width="5" stroke-linecap="round" stroke-dasharray="10 10"/>
<path d="M74 373L54 373" stroke="#B3D6EC" stroke-width="5" stroke-linecap="round" stroke-dasharray="10 10"/>
<rect x="145.5" y="383.5" width="21" height="20" transform="rotate(90 145.5 383.5)" fill="#CCE4F2" stroke="black"/>
<rect x="145" y="402" width="5" height="19" transform="rotate(90 145 402)" fill="#CCE4F2"/>
</svg>
