<svg width="146" height="628" viewBox="0 0 146 628" fill="none" xmlns="http://www.w3.org/2000/svg">
<rect x="145.5" y="0.5" width="627" height="120" transform="rotate(90 145.5 0.5)" fill="#E6F1F9" stroke="#051B29"/>
<mask id="path-2-inside-1_94_382" fill="white">
<path d="M42 164L42 193L4 193L4 164L42 164Z"/>
</mask>
<path d="M42 164L42 193L4 193L4 164L42 164Z" fill="#E6F1F9"/>
<path d="M4 193L3 193L3 194L4 194L4 193ZM4 164L4 163L3 163L3 164L4 164ZM42 192L4 192L4 194L42 194L42 192ZM5 193L5 164L3 164L3 193L5 193ZM4 165L42 165L42 163L4 163L4 165Z" fill="black" mask="url(#path-2-inside-1_94_382)"/>
<line x1="42" y1="177.5" x2="15" y2="177.5" stroke="black"/>
<line x1="42" y1="179.5" x2="15" y2="179.5" stroke="black"/>
<line x1="15.5" y1="178" x2="15.5" y2="179" stroke="black"/>
<line x1="41.25" y1="180" x2="41.25" y2="192" stroke="black" stroke-width="0.5"/>
<line x1="41.25" y1="165" x2="41.25" y2="177" stroke="black" stroke-width="0.5"/>
<line x1="39.25" y1="180" x2="39.25" y2="192" stroke="black" stroke-width="0.5"/>
<line x1="39.25" y1="165" x2="39.25" y2="177" stroke="black" stroke-width="0.5"/>
<line x1="37.25" y1="180" x2="37.25" y2="192" stroke="black" stroke-width="0.5"/>
<line x1="37.25" y1="165" x2="37.25" y2="177" stroke="black" stroke-width="0.5"/>
<line x1="35.25" y1="180" x2="35.25" y2="192" stroke="black" stroke-width="0.5"/>
<line x1="35.25" y1="165" x2="35.25" y2="177" stroke="black" stroke-width="0.5"/>
<line x1="33.25" y1="180" x2="33.25" y2="192" stroke="black" stroke-width="0.5"/>
<line x1="33.25" y1="165" x2="33.25" y2="177" stroke="black" stroke-width="0.5"/>
<line x1="31.25" y1="180" x2="31.25" y2="192" stroke="black" stroke-width="0.5"/>
<line x1="31.25" y1="165" x2="31.25" y2="177" stroke="black" stroke-width="0.5"/>
<line x1="29.25" y1="180" x2="29.25" y2="192" stroke="black" stroke-width="0.5"/>
<line x1="29.25" y1="165" x2="29.25" y2="177" stroke="black" stroke-width="0.5"/>
<line x1="27.25" y1="180" x2="27.25" y2="192" stroke="black" stroke-width="0.5"/>
<line x1="27.25" y1="165" x2="27.25" y2="177" stroke="black" stroke-width="0.5"/>
<line x1="25.25" y1="180" x2="25.25" y2="192" stroke="black" stroke-width="0.5"/>
<line x1="25.25" y1="165" x2="25.25" y2="177" stroke="black" stroke-width="0.5"/>
<line x1="23.25" y1="180" x2="23.25" y2="192" stroke="black" stroke-width="0.5"/>
<line x1="23.25" y1="165" x2="23.25" y2="177" stroke="black" stroke-width="0.5"/>
<line x1="21.25" y1="180" x2="21.25" y2="192" stroke="black" stroke-width="0.5"/>
<line x1="21.25" y1="165" x2="21.25" y2="177" stroke="black" stroke-width="0.5"/>
<line x1="19.25" y1="180" x2="19.25" y2="192" stroke="black" stroke-width="0.5"/>
<line x1="19.25" y1="165" x2="19.25" y2="177" stroke="black" stroke-width="0.5"/>
<line x1="17.25" y1="180" x2="17.25" y2="192" stroke="black" stroke-width="0.5"/>
<line x1="17.25" y1="165" x2="17.25" y2="177" stroke="black" stroke-width="0.5"/>
<line x1="15.25" y1="180" x2="15.25" y2="192" stroke="black" stroke-width="0.5"/>
<line x1="15.25" y1="165" x2="15.25" y2="177" stroke="black" stroke-width="0.5"/>
<rect x="145.5" y="0.5" width="69" height="49" transform="rotate(90 145.5 0.5)" fill="#CCE4F2" stroke="#051B29"/>
<path d="M134.68 6.672L133.28 6.672L133.28 8.552L132.392 8.552L132.392 6.672L130.912 6.672L130.912 8.792L130 8.792L130 5.552L135.592 5.552L135.592 8.792L134.68 8.792L134.68 6.672ZM135.92 10.9298L130 10.9298L130 9.80981L135.92 9.80981L135.92 10.9298ZM132.312 16.1564C132.152 16.1564 132.008 16.1457 131.88 16.1244L131.88 12.8844C131.56 12.911 131.309 13.023 131.128 13.2204C130.947 13.4177 130.856 13.6604 130.856 13.9484C130.856 14.3644 131.035 14.6604 131.392 14.8364L131.392 16.0444C130.965 15.9164 130.613 15.671 130.336 15.3084C130.064 14.9457 129.928 14.5004 129.928 13.9724C129.928 13.5457 130.021 13.1617 130.208 12.8204C130.4 12.4844 130.669 12.2204 131.016 12.0284C131.363 11.8417 131.763 11.7484 132.216 11.7484C132.675 11.7484 133.077 11.8417 133.424 12.0284C133.771 12.215 134.037 12.4764 134.224 12.8124C134.411 13.1484 134.504 13.535 134.504 13.9724C134.504 14.3937 134.413 14.7697 134.232 15.1004C134.051 15.4364 133.792 15.695 133.456 15.8764C133.125 16.063 132.744 16.1564 132.312 16.1564ZM132.632 14.9964C132.92 14.991 133.149 14.887 133.32 14.6844C133.496 14.4817 133.584 14.2337 133.584 13.9404C133.584 13.663 133.499 13.4284 133.328 13.2364C133.163 13.0497 132.931 12.935 132.632 12.8924L132.632 14.9964ZM132.216 16.6859C132.675 16.6859 133.075 16.7792 133.416 16.9659C133.763 17.1525 134.029 17.4112 134.216 17.7419C134.408 18.0725 134.504 18.4512 134.504 18.8779C134.504 19.4272 134.365 19.8805 134.088 20.2379C133.816 20.6005 133.432 20.8432 132.936 20.9659L132.936 19.7579C133.128 19.6939 133.277 19.5845 133.384 19.4299C133.496 19.2805 133.552 19.0939 133.552 18.8699C133.552 18.5499 133.435 18.2965 133.2 18.1099C132.971 17.9232 132.643 17.8299 132.216 17.8299C131.795 17.8299 131.467 17.9232 131.232 18.1099C131.003 18.2965 130.888 18.5499 130.888 18.8699C130.888 19.3232 131.091 19.6192 131.496 19.7579L131.496 20.9659C131.016 20.8432 130.635 20.6005 130.352 20.2379C130.069 19.8752 129.928 19.4219 129.928 18.8779C129.928 18.4512 130.021 18.0725 130.208 17.7419C130.4 17.4112 130.667 17.1525 131.008 16.9659C131.355 16.7792 131.757 16.6859 132.216 16.6859ZM133.512 23.0904L131.368 23.0904C131.219 23.0904 131.109 23.125 131.04 23.1944C130.976 23.269 130.944 23.3917 130.944 23.5624L130.944 24.0824L130 24.0824L130 23.3784C130 22.4344 130.459 21.9624 131.376 21.9624L133.512 21.9624L133.512 21.4344L134.432 21.4344L134.432 21.9624L135.528 21.9624L135.528 23.0904L134.432 23.0904L134.432 24.0824L133.512 24.0824L133.512 23.0904ZM133.744 26.0079C133.979 26.1519 134.163 26.3386 134.296 26.5679C134.429 26.8026 134.496 27.0693 134.496 27.3679L133.32 27.3679L133.32 27.0719C133.32 26.7199 133.237 26.4533 133.072 26.2719C132.907 26.0959 132.619 26.0079 132.208 26.0079L130 26.0079L130 24.8879L134.432 24.8879L134.432 26.0079L133.744 26.0079ZM129.928 30.0903C129.928 29.6636 130.021 29.2796 130.208 28.9383C130.4 28.597 130.669 28.3276 131.016 28.1303C131.363 27.9383 131.763 27.8423 132.216 27.8423C132.669 27.8423 133.069 27.941 133.416 28.1383C133.763 28.341 134.029 28.6156 134.216 28.9623C134.408 29.309 134.504 29.6956 134.504 30.1223C134.504 30.549 134.408 30.9356 134.216 31.2823C134.029 31.629 133.763 31.901 133.416 32.0983C133.069 32.301 132.669 32.4023 132.216 32.4023C131.763 32.4023 131.363 32.2983 131.016 32.0903C130.669 31.8876 130.4 31.6103 130.208 31.2583C130.021 30.9116 129.928 30.5223 129.928 30.0903ZM130.904 30.0903C130.904 30.293 130.952 30.4823 131.048 30.6583C131.149 30.8396 131.299 30.9836 131.496 31.0903C131.693 31.197 131.933 31.2503 132.216 31.2503C132.637 31.2503 132.96 31.1383 133.184 30.9143C133.413 30.6956 133.528 30.4263 133.528 30.1063C133.528 29.7863 133.413 29.517 133.184 29.2983C132.96 29.085 132.637 28.9783 132.216 28.9783C131.795 28.9783 131.469 29.0823 131.24 29.2903C131.016 29.5036 130.904 29.7703 130.904 30.0903ZM134.496 38.7279C134.496 39.2719 134.328 39.7092 133.992 40.0399C133.661 40.3759 133.197 40.5439 132.6 40.5439L130 40.5439L130 39.4239L132.448 39.4239C132.795 39.4239 133.059 39.3359 133.24 39.1599C133.427 38.9839 133.52 38.7439 133.52 38.4399C133.52 38.1359 133.427 37.8932 133.24 37.7119C133.059 37.5359 132.795 37.4479 132.448 37.4479L130 37.4479L130 36.3279L132.448 36.3279C132.795 36.3279 133.059 36.2399 133.24 36.0639C133.427 35.8879 133.52 35.6479 133.52 35.3439C133.52 35.0345 133.427 34.7892 133.24 34.6079C133.059 34.4319 132.795 34.3439 132.448 34.3439L130 34.3439L130 33.2239L134.432 33.2239L134.432 34.3439L133.896 34.3439C134.083 34.4879 134.229 34.6719 134.336 34.8959C134.443 35.1252 134.496 35.3759 134.496 35.6479C134.496 35.9945 134.421 36.3039 134.272 36.5759C134.128 36.8479 133.92 37.0585 133.648 37.2079C133.904 37.3519 134.109 37.5599 134.264 37.8319C134.419 38.1092 134.496 38.4079 134.496 38.7279ZM132.312 45.7267C132.152 45.7267 132.008 45.716 131.88 45.6947L131.88 42.4547C131.56 42.4814 131.309 42.5934 131.128 42.7907C130.947 42.988 130.856 43.2307 130.856 43.5187C130.856 43.9347 131.035 44.2307 131.392 44.4067L131.392 45.6147C130.965 45.4867 130.613 45.2414 130.336 44.8787C130.064 44.516 129.928 44.0707 129.928 43.5427C129.928 43.116 130.021 42.732 130.208 42.3907C130.4 42.0547 130.669 41.7907 131.016 41.5987C131.363 41.412 131.763 41.3187 132.216 41.3187C132.675 41.3187 133.077 41.412 133.424 41.5987C133.771 41.7854 134.037 42.0467 134.224 42.3827C134.411 42.7187 134.504 43.1054 134.504 43.5427C134.504 43.964 134.413 44.34 134.232 44.6707C134.051 45.0067 133.792 45.2654 133.456 45.4467C133.125 45.6334 132.744 45.7267 132.312 45.7267ZM132.632 44.5667C132.92 44.5614 133.149 44.4574 133.32 44.2547C133.496 44.052 133.584 43.804 133.584 43.5107C133.584 43.2334 133.499 42.9987 133.328 42.8067C133.163 42.62 132.931 42.5054 132.632 42.4627L132.632 44.5667ZM132.232 46.2562C132.68 46.2562 133.077 46.3442 133.424 46.5202C133.771 46.7015 134.037 46.9469 134.224 47.2562C134.411 47.5655 134.504 47.9095 134.504 48.2882C134.504 48.5762 134.44 48.8509 134.312 49.1122C134.189 49.3735 134.024 49.5815 133.816 49.7362L135.92 49.7362L135.92 50.8722L130 50.8722L130 49.7362L130.656 49.7362C130.437 49.5975 130.261 49.4029 130.128 49.1522C129.995 48.9015 129.928 48.6109 129.928 48.2802C129.928 47.9069 130.024 47.5655 130.216 47.2562C130.408 46.9469 130.677 46.7015 131.024 46.5202C131.376 46.3442 131.779 46.2562 132.232 46.2562ZM132.216 49.7442C132.488 49.7442 132.72 49.6909 132.912 49.5842C133.109 49.4775 133.259 49.3335 133.36 49.1522C133.467 48.9709 133.52 48.7762 133.52 48.5682C133.52 48.3602 133.469 48.1682 133.368 47.9922C133.267 47.8162 133.117 47.6722 132.92 47.5602C132.728 47.4535 132.499 47.4002 132.232 47.4002C131.965 47.4002 131.731 47.4535 131.528 47.5602C131.331 47.6722 131.179 47.8162 131.072 47.9922C130.965 48.1735 130.912 48.3655 130.912 48.5682C130.912 48.7762 130.963 48.9709 131.064 49.1522C131.171 49.3335 131.32 49.4775 131.512 49.5842C131.709 49.6909 131.944 49.7442 132.216 49.7442ZM134.96 52.5341C134.96 52.3367 135.021 52.1714 135.144 52.0381C135.272 51.9101 135.429 51.8461 135.616 51.8461C135.803 51.8461 135.957 51.9101 136.08 52.0381C136.208 52.1714 136.272 52.3367 136.272 52.5341C136.272 52.7314 136.208 52.8941 136.08 53.0221C135.957 53.1554 135.803 53.2221 135.616 53.2221C135.429 53.2221 135.272 53.1554 135.144 53.0221C135.021 52.8941 134.96 52.7314 134.96 52.5341ZM134.432 53.0861L130 53.0861L130 51.9661L134.432 51.9661L134.432 53.0861ZM132.216 53.9046C132.675 53.9046 133.075 53.998 133.416 54.1846C133.763 54.3713 134.029 54.63 134.216 54.9606C134.408 55.2913 134.504 55.67 134.504 56.0966C134.504 56.646 134.365 57.0993 134.088 57.4566C133.816 57.8193 133.432 58.062 132.936 58.1846L132.936 56.9766C133.128 56.9126 133.277 56.8033 133.384 56.6486C133.496 56.4993 133.552 56.3126 133.552 56.0886C133.552 55.7686 133.435 55.5153 133.2 55.3286C132.971 55.142 132.643 55.0486 132.216 55.0486C131.795 55.0486 131.467 55.142 131.232 55.3286C131.003 55.5153 130.888 55.7686 130.888 56.0886C130.888 56.542 131.091 56.838 131.496 56.9766L131.496 58.1846C131.016 58.062 130.635 57.8193 130.352 57.4566C130.069 57.094 129.928 56.6406 129.928 56.0966C129.928 55.67 130.021 55.2913 130.208 54.9606C130.4 54.63 130.667 54.3713 131.008 54.1846C131.355 53.998 131.757 53.9046 132.216 53.9046ZM132.232 58.7171C132.68 58.7171 133.077 58.8051 133.424 58.9811C133.771 59.1625 134.037 59.4051 134.224 59.7091C134.411 60.0185 134.504 60.3625 134.504 60.7411C134.504 61.0718 134.437 61.3598 134.304 61.6051C134.171 61.8558 134.003 62.0558 133.8 62.2051L134.432 62.2051L134.432 63.3331L130 63.3331L130 62.2051L130.648 62.2051C130.44 62.0611 130.267 61.8611 130.128 61.6051C129.995 61.3545 129.928 61.0638 129.928 60.7331C129.928 60.3598 130.024 60.0185 130.216 59.7091C130.408 59.4051 130.677 59.1625 131.024 58.9811C131.376 58.8051 131.779 58.7171 132.232 58.7171ZM132.216 62.2051C132.488 62.2051 132.72 62.1518 132.912 62.0451C133.109 61.9385 133.259 61.7945 133.36 61.6131C133.467 61.4318 133.52 61.2371 133.52 61.0291C133.52 60.8211 133.469 60.6291 133.368 60.4531C133.267 60.2771 133.117 60.1331 132.92 60.0211C132.728 59.9145 132.499 59.8611 132.232 59.8611C131.965 59.8611 131.731 59.9145 131.528 60.0211C131.331 60.1331 131.179 60.2771 131.072 60.4531C130.965 60.6345 130.912 60.8265 130.912 61.0291C130.912 61.2371 130.963 61.4318 131.064 61.6131C131.171 61.7945 131.32 61.9385 131.512 62.0451C131.709 62.1518 131.944 62.2051 132.216 62.2051ZM135.92 65.547L130 65.547L130 64.427L135.92 64.427L135.92 65.547ZM123.584 7.504C123.584 8.09067 123.469 8.60533 123.24 9.048C123.011 9.496 122.683 9.84 122.256 10.08C121.835 10.3253 121.344 10.448 120.784 10.448C120.224 10.448 119.733 10.3253 119.312 10.08C118.896 9.84 118.573 9.496 118.344 9.048C118.115 8.60533 118 8.09067 118 7.504L118 5.552L123.584 5.552L123.584 7.504ZM118.952 7.464C118.952 8.05067 119.112 8.504 119.432 8.824C119.752 9.144 120.203 9.304 120.784 9.304C121.365 9.304 121.819 9.144 122.144 8.824C122.475 8.504 122.64 8.05067 122.64 7.464L122.64 6.672L118.952 6.672L118.952 7.464ZM120.312 15.4064C120.152 15.4064 120.008 15.3957 119.88 15.3744L119.88 12.1344C119.56 12.161 119.309 12.273 119.128 12.4704C118.947 12.6677 118.856 12.9104 118.856 13.1984C118.856 13.6144 119.035 13.9104 119.392 14.0864L119.392 15.2944C118.965 15.1664 118.613 14.921 118.336 14.5584C118.064 14.1957 117.928 13.7504 117.928 13.2224C117.928 12.7957 118.021 12.4117 118.208 12.0704C118.4 11.7344 118.669 11.4704 119.016 11.2784C119.363 11.0917 119.763 10.9984 120.216 10.9984C120.675 10.9984 121.077 11.0917 121.424 11.2784C121.771 11.465 122.037 11.7264 122.224 12.0624C122.411 12.3984 122.504 12.785 122.504 13.2224C122.504 13.6437 122.413 14.0197 122.232 14.3504C122.051 14.6864 121.792 14.945 121.456 15.1264C121.125 15.313 120.744 15.4064 120.312 15.4064ZM120.632 14.2464C120.92 14.241 121.149 14.137 121.32 13.9344C121.496 13.7317 121.584 13.4837 121.584 13.1904C121.584 12.913 121.499 12.6784 121.328 12.4864C121.163 12.2997 120.931 12.185 120.632 12.1424L120.632 14.2464ZM121.792 17.3439C121.995 17.4879 122.163 17.6852 122.296 17.9359C122.435 18.1919 122.504 18.4825 122.504 18.8079C122.504 19.1865 122.411 19.5279 122.224 19.8319C122.037 20.1412 121.771 20.3839 121.424 20.5599C121.083 20.7412 120.685 20.8319 120.232 20.8319C119.779 20.8319 119.376 20.7412 119.024 20.5599C118.677 20.3839 118.408 20.1412 118.216 19.8319C118.024 19.5279 117.928 19.1865 117.928 18.8079C117.928 18.4825 117.995 18.1945 118.128 17.9439C118.261 17.6985 118.429 17.4985 118.632 17.3439L115.888 17.3439L115.888 16.2239L122.432 16.2239L122.432 17.3439L121.792 17.3439ZM120.232 19.6879C120.499 19.6879 120.728 19.6319 120.92 19.5199C121.117 19.4132 121.267 19.2692 121.368 19.0879C121.469 18.9119 121.52 18.7199 121.52 18.5119C121.52 18.3092 121.467 18.1172 121.36 17.9359C121.259 17.7599 121.109 17.6159 120.912 17.5039C120.715 17.3972 120.483 17.3439 120.216 17.3439C119.949 17.3439 119.717 17.3972 119.52 17.5039C119.323 17.6159 119.171 17.7599 119.064 17.9359C118.963 18.1172 118.912 18.3092 118.912 18.5119C118.912 18.7199 118.965 18.9119 119.072 19.0879C119.179 19.2692 119.331 19.4132 119.528 19.5199C119.725 19.6319 119.96 19.6879 120.232 19.6879ZM120.232 21.3577C120.68 21.3577 121.077 21.4457 121.424 21.6217C121.771 21.8031 122.037 22.0457 122.224 22.3497C122.411 22.6591 122.504 23.0031 122.504 23.3817C122.504 23.7124 122.437 24.0004 122.304 24.2457C122.171 24.4964 122.003 24.6964 121.8 24.8457L122.432 24.8457L122.432 25.9737L118 25.9737L118 24.8457L118.648 24.8457C118.44 24.7017 118.267 24.5017 118.128 24.2457C117.995 23.9951 117.928 23.7044 117.928 23.3737C117.928 23.0004 118.024 22.6591 118.216 22.3497C118.408 22.0457 118.677 21.8031 119.024 21.6217C119.376 21.4457 119.779 21.3577 120.232 21.3577ZM120.216 24.8457C120.488 24.8457 120.72 24.7924 120.912 24.6857C121.109 24.5791 121.259 24.4351 121.36 24.2537C121.467 24.0724 121.52 23.8777 121.52 23.6697C121.52 23.4617 121.469 23.2697 121.368 23.0937C121.267 22.9177 121.117 22.7737 120.92 22.6617C120.728 22.5551 120.499 22.5017 120.232 22.5017C119.965 22.5017 119.731 22.5551 119.528 22.6617C119.331 22.7737 119.179 22.9177 119.072 23.0937C118.965 23.2751 118.912 23.4671 118.912 23.6697C118.912 23.8777 118.963 24.0724 119.064 24.2537C119.171 24.4351 119.32 24.5791 119.512 24.6857C119.709 24.7924 119.944 24.8457 120.216 24.8457ZM121.744 28.1876C121.979 28.3316 122.163 28.5183 122.296 28.7476C122.429 28.9823 122.496 29.249 122.496 29.5476L121.32 29.5476L121.32 29.2516C121.32 28.8996 121.237 28.633 121.072 28.4516C120.907 28.2756 120.619 28.1876 120.208 28.1876L118 28.1876L118 27.0676L122.432 27.0676L122.432 28.1876L121.744 28.1876ZM121.512 31.606L119.368 31.606C119.219 31.606 119.109 31.6407 119.04 31.71C118.976 31.7847 118.944 31.9073 118.944 32.078L118.944 32.598L118 32.598L118 31.894C118 30.95 118.459 30.478 119.376 30.478L121.512 30.478L121.512 29.95L122.432 29.95L122.432 30.478L123.528 30.478L123.528 31.606L122.432 31.606L122.432 32.598L121.512 32.598L121.512 31.606ZM122.496 38.9076C122.496 39.4516 122.328 39.8889 121.992 40.2196C121.661 40.5556 121.197 40.7236 120.6 40.7236L118 40.7236L118 39.6036L120.448 39.6036C120.795 39.6036 121.059 39.5156 121.24 39.3396C121.427 39.1636 121.52 38.9236 121.52 38.6196C121.52 38.3156 121.427 38.0729 121.24 37.8916C121.059 37.7156 120.795 37.6276 120.448 37.6276L118 37.6276L118 36.5076L120.448 36.5076C120.795 36.5076 121.059 36.4196 121.24 36.2436C121.427 36.0676 121.52 35.8276 121.52 35.5236C121.52 35.2142 121.427 34.9689 121.24 34.7876C121.059 34.6116 120.795 34.5236 120.448 34.5236L118 34.5236L118 33.4036L122.432 33.4036L122.432 34.5236L121.896 34.5236C122.083 34.6676 122.229 34.8516 122.336 35.0756C122.443 35.3049 122.496 35.5556 122.496 35.8276C122.496 36.1742 122.421 36.4836 122.272 36.7556C122.128 37.0276 121.92 37.2382 121.648 37.3876C121.904 37.5316 122.109 37.7396 122.264 38.0116C122.419 38.2889 122.496 38.5876 122.496 38.9076ZM120.312 45.9064C120.152 45.9064 120.008 45.8957 119.88 45.8744L119.88 42.6344C119.56 42.661 119.309 42.773 119.128 42.9704C118.947 43.1677 118.856 43.4104 118.856 43.6984C118.856 44.1144 119.035 44.4104 119.392 44.5864L119.392 45.7944C118.965 45.6664 118.613 45.421 118.336 45.0584C118.064 44.6957 117.928 44.2504 117.928 43.7224C117.928 43.2957 118.021 42.9117 118.208 42.5704C118.4 42.2344 118.669 41.9704 119.016 41.7784C119.363 41.5917 119.763 41.4984 120.216 41.4984C120.675 41.4984 121.077 41.5917 121.424 41.7784C121.771 41.965 122.037 42.2264 122.224 42.5624C122.411 42.8984 122.504 43.285 122.504 43.7224C122.504 44.1437 122.413 44.5197 122.232 44.8504C122.051 45.1864 121.792 45.445 121.456 45.6264C121.125 45.813 120.744 45.9064 120.312 45.9064ZM120.632 44.7464C120.92 44.741 121.149 44.637 121.32 44.4344C121.496 44.2317 121.584 43.9837 121.584 43.6904C121.584 43.413 121.499 43.1784 121.328 42.9864C121.163 42.7997 120.931 42.685 120.632 42.6424L120.632 44.7464ZM122.496 49.1799C122.496 49.7079 122.328 50.1345 121.992 50.4599C121.661 50.7852 121.197 50.9479 120.6 50.9479L118 50.9479L118 49.8279L120.448 49.8279C120.8 49.8279 121.069 49.7399 121.256 49.5639C121.448 49.3879 121.544 49.1479 121.544 48.8439C121.544 48.5345 121.448 48.2892 121.256 48.1079C121.069 47.9319 120.8 47.8439 120.448 47.8439L118 47.8439L118 46.7239L122.432 46.7239L122.432 47.8439L121.88 47.8439C122.072 47.9932 122.221 48.1825 122.328 48.4119C122.44 48.6465 122.496 48.9025 122.496 49.1799ZM121.512 53.3169L119.368 53.3169C119.219 53.3169 119.109 53.3516 119.04 53.4209C118.976 53.4956 118.944 53.6183 118.944 53.7889L118.944 54.3089L118 54.3089L118 53.6049C118 52.6609 118.459 52.1889 119.376 52.1889L121.512 52.1889L121.512 51.6609L122.432 51.6609L122.432 52.1889L123.528 52.1889L123.528 53.3169L122.432 53.3169L122.432 54.3089L121.512 54.3089L121.512 53.3169ZM105.944 8.144C105.944 7.62133 106.067 7.14133 106.312 6.704C106.557 6.26667 106.896 5.92 107.328 5.664C107.765 5.408 108.259 5.28 108.808 5.28C109.352 5.28 109.84 5.408 110.272 5.664C110.709 5.92 111.051 6.26667 111.296 6.704C111.541 7.14133 111.664 7.62133 111.664 8.144C111.664 8.672 111.541 9.152 111.296 9.584C111.051 10.0213 110.709 10.3653 110.272 10.616C109.84 10.872 109.352 11 108.808 11C108.259 11 107.765 10.872 107.328 10.616C106.896 10.3653 106.557 10.0213 106.312 9.584C106.067 9.14667 105.944 8.66667 105.944 8.144ZM106.944 8.144C106.944 8.48 107.019 8.776 107.168 9.032C107.323 9.288 107.541 9.488 107.824 9.632C108.107 9.776 108.435 9.848 108.808 9.848C109.181 9.848 109.507 9.776 109.784 9.632C110.067 9.488 110.283 9.288 110.432 9.032C110.581 8.776 110.656 8.48 110.656 8.144C110.656 7.808 110.581 7.50933 110.432 7.248C110.283 6.992 110.067 6.792 109.784 6.648C109.507 6.504 109.181 6.432 108.808 6.432C108.435 6.432 108.107 6.504 107.824 6.648C107.541 6.792 107.323 6.992 107.168 7.248C107.019 7.50933 106.944 7.808 106.944 8.144ZM109.512 13.8652L109.512 13.0892L106 13.0892L106 11.9532L109.512 11.9532L109.512 11.4492L110.432 11.4492L110.432 11.9532L110.656 11.9532C111.2 11.9532 111.6 12.1079 111.856 12.4172C112.112 12.7266 112.232 13.1932 112.216 13.8172L111.272 13.8172C111.277 13.5452 111.232 13.3559 111.136 13.2492C111.04 13.1426 110.867 13.0892 110.616 13.0892L110.432 13.0892L110.432 13.8652L109.512 13.8652ZM109.512 16.6231L109.512 15.8471L106 15.8471L106 14.7111L109.512 14.7111L109.512 14.2071L110.432 14.2071L110.432 14.7111L110.656 14.7111C111.2 14.7111 111.6 14.8657 111.856 15.1751C112.112 15.4844 112.232 15.9511 112.216 16.5751L111.272 16.5751C111.277 16.3031 111.232 16.1137 111.136 16.0071C111.04 15.9004 110.867 15.8471 110.616 15.8471L110.432 15.8471L110.432 16.6231L109.512 16.6231ZM110.96 17.9169C110.96 17.7195 111.021 17.5542 111.144 17.4209C111.272 17.2929 111.429 17.2289 111.616 17.2289C111.803 17.2289 111.957 17.2929 112.08 17.4209C112.208 17.5542 112.272 17.7195 112.272 17.9169C112.272 18.1142 112.208 18.2769 112.08 18.4049C111.957 18.5382 111.803 18.6049 111.616 18.6049C111.429 18.6049 111.272 18.5382 111.144 18.4049C111.021 18.2769 110.96 18.1142 110.96 17.9169ZM110.432 18.4689L106 18.4689L106 17.3489L110.432 17.3489L110.432 18.4689ZM108.216 19.2874C108.675 19.2874 109.075 19.3808 109.416 19.5674C109.763 19.7541 110.029 20.0128 110.216 20.3434C110.408 20.6741 110.504 21.0528 110.504 21.4794C110.504 22.0288 110.365 22.4821 110.088 22.8394C109.816 23.2021 109.432 23.4448 108.936 23.5674L108.936 22.3594C109.128 22.2954 109.277 22.1861 109.384 22.0314C109.496 21.8821 109.552 21.6954 109.552 21.4714C109.552 21.1514 109.435 20.8981 109.2 20.7114C108.971 20.5248 108.643 20.4314 108.216 20.4314C107.795 20.4314 107.467 20.5248 107.232 20.7114C107.003 20.8981 106.888 21.1514 106.888 21.4714C106.888 21.9248 107.091 22.2208 107.496 22.3594L107.496 23.5674C107.016 23.4448 106.635 23.2021 106.352 22.8394C106.069 22.4768 105.928 22.0234 105.928 21.4794C105.928 21.0528 106.021 20.6741 106.208 20.3434C106.4 20.0128 106.667 19.7541 107.008 19.5674C107.355 19.3808 107.757 19.2874 108.216 19.2874ZM108.312 28.5079C108.152 28.5079 108.008 28.4973 107.88 28.4759L107.88 25.2359C107.56 25.2626 107.309 25.3746 107.128 25.5719C106.947 25.7693 106.856 26.0119 106.856 26.2999C106.856 26.7159 107.035 27.0119 107.392 27.1879L107.392 28.3959C106.965 28.2679 106.613 28.0226 106.336 27.6599C106.064 27.2973 105.928 26.8519 105.928 26.3239C105.928 25.8973 106.021 25.5133 106.208 25.1719C106.4 24.8359 106.669 24.5719 107.016 24.3799C107.363 24.1933 107.763 24.0999 108.216 24.0999C108.675 24.0999 109.077 24.1933 109.424 24.3799C109.771 24.5666 110.037 24.8279 110.224 25.1639C110.411 25.4999 110.504 25.8866 110.504 26.3239C110.504 26.7453 110.413 27.1213 110.232 27.4519C110.051 27.7879 109.792 28.0466 109.456 28.2279C109.125 28.4146 108.744 28.5079 108.312 28.5079ZM108.632 27.3479C108.92 27.3426 109.149 27.2386 109.32 27.0359C109.496 26.8333 109.584 26.5853 109.584 26.2919C109.584 26.0146 109.499 25.7799 109.328 25.5879C109.163 25.4013 108.931 25.2866 108.632 25.2439L108.632 27.3479ZM104.424 33.1677C104.925 32.6504 105.565 32.2477 106.344 31.9597C107.123 31.677 107.957 31.5357 108.848 31.5357C109.76 31.5357 110.616 31.685 111.416 31.9837C112.221 32.2824 112.88 32.717 113.392 33.2877L113.392 34.4157L113.288 34.4157C112.728 33.829 112.056 33.381 111.272 33.0717C110.488 32.7677 109.68 32.6157 108.848 32.6157C108.037 32.6157 107.253 32.7597 106.496 33.0477C105.744 33.341 105.091 33.757 104.536 34.2957L104.424 34.2957L104.424 33.1677ZM110.68 36.2345L109.28 36.2345L109.28 38.1145L108.392 38.1145L108.392 36.2345L106.912 36.2345L106.912 38.3545L106 38.3545L106 35.1145L111.592 35.1145L111.592 38.3545L110.68 38.3545L110.68 36.2345ZM111.584 45.4603L106 45.4603L106 44.3403L109.632 44.3403L106 42.8443L106 41.9963L109.632 40.4923L106 40.4923L106 39.3723L111.584 39.3723L111.584 40.6443L107.432 42.4203L111.584 44.1963L111.584 45.4603ZM111.584 50.3676L110.68 50.3676L110.68 48.8796L106 48.8796L106 47.7596L110.68 47.7596L110.68 46.2716L111.584 46.2716L111.584 50.3676ZM104.424 50.8968L104.536 50.8968C105.091 51.4355 105.744 51.8488 106.496 52.1368C107.253 52.4301 108.037 52.5768 108.848 52.5768C109.68 52.5768 110.488 52.4221 111.272 52.1128C112.056 51.8088 112.728 51.3635 113.288 50.7768L113.392 50.7768L113.392 51.9048C112.88 52.4755 112.221 52.9101 111.416 53.2088C110.616 53.5075 109.76 53.6568 108.848 53.6568C107.957 53.6568 107.123 53.5128 106.344 53.2248C105.565 52.9421 104.925 52.5421 104.424 52.0248L104.424 50.8968Z" fill="#051B29"/>
<path d="M97.5 11L97.5 27" stroke="#051B29" stroke-width="2" stroke-linecap="round"/>
<rect x="145.5" y="69.5" width="145" height="49" transform="rotate(90 145.5 69.5)" fill="#B3D6EC" stroke="#051B29"/>
<path d="M117.944 118.48C117.944 118.091 118.011 117.739 118.144 117.424C118.277 117.115 118.469 116.869 118.72 116.688C118.971 116.507 119.267 116.413 119.608 116.408L119.608 117.608C119.379 117.624 119.197 117.704 119.064 117.848C118.931 117.997 118.864 118.2 118.864 118.456C118.864 118.717 118.925 118.923 119.048 119.072C119.176 119.221 119.341 119.296 119.544 119.296C119.709 119.296 119.845 119.245 119.952 119.144C120.059 119.043 120.141 118.915 120.2 118.76C120.264 118.611 120.333 118.403 120.408 118.136C120.515 117.773 120.619 117.477 120.72 117.248C120.827 117.024 120.984 116.829 121.192 116.664C121.405 116.504 121.688 116.424 122.04 116.424C122.371 116.424 122.659 116.507 122.904 116.672C123.149 116.837 123.336 117.069 123.464 117.368C123.597 117.667 123.664 118.008 123.664 118.392C123.664 118.968 123.523 119.435 123.24 119.792C122.963 120.155 122.573 120.355 122.072 120.392L122.072 119.16C122.264 119.149 122.421 119.067 122.544 118.912C122.672 118.763 122.736 118.563 122.736 118.312C122.736 118.093 122.68 117.917 122.568 117.784C122.456 117.656 122.293 117.592 122.08 117.592C121.931 117.592 121.805 117.64 121.704 117.736C121.608 117.837 121.528 117.96 121.464 118.104C121.405 118.253 121.336 118.461 121.256 118.728C121.149 119.091 121.043 119.387 120.936 119.616C120.829 119.845 120.669 120.043 120.456 120.208C120.243 120.373 119.963 120.456 119.616 120.456C119.317 120.456 119.04 120.379 118.784 120.224C118.528 120.069 118.323 119.843 118.168 119.544C118.019 119.245 117.944 118.891 117.944 118.48ZM117.928 123.395C117.928 122.968 118.021 122.584 118.208 122.243C118.4 121.902 118.669 121.632 119.016 121.435C119.363 121.243 119.763 121.147 120.216 121.147C120.669 121.147 121.069 121.246 121.416 121.443C121.763 121.646 122.029 121.92 122.216 122.267C122.408 122.614 122.504 123 122.504 123.427C122.504 123.854 122.408 124.24 122.216 124.587C122.029 124.934 121.763 125.206 121.416 125.403C121.069 125.606 120.669 125.707 120.216 125.707C119.763 125.707 119.363 125.603 119.016 125.395C118.669 125.192 118.4 124.915 118.208 124.563C118.021 124.216 117.928 123.827 117.928 123.395ZM118.904 123.395C118.904 123.598 118.952 123.787 119.048 123.963C119.149 124.144 119.299 124.288 119.496 124.395C119.693 124.502 119.933 124.555 120.216 124.555C120.637 124.555 120.96 124.443 121.184 124.219C121.413 124 121.528 123.731 121.528 123.411C121.528 123.091 121.413 122.822 121.184 122.603C120.96 122.39 120.637 122.283 120.216 122.283C119.795 122.283 119.469 122.387 119.24 122.595C119.016 122.808 118.904 123.075 118.904 123.395ZM121.512 128.561L121.512 127.785L118 127.785L118 126.649L121.512 126.649L121.512 126.145L122.432 126.145L122.432 126.649L122.656 126.649C123.2 126.649 123.6 126.803 123.856 127.113C124.112 127.422 124.232 127.889 124.216 128.513L123.272 128.513C123.277 128.241 123.232 128.051 123.136 127.945C123.04 127.838 122.867 127.785 122.616 127.785L122.432 127.785L122.432 128.561L121.512 128.561ZM121.512 130.59L119.368 130.59C119.219 130.59 119.109 130.625 119.04 130.694C118.976 130.769 118.944 130.892 118.944 131.062L118.944 131.582L118 131.582L118 130.878C118 129.934 118.459 129.462 119.376 129.462L121.512 129.462L121.512 128.934L122.432 128.934L122.432 129.462L123.528 129.462L123.528 130.59L122.432 130.59L122.432 131.582L121.512 131.582L121.512 130.59ZM122.432 138.532L118 137.236L118 136.028L121.096 135.22L118 134.412L118 133.196L122.432 131.892L122.432 133.028L119.056 133.812L122.432 134.66L122.432 135.844L119.064 136.676L122.432 137.46L122.432 138.532ZM120.232 138.85C120.68 138.85 121.077 138.938 121.424 139.114C121.771 139.295 122.037 139.538 122.224 139.842C122.411 140.151 122.504 140.495 122.504 140.874C122.504 141.205 122.437 141.493 122.304 141.738C122.171 141.989 122.003 142.189 121.8 142.338L122.432 142.338L122.432 143.466L118 143.466L118 142.338L118.648 142.338C118.44 142.194 118.267 141.994 118.128 141.738C117.995 141.487 117.928 141.197 117.928 140.866C117.928 140.493 118.024 140.151 118.216 139.842C118.408 139.538 118.677 139.295 119.024 139.114C119.376 138.938 119.779 138.85 120.232 138.85ZM120.216 142.338C120.488 142.338 120.72 142.285 120.912 142.178C121.109 142.071 121.259 141.927 121.36 141.746C121.467 141.565 121.52 141.37 121.52 141.162C121.52 140.954 121.469 140.762 121.368 140.586C121.267 140.41 121.117 140.266 120.92 140.154C120.728 140.047 120.499 139.994 120.232 139.994C119.965 139.994 119.731 140.047 119.528 140.154C119.331 140.266 119.179 140.41 119.072 140.586C118.965 140.767 118.912 140.959 118.912 141.162C118.912 141.37 118.963 141.565 119.064 141.746C119.171 141.927 119.32 142.071 119.512 142.178C119.709 142.285 119.944 142.338 120.216 142.338ZM121.744 145.68C121.979 145.824 122.163 146.01 122.296 146.24C122.429 146.474 122.496 146.741 122.496 147.04L121.32 147.04L121.32 146.744C121.32 146.392 121.237 146.125 121.072 145.944C120.907 145.768 120.619 145.68 120.208 145.68L118 145.68L118 144.56L122.432 144.56L122.432 145.68L121.744 145.68ZM120.312 151.914C120.152 151.914 120.008 151.904 119.88 151.882L119.88 148.642C119.56 148.669 119.309 148.781 119.128 148.978C118.947 149.176 118.856 149.418 118.856 149.706C118.856 150.122 119.035 150.418 119.392 150.594L119.392 151.802C118.965 151.674 118.613 151.429 118.336 151.066C118.064 150.704 117.928 150.258 117.928 149.73C117.928 149.304 118.021 148.92 118.208 148.578C118.4 148.242 118.669 147.978 119.016 147.786C119.363 147.6 119.763 147.506 120.216 147.506C120.675 147.506 121.077 147.6 121.424 147.786C121.771 147.973 122.037 148.234 122.224 148.57C122.411 148.906 122.504 149.293 122.504 149.73C122.504 150.152 122.413 150.528 122.232 150.858C122.051 151.194 121.792 151.453 121.456 151.634C121.125 151.821 120.744 151.914 120.312 151.914ZM120.632 150.754C120.92 150.749 121.149 150.645 121.32 150.442C121.496 150.24 121.584 149.992 121.584 149.698C121.584 149.421 121.499 149.186 121.328 148.994C121.163 148.808 120.931 148.693 120.632 148.65L120.632 150.754ZM118.888 155.758L118.888 157.598L118 157.598L118 154.638L123.584 154.638L123.584 155.758L118.888 155.758ZM120.232 158.022C120.68 158.022 121.077 158.11 121.424 158.286C121.771 158.467 122.037 158.71 122.224 159.014C122.411 159.323 122.504 159.667 122.504 160.046C122.504 160.376 122.437 160.664 122.304 160.91C122.171 161.16 122.003 161.36 121.8 161.51L122.432 161.51L122.432 162.638L118 162.638L118 161.51L118.648 161.51C118.44 161.366 118.267 161.166 118.128 160.91C117.995 160.659 117.928 160.368 117.928 160.038C117.928 159.664 118.024 159.323 118.216 159.014C118.408 158.71 118.677 158.467 119.024 158.286C119.376 158.11 119.779 158.022 120.232 158.022ZM120.216 161.51C120.488 161.51 120.72 161.456 120.912 161.35C121.109 161.243 121.259 161.099 121.36 160.918C121.467 160.736 121.52 160.542 121.52 160.334C121.52 160.126 121.469 159.934 121.368 159.758C121.267 159.582 121.117 159.438 120.92 159.326C120.728 159.219 120.499 159.166 120.232 159.166C119.965 159.166 119.731 159.219 119.528 159.326C119.331 159.438 119.179 159.582 119.072 159.758C118.965 159.939 118.912 160.131 118.912 160.334C118.912 160.542 118.963 160.736 119.064 160.918C119.171 161.099 119.32 161.243 119.512 161.35C119.709 161.456 119.944 161.51 120.216 161.51ZM121.784 164.852C121.997 164.996 122.171 165.193 122.304 165.444C122.437 165.7 122.504 165.99 122.504 166.316C122.504 166.694 122.411 167.036 122.224 167.34C122.037 167.649 121.771 167.892 121.424 168.068C121.083 168.249 120.685 168.34 120.232 168.34C119.779 168.34 119.376 168.249 119.024 168.068C118.677 167.892 118.408 167.649 118.216 167.34C118.024 167.036 117.928 166.694 117.928 166.316C117.928 165.985 117.992 165.694 118.12 165.444C118.253 165.198 118.424 165.001 118.632 164.852L118 164.852L118 163.732L123.92 163.732L123.92 164.852L121.784 164.852ZM120.232 167.196C120.499 167.196 120.728 167.14 120.92 167.028C121.117 166.921 121.267 166.777 121.368 166.596C121.469 166.42 121.52 166.228 121.52 166.02C121.52 165.817 121.467 165.625 121.36 165.444C121.259 165.268 121.109 165.124 120.912 165.012C120.715 164.905 120.483 164.852 120.216 164.852C119.949 164.852 119.717 164.905 119.52 165.012C119.323 165.124 119.171 165.268 119.064 165.444C118.963 165.625 118.912 165.817 118.912 166.02C118.912 166.228 118.965 166.42 119.072 166.596C119.179 166.777 119.331 166.921 119.528 167.028C119.725 167.14 119.96 167.196 120.232 167.196Z" fill="#051B29"/>
<path d="M98 188L98 204" stroke="black" stroke-width="2" stroke-linecap="round"/>
<rect x="145.5" y="214.5" width="96" height="49" transform="rotate(90 145.5 214.5)" fill="#B3D6EC" stroke="#051B29"/>
<path d="M123.584 248.969L118 248.969L118 247.849L123.584 247.849L123.584 248.969ZM120.8 249.803C121.349 249.803 121.84 249.926 122.272 250.171C122.709 250.422 123.048 250.761 123.288 251.187C123.533 251.619 123.656 252.102 123.656 252.635C123.656 253.259 123.496 253.806 123.176 254.275C122.856 254.745 122.413 255.073 121.848 255.259L121.848 253.971C122.115 253.843 122.315 253.662 122.448 253.427C122.581 253.198 122.648 252.931 122.648 252.627C122.648 252.302 122.571 252.011 122.416 251.755C122.267 251.505 122.053 251.307 121.776 251.163C121.499 251.025 121.173 250.955 120.8 250.955C120.432 250.955 120.107 251.025 119.824 251.163C119.547 251.307 119.331 251.505 119.176 251.755C119.027 252.011 118.952 252.302 118.952 252.627C118.952 252.931 119.019 253.198 119.152 253.427C119.291 253.662 119.493 253.843 119.76 253.971L119.76 255.259C119.189 255.073 118.744 254.745 118.424 254.275C118.109 253.811 117.952 253.265 117.952 252.635C117.952 252.102 118.072 251.619 118.312 251.187C118.557 250.761 118.896 250.422 119.328 250.171C119.76 249.926 120.251 249.803 120.8 249.803ZM123.584 260.016L122.68 260.016L122.68 258.528L118 258.528L118 257.408L122.68 257.408L122.68 255.92L123.584 255.92L123.584 260.016ZM118.888 263.859L118.888 265.699L118 265.699L118 262.739L123.584 262.739L123.584 263.859L118.888 263.859ZM120.232 266.123C120.68 266.123 121.077 266.211 121.424 266.387C121.771 266.569 122.037 266.811 122.224 267.115C122.411 267.425 122.504 267.769 122.504 268.147C122.504 268.478 122.437 268.766 122.304 269.011C122.171 269.262 122.003 269.462 121.8 269.611L122.432 269.611L122.432 270.739L118 270.739L118 269.611L118.648 269.611C118.44 269.467 118.267 269.267 118.128 269.011C117.995 268.761 117.928 268.47 117.928 268.139C117.928 267.766 118.024 267.425 118.216 267.115C118.408 266.811 118.677 266.569 119.024 266.387C119.376 266.211 119.779 266.123 120.232 266.123ZM120.216 269.611C120.488 269.611 120.72 269.558 120.912 269.451C121.109 269.345 121.259 269.201 121.36 269.019C121.467 268.838 121.52 268.643 121.52 268.435C121.52 268.227 121.469 268.035 121.368 267.859C121.267 267.683 121.117 267.539 120.92 267.427C120.728 267.321 120.499 267.267 120.232 267.267C119.965 267.267 119.731 267.321 119.528 267.427C119.331 267.539 119.179 267.683 119.072 267.859C118.965 268.041 118.912 268.233 118.912 268.435C118.912 268.643 118.963 268.838 119.064 269.019C119.171 269.201 119.32 269.345 119.512 269.451C119.709 269.558 119.944 269.611 120.216 269.611ZM121.784 272.953C121.997 273.097 122.171 273.295 122.304 273.545C122.437 273.801 122.504 274.092 122.504 274.417C122.504 274.796 122.411 275.137 122.224 275.441C122.037 275.751 121.771 275.993 121.424 276.169C121.083 276.351 120.685 276.441 120.232 276.441C119.779 276.441 119.376 276.351 119.024 276.169C118.677 275.993 118.408 275.751 118.216 275.441C118.024 275.137 117.928 274.796 117.928 274.417C117.928 274.087 117.992 273.796 118.12 273.545C118.253 273.3 118.424 273.103 118.632 272.953L118 272.953L118 271.833L123.92 271.833L123.92 272.953L121.784 272.953ZM120.232 275.297C120.499 275.297 120.728 275.241 120.92 275.129C121.117 275.023 121.267 274.879 121.368 274.697C121.469 274.521 121.52 274.329 121.52 274.121C121.52 273.919 121.467 273.727 121.36 273.545C121.259 273.369 121.109 273.225 120.912 273.113C120.715 273.007 120.483 272.953 120.216 272.953C119.949 272.953 119.717 273.007 119.52 273.113C119.323 273.225 119.171 273.369 119.064 273.545C118.963 273.727 118.912 273.919 118.912 274.121C118.912 274.329 118.965 274.521 119.072 274.697C119.179 274.879 119.331 275.023 119.528 275.129C119.725 275.241 119.96 275.297 120.232 275.297Z" fill="#051B29"/>
<path d="M98 226L98 242" stroke="black" stroke-width="2" stroke-linecap="round"/>
<rect x="49.5" y="192.5" width="83" height="49" transform="rotate(90 49.5 192.5)" fill="#CCE4F2" stroke="#051B29"/>
<path d="M23.264 225.858C23.6907 226.37 24.0453 226.778 24.328 227.082C24.616 227.386 24.9147 227.639 25.224 227.842C25.5333 228.045 25.8373 228.146 26.136 228.146C26.408 228.146 26.6213 228.082 26.776 227.954C26.9307 227.826 27.008 227.629 27.008 227.362C27.008 227.095 26.9173 226.89 26.736 226.746C26.56 226.602 26.3173 226.527 26.008 226.522L26.008 225.434C26.648 225.455 27.1333 225.645 27.464 226.002C27.7947 226.365 27.96 226.823 27.96 227.378C27.96 227.986 27.7973 228.453 27.472 228.778C27.152 229.103 26.728 229.266 26.2 229.266C25.784 229.266 25.3867 229.154 25.008 228.93C24.6293 228.706 24.2987 228.45 24.016 228.162C23.7387 227.874 23.4027 227.498 23.008 227.034L23.008 229.394L22.08 229.394L22.08 225.442L22.912 225.442L23.264 225.858ZM24.992 230.1C25.9147 230.1 26.6373 230.265 27.16 230.596C27.6827 230.932 27.944 231.486 27.944 232.26C27.944 233.033 27.6827 233.585 27.16 233.916C26.6373 234.252 25.9147 234.42 24.992 234.42C24.064 234.42 23.336 234.252 22.808 233.916C22.28 233.585 22.016 233.033 22.016 232.26C22.016 231.486 22.28 230.932 22.808 230.596C23.336 230.265 24.064 230.1 24.992 230.1ZM24.992 233.316C25.3867 233.316 25.7173 233.289 25.984 233.236C26.256 233.188 26.4773 233.086 26.648 232.932C26.8187 232.782 26.904 232.558 26.904 232.26C26.904 231.961 26.8187 231.734 26.648 231.58C26.4773 231.43 26.256 231.329 25.984 231.276C25.7173 231.228 25.3867 231.204 24.992 231.204C24.5867 231.204 24.2453 231.228 23.968 231.276C23.696 231.324 23.4747 231.425 23.304 231.58C23.1387 231.734 23.056 231.961 23.056 232.26C23.056 232.558 23.1387 232.785 23.304 232.94C23.4747 233.094 23.696 233.196 23.968 233.244C24.2453 233.292 24.5867 233.316 24.992 233.316ZM26.8 235.136L27.832 235.136L27.832 237.064L22 237.064L22 235.912L26.8 235.912L26.8 235.136ZM24.992 238.17C25.9147 238.17 26.6373 238.335 27.16 238.666C27.6827 239.002 27.944 239.557 27.944 240.33C27.944 241.103 27.6827 241.655 27.16 241.986C26.6373 242.322 25.9147 242.49 24.992 242.49C24.064 242.49 23.336 242.322 22.808 241.986C22.28 241.655 22.016 241.103 22.016 240.33C22.016 239.557 22.28 239.002 22.808 238.666C23.336 238.335 24.064 238.17 24.992 238.17ZM24.992 241.386C25.3867 241.386 25.7173 241.359 25.984 241.306C26.256 241.258 26.4773 241.157 26.648 241.002C26.8187 240.853 26.904 240.629 26.904 240.33C26.904 240.031 26.8187 239.805 26.648 239.65C26.4773 239.501 26.256 239.399 25.984 239.346C25.7173 239.298 25.3867 239.274 24.992 239.274C24.5867 239.274 24.2453 239.298 23.968 239.346C23.696 239.394 23.4747 239.495 23.304 239.65C23.1387 239.805 23.056 240.031 23.056 240.33C23.056 240.629 23.1387 240.855 23.304 241.01C23.4747 241.165 23.696 241.266 23.968 241.314C24.2453 241.362 24.5867 241.386 24.992 241.386Z" fill="#051B29"/>
<path d="M48 252L48 268" stroke="black" stroke-width="2" stroke-linecap="round"/>
<rect x="49.5" y="275.5" width="83" height="49" transform="rotate(90 49.5 275.5)" fill="#CCE4F2" stroke="#051B29"/>
<path d="M23.264 307.803C23.6907 308.315 24.0453 308.723 24.328 309.027C24.616 309.331 24.9147 309.585 25.224 309.787C25.5333 309.99 25.8373 310.091 26.136 310.091C26.408 310.091 26.6213 310.027 26.776 309.899C26.9307 309.771 27.008 309.574 27.008 309.307C27.008 309.041 26.9173 308.835 26.736 308.691C26.56 308.547 26.3173 308.473 26.008 308.467L26.008 307.379C26.648 307.401 27.1333 307.59 27.464 307.947C27.7947 308.31 27.96 308.769 27.96 309.323C27.96 309.931 27.7973 310.398 27.472 310.723C27.152 311.049 26.728 311.211 26.2 311.211C25.784 311.211 25.3867 311.099 25.008 310.875C24.6293 310.651 24.2987 310.395 24.016 310.107C23.7387 309.819 23.4027 309.443 23.008 308.979L23.008 311.339L22.08 311.339L22.08 307.387L22.912 307.387L23.264 307.803ZM24.992 312.045C25.9147 312.045 26.6373 312.21 27.16 312.541C27.6827 312.877 27.944 313.432 27.944 314.205C27.944 314.978 27.6827 315.53 27.16 315.861C26.6373 316.197 25.9147 316.365 24.992 316.365C24.064 316.365 23.336 316.197 22.808 315.861C22.28 315.53 22.016 314.978 22.016 314.205C22.016 313.432 22.28 312.877 22.808 312.541C23.336 312.21 24.064 312.045 24.992 312.045ZM24.992 315.261C25.3867 315.261 25.7173 315.234 25.984 315.181C26.256 315.133 26.4773 315.032 26.648 314.877C26.8187 314.728 26.904 314.504 26.904 314.205C26.904 313.906 26.8187 313.68 26.648 313.525C26.4773 313.376 26.256 313.274 25.984 313.221C25.7173 313.173 25.3867 313.149 24.992 313.149C24.5867 313.149 24.2453 313.173 23.968 313.221C23.696 313.269 23.4747 313.37 23.304 313.525C23.1387 313.68 23.056 313.906 23.056 314.205C23.056 314.504 23.1387 314.73 23.304 314.885C23.4747 315.04 23.696 315.141 23.968 315.189C24.2453 315.237 24.5867 315.261 24.992 315.261ZM24.992 317.217C25.9147 317.217 26.6373 317.382 27.16 317.713C27.6827 318.049 27.944 318.604 27.944 319.377C27.944 320.15 27.6827 320.702 27.16 321.033C26.6373 321.369 25.9147 321.537 24.992 321.537C24.064 321.537 23.336 321.369 22.808 321.033C22.28 320.702 22.016 320.15 22.016 319.377C22.016 318.604 22.28 318.049 22.808 317.713C23.336 317.382 24.064 317.217 24.992 317.217ZM24.992 320.433C25.3867 320.433 25.7173 320.406 25.984 320.353C26.256 320.305 26.4773 320.204 26.648 320.049C26.8187 319.9 26.904 319.676 26.904 319.377C26.904 319.078 26.8187 318.852 26.648 318.697C26.4773 318.548 26.256 318.446 25.984 318.393C25.7173 318.345 25.3867 318.321 24.992 318.321C24.5867 318.321 24.2453 318.345 23.968 318.393C23.696 318.441 23.4747 318.542 23.304 318.697C23.1387 318.852 23.056 319.078 23.056 319.377C23.056 319.676 23.1387 319.902 23.304 320.057C23.4747 320.212 23.696 320.313 23.968 320.361C24.2453 320.409 24.5867 320.433 24.992 320.433ZM23.64 323.685C23.4053 323.728 23.224 323.824 23.096 323.973C22.9733 324.128 22.912 324.333 22.912 324.589C22.912 324.92 23.048 325.16 23.32 325.309C23.5973 325.458 24.0613 325.533 24.712 325.533C24.5413 325.41 24.408 325.237 24.312 325.013C24.216 324.794 24.168 324.557 24.168 324.301C24.168 323.96 24.2373 323.65 24.376 323.373C24.52 323.101 24.7307 322.885 25.008 322.725C25.2907 322.565 25.632 322.485 26.032 322.485C26.624 322.485 27.0933 322.661 27.44 323.013C27.792 323.365 27.968 323.845 27.968 324.453C27.968 325.21 27.7253 325.744 27.24 326.053C26.7547 326.368 26.024 326.525 25.048 326.525C24.3547 326.525 23.7867 326.464 23.344 326.341C22.9013 326.224 22.5653 326.018 22.336 325.725C22.1067 325.437 21.992 325.042 21.992 324.541C21.992 324.146 22.0667 323.81 22.216 323.533C22.3707 323.256 22.5707 323.042 22.816 322.893C23.0667 322.749 23.3413 322.666 23.64 322.645L23.64 323.685ZM25.08 324.533C25.08 324.81 25.1653 325.029 25.336 325.189C25.5067 325.349 25.736 325.429 26.024 325.429C26.3387 325.429 26.5813 325.344 26.752 325.173C26.928 325.008 27.016 324.781 27.016 324.493C27.016 324.205 26.9253 323.976 26.744 323.805C26.568 323.64 26.3333 323.557 26.04 323.557C25.7573 323.557 25.5253 323.637 25.344 323.797C25.168 323.962 25.08 324.208 25.08 324.533Z" fill="#051B29"/>
<path d="M48 284L48 300" stroke="black" stroke-width="2" stroke-linecap="round"/>
<rect x="49.5" y="358.5" width="83" height="49" transform="rotate(90 49.5 358.5)" fill="#0076BE" stroke="#051B29"/>
<path d="M23.264 391.237C23.6907 391.749 24.0453 392.157 24.328 392.461C24.616 392.765 24.9147 393.018 25.224 393.221C25.5333 393.424 25.8373 393.525 26.136 393.525C26.408 393.525 26.6213 393.461 26.776 393.333C26.9307 393.205 27.008 393.008 27.008 392.741C27.008 392.474 26.9173 392.269 26.736 392.125C26.56 391.981 26.3173 391.906 26.008 391.901L26.008 390.813C26.648 390.834 27.1333 391.024 27.464 391.381C27.7947 391.744 27.96 392.202 27.96 392.757C27.96 393.365 27.7973 393.832 27.472 394.157C27.152 394.482 26.728 394.645 26.2 394.645C25.784 394.645 25.3867 394.533 25.008 394.309C24.6293 394.085 24.2987 393.829 24.016 393.541C23.7387 393.253 23.4027 392.877 23.008 392.413L23.008 394.773L22.08 394.773L22.08 390.821L22.912 390.821L23.264 391.237ZM24.992 395.479C25.9147 395.479 26.6373 395.644 27.16 395.975C27.6827 396.311 27.944 396.865 27.944 397.639C27.944 398.412 27.6827 398.964 27.16 399.295C26.6373 399.631 25.9147 399.799 24.992 399.799C24.064 399.799 23.336 399.631 22.808 399.295C22.28 398.964 22.016 398.412 22.016 397.639C22.016 396.865 22.28 396.311 22.808 395.975C23.336 395.644 24.064 395.479 24.992 395.479ZM24.992 398.695C25.3867 398.695 25.7173 398.668 25.984 398.615C26.256 398.567 26.4773 398.465 26.648 398.311C26.8187 398.161 26.904 397.937 26.904 397.639C26.904 397.34 26.8187 397.113 26.648 396.959C26.4773 396.809 26.256 396.708 25.984 396.655C25.7173 396.607 25.3867 396.583 24.992 396.583C24.5867 396.583 24.2453 396.607 23.968 396.655C23.696 396.703 23.4747 396.804 23.304 396.959C23.1387 397.113 23.056 397.34 23.056 397.639C23.056 397.937 23.1387 398.164 23.304 398.319C23.4747 398.473 23.696 398.575 23.968 398.623C24.2453 398.671 24.5867 398.695 24.992 398.695ZM24.992 400.651C25.9147 400.651 26.6373 400.816 27.16 401.147C27.6827 401.483 27.944 402.037 27.944 402.811C27.944 403.584 27.6827 404.136 27.16 404.467C26.6373 404.803 25.9147 404.971 24.992 404.971C24.064 404.971 23.336 404.803 22.808 404.467C22.28 404.136 22.016 403.584 22.016 402.811C22.016 402.037 22.28 401.483 22.808 401.147C23.336 400.816 24.064 400.651 24.992 400.651ZM24.992 403.867C25.3867 403.867 25.7173 403.84 25.984 403.787C26.256 403.739 26.4773 403.637 26.648 403.483C26.8187 403.333 26.904 403.109 26.904 402.811C26.904 402.512 26.8187 402.285 26.648 402.131C26.4773 401.981 26.256 401.88 25.984 401.827C25.7173 401.779 25.3867 401.755 24.992 401.755C24.5867 401.755 24.2453 401.779 23.968 401.827C23.696 401.875 23.4747 401.976 23.304 402.131C23.1387 402.285 23.056 402.512 23.056 402.811C23.056 403.109 23.1387 403.336 23.304 403.491C23.4747 403.645 23.696 403.747 23.968 403.795C24.2453 403.843 24.5867 403.867 24.992 403.867ZM25.088 406.798C25.3653 406.265 25.7947 405.998 26.376 405.998C26.664 405.998 26.9253 406.07 27.16 406.214C27.4 406.364 27.5893 406.585 27.728 406.878C27.872 407.177 27.944 407.54 27.944 407.966C27.944 408.393 27.872 408.753 27.728 409.046C27.5893 409.345 27.4 409.566 27.16 409.71C26.9253 409.86 26.664 409.934 26.376 409.934C26.0827 409.934 25.824 409.862 25.6 409.718C25.3813 409.574 25.2107 409.382 25.088 409.142C24.96 409.436 24.7733 409.665 24.528 409.83C24.2827 409.996 23.992 410.078 23.656 410.078C23.2933 410.078 22.976 409.985 22.704 409.798C22.4373 409.617 22.232 409.366 22.088 409.046C21.944 408.726 21.872 408.366 21.872 407.966C21.872 407.566 21.944 407.206 22.088 406.886C22.232 406.572 22.4373 406.321 22.704 406.134C22.976 405.953 23.2933 405.862 23.656 405.862C23.992 405.862 24.2827 405.945 24.528 406.11C24.7787 406.276 24.9653 406.505 25.088 406.798ZM26.216 408.846C26.4773 408.846 26.68 408.766 26.824 408.606C26.968 408.452 27.04 408.238 27.04 407.966C27.04 407.7 26.968 407.486 26.824 407.326C26.68 407.172 26.4747 407.094 26.208 407.094C25.968 407.094 25.776 407.174 25.632 407.334C25.488 407.5 25.416 407.71 25.416 407.966C25.416 408.222 25.488 408.433 25.632 408.598C25.7813 408.764 25.976 408.846 26.216 408.846ZM24.6 407.966C24.6 407.662 24.5227 407.414 24.368 407.222C24.2133 407.036 23.992 406.942 23.704 406.942C23.4373 406.942 23.2187 407.033 23.048 407.214C22.8827 407.401 22.8 407.652 22.8 407.966C22.8 408.281 22.8853 408.529 23.056 408.71C23.2267 408.892 23.4427 408.982 23.704 408.982C23.9867 408.982 24.2053 408.889 24.36 408.702C24.52 408.516 24.6 408.27 24.6 407.966Z" fill="#E6F1F9"/>
<path d="M48 366L48 382" stroke="#051B29" stroke-width="2" stroke-linecap="round"/>
<rect x="49.5" y="441.5" width="56" height="49" transform="rotate(90 49.5 441.5)" fill="#E6F1F9" stroke="#051B29"/>
<path d="M31.904 451.44C32.1387 451.312 32.3173 451.136 32.44 450.912C32.5627 450.688 32.624 450.427 32.624 450.128C32.624 449.797 32.5493 449.504 32.4 449.248C32.2507 448.992 32.0373 448.792 31.76 448.648C31.4827 448.504 31.1627 448.432 30.8 448.432C30.4267 448.432 30.1013 448.504 29.824 448.648C29.5467 448.797 29.3333 449.003 29.184 449.264C29.0347 449.525 28.96 449.829 28.96 450.176C28.96 450.603 29.072 450.952 29.296 451.224C29.5253 451.496 29.8427 451.675 30.248 451.76L30.248 449.84L31.104 449.84L31.104 452.864L30.128 452.864C29.7387 452.789 29.3787 452.629 29.048 452.384C28.7173 452.139 28.4507 451.821 28.248 451.432C28.0507 451.048 27.952 450.616 27.952 450.136C27.952 449.597 28.072 449.109 28.312 448.672C28.5573 448.24 28.896 447.899 29.328 447.648C29.76 447.403 30.2507 447.28 30.8 447.28C31.3493 447.28 31.84 447.403 32.272 447.648C32.7093 447.899 33.048 448.24 33.288 448.672C33.5333 449.109 33.656 449.595 33.656 450.128C33.656 450.757 33.5013 451.304 33.192 451.768C32.888 452.232 32.4587 452.552 31.904 452.728L31.904 451.44ZM30.312 457.813C30.152 457.813 30.008 457.802 29.88 457.781L29.88 454.541C29.56 454.567 29.3093 454.679 29.128 454.877C28.9467 455.074 28.856 455.317 28.856 455.605C28.856 456.021 29.0347 456.317 29.392 456.493L29.392 457.701C28.9653 457.573 28.6133 457.327 28.336 456.965C28.064 456.602 27.928 456.157 27.928 455.629C27.928 455.202 28.0213 454.818 28.208 454.477C28.4 454.141 28.6693 453.877 29.016 453.685C29.3627 453.498 29.7627 453.405 30.216 453.405C30.6747 453.405 31.0773 453.498 31.424 453.685C31.7707 453.871 32.0373 454.133 32.224 454.469C32.4107 454.805 32.504 455.191 32.504 455.629C32.504 456.05 32.4133 456.426 32.232 456.757C32.0507 457.093 31.792 457.351 31.456 457.533C31.1253 457.719 30.744 457.813 30.312 457.813ZM30.632 456.653C30.92 456.647 31.1493 456.543 31.32 456.341C31.496 456.138 31.584 455.89 31.584 455.597C31.584 455.319 31.4987 455.085 31.328 454.893C31.1627 454.706 30.9307 454.591 30.632 454.549L30.632 456.653ZM32.496 461.086C32.496 461.614 32.328 462.041 31.992 462.366C31.6613 462.691 31.1973 462.854 30.6 462.854L28 462.854L28 461.734L30.448 461.734C30.8 461.734 31.0693 461.646 31.256 461.47C31.448 461.294 31.544 461.054 31.544 460.75C31.544 460.441 31.448 460.195 31.256 460.014C31.0693 459.838 30.8 459.75 30.448 459.75L28 459.75L28 458.63L32.432 458.63L32.432 459.75L31.88 459.75C32.072 459.899 32.2213 460.089 32.328 460.318C32.44 460.553 32.496 460.809 32.496 461.086ZM31.512 465.223L29.368 465.223C29.2187 465.223 29.1093 465.258 29.04 465.327C28.976 465.402 28.944 465.525 28.944 465.695L28.944 466.215L28 466.215L28 465.511C28 464.567 28.4587 464.095 29.376 464.095L31.512 464.095L31.512 463.567L32.432 463.567L32.432 464.095L33.528 464.095L33.528 465.223L32.432 465.223L32.432 466.215L31.512 466.215L31.512 465.223ZM33.584 467.245L33.584 468.421L31.568 467.557L31.568 466.789L33.584 467.245ZM27.928 470.92C27.928 470.557 27.992 470.232 28.12 469.944C28.2533 469.656 28.432 469.427 28.656 469.256C28.88 469.091 29.128 469 29.4 468.984L29.4 470.112C29.2293 470.133 29.088 470.216 28.976 470.36C28.864 470.509 28.808 470.693 28.808 470.912C28.808 471.125 28.8507 471.291 28.936 471.408C29.0213 471.531 29.1307 471.592 29.264 471.592C29.408 471.592 29.5147 471.517 29.584 471.368C29.6587 471.224 29.7387 470.992 29.824 470.672C29.904 470.341 29.9867 470.069 30.072 469.856C30.1573 469.648 30.288 469.467 30.464 469.312C30.64 469.163 30.8773 469.088 31.176 469.088C31.4213 469.088 31.6453 469.157 31.848 469.296C32.0507 469.44 32.2107 469.643 32.328 469.904C32.4453 470.171 32.504 470.483 32.504 470.84C32.504 471.368 32.3707 471.789 32.104 472.104C31.8427 472.419 31.488 472.592 31.04 472.624L31.04 471.552C31.216 471.536 31.3547 471.461 31.456 471.328C31.5627 471.2 31.616 471.027 31.616 470.808C31.616 470.605 31.5787 470.448 31.504 470.336C31.4293 470.229 31.3253 470.176 31.192 470.176C31.0427 470.176 30.928 470.251 30.848 470.4C30.7733 470.549 30.696 470.781 30.616 471.096C30.536 471.416 30.4533 471.68 30.368 471.888C30.2827 472.096 30.1493 472.275 29.968 472.424C29.792 472.579 29.5573 472.659 29.264 472.664C29.008 472.664 28.7787 472.592 28.576 472.448C28.3733 472.309 28.2133 472.107 28.096 471.84C27.984 471.579 27.928 471.272 27.928 470.92ZM21.584 455.016L16 453.456L16 452.136L19.976 451.088L16 449.992L15.992 448.68L21.584 447.176L21.584 448.376L17.248 449.36L21.584 450.496L21.584 451.744L17.272 452.816L21.584 453.808L21.584 455.016ZM18.232 455.459C18.68 455.459 19.0773 455.547 19.424 455.723C19.7707 455.905 20.0373 456.147 20.224 456.451C20.4107 456.761 20.504 457.105 20.504 457.483C20.504 457.814 20.4373 458.102 20.304 458.347C20.1707 458.598 20.0027 458.798 19.8 458.947L20.432 458.947L20.432 460.075L16 460.075L16 458.947L16.648 458.947C16.44 458.803 16.2667 458.603 16.128 458.347C15.9947 458.097 15.928 457.806 15.928 457.475C15.928 457.102 16.024 456.761 16.216 456.451C16.408 456.147 16.6773 455.905 17.024 455.723C17.376 455.547 17.7787 455.459 18.232 455.459ZM18.216 458.947C18.488 458.947 18.72 458.894 18.912 458.787C19.1093 458.681 19.2587 458.537 19.36 458.355C19.4667 458.174 19.52 457.979 19.52 457.771C19.52 457.563 19.4693 457.371 19.368 457.195C19.2667 457.019 19.1173 456.875 18.92 456.763C18.728 456.657 18.4987 456.603 18.232 456.603C17.9653 456.603 17.7307 456.657 17.528 456.763C17.3307 456.875 17.1787 457.019 17.072 457.195C16.9653 457.377 16.912 457.569 16.912 457.771C16.912 457.979 16.9627 458.174 17.064 458.355C17.1707 458.537 17.32 458.681 17.512 458.787C17.7093 458.894 17.944 458.947 18.216 458.947ZM15.928 462.865C15.928 462.503 15.992 462.177 16.12 461.889C16.2533 461.601 16.432 461.372 16.656 461.201C16.88 461.036 17.128 460.945 17.4 460.929L17.4 462.057C17.2293 462.079 17.088 462.161 16.976 462.305C16.864 462.455 16.808 462.639 16.808 462.857C16.808 463.071 16.8507 463.236 16.936 463.353C17.0213 463.476 17.1307 463.537 17.264 463.537C17.408 463.537 17.5147 463.463 17.584 463.313C17.6587 463.169 17.7387 462.937 17.824 462.617C17.904 462.287 17.9867 462.015 18.072 461.801C18.1573 461.593 18.288 461.412 18.464 461.257C18.64 461.108 18.8773 461.033 19.176 461.033C19.4213 461.033 19.6453 461.103 19.848 461.241C20.0507 461.385 20.2107 461.588 20.328 461.849C20.4453 462.116 20.504 462.428 20.504 462.785C20.504 463.313 20.3707 463.735 20.104 464.049C19.8427 464.364 19.488 464.537 19.04 464.569L19.04 463.497C19.216 463.481 19.3547 463.407 19.456 463.273C19.5627 463.145 19.616 462.972 19.616 462.753C19.616 462.551 19.5787 462.393 19.504 462.281C19.4293 462.175 19.3253 462.121 19.192 462.121C19.0427 462.121 18.928 462.196 18.848 462.345C18.7733 462.495 18.696 462.727 18.616 463.041C18.536 463.361 18.4533 463.625 18.368 463.833C18.2827 464.041 18.1493 464.22 17.968 464.369C17.792 464.524 17.5573 464.604 17.264 464.609C17.008 464.609 16.7787 464.537 16.576 464.393C16.3733 464.255 16.2133 464.052 16.096 463.785C15.984 463.524 15.928 463.217 15.928 462.865ZM20.496 468.025C20.496 468.361 20.4213 468.659 20.272 468.921C20.128 469.182 19.912 469.385 19.624 469.529C19.3413 469.678 19 469.753 18.6 469.753L16 469.753L16 468.633L18.448 468.633C18.8 468.633 19.0693 468.545 19.256 468.369C19.448 468.193 19.544 467.953 19.544 467.649C19.544 467.339 19.448 467.094 19.256 466.913C19.0693 466.737 18.8 466.649 18.448 466.649L16 466.649L16 465.529L21.92 465.529L21.92 466.649L19.88 466.649C20.072 466.793 20.2213 466.985 20.328 467.225C20.44 467.465 20.496 467.731 20.496 468.025ZM19.744 471.938C19.9787 472.082 20.1627 472.268 20.296 472.498C20.4293 472.732 20.496 472.999 20.496 473.298L19.32 473.298L19.32 473.002C19.32 472.65 19.2373 472.383 19.072 472.202C18.9067 472.026 18.6187 471.938 18.208 471.938L16 471.938L16 470.818L20.432 470.818L20.432 471.938L19.744 471.938ZM15.928 476.02C15.928 475.593 16.0213 475.209 16.208 474.868C16.4 474.527 16.6693 474.257 17.016 474.06C17.3627 473.868 17.7627 473.772 18.216 473.772C18.6693 473.772 19.0693 473.871 19.416 474.068C19.7627 474.271 20.0293 474.545 20.216 474.892C20.408 475.239 20.504 475.625 20.504 476.052C20.504 476.479 20.408 476.865 20.216 477.212C20.0293 477.559 19.7627 477.831 19.416 478.028C19.0693 478.231 18.6693 478.332 18.216 478.332C17.7627 478.332 17.3627 478.228 17.016 478.02C16.6693 477.817 16.4 477.54 16.208 477.188C16.0213 476.841 15.928 476.452 15.928 476.02ZM16.904 476.02C16.904 476.223 16.952 476.412 17.048 476.588C17.1493 476.769 17.2987 476.913 17.496 477.02C17.6933 477.127 17.9333 477.18 18.216 477.18C18.6373 477.18 18.96 477.068 19.184 476.844C19.4133 476.625 19.528 476.356 19.528 476.036C19.528 475.716 19.4133 475.447 19.184 475.228C18.96 475.015 18.6373 474.908 18.216 474.908C17.7947 474.908 17.4693 475.012 17.24 475.22C17.016 475.433 16.904 475.7 16.904 476.02ZM15.928 481.122C15.928 480.695 16.0213 480.311 16.208 479.97C16.4 479.628 16.6693 479.359 17.016 479.162C17.3627 478.97 17.7627 478.874 18.216 478.874C18.6693 478.874 19.0693 478.972 19.416 479.17C19.7627 479.372 20.0293 479.647 20.216 479.994C20.408 480.34 20.504 480.727 20.504 481.154C20.504 481.58 20.408 481.967 20.216 482.314C20.0293 482.66 19.7627 482.932 19.416 483.13C19.0693 483.332 18.6693 483.434 18.216 483.434C17.7627 483.434 17.3627 483.33 17.016 483.122C16.6693 482.919 16.4 482.642 16.208 482.29C16.0213 481.943 15.928 481.554 15.928 481.122ZM16.904 481.122C16.904 481.324 16.952 481.514 17.048 481.69C17.1493 481.871 17.2987 482.015 17.496 482.122C17.6933 482.228 17.9333 482.282 18.216 482.282C18.6373 482.282 18.96 482.17 19.184 481.946C19.4133 481.727 19.528 481.458 19.528 481.138C19.528 480.818 19.4133 480.548 19.184 480.33C18.96 480.116 18.6373 480.01 18.216 480.01C17.7947 480.01 17.4693 480.114 17.24 480.322C17.016 480.535 16.904 480.802 16.904 481.122ZM20.496 489.759C20.496 490.303 20.328 490.74 19.992 491.071C19.6613 491.407 19.1973 491.575 18.6 491.575L16 491.575L16 490.455L18.448 490.455C18.7947 490.455 19.0587 490.367 19.24 490.191C19.4267 490.015 19.52 489.775 19.52 489.471C19.52 489.167 19.4267 488.924 19.24 488.743C19.0587 488.567 18.7947 488.479 18.448 488.479L16 488.479L16 487.359L18.448 487.359C18.7947 487.359 19.0587 487.271 19.24 487.095C19.4267 486.919 19.52 486.679 19.52 486.375C19.52 486.066 19.4267 485.82 19.24 485.639C19.0587 485.463 18.7947 485.375 18.448 485.375L16 485.375L16 484.255L20.432 484.255L20.432 485.375L19.896 485.375C20.0827 485.519 20.2293 485.703 20.336 485.927C20.4427 486.156 20.496 486.407 20.496 486.679C20.496 487.026 20.4213 487.335 20.272 487.607C20.128 487.879 19.92 488.09 19.648 488.239C19.904 488.383 20.1093 488.591 20.264 488.863C20.4187 489.14 20.496 489.439 20.496 489.759Z" fill="#051B29"/>
<path d="M48 474L48 490" stroke="black" stroke-width="2" stroke-linecap="round"/>
<rect x="145.5" y="310.5" width="178" height="49" transform="rotate(90 145.5 310.5)" fill="#B3D6EC" stroke="#051B29"/>
<path d="M122.68 361.899L121.28 361.899L121.28 363.779L120.392 363.779L120.392 361.899L118.912 361.899L118.912 364.019L118 364.019L118 360.779L123.592 360.779L123.592 364.019L122.68 364.019L122.68 361.899ZM123.92 366.156L118 366.156L118 365.036L123.92 365.036L123.92 366.156ZM120.312 371.383C120.152 371.383 120.008 371.372 119.88 371.351L119.88 368.111C119.56 368.138 119.309 368.25 119.128 368.447C118.947 368.644 118.856 368.887 118.856 369.175C118.856 369.591 119.035 369.887 119.392 370.063L119.392 371.271C118.965 371.143 118.613 370.898 118.336 370.535C118.064 370.172 117.928 369.727 117.928 369.199C117.928 368.772 118.021 368.388 118.208 368.047C118.4 367.711 118.669 367.447 119.016 367.255C119.363 367.068 119.763 366.975 120.216 366.975C120.675 366.975 121.077 367.068 121.424 367.255C121.771 367.442 122.037 367.703 122.224 368.039C122.411 368.375 122.504 368.762 122.504 369.199C122.504 369.62 122.413 369.996 122.232 370.327C122.051 370.663 121.792 370.922 121.456 371.103C121.125 371.29 120.744 371.383 120.312 371.383ZM120.632 370.223C120.92 370.218 121.149 370.114 121.32 369.911C121.496 369.708 121.584 369.46 121.584 369.167C121.584 368.89 121.499 368.655 121.328 368.463C121.163 368.276 120.931 368.162 120.632 368.119L120.632 370.223ZM120.216 371.912C120.675 371.912 121.075 372.006 121.416 372.192C121.763 372.379 122.029 372.638 122.216 372.968C122.408 373.299 122.504 373.678 122.504 374.104C122.504 374.654 122.365 375.107 122.088 375.464C121.816 375.827 121.432 376.07 120.936 376.192L120.936 374.984C121.128 374.92 121.277 374.811 121.384 374.656C121.496 374.507 121.552 374.32 121.552 374.096C121.552 373.776 121.435 373.523 121.2 373.336C120.971 373.15 120.643 373.056 120.216 373.056C119.795 373.056 119.467 373.15 119.232 373.336C119.003 373.523 118.888 373.776 118.888 374.096C118.888 374.55 119.091 374.846 119.496 374.984L119.496 376.192C119.016 376.07 118.635 375.827 118.352 375.464C118.069 375.102 117.928 374.648 117.928 374.104C117.928 373.678 118.021 373.299 118.208 372.968C118.4 372.638 118.667 372.379 119.008 372.192C119.355 372.006 119.757 371.912 120.216 371.912ZM121.512 378.317L119.368 378.317C119.219 378.317 119.109 378.352 119.04 378.421C118.976 378.496 118.944 378.618 118.944 378.789L118.944 379.309L118 379.309L118 378.605C118 377.661 118.459 377.189 119.376 377.189L121.512 377.189L121.512 376.661L122.432 376.661L122.432 377.189L123.528 377.189L123.528 378.317L122.432 378.317L122.432 379.309L121.512 379.309L121.512 378.317ZM121.744 381.234C121.979 381.378 122.163 381.565 122.296 381.794C122.429 382.029 122.496 382.296 122.496 382.594L121.32 382.594L121.32 382.298C121.32 381.946 121.237 381.68 121.072 381.498C120.907 381.322 120.619 381.234 120.208 381.234L118 381.234L118 380.114L122.432 380.114L122.432 381.234L121.744 381.234ZM117.928 385.317C117.928 384.89 118.021 384.506 118.208 384.165C118.4 383.824 118.669 383.554 119.016 383.357C119.363 383.165 119.763 383.069 120.216 383.069C120.669 383.069 121.069 383.168 121.416 383.365C121.763 383.568 122.029 383.842 122.216 384.189C122.408 384.536 122.504 384.922 122.504 385.349C122.504 385.776 122.408 386.162 122.216 386.509C122.029 386.856 121.763 387.128 121.416 387.325C121.069 387.528 120.669 387.629 120.216 387.629C119.763 387.629 119.363 387.525 119.016 387.317C118.669 387.114 118.4 386.837 118.208 386.485C118.021 386.138 117.928 385.749 117.928 385.317ZM118.904 385.317C118.904 385.52 118.952 385.709 119.048 385.885C119.149 386.066 119.299 386.21 119.496 386.317C119.693 386.424 119.933 386.477 120.216 386.477C120.637 386.477 120.96 386.365 121.184 386.141C121.413 385.922 121.528 385.653 121.528 385.333C121.528 385.013 121.413 384.744 121.184 384.525C120.96 384.312 120.637 384.205 120.216 384.205C119.795 384.205 119.469 384.309 119.24 384.517C119.016 384.73 118.904 384.997 118.904 385.317ZM122.496 393.954C122.496 394.498 122.328 394.936 121.992 395.266C121.661 395.602 121.197 395.77 120.6 395.77L118 395.77L118 394.65L120.448 394.65C120.795 394.65 121.059 394.562 121.24 394.386C121.427 394.21 121.52 393.97 121.52 393.666C121.52 393.362 121.427 393.12 121.24 392.938C121.059 392.762 120.795 392.674 120.448 392.674L118 392.674L118 391.554L120.448 391.554C120.795 391.554 121.059 391.466 121.24 391.29C121.427 391.114 121.52 390.874 121.52 390.57C121.52 390.261 121.427 390.016 121.24 389.834C121.059 389.658 120.795 389.57 120.448 389.57L118 389.57L118 388.45L122.432 388.45L122.432 389.57L121.896 389.57C122.083 389.714 122.229 389.898 122.336 390.122C122.443 390.352 122.496 390.602 122.496 390.874C122.496 391.221 122.421 391.53 122.272 391.802C122.128 392.074 121.92 392.285 121.648 392.434C121.904 392.578 122.109 392.786 122.264 393.058C122.419 393.336 122.496 393.634 122.496 393.954ZM120.312 400.953C120.152 400.953 120.008 400.943 119.88 400.921L119.88 397.681C119.56 397.708 119.309 397.82 119.128 398.017C118.947 398.215 118.856 398.457 118.856 398.745C118.856 399.161 119.035 399.457 119.392 399.633L119.392 400.841C118.965 400.713 118.613 400.468 118.336 400.105C118.064 399.743 117.928 399.297 117.928 398.769C117.928 398.343 118.021 397.959 118.208 397.617C118.4 397.281 118.669 397.017 119.016 396.825C119.363 396.639 119.763 396.545 120.216 396.545C120.675 396.545 121.077 396.639 121.424 396.825C121.771 397.012 122.037 397.273 122.224 397.609C122.411 397.945 122.504 398.332 122.504 398.769C122.504 399.191 122.413 399.567 122.232 399.897C122.051 400.233 121.792 400.492 121.456 400.673C121.125 400.86 120.744 400.953 120.312 400.953ZM120.632 399.793C120.92 399.788 121.149 399.684 121.32 399.481C121.496 399.279 121.584 399.031 121.584 398.737C121.584 398.46 121.499 398.225 121.328 398.033C121.163 397.847 120.931 397.732 120.632 397.689L120.632 399.793ZM120.232 401.483C120.68 401.483 121.077 401.571 121.424 401.747C121.771 401.928 122.037 402.173 122.224 402.483C122.411 402.792 122.504 403.136 122.504 403.515C122.504 403.803 122.44 404.077 122.312 404.339C122.189 404.6 122.024 404.808 121.816 404.963L123.92 404.963L123.92 406.099L118 406.099L118 404.963L118.656 404.963C118.437 404.824 118.261 404.629 118.128 404.379C117.995 404.128 117.928 403.837 117.928 403.507C117.928 403.133 118.024 402.792 118.216 402.483C118.408 402.173 118.677 401.928 119.024 401.747C119.376 401.571 119.779 401.483 120.232 401.483ZM120.216 404.971C120.488 404.971 120.72 404.917 120.912 404.811C121.109 404.704 121.259 404.56 121.36 404.379C121.467 404.197 121.52 404.003 121.52 403.795C121.52 403.587 121.469 403.395 121.368 403.219C121.267 403.043 121.117 402.899 120.92 402.787C120.728 402.68 120.499 402.627 120.232 402.627C119.965 402.627 119.731 402.68 119.528 402.787C119.331 402.899 119.179 403.043 119.072 403.219C118.965 403.4 118.912 403.592 118.912 403.795C118.912 404.003 118.963 404.197 119.064 404.379C119.171 404.56 119.32 404.704 119.512 404.811C119.709 404.917 119.944 404.971 120.216 404.971ZM122.96 407.761C122.96 407.563 123.021 407.398 123.144 407.265C123.272 407.137 123.429 407.073 123.616 407.073C123.803 407.073 123.957 407.137 124.08 407.265C124.208 407.398 124.272 407.563 124.272 407.761C124.272 407.958 124.208 408.121 124.08 408.249C123.957 408.382 123.803 408.449 123.616 408.449C123.429 408.449 123.272 408.382 123.144 408.249C123.021 408.121 122.96 407.958 122.96 407.761ZM122.432 408.313L118 408.313L118 407.193L122.432 407.193L122.432 408.313ZM120.216 409.131C120.675 409.131 121.075 409.225 121.416 409.411C121.763 409.598 122.029 409.857 122.216 410.187C122.408 410.518 122.504 410.897 122.504 411.323C122.504 411.873 122.365 412.326 122.088 412.683C121.816 413.046 121.432 413.289 120.936 413.411L120.936 412.203C121.128 412.139 121.277 412.03 121.384 411.875C121.496 411.726 121.552 411.539 121.552 411.315C121.552 410.995 121.435 410.742 121.2 410.555C120.971 410.369 120.643 410.275 120.216 410.275C119.795 410.275 119.467 410.369 119.232 410.555C119.003 410.742 118.888 410.995 118.888 411.315C118.888 411.769 119.091 412.065 119.496 412.203L119.496 413.411C119.016 413.289 118.635 413.046 118.352 412.683C118.069 412.321 117.928 411.867 117.928 411.323C117.928 410.897 118.021 410.518 118.208 410.187C118.4 409.857 118.667 409.598 119.008 409.411C119.355 409.225 119.757 409.131 120.216 409.131ZM120.232 413.944C120.68 413.944 121.077 414.032 121.424 414.208C121.771 414.389 122.037 414.632 122.224 414.936C122.411 415.245 122.504 415.589 122.504 415.968C122.504 416.298 122.437 416.586 122.304 416.832C122.171 417.082 122.003 417.282 121.8 417.432L122.432 417.432L122.432 418.56L118 418.56L118 417.432L118.648 417.432C118.44 417.288 118.267 417.088 118.128 416.832C117.995 416.581 117.928 416.29 117.928 415.96C117.928 415.586 118.024 415.245 118.216 414.936C118.408 414.632 118.677 414.389 119.024 414.208C119.376 414.032 119.779 413.944 120.232 413.944ZM120.216 417.432C120.488 417.432 120.72 417.378 120.912 417.272C121.109 417.165 121.259 417.021 121.36 416.84C121.467 416.658 121.52 416.464 121.52 416.256C121.52 416.048 121.469 415.856 121.368 415.68C121.267 415.504 121.117 415.36 120.92 415.248C120.728 415.141 120.499 415.088 120.232 415.088C119.965 415.088 119.731 415.141 119.528 415.248C119.331 415.36 119.179 415.504 119.072 415.68C118.965 415.861 118.912 416.053 118.912 416.256C118.912 416.464 118.963 416.658 119.064 416.84C119.171 417.021 119.32 417.165 119.512 417.272C119.709 417.378 119.944 417.432 120.216 417.432ZM123.92 420.774L118 420.774L118 419.654L123.92 419.654L123.92 420.774ZM118.888 424.906L118.888 426.746L118 426.746L118 423.786L123.584 423.786L123.584 424.906L118.888 424.906ZM119.064 430.882L119.064 428.658L118 428.29L118 427.114L123.592 429.122L123.592 430.426L118 432.434L118 431.25L119.064 430.882ZM119.96 430.578L122.296 429.77L119.96 428.962L119.96 430.578ZM120.864 436.353C120.805 436.667 120.648 436.926 120.392 437.129C120.136 437.331 119.843 437.433 119.512 437.433C119.213 437.433 118.949 437.358 118.72 437.209C118.496 437.065 118.32 436.854 118.192 436.577C118.064 436.299 118 435.971 118 435.593L118 433.185L123.584 433.185L123.584 435.489C123.584 435.867 123.523 436.193 123.4 436.465C123.277 436.742 123.107 436.95 122.888 437.089C122.669 437.233 122.421 437.305 122.144 437.305C121.819 437.305 121.547 437.217 121.328 437.041C121.109 436.87 120.955 436.641 120.864 436.353ZM121.28 434.305L121.28 435.329C121.28 435.595 121.339 435.801 121.456 435.945C121.579 436.089 121.752 436.161 121.976 436.161C122.2 436.161 122.373 436.089 122.496 435.945C122.619 435.801 122.68 435.595 122.68 435.329L122.68 434.305L121.28 434.305ZM118.912 435.433C118.912 435.705 118.976 435.915 119.104 436.065C119.232 436.219 119.413 436.297 119.648 436.297C119.888 436.297 120.075 436.217 120.208 436.057C120.347 435.897 120.416 435.681 120.416 435.409L120.416 434.305L118.912 434.305L118.912 435.433Z" fill="#051B29"/>
<path d="M98 465L98 481" stroke="black" stroke-width="2" stroke-linecap="round"/>
<rect x="145.5" y="541.5" width="86" height="49" transform="rotate(90 145.5 541.5)" fill="#CCE4F2" stroke="#051B29"/>
<path d="M98 602L98 618" stroke="black" stroke-width="2" stroke-linecap="round"/>
<path d="M119.264 576.249C119.691 576.761 120.045 577.169 120.328 577.473C120.616 577.777 120.915 578.03 121.224 578.233C121.533 578.435 121.837 578.537 122.136 578.537C122.408 578.537 122.621 578.473 122.776 578.345C122.931 578.217 123.008 578.019 123.008 577.753C123.008 577.486 122.917 577.281 122.736 577.137C122.56 576.993 122.317 576.918 122.008 576.913L122.008 575.825C122.648 575.846 123.133 576.035 123.464 576.393C123.795 576.755 123.96 577.214 123.96 577.769C123.96 578.377 123.797 578.843 123.472 579.169C123.152 579.494 122.728 579.657 122.2 579.657C121.784 579.657 121.387 579.545 121.008 579.321C120.629 579.097 120.299 578.841 120.016 578.553C119.739 578.265 119.403 577.889 119.008 577.425L119.008 579.785L118.08 579.785L118.08 575.833L118.912 575.833L119.264 576.249ZM120.992 580.49C121.915 580.49 122.637 580.656 123.16 580.986C123.683 581.322 123.944 581.877 123.944 582.65C123.944 583.424 123.683 583.976 123.16 584.306C122.637 584.642 121.915 584.81 120.992 584.81C120.064 584.81 119.336 584.642 118.808 584.306C118.28 583.976 118.016 583.424 118.016 582.65C118.016 581.877 118.28 581.322 118.808 580.986C119.336 580.656 120.064 580.49 120.992 580.49ZM120.992 583.706C121.387 583.706 121.717 583.68 121.984 583.626C122.256 583.578 122.477 583.477 122.648 583.322C122.819 583.173 122.904 582.949 122.904 582.65C122.904 582.352 122.819 582.125 122.648 581.97C122.477 581.821 122.256 581.72 121.984 581.666C121.717 581.618 121.387 581.594 120.992 581.594C120.587 581.594 120.245 581.618 119.968 581.666C119.696 581.714 119.475 581.816 119.304 581.97C119.139 582.125 119.056 582.352 119.056 582.65C119.056 582.949 119.139 583.176 119.304 583.33C119.475 583.485 119.696 583.586 119.968 583.634C120.245 583.682 120.587 583.706 120.992 583.706ZM120.992 585.662C121.915 585.662 122.637 585.828 123.16 586.158C123.683 586.494 123.944 587.049 123.944 587.822C123.944 588.596 123.683 589.148 123.16 589.478C122.637 589.814 121.915 589.982 120.992 589.982C120.064 589.982 119.336 589.814 118.808 589.478C118.28 589.148 118.016 588.596 118.016 587.822C118.016 587.049 118.28 586.494 118.808 586.158C119.336 585.828 120.064 585.662 120.992 585.662ZM120.992 588.878C121.387 588.878 121.717 588.852 121.984 588.798C122.256 588.75 122.477 588.649 122.648 588.494C122.819 588.345 122.904 588.121 122.904 587.822C122.904 587.524 122.819 587.297 122.648 587.142C122.477 586.993 122.256 586.892 121.984 586.838C121.717 586.79 121.387 586.766 120.992 586.766C120.587 586.766 120.245 586.79 119.968 586.838C119.696 586.886 119.475 586.988 119.304 587.142C119.139 587.297 119.056 587.524 119.056 587.822C119.056 588.121 119.139 588.348 119.304 588.502C119.475 588.657 119.696 588.758 119.968 588.806C120.245 588.854 120.587 588.878 120.992 588.878ZM122.376 593.858C122.6 593.805 122.768 593.711 122.88 593.578C122.992 593.45 123.048 593.263 123.048 593.018C123.048 592.65 122.899 592.378 122.6 592.202C122.307 592.031 121.827 591.943 121.16 591.938C121.373 592.066 121.539 592.253 121.656 592.498C121.779 592.743 121.84 593.01 121.84 593.298C121.84 593.645 121.765 593.951 121.616 594.218C121.467 594.485 121.248 594.693 120.96 594.842C120.677 594.991 120.336 595.066 119.936 595.066C119.557 595.066 119.219 594.989 118.92 594.834C118.627 594.685 118.397 594.463 118.232 594.17C118.067 593.877 117.984 593.527 117.984 593.122C117.984 592.567 118.107 592.13 118.352 591.81C118.597 591.495 118.939 591.274 119.376 591.146C119.819 591.023 120.363 590.962 121.008 590.962C121.984 590.962 122.72 591.13 123.216 591.466C123.717 591.802 123.968 592.333 123.968 593.058C123.968 593.618 123.816 594.053 123.512 594.362C123.208 594.671 122.829 594.85 122.376 594.898L122.376 593.858ZM120.92 593.042C120.92 592.759 120.837 592.522 120.672 592.33C120.507 592.138 120.267 592.042 119.952 592.042C119.637 592.042 119.389 592.13 119.208 592.306C119.027 592.487 118.936 592.741 118.936 593.066C118.936 593.354 119.024 593.581 119.2 593.746C119.376 593.917 119.613 594.002 119.912 594.002C120.221 594.002 120.467 593.919 120.648 593.754C120.829 593.594 120.92 593.357 120.92 593.042Z" fill="#051B29"/>
<rect x="145.5" y="488.5" width="53" height="49" transform="rotate(90 145.5 488.5)" fill="#78BFEC" stroke="#051B29"/>
<path d="M135.584 499.352L134.68 499.352L134.68 497.864L130 497.864L130 496.744L134.68 496.744L134.68 495.256L135.584 495.256L135.584 499.352ZM132.312 504.289C132.152 504.289 132.008 504.279 131.88 504.257L131.88 501.017C131.56 501.044 131.309 501.156 131.128 501.353C130.947 501.551 130.856 501.793 130.856 502.081C130.856 502.497 131.035 502.793 131.392 502.969L131.392 504.177C130.965 504.049 130.613 503.804 130.336 503.441C130.064 503.079 129.928 502.633 129.928 502.105C129.928 501.679 130.021 501.295 130.208 500.953C130.4 500.617 130.669 500.353 131.016 500.161C131.363 499.975 131.763 499.881 132.216 499.881C132.675 499.881 133.077 499.975 133.424 500.161C133.771 500.348 134.037 500.609 134.224 500.945C134.411 501.281 134.504 501.668 134.504 502.105C134.504 502.527 134.413 502.903 134.232 503.233C134.051 503.569 133.792 503.828 133.456 504.009C133.125 504.196 132.744 504.289 132.312 504.289ZM132.632 503.129C132.92 503.124 133.149 503.02 133.32 502.817C133.496 502.615 133.584 502.367 133.584 502.073C133.584 501.796 133.499 501.561 133.328 501.369C133.163 501.183 132.931 501.068 132.632 501.025L132.632 503.129ZM132.232 504.819C132.68 504.819 133.077 504.907 133.424 505.083C133.771 505.264 134.037 505.507 134.224 505.811C134.411 506.12 134.504 506.464 134.504 506.843C134.504 507.173 134.437 507.461 134.304 507.707C134.171 507.957 134.003 508.157 133.8 508.307L134.432 508.307L134.432 509.435L130 509.435L130 508.307L130.648 508.307C130.44 508.163 130.267 507.963 130.128 507.707C129.995 507.456 129.928 507.165 129.928 506.835C129.928 506.461 130.024 506.12 130.216 505.811C130.408 505.507 130.677 505.264 131.024 505.083C131.376 504.907 131.779 504.819 132.232 504.819ZM132.216 508.307C132.488 508.307 132.72 508.253 132.912 508.147C133.109 508.04 133.259 507.896 133.36 507.715C133.467 507.533 133.52 507.339 133.52 507.131C133.52 506.923 133.469 506.731 133.368 506.555C133.267 506.379 133.117 506.235 132.92 506.123C132.728 506.016 132.499 505.963 132.232 505.963C131.965 505.963 131.731 506.016 131.528 506.123C131.331 506.235 131.179 506.379 131.072 506.555C130.965 506.736 130.912 506.928 130.912 507.131C130.912 507.339 130.963 507.533 131.064 507.715C131.171 507.896 131.32 508.04 131.512 508.147C131.709 508.253 131.944 508.307 132.216 508.307ZM132.216 510.241C132.675 510.241 133.075 510.334 133.416 510.521C133.763 510.707 134.029 510.966 134.216 511.297C134.408 511.627 134.504 512.006 134.504 512.433C134.504 512.982 134.365 513.435 134.088 513.793C133.816 514.155 133.432 514.398 132.936 514.521L132.936 513.313C133.128 513.249 133.277 513.139 133.384 512.985C133.496 512.835 133.552 512.649 133.552 512.425C133.552 512.105 133.435 511.851 133.2 511.665C132.971 511.478 132.643 511.385 132.216 511.385C131.795 511.385 131.467 511.478 131.232 511.665C131.003 511.851 130.888 512.105 130.888 512.425C130.888 512.878 131.091 513.174 131.496 513.313L131.496 514.521C131.016 514.398 130.635 514.155 130.352 513.793C130.069 513.43 129.928 512.977 129.928 512.433C129.928 512.006 130.021 511.627 130.208 511.297C130.4 510.966 130.667 510.707 131.008 510.521C131.355 510.334 131.757 510.241 132.216 510.241ZM134.496 517.837C134.496 518.173 134.421 518.472 134.272 518.733C134.128 518.994 133.912 519.197 133.624 519.341C133.341 519.49 133 519.565 132.6 519.565L130 519.565L130 518.445L132.448 518.445C132.8 518.445 133.069 518.357 133.256 518.181C133.448 518.005 133.544 517.765 133.544 517.461C133.544 517.152 133.448 516.906 133.256 516.725C133.069 516.549 132.8 516.461 132.448 516.461L130 516.461L130 515.341L135.92 515.341L135.92 516.461L133.88 516.461C134.072 516.605 134.221 516.797 134.328 517.037C134.44 517.277 134.496 517.544 134.496 517.837ZM132.312 524.75C132.152 524.75 132.008 524.739 131.88 524.718L131.88 521.478C131.56 521.505 131.309 521.617 131.128 521.814C130.947 522.011 130.856 522.254 130.856 522.542C130.856 522.958 131.035 523.254 131.392 523.43L131.392 524.638C130.965 524.51 130.613 524.265 130.336 523.902C130.064 523.539 129.928 523.094 129.928 522.566C129.928 522.139 130.021 521.755 130.208 521.414C130.4 521.078 130.669 520.814 131.016 520.622C131.363 520.435 131.763 520.342 132.216 520.342C132.675 520.342 133.077 520.435 133.424 520.622C133.771 520.809 134.037 521.07 134.224 521.406C134.411 521.742 134.504 522.129 134.504 522.566C134.504 522.987 134.413 523.363 134.232 523.694C134.051 524.03 133.792 524.289 133.456 524.47C133.125 524.657 132.744 524.75 132.312 524.75ZM132.632 523.59C132.92 523.585 133.149 523.481 133.32 523.278C133.496 523.075 133.584 522.827 133.584 522.534C133.584 522.257 133.499 522.022 133.328 521.83C133.163 521.643 132.931 521.529 132.632 521.486L132.632 523.59ZM133.744 526.688C133.979 526.832 134.163 527.018 134.296 527.248C134.429 527.482 134.496 527.749 134.496 528.048L133.32 528.048L133.32 527.752C133.32 527.4 133.237 527.133 133.072 526.952C132.907 526.776 132.619 526.688 132.208 526.688L130 526.688L130 525.568L134.432 525.568L134.432 526.688L133.744 526.688ZM135.584 529.026L135.584 530.202L133.568 529.338L133.568 528.57L135.584 529.026ZM129.928 532.701C129.928 532.338 129.992 532.013 130.12 531.725C130.253 531.437 130.432 531.208 130.656 531.037C130.88 530.872 131.128 530.781 131.4 530.765L131.4 531.893C131.229 531.914 131.088 531.997 130.976 532.141C130.864 532.29 130.808 532.474 130.808 532.693C130.808 532.906 130.851 533.072 130.936 533.189C131.021 533.312 131.131 533.373 131.264 533.373C131.408 533.373 131.515 533.298 131.584 533.149C131.659 533.005 131.739 532.773 131.824 532.453C131.904 532.122 131.987 531.85 132.072 531.637C132.157 531.429 132.288 531.248 132.464 531.093C132.64 530.944 132.877 530.869 133.176 530.869C133.421 530.869 133.645 530.938 133.848 531.077C134.051 531.221 134.211 531.424 134.328 531.685C134.445 531.952 134.504 532.264 134.504 532.621C134.504 533.149 134.371 533.57 134.104 533.885C133.843 534.2 133.488 534.373 133.04 534.405L133.04 533.333C133.216 533.317 133.355 533.242 133.456 533.109C133.563 532.981 133.616 532.808 133.616 532.589C133.616 532.386 133.579 532.229 133.504 532.117C133.429 532.01 133.325 531.957 133.192 531.957C133.043 531.957 132.928 532.032 132.848 532.181C132.773 532.33 132.696 532.562 132.616 532.877C132.536 533.197 132.453 533.461 132.368 533.669C132.283 533.877 132.149 534.056 131.968 534.205C131.792 534.36 131.557 534.44 131.264 534.445C131.008 534.445 130.779 534.373 130.576 534.229C130.373 534.09 130.213 533.888 130.096 533.621C129.984 533.36 129.928 533.053 129.928 532.701ZM118 498.432L120.176 497.2L120.176 496.672L118 496.672L118 495.552L123.584 495.552L123.584 497.648C123.584 498.08 123.507 498.448 123.352 498.752C123.203 499.056 122.997 499.283 122.736 499.432C122.48 499.587 122.192 499.664 121.872 499.664C121.504 499.664 121.171 499.557 120.872 499.344C120.579 499.131 120.376 498.813 120.264 498.392L118 499.728L118 498.432ZM121.016 496.672L121.016 497.608C121.016 497.912 121.088 498.139 121.232 498.288C121.381 498.437 121.587 498.512 121.848 498.512C122.104 498.512 122.301 498.437 122.44 498.288C122.584 498.139 122.656 497.912 122.656 497.608L122.656 496.672L121.016 496.672ZM117.928 502.645C117.928 502.218 118.021 501.834 118.208 501.493C118.4 501.152 118.669 500.882 119.016 500.685C119.363 500.493 119.763 500.397 120.216 500.397C120.669 500.397 121.069 500.496 121.416 500.693C121.763 500.896 122.029 501.17 122.216 501.517C122.408 501.864 122.504 502.25 122.504 502.677C122.504 503.104 122.408 503.49 122.216 503.837C122.029 504.184 121.763 504.456 121.416 504.653C121.069 504.856 120.669 504.957 120.216 504.957C119.763 504.957 119.363 504.853 119.016 504.645C118.669 504.442 118.4 504.165 118.208 503.813C118.021 503.466 117.928 503.077 117.928 502.645ZM118.904 502.645C118.904 502.848 118.952 503.037 119.048 503.213C119.149 503.394 119.299 503.538 119.496 503.645C119.693 503.752 119.933 503.805 120.216 503.805C120.637 503.805 120.96 503.693 121.184 503.469C121.413 503.25 121.528 502.981 121.528 502.661C121.528 502.341 121.413 502.072 121.184 501.853C120.96 501.64 120.637 501.533 120.216 501.533C119.795 501.533 119.469 501.637 119.24 501.845C119.016 502.058 118.904 502.325 118.904 502.645ZM117.928 507.747C117.928 507.32 118.021 506.936 118.208 506.595C118.4 506.253 118.669 505.984 119.016 505.787C119.363 505.595 119.763 505.499 120.216 505.499C120.669 505.499 121.069 505.597 121.416 505.795C121.763 505.997 122.029 506.272 122.216 506.619C122.408 506.965 122.504 507.352 122.504 507.779C122.504 508.205 122.408 508.592 122.216 508.939C122.029 509.285 121.763 509.557 121.416 509.755C121.069 509.957 120.669 510.059 120.216 510.059C119.763 510.059 119.363 509.955 119.016 509.747C118.669 509.544 118.4 509.267 118.208 508.915C118.021 508.568 117.928 508.179 117.928 507.747ZM118.904 507.747C118.904 507.949 118.952 508.139 119.048 508.315C119.149 508.496 119.299 508.64 119.496 508.747C119.693 508.853 119.933 508.907 120.216 508.907C120.637 508.907 120.96 508.795 121.184 508.571C121.413 508.352 121.528 508.083 121.528 507.763C121.528 507.443 121.413 507.173 121.184 506.955C120.96 506.741 120.637 506.635 120.216 506.635C119.795 506.635 119.469 506.739 119.24 506.947C119.016 507.16 118.904 507.427 118.904 507.747ZM122.496 516.384C122.496 516.928 122.328 517.365 121.992 517.696C121.661 518.032 121.197 518.2 120.6 518.2L118 518.2L118 517.08L120.448 517.08C120.795 517.08 121.059 516.992 121.24 516.816C121.427 516.64 121.52 516.4 121.52 516.096C121.52 515.792 121.427 515.549 121.24 515.368C121.059 515.192 120.795 515.104 120.448 515.104L118 515.104L118 513.984L120.448 513.984C120.795 513.984 121.059 513.896 121.24 513.72C121.427 513.544 121.52 513.304 121.52 513C121.52 512.691 121.427 512.445 121.24 512.264C121.059 512.088 120.795 512 120.448 512L118 512L118 510.88L122.432 510.88L122.432 512L121.896 512C122.083 512.144 122.229 512.328 122.336 512.552C122.443 512.781 122.496 513.032 122.496 513.304C122.496 513.651 122.421 513.96 122.272 514.232C122.128 514.504 121.92 514.715 121.648 514.864C121.904 515.008 122.109 515.216 122.264 515.488C122.419 515.765 122.496 516.064 122.496 516.384ZM104.424 497.488C104.925 496.971 105.565 496.568 106.344 496.28C107.123 495.997 107.957 495.856 108.848 495.856C109.76 495.856 110.616 496.005 111.416 496.304C112.221 496.603 112.88 497.037 113.392 497.608L113.392 498.736L113.288 498.736C112.728 498.149 112.056 497.701 111.272 497.392C110.488 497.088 109.68 496.936 108.848 496.936C108.037 496.936 107.253 497.08 106.496 497.368C105.744 497.661 105.091 498.077 104.536 498.616L104.424 498.616L104.424 497.488ZM110.68 500.555L109.28 500.555L109.28 502.435L108.392 502.435L108.392 500.555L106.912 500.555L106.912 502.675L106 502.675L106 499.435L111.592 499.435L111.592 502.675L110.68 502.675L110.68 500.555ZM111.584 509.781L106 509.781L106 508.661L109.632 508.661L106 507.165L106 506.317L109.632 504.813L106 504.813L106 503.693L111.584 503.693L111.584 504.965L107.432 506.741L111.584 508.517L111.584 509.781ZM111.584 514.688L110.68 514.688L110.68 513.2L106 513.2L106 512.08L110.68 512.08L110.68 510.592L111.584 510.592L111.584 514.688ZM104.424 515.217L104.536 515.217C105.091 515.756 105.744 516.169 106.496 516.457C107.253 516.75 108.037 516.897 108.848 516.897C109.68 516.897 110.488 516.742 111.272 516.433C112.056 516.129 112.728 515.684 113.288 515.097L113.392 515.097L113.392 516.225C112.88 516.796 112.221 517.23 111.416 517.529C110.616 517.828 109.76 517.977 108.848 517.977C107.957 517.977 107.123 517.833 106.344 517.545C105.565 517.262 104.925 516.862 104.424 516.345L104.424 515.217Z" fill="#051B29"/>
<path d="M98 507L98 523" stroke="black" stroke-width="2" stroke-linecap="round"/>
<path d="M73 372L73 171" stroke="#B3D6EC" stroke-width="5" stroke-linecap="round" stroke-dasharray="10 10"/>
<path d="M73 171L45 171" stroke="#B3D6EC" stroke-width="5" stroke-linecap="round" stroke-dasharray="10 10"/>
<path d="M73 372L53 372" stroke="#B3D6EC" stroke-width="5" stroke-linecap="round" stroke-dasharray="10 10"/>
</svg>
