<svg width="146" height="486" viewBox="0 0 146 486" fill="none" xmlns="http://www.w3.org/2000/svg">
<rect x="145.5" y="0.5" width="485" height="95" transform="rotate(90 145.5 0.5)" fill="#E6F1F9" stroke="#051B29"/>
<path d="M28 138L28 277" stroke="black" stroke-width="2" stroke-linecap="round"/>
<rect x="145.5" y="65.5" width="72" height="49" transform="rotate(90 145.5 65.5)" fill="#CCE4F2" stroke="#051B29"/>
<path d="M122.296 95.1266C122.829 95.1533 123.24 95.34 123.528 95.6866C123.821 96.0386 123.968 96.5 123.968 97.0706C123.968 97.46 123.899 97.7933 123.76 98.0706C123.627 98.348 123.443 98.556 123.208 98.6946C122.979 98.8386 122.717 98.9106 122.424 98.9106C122.088 98.9106 121.803 98.8226 121.568 98.6466C121.339 98.476 121.184 98.2706 121.104 98.0306L121.072 98.0306C120.976 98.34 120.805 98.58 120.56 98.7506C120.315 98.9266 120 99.0146 119.616 99.0146C119.296 99.0146 119.011 98.94 118.76 98.7906C118.509 98.6466 118.312 98.4306 118.168 98.1426C118.029 97.86 117.96 97.5186 117.96 97.1186C117.96 96.516 118.112 96.0253 118.416 95.6466C118.72 95.268 119.168 95.068 119.76 95.0466L119.76 96.1346C119.499 96.1453 119.288 96.2333 119.128 96.3986C118.973 96.5693 118.896 96.8013 118.896 97.0946C118.896 97.3666 118.971 97.5746 119.12 97.7186C119.275 97.868 119.472 97.9426 119.712 97.9426C120.032 97.9426 120.261 97.8413 120.4 97.6386C120.539 97.436 120.608 97.1213 120.608 96.6946L120.608 96.4626L121.528 96.4626L121.528 96.6946C121.528 97.452 121.781 97.8306 122.288 97.8306C122.517 97.8306 122.696 97.7613 122.824 97.6226C122.952 97.4893 123.016 97.2946 123.016 97.0386C123.016 96.788 122.947 96.5933 122.808 96.4546C122.675 96.3213 122.504 96.244 122.296 96.2226L122.296 95.1266ZM120.992 99.8997C121.915 99.8997 122.637 100.065 123.16 100.396C123.683 100.732 123.944 101.286 123.944 102.06C123.944 102.833 123.683 103.385 123.16 103.716C122.637 104.052 121.915 104.22 120.992 104.22C120.064 104.22 119.336 104.052 118.808 103.716C118.28 103.385 118.016 102.833 118.016 102.06C118.016 101.286 118.28 100.732 118.808 100.396C119.336 100.065 120.064 99.8997 120.992 99.8997ZM120.992 103.116C121.387 103.116 121.717 103.089 121.984 103.036C122.256 102.988 122.477 102.886 122.648 102.732C122.819 102.582 122.904 102.358 122.904 102.06C122.904 101.761 122.819 101.534 122.648 101.38C122.477 101.23 122.256 101.129 121.984 101.076C121.717 101.028 121.387 101.004 120.992 101.004C120.587 101.004 120.245 101.028 119.968 101.076C119.696 101.124 119.475 101.225 119.304 101.38C119.139 101.534 119.056 101.761 119.056 102.06C119.056 102.358 119.139 102.585 119.304 102.74C119.475 102.894 119.696 102.996 119.968 103.044C120.245 103.092 120.587 103.116 120.992 103.116ZM122.296 105.088C122.829 105.114 123.24 105.301 123.528 105.648C123.821 106 123.968 106.461 123.968 107.032C123.968 107.421 123.899 107.754 123.76 108.032C123.627 108.309 123.443 108.517 123.208 108.656C122.979 108.8 122.717 108.872 122.424 108.872C122.088 108.872 121.803 108.784 121.568 108.608C121.339 108.437 121.184 108.232 121.104 107.992L121.072 107.992C120.976 108.301 120.805 108.541 120.56 108.712C120.315 108.888 120 108.976 119.616 108.976C119.296 108.976 119.011 108.901 118.76 108.752C118.509 108.608 118.312 108.392 118.168 108.104C118.029 107.821 117.96 107.48 117.96 107.08C117.96 106.477 118.112 105.986 118.416 105.608C118.72 105.229 119.168 105.029 119.76 105.008L119.76 106.096C119.499 106.106 119.288 106.194 119.128 106.36C118.973 106.53 118.896 106.762 118.896 107.056C118.896 107.328 118.971 107.536 119.12 107.68C119.275 107.829 119.472 107.904 119.712 107.904C120.032 107.904 120.261 107.802 120.4 107.6C120.539 107.397 120.608 107.082 120.608 106.656L120.608 106.424L121.528 106.424L121.528 106.656C121.528 107.413 121.781 107.792 122.288 107.792C122.517 107.792 122.696 107.722 122.824 107.584C122.952 107.45 123.016 107.256 123.016 107C123.016 106.749 122.947 106.554 122.808 106.416C122.675 106.282 122.504 106.205 122.296 106.184L122.296 105.088Z" fill="#051B29"/>
<path d="M98 97.0076L98 111.046" stroke="black" stroke-width="2" stroke-linecap="round"/>
<rect x="145.5" y="0.5" width="66" height="49" transform="rotate(90 145.5 0.5)" fill="#CCE4F2" stroke="#051B29"/>
<path d="M122.296 26.8304C122.829 26.8571 123.24 27.0438 123.528 27.3904C123.821 27.7424 123.968 28.2038 123.968 28.7744C123.968 29.1638 123.899 29.4971 123.76 29.7744C123.627 30.0518 123.443 30.2598 123.208 30.3984C122.979 30.5424 122.717 30.6144 122.424 30.6144C122.088 30.6144 121.803 30.5264 121.568 30.3504C121.339 30.1798 121.184 29.9744 121.104 29.7344L121.072 29.7344C120.976 30.0438 120.805 30.2838 120.56 30.4544C120.315 30.6304 120 30.7184 119.616 30.7184C119.296 30.7184 119.011 30.6438 118.76 30.4944C118.509 30.3504 118.312 30.1344 118.168 29.8464C118.029 29.5638 117.96 29.2224 117.96 28.8224C117.96 28.2198 118.112 27.7291 118.416 27.3504C118.72 26.9718 119.168 26.7718 119.76 26.7504L119.76 27.8384C119.499 27.8491 119.288 27.9371 119.128 28.1024C118.973 28.2731 118.896 28.5051 118.896 28.7984C118.896 29.0704 118.971 29.2784 119.12 29.4224C119.275 29.5718 119.472 29.6464 119.712 29.6464C120.032 29.6464 120.261 29.5451 120.4 29.3424C120.539 29.1398 120.608 28.8251 120.608 28.3984L120.608 28.1664L121.528 28.1664L121.528 28.3984C121.528 29.1558 121.781 29.5344 122.288 29.5344C122.517 29.5344 122.696 29.4651 122.824 29.3264C122.952 29.1931 123.016 28.9984 123.016 28.7424C123.016 28.4918 122.947 28.2971 122.808 28.1584C122.675 28.0251 122.504 27.9478 122.296 27.9264L122.296 26.8304ZM120.992 31.6035C121.915 31.6035 122.637 31.7688 123.16 32.0995C123.683 32.4355 123.944 32.9902 123.944 33.7635C123.944 34.5368 123.683 35.0888 123.16 35.4195C122.637 35.7555 121.915 35.9235 120.992 35.9235C120.064 35.9235 119.336 35.7555 118.808 35.4195C118.28 35.0888 118.016 34.5368 118.016 33.7635C118.016 32.9902 118.28 32.4355 118.808 32.0995C119.336 31.7688 120.064 31.6035 120.992 31.6035ZM120.992 34.8195C121.387 34.8195 121.717 34.7928 121.984 34.7395C122.256 34.6915 122.477 34.5902 122.648 34.4355C122.819 34.2862 122.904 34.0622 122.904 33.7635C122.904 33.4648 122.819 33.2382 122.648 33.0835C122.477 32.9342 122.256 32.8328 121.984 32.7795C121.717 32.7315 121.387 32.7075 120.992 32.7075C120.587 32.7075 120.245 32.7315 119.968 32.7795C119.696 32.8275 119.475 32.9288 119.304 33.0835C119.139 33.2382 119.056 33.4648 119.056 33.7635C119.056 34.0622 119.139 34.2888 119.304 34.4435C119.475 34.5982 119.696 34.6995 119.968 34.7475C120.245 34.7955 120.587 34.8195 120.992 34.8195ZM119.136 36.7274L120.016 36.7274L123.76 39.3434L123.76 40.6474L120.112 40.6474L120.112 41.3514L119.136 41.3514L119.136 40.6474L118 40.6474L118 39.5274L119.136 39.5274L119.136 36.7274ZM122.56 39.5994L120.112 37.9594L120.112 39.5994L122.56 39.5994Z" fill="#051B29"/>
<path d="M98 29.3768L98 42.2614" stroke="black" stroke-width="2" stroke-linecap="round"/>
<rect x="145.5" y="136.5" width="71" height="49" transform="rotate(90 145.5 136.5)" fill="#CCE4F2" stroke="#051B29"/>
<path d="M122.296 165.163C122.829 165.189 123.24 165.376 123.528 165.723C123.821 166.075 123.968 166.536 123.968 167.107C123.968 167.496 123.899 167.829 123.76 168.107C123.627 168.384 123.443 168.592 123.208 168.731C122.979 168.875 122.717 168.947 122.424 168.947C122.088 168.947 121.803 168.859 121.568 168.683C121.339 168.512 121.184 168.307 121.104 168.067L121.072 168.067C120.976 168.376 120.805 168.616 120.56 168.787C120.315 168.963 120 169.051 119.616 169.051C119.296 169.051 119.011 168.976 118.76 168.827C118.509 168.683 118.312 168.467 118.168 168.179C118.029 167.896 117.96 167.555 117.96 167.155C117.96 166.552 118.112 166.061 118.416 165.683C118.72 165.304 119.168 165.104 119.76 165.083L119.76 166.171C119.499 166.181 119.288 166.269 119.128 166.435C118.973 166.605 118.896 166.837 118.896 167.131C118.896 167.403 118.971 167.611 119.12 167.755C119.275 167.904 119.472 167.979 119.712 167.979C120.032 167.979 120.261 167.877 120.4 167.675C120.539 167.472 120.608 167.157 120.608 166.731L120.608 166.499L121.528 166.499L121.528 166.731C121.528 167.488 121.781 167.867 122.288 167.867C122.517 167.867 122.696 167.797 122.824 167.659C122.952 167.525 123.016 167.331 123.016 167.075C123.016 166.824 122.947 166.629 122.808 166.491C122.675 166.357 122.504 166.28 122.296 166.259L122.296 165.163ZM120.992 169.936C121.915 169.936 122.637 170.101 123.16 170.432C123.683 170.768 123.944 171.322 123.944 172.096C123.944 172.869 123.683 173.421 123.16 173.752C122.637 174.088 121.915 174.256 120.992 174.256C120.064 174.256 119.336 174.088 118.808 173.752C118.28 173.421 118.016 172.869 118.016 172.096C118.016 171.322 118.28 170.768 118.808 170.432C119.336 170.101 120.064 169.936 120.992 169.936ZM120.992 173.152C121.387 173.152 121.717 173.125 121.984 173.072C122.256 173.024 122.477 172.922 122.648 172.768C122.819 172.618 122.904 172.394 122.904 172.096C122.904 171.797 122.819 171.57 122.648 171.416C122.477 171.266 122.256 171.165 121.984 171.112C121.717 171.064 121.387 171.04 120.992 171.04C120.587 171.04 120.245 171.064 119.968 171.112C119.696 171.16 119.475 171.261 119.304 171.416C119.139 171.57 119.056 171.797 119.056 172.096C119.056 172.394 119.139 172.621 119.304 172.776C119.475 172.93 119.696 173.032 119.968 173.08C120.245 173.128 120.587 173.152 120.992 173.152ZM119.264 175.46C119.691 175.972 120.045 176.38 120.328 176.684C120.616 176.988 120.915 177.241 121.224 177.444C121.533 177.646 121.837 177.748 122.136 177.748C122.408 177.748 122.621 177.684 122.776 177.556C122.931 177.428 123.008 177.23 123.008 176.964C123.008 176.697 122.917 176.492 122.736 176.348C122.56 176.204 122.317 176.129 122.008 176.124L122.008 175.036C122.648 175.057 123.133 175.246 123.464 175.604C123.795 175.966 123.96 176.425 123.96 176.98C123.96 177.588 123.797 178.054 123.472 178.38C123.152 178.705 122.728 178.868 122.2 178.868C121.784 178.868 121.387 178.756 121.008 178.532C120.629 178.308 120.299 178.052 120.016 177.764C119.739 177.476 119.403 177.1 119.008 176.636L119.008 178.996L118.08 178.996L118.08 175.044L118.912 175.044L119.264 175.46Z" fill="#051B29"/>
<path d="M98 166L98 178.857" stroke="black" stroke-width="2" stroke-linecap="round"/>
<rect x="145.5" y="276.5" width="69" height="49" transform="rotate(90 145.5 276.5)" fill="#CCE4F2" stroke="#051B29"/>
<path d="M117.944 302.257C117.944 301.735 118.067 301.255 118.312 300.817C118.557 300.38 118.896 300.033 119.328 299.777C119.765 299.521 120.259 299.393 120.808 299.393C121.352 299.393 121.84 299.521 122.272 299.777C122.709 300.033 123.051 300.38 123.296 300.817C123.541 301.255 123.664 301.735 123.664 302.257C123.664 302.785 123.541 303.265 123.296 303.697C123.051 304.135 122.709 304.479 122.272 304.729C121.84 304.985 121.352 305.113 120.808 305.113C120.259 305.113 119.765 304.985 119.328 304.729C118.896 304.479 118.557 304.135 118.312 303.697C118.067 303.26 117.944 302.78 117.944 302.257ZM118.944 302.257C118.944 302.593 119.019 302.889 119.168 303.145C119.323 303.401 119.541 303.601 119.824 303.745C120.107 303.889 120.435 303.961 120.808 303.961C121.181 303.961 121.507 303.889 121.784 303.745C122.067 303.601 122.283 303.401 122.432 303.145C122.581 302.889 122.656 302.593 122.656 302.257C122.656 301.921 122.581 301.623 122.432 301.361C122.283 301.105 122.067 300.905 121.784 300.761C121.507 300.617 121.181 300.545 120.808 300.545C120.435 300.545 120.107 300.617 119.824 300.761C119.541 300.905 119.323 301.105 119.168 301.361C119.019 301.623 118.944 301.921 118.944 302.257ZM121.512 307.979L121.512 307.203L118 307.203L118 306.067L121.512 306.067L121.512 305.563L122.432 305.563L122.432 306.067L122.656 306.067C123.2 306.067 123.6 306.221 123.856 306.531C124.112 306.84 124.232 307.307 124.216 307.931L123.272 307.931C123.277 307.659 123.232 307.469 123.136 307.363C123.04 307.256 122.867 307.203 122.616 307.203L122.432 307.203L122.432 307.979L121.512 307.979ZM121.512 310.736L121.512 309.96L118 309.96L118 308.824L121.512 308.824L121.512 308.32L122.432 308.32L122.432 308.824L122.656 308.824C123.2 308.824 123.6 308.979 123.856 309.288C124.112 309.598 124.232 310.064 124.216 310.688L123.272 310.688C123.277 310.416 123.232 310.227 123.136 310.12C123.04 310.014 122.867 309.96 122.616 309.96L122.432 309.96L122.432 310.736L121.512 310.736ZM122.96 312.03C122.96 311.833 123.021 311.667 123.144 311.534C123.272 311.406 123.429 311.342 123.616 311.342C123.803 311.342 123.957 311.406 124.08 311.534C124.208 311.667 124.272 311.833 124.272 312.03C124.272 312.227 124.208 312.39 124.08 312.518C123.957 312.651 123.803 312.718 123.616 312.718C123.429 312.718 123.272 312.651 123.144 312.518C123.021 312.39 122.96 312.227 122.96 312.03ZM122.432 312.582L118 312.582L118 311.462L122.432 311.462L122.432 312.582ZM120.216 313.401C120.675 313.401 121.075 313.494 121.416 313.681C121.763 313.867 122.029 314.126 122.216 314.457C122.408 314.787 122.504 315.166 122.504 315.593C122.504 316.142 122.365 316.595 122.088 316.953C121.816 317.315 121.432 317.558 120.936 317.681L120.936 316.473C121.128 316.409 121.277 316.299 121.384 316.145C121.496 315.995 121.552 315.809 121.552 315.585C121.552 315.265 121.435 315.011 121.2 314.825C120.971 314.638 120.643 314.545 120.216 314.545C119.795 314.545 119.467 314.638 119.232 314.825C119.003 315.011 118.888 315.265 118.888 315.585C118.888 316.038 119.091 316.334 119.496 316.473L119.496 317.681C119.016 317.558 118.635 317.315 118.352 316.953C118.069 316.59 117.928 316.137 117.928 315.593C117.928 315.166 118.021 314.787 118.208 314.457C118.4 314.126 118.667 313.867 119.008 313.681C119.355 313.494 119.757 313.401 120.216 313.401ZM120.312 322.621C120.152 322.621 120.008 322.611 119.88 322.589L119.88 319.349C119.56 319.376 119.309 319.488 119.128 319.685C118.947 319.883 118.856 320.125 118.856 320.413C118.856 320.829 119.035 321.125 119.392 321.301L119.392 322.509C118.965 322.381 118.613 322.136 118.336 321.773C118.064 321.411 117.928 320.965 117.928 320.437C117.928 320.011 118.021 319.627 118.208 319.285C118.4 318.949 118.669 318.685 119.016 318.493C119.363 318.307 119.763 318.213 120.216 318.213C120.675 318.213 121.077 318.307 121.424 318.493C121.771 318.68 122.037 318.941 122.224 319.277C122.411 319.613 122.504 320 122.504 320.437C122.504 320.859 122.413 321.235 122.232 321.565C122.051 321.901 121.792 322.16 121.456 322.341C121.125 322.528 120.744 322.621 120.312 322.621ZM120.632 321.461C120.92 321.456 121.149 321.352 121.32 321.149C121.496 320.947 121.584 320.699 121.584 320.405C121.584 320.128 121.499 319.893 121.328 319.701C121.163 319.515 120.931 319.4 120.632 319.357L120.632 321.461Z" fill="#051B29"/>
<path d="M98 305.5L98 318" stroke="black" stroke-width="2" stroke-linecap="round"/>
<rect x="145.5" y="345.5" width="69" height="49" transform="rotate(90 145.5 345.5)" fill="#CCE4F2" stroke="#051B29"/>
<path d="M122.296 374.01C122.829 374.037 123.24 374.224 123.528 374.57C123.821 374.922 123.968 375.384 123.968 375.954C123.968 376.344 123.899 376.677 123.76 376.954C123.627 377.232 123.443 377.44 123.208 377.578C122.979 377.722 122.717 377.794 122.424 377.794C122.088 377.794 121.803 377.706 121.568 377.53C121.339 377.36 121.184 377.154 121.104 376.914L121.072 376.914C120.976 377.224 120.805 377.464 120.56 377.634C120.315 377.81 120 377.898 119.616 377.898C119.296 377.898 119.011 377.824 118.76 377.674C118.509 377.53 118.312 377.314 118.168 377.026C118.029 376.744 117.96 376.402 117.96 376.002C117.96 375.4 118.112 374.909 118.416 374.53C118.72 374.152 119.168 373.952 119.76 373.93L119.76 375.018C119.499 375.029 119.288 375.117 119.128 375.282C118.973 375.453 118.896 375.685 118.896 375.978C118.896 376.25 118.971 376.458 119.12 376.602C119.275 376.752 119.472 376.826 119.712 376.826C120.032 376.826 120.261 376.725 120.4 376.522C120.539 376.32 120.608 376.005 120.608 375.578L120.608 375.346L121.528 375.346L121.528 375.578C121.528 376.336 121.781 376.714 122.288 376.714C122.517 376.714 122.696 376.645 122.824 376.506C122.952 376.373 123.016 376.178 123.016 375.922C123.016 375.672 122.947 375.477 122.808 375.338C122.675 375.205 122.504 375.128 122.296 375.106L122.296 374.01ZM120.992 378.783C121.915 378.783 122.637 378.949 123.16 379.279C123.683 379.615 123.944 380.17 123.944 380.943C123.944 381.717 123.683 382.269 123.16 382.599C122.637 382.935 121.915 383.103 120.992 383.103C120.064 383.103 119.336 382.935 118.808 382.599C118.28 382.269 118.016 381.717 118.016 380.943C118.016 380.17 118.28 379.615 118.808 379.279C119.336 378.949 120.064 378.783 120.992 378.783ZM120.992 381.999C121.387 381.999 121.717 381.973 121.984 381.919C122.256 381.871 122.477 381.77 122.648 381.615C122.819 381.466 122.904 381.242 122.904 380.943C122.904 380.645 122.819 380.418 122.648 380.263C122.477 380.114 122.256 380.013 121.984 379.959C121.717 379.911 121.387 379.887 120.992 379.887C120.587 379.887 120.245 379.911 119.968 379.959C119.696 380.007 119.475 380.109 119.304 380.263C119.139 380.418 119.056 380.645 119.056 380.943C119.056 381.242 119.139 381.469 119.304 381.623C119.475 381.778 119.696 381.879 119.968 381.927C120.245 381.975 120.587 381.999 120.992 381.999ZM122.8 383.819L123.832 383.819L123.832 385.747L118 385.747L118 384.595L122.8 384.595L122.8 383.819Z" fill="#051B29"/>
<path d="M98 374L98 386.5" stroke="black" stroke-width="2" stroke-linecap="round"/>
<rect x="145.5" y="414.5" width="35" height="49" transform="rotate(90 145.5 414.5)" fill="#CCE4F2" stroke="#051B29"/>
<path d="M117.944 423.257C117.944 422.735 118.067 422.255 118.312 421.817C118.557 421.38 118.896 421.033 119.328 420.777C119.765 420.521 120.259 420.393 120.808 420.393C121.352 420.393 121.84 420.521 122.272 420.777C122.709 421.033 123.051 421.38 123.296 421.817C123.541 422.255 123.664 422.735 123.664 423.257C123.664 423.785 123.541 424.265 123.296 424.697C123.051 425.135 122.709 425.479 122.272 425.729C121.84 425.985 121.352 426.113 120.808 426.113C120.259 426.113 119.765 425.985 119.328 425.729C118.896 425.479 118.557 425.135 118.312 424.697C118.067 424.26 117.944 423.78 117.944 423.257ZM118.944 423.257C118.944 423.593 119.019 423.889 119.168 424.145C119.323 424.401 119.541 424.601 119.824 424.745C120.107 424.889 120.435 424.961 120.808 424.961C121.181 424.961 121.507 424.889 121.784 424.745C122.067 424.601 122.283 424.401 122.432 424.145C122.581 423.889 122.656 423.593 122.656 423.257C122.656 422.921 122.581 422.623 122.432 422.361C122.283 422.105 122.067 421.905 121.784 421.761C121.507 421.617 121.181 421.545 120.808 421.545C120.435 421.545 120.107 421.617 119.824 421.761C119.541 421.905 119.323 422.105 119.168 422.361C119.019 422.623 118.944 422.921 118.944 423.257ZM121.512 428.979L121.512 428.203L118 428.203L118 427.067L121.512 427.067L121.512 426.563L122.432 426.563L122.432 427.067L122.656 427.067C123.2 427.067 123.6 427.221 123.856 427.531C124.112 427.84 124.232 428.307 124.216 428.931L123.272 428.931C123.277 428.659 123.232 428.469 123.136 428.363C123.04 428.256 122.867 428.203 122.616 428.203L122.432 428.203L122.432 428.979L121.512 428.979ZM121.512 431.736L121.512 430.96L118 430.96L118 429.824L121.512 429.824L121.512 429.32L122.432 429.32L122.432 429.824L122.656 429.824C123.2 429.824 123.6 429.979 123.856 430.288C124.112 430.598 124.232 431.064 124.216 431.688L123.272 431.688C123.277 431.416 123.232 431.227 123.136 431.12C123.04 431.014 122.867 430.96 122.616 430.96L122.432 430.96L122.432 431.736L121.512 431.736ZM122.96 433.03C122.96 432.833 123.021 432.667 123.144 432.534C123.272 432.406 123.429 432.342 123.616 432.342C123.803 432.342 123.957 432.406 124.08 432.534C124.208 432.667 124.272 432.833 124.272 433.03C124.272 433.227 124.208 433.39 124.08 433.518C123.957 433.651 123.803 433.718 123.616 433.718C123.429 433.718 123.272 433.651 123.144 433.518C123.021 433.39 122.96 433.227 122.96 433.03ZM122.432 433.582L118 433.582L118 432.462L122.432 432.462L122.432 433.582ZM120.216 434.401C120.675 434.401 121.075 434.494 121.416 434.681C121.763 434.867 122.029 435.126 122.216 435.457C122.408 435.787 122.504 436.166 122.504 436.593C122.504 437.142 122.365 437.595 122.088 437.953C121.816 438.315 121.432 438.558 120.936 438.681L120.936 437.473C121.128 437.409 121.277 437.299 121.384 437.145C121.496 436.995 121.552 436.809 121.552 436.585C121.552 436.265 121.435 436.011 121.2 435.825C120.971 435.638 120.643 435.545 120.216 435.545C119.795 435.545 119.467 435.638 119.232 435.825C119.003 436.011 118.888 436.265 118.888 436.585C118.888 437.038 119.091 437.334 119.496 437.473L119.496 438.681C119.016 438.558 118.635 438.315 118.352 437.953C118.069 437.59 117.928 437.137 117.928 436.593C117.928 436.166 118.021 435.787 118.208 435.457C118.4 435.126 118.667 434.867 119.008 434.681C119.355 434.494 119.757 434.401 120.216 434.401ZM120.312 443.621C120.152 443.621 120.008 443.611 119.88 443.589L119.88 440.349C119.56 440.376 119.309 440.488 119.128 440.685C118.947 440.883 118.856 441.125 118.856 441.413C118.856 441.829 119.035 442.125 119.392 442.301L119.392 443.509C118.965 443.381 118.613 443.136 118.336 442.773C118.064 442.411 117.928 441.965 117.928 441.437C117.928 441.011 118.021 440.627 118.208 440.285C118.4 439.949 118.669 439.685 119.016 439.493C119.363 439.307 119.763 439.213 120.216 439.213C120.675 439.213 121.077 439.307 121.424 439.493C121.771 439.68 122.037 439.941 122.224 440.277C122.411 440.613 122.504 441 122.504 441.437C122.504 441.859 122.413 442.235 122.232 442.565C122.051 442.901 121.792 443.16 121.456 443.341C121.125 443.528 120.744 443.621 120.312 443.621ZM120.632 442.461C120.92 442.456 121.149 442.352 121.32 442.149C121.496 441.947 121.584 441.699 121.584 441.405C121.584 441.128 121.499 440.893 121.328 440.701C121.163 440.515 120.931 440.4 120.632 440.357L120.632 442.461Z" fill="#051B29"/>
<path d="M98 427L98 439.5" stroke="black" stroke-width="2" stroke-linecap="round"/>
<path d="M49.5 138.497L49.5 276.5L0.499994 276.5L0.5 138.497L49.5 138.497Z" fill="#0076BE" stroke="#051B29"/>
<path d="M22 199.495L24.176 198.263L24.176 197.735L22 197.735L22 196.615L27.584 196.615L27.584 198.711C27.584 199.143 27.5067 199.511 27.352 199.815C27.2027 200.119 26.9973 200.346 26.736 200.495C26.48 200.65 26.192 200.727 25.872 200.727C25.504 200.727 25.1707 200.62 24.872 200.407C24.5787 200.194 24.376 199.876 24.264 199.455L22 200.791L22 199.495ZM25.016 197.735L25.016 198.671C25.016 198.975 25.088 199.202 25.232 199.351C25.3813 199.5 25.5867 199.575 25.848 199.575C26.104 199.575 26.3013 199.5 26.44 199.351C26.584 199.202 26.656 198.975 26.656 198.671L26.656 197.735L25.016 197.735ZM27.584 203.692C27.584 204.279 27.4693 204.793 27.24 205.236C27.0107 205.684 26.6827 206.028 26.256 206.268C25.8347 206.513 25.344 206.636 24.784 206.636C24.224 206.636 23.7333 206.513 23.312 206.268C22.896 206.028 22.5733 205.684 22.344 205.236C22.1147 204.793 22 204.279 22 203.692L22 201.74L27.584 201.74L27.584 203.692ZM22.952 203.652C22.952 204.239 23.112 204.692 23.432 205.012C23.752 205.332 24.2027 205.492 24.784 205.492C25.3653 205.492 25.8187 205.332 26.144 205.012C26.4747 204.692 26.64 204.239 26.64 203.652L26.64 202.86L22.952 202.86L22.952 203.652ZM25.328 212.789L24.384 212.789L24.384 209.397L25.328 209.397L25.328 212.789ZM23.136 215.775L24.016 215.775L27.76 218.391L27.76 219.695L24.112 219.695L24.112 220.399L23.136 220.399L23.136 219.695L22 219.695L22 218.575L23.136 218.575L23.136 215.775ZM26.56 218.647L24.112 217.007L24.112 218.647L26.56 218.647Z" fill="#E6F1F9"/>
<path d="M48 244L48 259.158" stroke="black" stroke-width="2" stroke-linecap="round"/>
<rect x="49.5" y="0.5" width="138.004" height="49" transform="rotate(90 49.5 0.5)" fill="#CCE4F2" stroke="#051B29"/>
<path d="M22 60.9437L24.176 59.7117L24.176 59.1837L22 59.1837L22 58.0637L27.584 58.0637L27.584 60.1597C27.584 60.5917 27.5067 60.9597 27.352 61.2637C27.2027 61.5677 26.9973 61.7944 26.736 61.9437C26.48 62.0984 26.192 62.1757 25.872 62.1757C25.504 62.1757 25.1707 62.069 24.872 61.8557C24.5787 61.6424 24.376 61.325 24.264 60.9037L22 62.2397L22 60.9437ZM25.016 59.1837L25.016 60.1197C25.016 60.4237 25.088 60.6504 25.232 60.7997C25.3813 60.949 25.5867 61.0237 25.848 61.0237C26.104 61.0237 26.3013 60.949 26.44 60.7997C26.584 60.6504 26.656 60.4237 26.656 60.1197L26.656 59.1837L25.016 59.1837ZM27.584 65.1407C27.584 65.7274 27.4693 66.242 27.24 66.6847C27.0107 67.1327 26.6827 67.4767 26.256 67.7167C25.8347 67.962 25.344 68.0847 24.784 68.0847C24.224 68.0847 23.7333 67.962 23.312 67.7167C22.896 67.4767 22.5733 67.1327 22.344 66.6847C22.1147 66.242 22 65.7274 22 65.1407L22 63.1887L27.584 63.1887L27.584 65.1407ZM22.952 65.1007C22.952 65.6874 23.112 66.1407 23.432 66.4607C23.752 66.7807 24.2027 66.9407 24.784 66.9407C25.3653 66.9407 25.8187 66.7807 26.144 66.4607C26.4747 66.1407 26.64 65.6874 26.64 65.1007L26.64 64.3087L22.952 64.3087L22.952 65.1007ZM25.328 74.2373L24.384 74.2373L24.384 70.8453L25.328 70.8453L25.328 74.2373ZM26.864 81.1916L26.864 78.5996L25.496 78.5996C25.6347 78.7116 25.7467 78.8716 25.832 79.0796C25.9227 79.2876 25.968 79.509 25.968 79.7436C25.968 80.1703 25.8747 80.5196 25.688 80.7916C25.5013 81.0636 25.2613 81.261 24.968 81.3836C24.68 81.5063 24.3707 81.5676 24.04 81.5676C23.4267 81.5676 22.9333 81.3916 22.56 81.0396C22.1867 80.693 22 80.197 22 79.5516C22 78.9436 22.152 78.4583 22.456 78.0956C22.76 77.733 23.1573 77.5276 23.648 77.4796L23.648 78.5676C23.4347 78.6156 23.264 78.7223 23.136 78.8876C23.008 79.0583 22.944 79.2743 22.944 79.5356C22.944 79.8503 23.0427 80.0876 23.24 80.2476C23.4373 80.4076 23.6987 80.4876 24.024 80.4876C24.3547 80.4876 24.6053 80.405 24.776 80.2396C24.952 80.0796 25.04 79.8423 25.04 79.5276C25.04 79.3036 24.984 79.117 24.872 78.9676C24.76 78.8183 24.6107 78.7116 24.424 78.6476L24.424 77.5756L27.848 77.5756L27.848 81.1916L26.864 81.1916Z" fill="#051B29"/>
<path d="M48 115.836L48 128.427" stroke="black" stroke-width="2" stroke-linecap="round"/>
<path d="M49.5 276.5L49.5 485.5L0.499991 485.5L0.5 276.5L49.5 276.5Z" fill="#CCE4F2" stroke="#051B29"/>
<path d="M22 372.845L24.176 371.613L24.176 371.085L22 371.085L22 369.965L27.584 369.965L27.584 372.061C27.584 372.493 27.5067 372.861 27.352 373.165C27.2027 373.469 26.9973 373.696 26.736 373.845C26.48 374 26.192 374.077 25.872 374.077C25.504 374.077 25.1707 373.971 24.872 373.757C24.5787 373.544 24.376 373.227 24.264 372.805L22 374.141L22 372.845ZM25.016 371.085L25.016 372.021C25.016 372.325 25.088 372.552 25.232 372.701C25.3813 372.851 25.5867 372.925 25.848 372.925C26.104 372.925 26.3013 372.851 26.44 372.701C26.584 372.552 26.656 372.325 26.656 372.021L26.656 371.085L25.016 371.085ZM27.584 377.042C27.584 377.629 27.4693 378.144 27.24 378.586C27.0107 379.034 26.6827 379.378 26.256 379.618C25.8347 379.864 25.344 379.986 24.784 379.986C24.224 379.986 23.7333 379.864 23.312 379.618C22.896 379.378 22.5733 379.034 22.344 378.586C22.1147 378.144 22 377.629 22 377.042L22 375.09L27.584 375.09L27.584 377.042ZM22.952 377.002C22.952 377.589 23.112 378.042 23.432 378.362C23.752 378.682 24.2027 378.842 24.784 378.842C25.3653 378.842 25.8187 378.682 26.144 378.362C26.4747 378.042 26.64 377.589 26.64 377.002L26.64 376.21L22.952 376.21L22.952 377.002ZM25.328 386.139L24.384 386.139L24.384 382.747L25.328 382.747L25.328 386.139ZM26.296 389.189C26.8293 389.216 27.24 389.403 27.528 389.749C27.8213 390.101 27.968 390.563 27.968 391.133C27.968 391.523 27.8987 391.856 27.76 392.133C27.6267 392.411 27.4427 392.619 27.208 392.757C26.9787 392.901 26.7173 392.973 26.424 392.973C26.088 392.973 25.8027 392.885 25.568 392.709C25.3387 392.539 25.184 392.333 25.104 392.093L25.072 392.093C24.976 392.403 24.8053 392.643 24.56 392.813C24.3147 392.989 24 393.077 23.616 393.077C23.296 393.077 23.0107 393.003 22.76 392.853C22.5093 392.709 22.312 392.493 22.168 392.205C22.0293 391.923 21.96 391.581 21.96 391.181C21.96 390.579 22.112 390.088 22.416 389.709C22.72 389.331 23.168 389.131 23.76 389.109L23.76 390.197C23.4987 390.208 23.288 390.296 23.128 390.461C22.9733 390.632 22.896 390.864 22.896 391.157C22.896 391.429 22.9707 391.637 23.12 391.781C23.2747 391.931 23.472 392.005 23.712 392.005C24.032 392.005 24.2613 391.904 24.4 391.701C24.5387 391.499 24.608 391.184 24.608 390.757L24.608 390.525L25.528 390.525L25.528 390.757C25.528 391.515 25.7813 391.893 26.288 391.893C26.5173 391.893 26.696 391.824 26.824 391.685C26.952 391.552 27.016 391.357 27.016 391.101C27.016 390.851 26.9467 390.656 26.808 390.517C26.6747 390.384 26.504 390.307 26.296 390.285L26.296 389.189Z" fill="#051B29"/>
<path d="M48 291.765L48 306.923" stroke="black" stroke-width="2" stroke-linecap="round"/>
<path d="M48 462L48 477.158" stroke="black" stroke-width="2" stroke-linecap="round"/>
<mask id="path-31-inside-1_146_1259" fill="white">
<path d="M107 277L107 207L145 207L145 277L107 277Z"/>
</mask>
<path d="M107 277L107 207L145 207L145 277L107 277Z" fill="#E6F1F9"/>
<path d="M145 207L146 207L146 206L145 206L145 207ZM145 277L145 278L146 278L146 277L145 277ZM107 208L145 208L145 206L107 206L107 208ZM144 207L144 277L146 277L146 207L144 207ZM145 276L107 276L107 278L145 278L145 276Z" fill="black" mask="url(#path-31-inside-1_146_1259)"/>
<mask id="path-33-inside-2_146_1259" fill="white">
<path d="M145 208L145 276L96 276L96 208L145 208Z"/>
</mask>
<path d="M145 208L145 276L96 276L96 208L145 208Z" fill="#E6F1F9"/>
<path d="M145 208L146 208L146 207L145 207L145 208ZM145 276L145 277L146 277L146 276L145 276ZM144 208L144 276L146 276L146 208L144 208ZM145 275L96 275L96 277L145 277L145 275ZM96 209L145 209L145 207L96 207L96 209Z" fill="black" mask="url(#path-33-inside-2_146_1259)"/>
<line x1="127" y1="243.5" x2="96" y2="243.5" stroke="black"/>
<line x1="127" y1="239.5" x2="96" y2="239.5" stroke="black"/>
<line x1="127.5" y1="239" x2="127.5" y2="244" stroke="black"/>
<line x1="127.25" y1="244" x2="127.25" y2="275" stroke="black" stroke-width="0.5"/>
<line x1="127.25" y1="209" x2="127.25" y2="240" stroke="black" stroke-width="0.5"/>
<line x1="124.25" y1="244" x2="124.25" y2="275" stroke="black" stroke-width="0.5"/>
<line x1="124.25" y1="209" x2="124.25" y2="240" stroke="black" stroke-width="0.5"/>
<line x1="121.25" y1="244" x2="121.25" y2="275" stroke="black" stroke-width="0.5"/>
<line x1="121.25" y1="209" x2="121.25" y2="240" stroke="black" stroke-width="0.5"/>
<line x1="118.25" y1="244" x2="118.25" y2="275" stroke="black" stroke-width="0.5"/>
<line x1="118.25" y1="209" x2="118.25" y2="240" stroke="black" stroke-width="0.5"/>
<line x1="115.25" y1="244" x2="115.25" y2="275" stroke="black" stroke-width="0.5"/>
<line x1="115.25" y1="209" x2="115.25" y2="240" stroke="black" stroke-width="0.5"/>
<line x1="112.25" y1="244" x2="112.25" y2="275" stroke="black" stroke-width="0.5"/>
<line x1="112.25" y1="209" x2="112.25" y2="240" stroke="black" stroke-width="0.5"/>
<line x1="109.25" y1="244" x2="109.25" y2="275" stroke="black" stroke-width="0.5"/>
<line x1="109.25" y1="209" x2="109.25" y2="240" stroke="black" stroke-width="0.5"/>
<line x1="106.25" y1="244" x2="106.25" y2="275" stroke="black" stroke-width="0.5"/>
<line x1="106.25" y1="209" x2="106.25" y2="240" stroke="black" stroke-width="0.5"/>
<line x1="103.25" y1="244" x2="103.25" y2="275" stroke="black" stroke-width="0.5"/>
<line x1="103.25" y1="209" x2="103.25" y2="240" stroke="black" stroke-width="0.5"/>
<line x1="100.25" y1="244" x2="100.25" y2="275" stroke="black" stroke-width="0.5"/>
<line x1="100.25" y1="209" x2="100.25" y2="240" stroke="black" stroke-width="0.5"/>
<line x1="97.25" y1="244" x2="97.25" y2="275" stroke="black" stroke-width="0.5"/>
<line x1="97.25" y1="209" x2="97.25" y2="240" stroke="black" stroke-width="0.5"/>
<rect x="145.5" y="449.5" width="36" height="49" transform="rotate(90 145.5 449.5)" fill="#E6F1F9" stroke="#051B29"/>
<path d="M129.584 463.825L124 462.265L124 460.945L127.976 459.897L124 458.801L123.992 457.489L129.584 455.985L129.584 457.185L125.248 458.169L129.584 459.305L129.584 460.553L125.272 461.625L129.584 462.617L129.584 463.825ZM126.232 464.268C126.68 464.268 127.077 464.356 127.424 464.532C127.771 464.713 128.037 464.956 128.224 465.26C128.411 465.569 128.504 465.913 128.504 466.292C128.504 466.623 128.437 466.911 128.304 467.156C128.171 467.407 128.003 467.607 127.8 467.756L128.432 467.756L128.432 468.884L124 468.884L124 467.756L124.648 467.756C124.44 467.612 124.267 467.412 124.128 467.156C123.995 466.905 123.928 466.615 123.928 466.284C123.928 465.911 124.024 465.569 124.216 465.26C124.408 464.956 124.677 464.713 125.024 464.532C125.376 464.356 125.779 464.268 126.232 464.268ZM126.216 467.756C126.488 467.756 126.72 467.703 126.912 467.596C127.109 467.489 127.259 467.345 127.36 467.164C127.467 466.983 127.52 466.788 127.52 466.58C127.52 466.372 127.469 466.18 127.368 466.004C127.267 465.828 127.117 465.684 126.92 465.572C126.728 465.465 126.499 465.412 126.232 465.412C125.965 465.412 125.731 465.465 125.528 465.572C125.331 465.684 125.179 465.828 125.072 466.004C124.965 466.185 124.912 466.377 124.912 466.58C124.912 466.788 124.963 466.983 125.064 467.164C125.171 467.345 125.32 467.489 125.512 467.596C125.709 467.703 125.944 467.756 126.216 467.756ZM123.928 471.674C123.928 471.311 123.992 470.986 124.12 470.698C124.253 470.41 124.432 470.18 124.656 470.01C124.88 469.844 125.128 469.754 125.4 469.738L125.4 470.866C125.229 470.887 125.088 470.97 124.976 471.114C124.864 471.263 124.808 471.447 124.808 471.666C124.808 471.879 124.851 472.044 124.936 472.162C125.021 472.284 125.131 472.346 125.264 472.346C125.408 472.346 125.515 472.271 125.584 472.122C125.659 471.978 125.739 471.746 125.824 471.426C125.904 471.095 125.987 470.823 126.072 470.61C126.157 470.402 126.288 470.22 126.464 470.066C126.64 469.916 126.877 469.842 127.176 469.842C127.421 469.842 127.645 469.911 127.848 470.05C128.051 470.194 128.211 470.396 128.328 470.658C128.445 470.924 128.504 471.236 128.504 471.594C128.504 472.122 128.371 472.543 128.104 472.858C127.843 473.172 127.488 473.346 127.04 473.378L127.04 472.306C127.216 472.29 127.355 472.215 127.456 472.082C127.563 471.954 127.616 471.78 127.616 471.562C127.616 471.359 127.579 471.202 127.504 471.09C127.429 470.983 127.325 470.93 127.192 470.93C127.043 470.93 126.928 471.004 126.848 471.154C126.773 471.303 126.696 471.535 126.616 471.85C126.536 472.17 126.453 472.434 126.368 472.642C126.283 472.85 126.149 473.028 125.968 473.178C125.792 473.332 125.557 473.412 125.264 473.418C125.008 473.418 124.779 473.346 124.576 473.202C124.373 473.063 124.213 472.86 124.096 472.594C123.984 472.332 123.928 472.026 123.928 471.674ZM128.496 476.833C128.496 477.169 128.421 477.468 128.272 477.729C128.128 477.99 127.912 478.193 127.624 478.337C127.341 478.486 127 478.561 126.6 478.561L124 478.561L124 477.441L126.448 477.441C126.8 477.441 127.069 477.353 127.256 477.177C127.448 477.001 127.544 476.761 127.544 476.457C127.544 476.148 127.448 475.902 127.256 475.721C127.069 475.545 126.8 475.457 126.448 475.457L124 475.457L124 474.337L129.92 474.337L129.92 475.457L127.88 475.457C128.072 475.601 128.221 475.793 128.328 476.033C128.44 476.273 128.496 476.54 128.496 476.833ZM112 459.018L114.176 457.786L114.176 457.258L112 457.258L112 456.138L117.584 456.138L117.584 458.234C117.584 458.666 117.507 459.034 117.352 459.338C117.203 459.642 116.997 459.869 116.736 460.018C116.48 460.173 116.192 460.25 115.872 460.25C115.504 460.25 115.171 460.143 114.872 459.93C114.579 459.717 114.376 459.399 114.264 458.978L112 460.314L112 459.018ZM115.016 457.258L115.016 458.194C115.016 458.498 115.088 458.725 115.232 458.874C115.381 459.023 115.587 459.098 115.848 459.098C116.104 459.098 116.301 459.023 116.44 458.874C116.584 458.725 116.656 458.498 116.656 458.194L116.656 457.258L115.016 457.258ZM111.928 463.231C111.928 462.804 112.021 462.42 112.208 462.079C112.4 461.738 112.669 461.468 113.016 461.271C113.363 461.079 113.763 460.983 114.216 460.983C114.669 460.983 115.069 461.082 115.416 461.279C115.763 461.482 116.029 461.756 116.216 462.103C116.408 462.45 116.504 462.836 116.504 463.263C116.504 463.69 116.408 464.076 116.216 464.423C116.029 464.77 115.763 465.042 115.416 465.239C115.069 465.442 114.669 465.543 114.216 465.543C113.763 465.543 113.363 465.439 113.016 465.231C112.669 465.028 112.4 464.751 112.208 464.399C112.021 464.052 111.928 463.663 111.928 463.231ZM112.904 463.231C112.904 463.434 112.952 463.623 113.048 463.799C113.149 463.98 113.299 464.124 113.496 464.231C113.693 464.338 113.933 464.391 114.216 464.391C114.637 464.391 114.96 464.279 115.184 464.055C115.413 463.836 115.528 463.567 115.528 463.247C115.528 462.927 115.413 462.658 115.184 462.439C114.96 462.226 114.637 462.119 114.216 462.119C113.795 462.119 113.469 462.223 113.24 462.431C113.016 462.644 112.904 462.911 112.904 463.231ZM111.928 468.332C111.928 467.906 112.021 467.522 112.208 467.18C112.4 466.839 112.669 466.57 113.016 466.372C113.363 466.18 113.763 466.084 114.216 466.084C114.669 466.084 115.069 466.183 115.416 466.38C115.763 466.583 116.029 466.858 116.216 467.204C116.408 467.551 116.504 467.938 116.504 468.364C116.504 468.791 116.408 469.178 116.216 469.524C116.029 469.871 115.763 470.143 115.416 470.34C115.069 470.543 114.669 470.644 114.216 470.644C113.763 470.644 113.363 470.54 113.016 470.332C112.669 470.13 112.4 469.852 112.208 469.5C112.021 469.154 111.928 468.764 111.928 468.332ZM112.904 468.332C112.904 468.535 112.952 468.724 113.048 468.9C113.149 469.082 113.299 469.226 113.496 469.332C113.693 469.439 113.933 469.492 114.216 469.492C114.637 469.492 114.96 469.38 115.184 469.156C115.413 468.938 115.528 468.668 115.528 468.348C115.528 468.028 115.413 467.759 115.184 467.54C114.96 467.327 114.637 467.22 114.216 467.22C113.795 467.22 113.469 467.324 113.24 467.532C113.016 467.746 112.904 468.012 112.904 468.332ZM116.496 476.97C116.496 477.514 116.328 477.951 115.992 478.282C115.661 478.618 115.197 478.786 114.6 478.786L112 478.786L112 477.666L114.448 477.666C114.795 477.666 115.059 477.578 115.24 477.402C115.427 477.226 115.52 476.986 115.52 476.682C115.52 476.378 115.427 476.135 115.24 475.954C115.059 475.778 114.795 475.69 114.448 475.69L112 475.69L112 474.57L114.448 474.57C114.795 474.57 115.059 474.482 115.24 474.306C115.427 474.13 115.52 473.89 115.52 473.586C115.52 473.277 115.427 473.031 115.24 472.85C115.059 472.674 114.795 472.586 114.448 472.586L112 472.586L112 471.466L116.432 471.466L116.432 472.586L115.896 472.586C116.083 472.73 116.229 472.914 116.336 473.138C116.443 473.367 116.496 473.618 116.496 473.89C116.496 474.237 116.421 474.546 116.272 474.818C116.128 475.09 115.92 475.301 115.648 475.45C115.904 475.594 116.109 475.802 116.264 476.074C116.419 476.351 116.496 476.65 116.496 476.97Z" fill="#051B29"/>
<path d="M98 462L98 474.847" stroke="black" stroke-width="2" stroke-linecap="round"/>
<path d="M56 252L91 252" stroke="#B3D6EC" stroke-width="5" stroke-linecap="round" stroke-dasharray="10 10"/>
</svg>
