<svg width="146" height="486" viewBox="0 0 146 486" fill="none" xmlns="http://www.w3.org/2000/svg">
<rect x="145.5" y="0.5" width="485" height="118" transform="rotate(90 145.5 0.5)" fill="#E6F1F9" stroke="#051B29"/>
<path d="M28 138L28 277" stroke="black" stroke-width="2" stroke-linecap="round"/>
<path d="M145.5 0.5L145.5 138.5L96.5 138.5L96.5 0.499998L145.5 0.5Z" fill="#CCE4F2" stroke="#051B29"/>
<path d="M121.856 40.6709C121.557 40.6709 121.277 40.5989 121.016 40.4549C120.755 40.3162 120.544 40.0949 120.384 39.7909C120.224 39.4922 120.144 39.1135 120.144 38.6549L120.144 37.7189L118 37.7189L118 36.5989L123.584 36.5989L123.584 38.6549C123.584 39.0869 123.509 39.4549 123.36 39.7589C123.211 40.0629 123.005 40.2895 122.744 40.4389C122.483 40.5935 122.187 40.6709 121.856 40.6709ZM121.048 38.6069C121.048 38.9162 121.117 39.1455 121.256 39.2949C121.4 39.4442 121.6 39.5189 121.856 39.5189C122.4 39.5189 122.672 39.2149 122.672 38.6069L122.672 37.7189L121.048 37.7189L121.048 38.6069ZM121.744 42.5861C121.979 42.7301 122.163 42.9167 122.296 43.1461C122.429 43.3807 122.496 43.6474 122.496 43.9461L121.32 43.9461L121.32 43.6501C121.32 43.2981 121.237 43.0314 121.072 42.8501C120.907 42.6741 120.619 42.5861 120.208 42.5861L118 42.5861L118 41.4661L122.432 41.4661L122.432 42.5861L121.744 42.5861ZM122.96 45.2684C122.96 45.0711 123.021 44.9058 123.144 44.7724C123.272 44.6444 123.429 44.5804 123.616 44.5804C123.803 44.5804 123.957 44.6444 124.08 44.7724C124.208 44.9058 124.272 45.0711 124.272 45.2684C124.272 45.4658 124.208 45.6284 124.08 45.7564C123.957 45.8898 123.803 45.9564 123.616 45.9564C123.429 45.9564 123.272 45.8898 123.144 45.7564C123.021 45.6284 122.96 45.4658 122.96 45.2684ZM122.432 45.8204L118 45.8204L118 44.7004L122.432 44.7004L122.432 45.8204ZM122.496 49.383C122.496 49.911 122.328 50.3377 121.992 50.663C121.661 50.9883 121.197 51.151 120.6 51.151L118 51.151L118 50.031L120.448 50.031C120.8 50.031 121.069 49.943 121.256 49.767C121.448 49.591 121.544 49.351 121.544 49.047C121.544 48.7377 121.448 48.4923 121.256 48.311C121.069 48.135 120.8 48.047 120.448 48.047L118 48.047L118 46.927L122.432 46.927L122.432 48.047L121.88 48.047C122.072 48.1963 122.221 48.3857 122.328 48.615C122.44 48.8497 122.496 49.1057 122.496 49.383ZM120.216 51.9281C120.675 51.9281 121.075 52.0214 121.416 52.2081C121.763 52.3947 122.029 52.6534 122.216 52.9841C122.408 53.3147 122.504 53.6934 122.504 54.1201C122.504 54.6694 122.365 55.1227 122.088 55.4801C121.816 55.8427 121.432 56.0854 120.936 56.2081L120.936 55.0001C121.128 54.9361 121.277 54.8267 121.384 54.6721C121.496 54.5227 121.552 54.3361 121.552 54.1121C121.552 53.7921 121.435 53.5387 121.2 53.3521C120.971 53.1654 120.643 53.0721 120.216 53.0721C119.795 53.0721 119.467 53.1654 119.232 53.3521C119.003 53.5387 118.888 53.7921 118.888 54.1121C118.888 54.5654 119.091 54.8614 119.496 55.0001L119.496 56.2081C119.016 56.0854 118.635 55.8427 118.352 55.4801C118.069 55.1174 117.928 54.6641 117.928 54.1201C117.928 53.6934 118.021 53.3147 118.208 52.9841C118.4 52.6534 118.667 52.3947 119.008 52.2081C119.355 52.0214 119.757 51.9281 120.216 51.9281ZM122.96 57.5966C122.96 57.3992 123.021 57.2339 123.144 57.1006C123.272 56.9726 123.429 56.9086 123.616 56.9086C123.803 56.9086 123.957 56.9726 124.08 57.1006C124.208 57.2339 124.272 57.3992 124.272 57.5966C124.272 57.7939 124.208 57.9566 124.08 58.0846C123.957 58.2179 123.803 58.2846 123.616 58.2846C123.429 58.2846 123.272 58.2179 123.144 58.0846C123.021 57.9566 122.96 57.7939 122.96 57.5966ZM122.432 58.1486L118 58.1486L118 57.0286L122.432 57.0286L122.432 58.1486ZM121.792 60.3751C121.995 60.5191 122.163 60.7165 122.296 60.9671C122.435 61.2231 122.504 61.5138 122.504 61.8391C122.504 62.2178 122.411 62.5591 122.224 62.8631C122.037 63.1725 121.771 63.4151 121.424 63.5911C121.083 63.7725 120.685 63.8631 120.232 63.8631C119.779 63.8631 119.376 63.7725 119.024 63.5911C118.677 63.4151 118.408 63.1725 118.216 62.8631C118.024 62.5591 117.928 62.2178 117.928 61.8391C117.928 61.5138 117.995 61.2258 118.128 60.9751C118.261 60.7298 118.429 60.5298 118.632 60.3751L115.888 60.3751L115.888 59.2551L122.432 59.2551L122.432 60.3751L121.792 60.3751ZM120.232 62.7191C120.499 62.7191 120.728 62.6631 120.92 62.5511C121.117 62.4445 121.267 62.3005 121.368 62.1191C121.469 61.9431 121.52 61.7511 121.52 61.5431C121.52 61.3405 121.467 61.1485 121.36 60.9671C121.259 60.7911 121.109 60.6471 120.912 60.5351C120.715 60.4285 120.483 60.3751 120.216 60.3751C119.949 60.3751 119.717 60.4285 119.52 60.5351C119.323 60.6471 119.171 60.7911 119.064 60.9671C118.963 61.1485 118.912 61.3405 118.912 61.5431C118.912 61.7511 118.965 61.9431 119.072 62.1191C119.179 62.3005 119.331 62.4445 119.528 62.5511C119.725 62.6631 119.96 62.7191 120.232 62.7191ZM120.232 64.389C120.68 64.389 121.077 64.477 121.424 64.653C121.771 64.8343 122.037 65.077 122.224 65.381C122.411 65.6903 122.504 66.0343 122.504 66.413C122.504 66.7437 122.437 67.0317 122.304 67.277C122.171 67.5277 122.003 67.7277 121.8 67.877L122.432 67.877L122.432 69.005L118 69.005L118 67.877L118.648 67.877C118.44 67.733 118.267 67.533 118.128 67.277C117.995 67.0263 117.928 66.7357 117.928 66.405C117.928 66.0317 118.024 65.6903 118.216 65.381C118.408 65.077 118.677 64.8343 119.024 64.653C119.376 64.477 119.779 64.389 120.232 64.389ZM120.216 67.877C120.488 67.877 120.72 67.8237 120.912 67.717C121.109 67.6103 121.259 67.4663 121.36 67.285C121.467 67.1037 121.52 66.909 121.52 66.701C121.52 66.493 121.469 66.301 121.368 66.125C121.267 65.949 121.117 65.805 120.92 65.693C120.728 65.5863 120.499 65.533 120.232 65.533C119.965 65.533 119.731 65.5863 119.528 65.693C119.331 65.805 119.179 65.949 119.072 66.125C118.965 66.3063 118.912 66.4983 118.912 66.701C118.912 66.909 118.963 67.1037 119.064 67.285C119.171 67.4663 119.32 67.6103 119.512 67.717C119.709 67.8237 119.944 67.877 120.216 67.877ZM123.92 71.2189L118 71.2189L118 70.0989L123.92 70.0989L123.92 71.2189ZM123.584 72.5494L123.584 73.7254L121.568 72.8614L121.568 72.0934L123.584 72.5494ZM117.928 76.2246C117.928 75.8619 117.992 75.5366 118.12 75.2486C118.253 74.9606 118.432 74.7312 118.656 74.5606C118.88 74.3952 119.128 74.3046 119.4 74.2886L119.4 75.4166C119.229 75.4379 119.088 75.5206 118.976 75.6646C118.864 75.8139 118.808 75.9979 118.808 76.2166C118.808 76.4299 118.851 76.5952 118.936 76.7126C119.021 76.8352 119.131 76.8966 119.264 76.8966C119.408 76.8966 119.515 76.8219 119.584 76.6726C119.659 76.5286 119.739 76.2966 119.824 75.9766C119.904 75.6459 119.987 75.3739 120.072 75.1606C120.157 74.9526 120.288 74.7712 120.464 74.6166C120.64 74.4672 120.877 74.3926 121.176 74.3926C121.421 74.3926 121.645 74.4619 121.848 74.6006C122.051 74.7446 122.211 74.9472 122.328 75.2086C122.445 75.4752 122.504 75.7872 122.504 76.1446C122.504 76.6726 122.371 77.0939 122.104 77.4086C121.843 77.7232 121.488 77.8966 121.04 77.9286L121.04 76.8566C121.216 76.8406 121.355 76.7659 121.456 76.6326C121.563 76.5046 121.616 76.3312 121.616 76.1126C121.616 75.9099 121.579 75.7526 121.504 75.6406C121.429 75.5339 121.325 75.4806 121.192 75.4806C121.043 75.4806 120.928 75.5552 120.848 75.7046C120.773 75.8539 120.696 76.0859 120.616 76.4006C120.536 76.7206 120.453 76.9846 120.368 77.1926C120.283 77.4006 120.149 77.5792 119.968 77.7286C119.792 77.8832 119.557 77.9632 119.264 77.9686C119.008 77.9686 118.779 77.8966 118.576 77.7526C118.373 77.6139 118.213 77.4112 118.096 77.1446C117.984 76.8832 117.928 76.5766 117.928 76.2246ZM118 83.6742L120.176 82.4422L120.176 81.9142L118 81.9142L118 80.7942L123.584 80.7942L123.584 82.8902C123.584 83.3222 123.507 83.6902 123.352 83.9942C123.203 84.2982 122.997 84.5249 122.736 84.6742C122.48 84.8289 122.192 84.9062 121.872 84.9062C121.504 84.9062 121.171 84.7995 120.872 84.5862C120.579 84.3729 120.376 84.0555 120.264 83.6342L118 84.9702L118 83.6742ZM121.016 81.9142L121.016 82.8502C121.016 83.1542 121.088 83.3809 121.232 83.5302C121.381 83.6795 121.587 83.7542 121.848 83.7542C122.104 83.7542 122.301 83.6795 122.44 83.5302C122.584 83.3809 122.656 83.1542 122.656 82.8502L122.656 81.9142L121.016 81.9142ZM117.928 87.8872C117.928 87.4605 118.021 87.0765 118.208 86.7352C118.4 86.3939 118.669 86.1245 119.016 85.9272C119.363 85.7352 119.763 85.6392 120.216 85.6392C120.669 85.6392 121.069 85.7379 121.416 85.9352C121.763 86.1379 122.029 86.4125 122.216 86.7592C122.408 87.1059 122.504 87.4925 122.504 87.9192C122.504 88.3459 122.408 88.7325 122.216 89.0792C122.029 89.4259 121.763 89.6979 121.416 89.8952C121.069 90.0979 120.669 90.1992 120.216 90.1992C119.763 90.1992 119.363 90.0952 119.016 89.8872C118.669 89.6845 118.4 89.4072 118.208 89.0552C118.021 88.7085 117.928 88.3192 117.928 87.8872ZM118.904 87.8872C118.904 88.0899 118.952 88.2792 119.048 88.4552C119.149 88.6365 119.299 88.7805 119.496 88.8872C119.693 88.9939 119.933 89.0472 120.216 89.0472C120.637 89.0472 120.96 88.9352 121.184 88.7112C121.413 88.4925 121.528 88.2232 121.528 87.9032C121.528 87.5832 121.413 87.3139 121.184 87.0952C120.96 86.8819 120.637 86.7752 120.216 86.7752C119.795 86.7752 119.469 86.8792 119.24 87.0872C119.016 87.3005 118.904 87.5672 118.904 87.8872ZM117.928 92.9887C117.928 92.5621 118.021 92.1781 118.208 91.8367C118.4 91.4954 118.669 91.2261 119.016 91.0287C119.363 90.8367 119.763 90.7407 120.216 90.7407C120.669 90.7407 121.069 90.8394 121.416 91.0367C121.763 91.2394 122.029 91.5141 122.216 91.8607C122.408 92.2074 122.504 92.5941 122.504 93.0207C122.504 93.4474 122.408 93.8341 122.216 94.1807C122.029 94.5274 121.763 94.7994 121.416 94.9968C121.069 95.1994 120.669 95.3007 120.216 95.3007C119.763 95.3007 119.363 95.1967 119.016 94.9887C118.669 94.7861 118.4 94.5087 118.208 94.1567C118.021 93.8101 117.928 93.4207 117.928 92.9887ZM118.904 92.9887C118.904 93.1914 118.952 93.3807 119.048 93.5567C119.149 93.7381 119.299 93.8821 119.496 93.9887C119.693 94.0954 119.933 94.1487 120.216 94.1487C120.637 94.1487 120.96 94.0367 121.184 93.8127C121.413 93.5941 121.528 93.3247 121.528 93.0047C121.528 92.6847 121.413 92.4154 121.184 92.1967C120.96 91.9834 120.637 91.8767 120.216 91.8767C119.795 91.8767 119.469 91.9807 119.24 92.1887C119.016 92.4021 118.904 92.6687 118.904 92.9887ZM122.496 101.626C122.496 102.17 122.328 102.608 121.992 102.938C121.661 103.274 121.197 103.442 120.6 103.442L118 103.442L118 102.322L120.448 102.322C120.795 102.322 121.059 102.234 121.24 102.058C121.427 101.882 121.52 101.642 121.52 101.338C121.52 101.034 121.427 100.792 121.24 100.61C121.059 100.434 120.795 100.346 120.448 100.346L118 100.346L118 99.2263L120.448 99.2263C120.795 99.2263 121.059 99.1383 121.24 98.9623C121.427 98.7863 121.52 98.5463 121.52 98.2423C121.52 97.933 121.427 97.6876 121.24 97.5063C121.059 97.3303 120.795 97.2423 120.448 97.2423L118 97.2423L118 96.1223L122.432 96.1223L122.432 97.2423L121.896 97.2423C122.083 97.3863 122.229 97.5703 122.336 97.7943C122.443 98.0236 122.496 98.2743 122.496 98.5463C122.496 98.893 122.421 99.2023 122.272 99.4743C122.128 99.7463 121.92 99.957 121.648 100.106C121.904 100.25 122.109 100.458 122.264 100.73C122.419 101.008 122.496 101.306 122.496 101.626Z" fill="#051B29"/>
<path d="M98 115L98 127.5" stroke="black" stroke-width="2" stroke-linecap="round"/>
<rect x="145.5" y="138.5" width="69" height="49" transform="rotate(90 145.5 138.5)" fill="#CCE4F2" stroke="#051B29"/>
<path d="M124.888 163.102L124.888 164.942L124 164.942L124 161.982L129.584 161.982L129.584 163.102L124.888 163.102ZM123.928 167.622C123.928 167.195 124.021 166.811 124.208 166.47C124.4 166.128 124.669 165.859 125.016 165.662C125.363 165.47 125.763 165.374 126.216 165.374C126.669 165.374 127.069 165.472 127.416 165.67C127.763 165.872 128.029 166.147 128.216 166.494C128.408 166.84 128.504 167.227 128.504 167.654C128.504 168.08 128.408 168.467 128.216 168.814C128.029 169.16 127.763 169.432 127.416 169.63C127.069 169.832 126.669 169.934 126.216 169.934C125.763 169.934 125.363 169.83 125.016 169.622C124.669 169.419 124.4 169.142 124.208 168.79C124.021 168.443 123.928 168.054 123.928 167.622ZM124.904 167.622C124.904 167.824 124.952 168.014 125.048 168.19C125.149 168.371 125.299 168.515 125.496 168.622C125.693 168.728 125.933 168.782 126.216 168.782C126.637 168.782 126.96 168.67 127.184 168.446C127.413 168.227 127.528 167.958 127.528 167.638C127.528 167.318 127.413 167.048 127.184 166.83C126.96 166.616 126.637 166.51 126.216 166.51C125.795 166.51 125.469 166.614 125.24 166.822C125.016 167.035 124.904 167.302 124.904 167.622ZM126.216 170.467C126.675 170.467 127.075 170.56 127.416 170.747C127.763 170.934 128.029 171.192 128.216 171.523C128.408 171.854 128.504 172.232 128.504 172.659C128.504 173.208 128.365 173.662 128.088 174.019C127.816 174.382 127.432 174.624 126.936 174.747L126.936 173.539C127.128 173.475 127.277 173.366 127.384 173.211C127.496 173.062 127.552 172.875 127.552 172.651C127.552 172.331 127.435 172.078 127.2 171.891C126.971 171.704 126.643 171.611 126.216 171.611C125.795 171.611 125.467 171.704 125.232 171.891C125.003 172.078 124.888 172.331 124.888 172.651C124.888 173.104 125.091 173.4 125.496 173.539L125.496 174.747C125.016 174.624 124.635 174.382 124.352 174.019C124.069 173.656 123.928 173.203 123.928 172.659C123.928 172.232 124.021 171.854 124.208 171.523C124.4 171.192 124.667 170.934 125.008 170.747C125.355 170.56 125.757 170.467 126.216 170.467ZM126.232 175.28C126.68 175.28 127.077 175.368 127.424 175.544C127.771 175.725 128.037 175.968 128.224 176.272C128.411 176.581 128.504 176.925 128.504 177.304C128.504 177.634 128.437 177.922 128.304 178.168C128.171 178.418 128.003 178.618 127.8 178.768L128.432 178.768L128.432 179.896L124 179.896L124 178.768L124.648 178.768C124.44 178.624 124.267 178.424 124.128 178.168C123.995 177.917 123.928 177.626 123.928 177.296C123.928 176.922 124.024 176.581 124.216 176.272C124.408 175.968 124.677 175.725 125.024 175.544C125.376 175.368 125.779 175.28 126.232 175.28ZM126.216 178.768C126.488 178.768 126.72 178.714 126.912 178.608C127.109 178.501 127.259 178.357 127.36 178.176C127.467 177.994 127.52 177.8 127.52 177.592C127.52 177.384 127.469 177.192 127.368 177.016C127.267 176.84 127.117 176.696 126.92 176.584C126.728 176.477 126.499 176.424 126.232 176.424C125.965 176.424 125.731 176.477 125.528 176.584C125.331 176.696 125.179 176.84 125.072 177.016C124.965 177.197 124.912 177.389 124.912 177.592C124.912 177.8 124.963 177.994 125.064 178.176C125.171 178.357 125.32 178.501 125.512 178.608C125.709 178.714 125.944 178.768 126.216 178.768ZM129.92 182.109L124 182.109L124 180.989L129.92 180.989L129.92 182.109ZM117.584 155.43L112 155.43L112 154.31L117.584 154.31L117.584 155.43ZM116.496 158.992C116.496 159.52 116.328 159.947 115.992 160.272C115.661 160.598 115.197 160.76 114.6 160.76L112 160.76L112 159.64L114.448 159.64C114.8 159.64 115.069 159.552 115.256 159.376C115.448 159.2 115.544 158.96 115.544 158.656C115.544 158.347 115.448 158.102 115.256 157.92C115.069 157.744 114.8 157.656 114.448 157.656L112 157.656L112 156.536L116.432 156.536L116.432 157.656L115.88 157.656C116.072 157.806 116.221 157.995 116.328 158.224C116.44 158.459 116.496 158.715 116.496 158.992ZM111.928 163.521C111.928 163.159 111.992 162.833 112.12 162.545C112.253 162.257 112.432 162.028 112.656 161.857C112.88 161.692 113.128 161.601 113.4 161.585L113.4 162.713C113.229 162.735 113.088 162.817 112.976 162.961C112.864 163.111 112.808 163.295 112.808 163.513C112.808 163.727 112.851 163.892 112.936 164.009C113.021 164.132 113.131 164.193 113.264 164.193C113.408 164.193 113.515 164.119 113.584 163.969C113.659 163.825 113.739 163.593 113.824 163.273C113.904 162.943 113.987 162.671 114.072 162.457C114.157 162.249 114.288 162.068 114.464 161.913C114.64 161.764 114.877 161.689 115.176 161.689C115.421 161.689 115.645 161.759 115.848 161.897C116.051 162.041 116.211 162.244 116.328 162.505C116.445 162.772 116.504 163.084 116.504 163.441C116.504 163.969 116.371 164.391 116.104 164.705C115.843 165.02 115.488 165.193 115.04 165.225L115.04 164.153C115.216 164.137 115.355 164.063 115.456 163.929C115.563 163.801 115.616 163.628 115.616 163.409C115.616 163.207 115.579 163.049 115.504 162.937C115.429 162.831 115.325 162.777 115.192 162.777C115.043 162.777 114.928 162.852 114.848 163.001C114.773 163.151 114.696 163.383 114.616 163.697C114.536 164.017 114.453 164.281 114.368 164.489C114.283 164.697 114.149 164.876 113.968 165.025C113.792 165.18 113.557 165.26 113.264 165.265C113.008 165.265 112.779 165.193 112.576 165.049C112.373 164.911 112.213 164.708 112.096 164.441C111.984 164.18 111.928 163.873 111.928 163.521ZM115.792 167.305C115.995 167.449 116.163 167.646 116.296 167.897C116.435 168.153 116.504 168.443 116.504 168.769C116.504 169.147 116.411 169.489 116.224 169.793C116.037 170.102 115.771 170.345 115.424 170.521C115.083 170.702 114.685 170.793 114.232 170.793C113.779 170.793 113.376 170.702 113.024 170.521C112.677 170.345 112.408 170.102 112.216 169.793C112.024 169.489 111.928 169.147 111.928 168.769C111.928 168.443 111.995 168.155 112.128 167.905C112.261 167.659 112.429 167.459 112.632 167.305L109.888 167.305L109.888 166.185L116.432 166.185L116.432 167.305L115.792 167.305ZM114.232 169.649C114.499 169.649 114.728 169.593 114.92 169.481C115.117 169.374 115.267 169.23 115.368 169.049C115.469 168.873 115.52 168.681 115.52 168.473C115.52 168.27 115.467 168.078 115.36 167.897C115.259 167.721 115.109 167.577 114.912 167.465C114.715 167.358 114.483 167.305 114.216 167.305C113.949 167.305 113.717 167.358 113.52 167.465C113.323 167.577 113.171 167.721 113.064 167.897C112.963 168.078 112.912 168.27 112.912 168.473C112.912 168.681 112.965 168.873 113.072 169.049C113.179 169.23 113.331 169.374 113.528 169.481C113.725 169.593 113.96 169.649 114.232 169.649ZM114.312 175.727C114.152 175.727 114.008 175.716 113.88 175.695L113.88 172.455C113.56 172.481 113.309 172.593 113.128 172.791C112.947 172.988 112.856 173.231 112.856 173.519C112.856 173.935 113.035 174.231 113.392 174.407L113.392 175.615C112.965 175.487 112.613 175.241 112.336 174.879C112.064 174.516 111.928 174.071 111.928 173.543C111.928 173.116 112.021 172.732 112.208 172.391C112.4 172.055 112.669 171.791 113.016 171.599C113.363 171.412 113.763 171.319 114.216 171.319C114.675 171.319 115.077 171.412 115.424 171.599C115.771 171.785 116.037 172.047 116.224 172.383C116.411 172.719 116.504 173.105 116.504 173.543C116.504 173.964 116.413 174.34 116.232 174.671C116.051 175.007 115.792 175.265 115.456 175.447C115.125 175.633 114.744 175.727 114.312 175.727ZM114.632 174.567C114.92 174.561 115.149 174.457 115.32 174.255C115.496 174.052 115.584 173.804 115.584 173.511C115.584 173.233 115.499 172.999 115.328 172.807C115.163 172.62 114.931 172.505 114.632 172.463L114.632 174.567ZM114.216 176.256C114.675 176.256 115.075 176.35 115.416 176.536C115.763 176.723 116.029 176.982 116.216 177.312C116.408 177.643 116.504 178.022 116.504 178.448C116.504 178.998 116.365 179.451 116.088 179.808C115.816 180.171 115.432 180.414 114.936 180.536L114.936 179.328C115.128 179.264 115.277 179.155 115.384 179C115.496 178.851 115.552 178.664 115.552 178.44C115.552 178.12 115.435 177.867 115.2 177.68C114.971 177.494 114.643 177.4 114.216 177.4C113.795 177.4 113.467 177.494 113.232 177.68C113.003 177.867 112.888 178.12 112.888 178.44C112.888 178.894 113.091 179.19 113.496 179.328L113.496 180.536C113.016 180.414 112.635 180.171 112.352 179.808C112.069 179.446 111.928 178.992 111.928 178.448C111.928 178.022 112.021 177.643 112.208 177.312C112.4 176.982 112.667 176.723 113.008 176.536C113.355 176.35 113.757 176.256 114.216 176.256ZM115.512 182.661L113.368 182.661C113.219 182.661 113.109 182.695 113.04 182.765C112.976 182.839 112.944 182.962 112.944 183.133L112.944 183.653L112 183.653L112 182.949C112 182.005 112.459 181.533 113.376 181.533L115.512 181.533L115.512 181.005L116.432 181.005L116.432 181.533L117.528 181.533L117.528 182.661L116.432 182.661L116.432 183.653L115.512 183.653L115.512 182.661ZM111.928 186.426C111.928 186 112.021 185.616 112.208 185.274C112.4 184.933 112.669 184.664 113.016 184.466C113.363 184.274 113.763 184.178 114.216 184.178C114.669 184.178 115.069 184.277 115.416 184.474C115.763 184.677 116.029 184.952 116.216 185.298C116.408 185.645 116.504 186.032 116.504 186.458C116.504 186.885 116.408 187.272 116.216 187.618C116.029 187.965 115.763 188.237 115.416 188.434C115.069 188.637 114.669 188.738 114.216 188.738C113.763 188.738 113.363 188.634 113.016 188.426C112.669 188.224 112.4 187.946 112.208 187.594C112.021 187.248 111.928 186.858 111.928 186.426ZM112.904 186.426C112.904 186.629 112.952 186.818 113.048 186.994C113.149 187.176 113.299 187.32 113.496 187.426C113.693 187.533 113.933 187.586 114.216 187.586C114.637 187.586 114.96 187.474 115.184 187.25C115.413 187.032 115.528 186.762 115.528 186.442C115.528 186.122 115.413 185.853 115.184 185.634C114.96 185.421 114.637 185.314 114.216 185.314C113.795 185.314 113.469 185.418 113.24 185.626C113.016 185.84 112.904 186.106 112.904 186.426ZM115.744 190.68C115.979 190.824 116.163 191.01 116.296 191.24C116.429 191.474 116.496 191.741 116.496 192.04L115.32 192.04L115.32 191.744C115.32 191.392 115.237 191.125 115.072 190.944C114.907 190.768 114.619 190.68 114.208 190.68L112 190.68L112 189.56L116.432 189.56L116.432 190.68L115.744 190.68Z" fill="#051B29"/>
<path d="M98 182L98 194.5" stroke="black" stroke-width="2" stroke-linecap="round"/>
<rect x="145.5" y="276.5" width="69" height="49" transform="rotate(90 145.5 276.5)" fill="#CCE4F2" stroke="#051B29"/>
<path d="M117.944 302.257C117.944 301.735 118.067 301.255 118.312 300.817C118.557 300.38 118.896 300.033 119.328 299.777C119.765 299.521 120.259 299.393 120.808 299.393C121.352 299.393 121.84 299.521 122.272 299.777C122.709 300.033 123.051 300.38 123.296 300.817C123.541 301.255 123.664 301.735 123.664 302.257C123.664 302.785 123.541 303.265 123.296 303.697C123.051 304.135 122.709 304.479 122.272 304.729C121.84 304.985 121.352 305.113 120.808 305.113C120.259 305.113 119.765 304.985 119.328 304.729C118.896 304.479 118.557 304.135 118.312 303.697C118.067 303.26 117.944 302.78 117.944 302.257ZM118.944 302.257C118.944 302.593 119.019 302.889 119.168 303.145C119.323 303.401 119.541 303.601 119.824 303.745C120.107 303.889 120.435 303.961 120.808 303.961C121.181 303.961 121.507 303.889 121.784 303.745C122.067 303.601 122.283 303.401 122.432 303.145C122.581 302.889 122.656 302.593 122.656 302.257C122.656 301.921 122.581 301.623 122.432 301.361C122.283 301.105 122.067 300.905 121.784 300.761C121.507 300.617 121.181 300.545 120.808 300.545C120.435 300.545 120.107 300.617 119.824 300.761C119.541 300.905 119.323 301.105 119.168 301.361C119.019 301.623 118.944 301.921 118.944 302.257ZM121.512 307.979L121.512 307.203L118 307.203L118 306.067L121.512 306.067L121.512 305.563L122.432 305.563L122.432 306.067L122.656 306.067C123.2 306.067 123.6 306.221 123.856 306.531C124.112 306.84 124.232 307.307 124.216 307.931L123.272 307.931C123.277 307.659 123.232 307.469 123.136 307.363C123.04 307.256 122.867 307.203 122.616 307.203L122.432 307.203L122.432 307.979L121.512 307.979ZM121.512 310.736L121.512 309.96L118 309.96L118 308.824L121.512 308.824L121.512 308.32L122.432 308.32L122.432 308.824L122.656 308.824C123.2 308.824 123.6 308.979 123.856 309.288C124.112 309.598 124.232 310.064 124.216 310.688L123.272 310.688C123.277 310.416 123.232 310.227 123.136 310.12C123.04 310.014 122.867 309.96 122.616 309.96L122.432 309.96L122.432 310.736L121.512 310.736ZM122.96 312.03C122.96 311.833 123.021 311.667 123.144 311.534C123.272 311.406 123.429 311.342 123.616 311.342C123.803 311.342 123.957 311.406 124.08 311.534C124.208 311.667 124.272 311.833 124.272 312.03C124.272 312.227 124.208 312.39 124.08 312.518C123.957 312.651 123.803 312.718 123.616 312.718C123.429 312.718 123.272 312.651 123.144 312.518C123.021 312.39 122.96 312.227 122.96 312.03ZM122.432 312.582L118 312.582L118 311.462L122.432 311.462L122.432 312.582ZM120.216 313.401C120.675 313.401 121.075 313.494 121.416 313.681C121.763 313.867 122.029 314.126 122.216 314.457C122.408 314.787 122.504 315.166 122.504 315.593C122.504 316.142 122.365 316.595 122.088 316.953C121.816 317.315 121.432 317.558 120.936 317.681L120.936 316.473C121.128 316.409 121.277 316.299 121.384 316.145C121.496 315.995 121.552 315.809 121.552 315.585C121.552 315.265 121.435 315.011 121.2 314.825C120.971 314.638 120.643 314.545 120.216 314.545C119.795 314.545 119.467 314.638 119.232 314.825C119.003 315.011 118.888 315.265 118.888 315.585C118.888 316.038 119.091 316.334 119.496 316.473L119.496 317.681C119.016 317.558 118.635 317.315 118.352 316.953C118.069 316.59 117.928 316.137 117.928 315.593C117.928 315.166 118.021 314.787 118.208 314.457C118.4 314.126 118.667 313.867 119.008 313.681C119.355 313.494 119.757 313.401 120.216 313.401ZM120.312 322.621C120.152 322.621 120.008 322.611 119.88 322.589L119.88 319.349C119.56 319.376 119.309 319.488 119.128 319.685C118.947 319.883 118.856 320.125 118.856 320.413C118.856 320.829 119.035 321.125 119.392 321.301L119.392 322.509C118.965 322.381 118.613 322.136 118.336 321.773C118.064 321.411 117.928 320.965 117.928 320.437C117.928 320.011 118.021 319.627 118.208 319.285C118.4 318.949 118.669 318.685 119.016 318.493C119.363 318.307 119.763 318.213 120.216 318.213C120.675 318.213 121.077 318.307 121.424 318.493C121.771 318.68 122.037 318.941 122.224 319.277C122.411 319.613 122.504 320 122.504 320.437C122.504 320.859 122.413 321.235 122.232 321.565C122.051 321.901 121.792 322.16 121.456 322.341C121.125 322.528 120.744 322.621 120.312 322.621ZM120.632 321.461C120.92 321.456 121.149 321.352 121.32 321.149C121.496 320.947 121.584 320.699 121.584 320.405C121.584 320.128 121.499 319.893 121.328 319.701C121.163 319.515 120.931 319.4 120.632 319.357L120.632 321.461Z" fill="#051B29"/>
<path d="M98 324L98 336.5" stroke="black" stroke-width="2" stroke-linecap="round"/>
<rect x="145.5" y="345.5" width="69" height="49" transform="rotate(90 145.5 345.5)" fill="#CCE4F2" stroke="#051B29"/>
<path d="M117.944 371.257C117.944 370.735 118.067 370.255 118.312 369.817C118.557 369.38 118.896 369.033 119.328 368.777C119.765 368.521 120.259 368.393 120.808 368.393C121.352 368.393 121.84 368.521 122.272 368.777C122.709 369.033 123.051 369.38 123.296 369.817C123.541 370.255 123.664 370.735 123.664 371.257C123.664 371.785 123.541 372.265 123.296 372.697C123.051 373.135 122.709 373.479 122.272 373.729C121.84 373.985 121.352 374.113 120.808 374.113C120.259 374.113 119.765 373.985 119.328 373.729C118.896 373.479 118.557 373.135 118.312 372.697C118.067 372.26 117.944 371.78 117.944 371.257ZM118.944 371.257C118.944 371.593 119.019 371.889 119.168 372.145C119.323 372.401 119.541 372.601 119.824 372.745C120.107 372.889 120.435 372.961 120.808 372.961C121.181 372.961 121.507 372.889 121.784 372.745C122.067 372.601 122.283 372.401 122.432 372.145C122.581 371.889 122.656 371.593 122.656 371.257C122.656 370.921 122.581 370.623 122.432 370.361C122.283 370.105 122.067 369.905 121.784 369.761C121.507 369.617 121.181 369.545 120.808 369.545C120.435 369.545 120.107 369.617 119.824 369.761C119.541 369.905 119.323 370.105 119.168 370.361C119.019 370.623 118.944 370.921 118.944 371.257ZM121.512 376.979L121.512 376.203L118 376.203L118 375.067L121.512 375.067L121.512 374.563L122.432 374.563L122.432 375.067L122.656 375.067C123.2 375.067 123.6 375.221 123.856 375.531C124.112 375.84 124.232 376.307 124.216 376.931L123.272 376.931C123.277 376.659 123.232 376.469 123.136 376.363C123.04 376.256 122.867 376.203 122.616 376.203L122.432 376.203L122.432 376.979L121.512 376.979ZM121.512 379.736L121.512 378.96L118 378.96L118 377.824L121.512 377.824L121.512 377.32L122.432 377.32L122.432 377.824L122.656 377.824C123.2 377.824 123.6 377.979 123.856 378.288C124.112 378.598 124.232 379.064 124.216 379.688L123.272 379.688C123.277 379.416 123.232 379.227 123.136 379.12C123.04 379.014 122.867 378.96 122.616 378.96L122.432 378.96L122.432 379.736L121.512 379.736ZM122.96 381.03C122.96 380.833 123.021 380.667 123.144 380.534C123.272 380.406 123.429 380.342 123.616 380.342C123.803 380.342 123.957 380.406 124.08 380.534C124.208 380.667 124.272 380.833 124.272 381.03C124.272 381.227 124.208 381.39 124.08 381.518C123.957 381.651 123.803 381.718 123.616 381.718C123.429 381.718 123.272 381.651 123.144 381.518C123.021 381.39 122.96 381.227 122.96 381.03ZM122.432 381.582L118 381.582L118 380.462L122.432 380.462L122.432 381.582ZM120.216 382.401C120.675 382.401 121.075 382.494 121.416 382.681C121.763 382.867 122.029 383.126 122.216 383.457C122.408 383.787 122.504 384.166 122.504 384.593C122.504 385.142 122.365 385.595 122.088 385.953C121.816 386.315 121.432 386.558 120.936 386.681L120.936 385.473C121.128 385.409 121.277 385.299 121.384 385.145C121.496 384.995 121.552 384.809 121.552 384.585C121.552 384.265 121.435 384.011 121.2 383.825C120.971 383.638 120.643 383.545 120.216 383.545C119.795 383.545 119.467 383.638 119.232 383.825C119.003 384.011 118.888 384.265 118.888 384.585C118.888 385.038 119.091 385.334 119.496 385.473L119.496 386.681C119.016 386.558 118.635 386.315 118.352 385.953C118.069 385.59 117.928 385.137 117.928 384.593C117.928 384.166 118.021 383.787 118.208 383.457C118.4 383.126 118.667 382.867 119.008 382.681C119.355 382.494 119.757 382.401 120.216 382.401ZM120.312 391.621C120.152 391.621 120.008 391.611 119.88 391.589L119.88 388.349C119.56 388.376 119.309 388.488 119.128 388.685C118.947 388.883 118.856 389.125 118.856 389.413C118.856 389.829 119.035 390.125 119.392 390.301L119.392 391.509C118.965 391.381 118.613 391.136 118.336 390.773C118.064 390.411 117.928 389.965 117.928 389.437C117.928 389.011 118.021 388.627 118.208 388.285C118.4 387.949 118.669 387.685 119.016 387.493C119.363 387.307 119.763 387.213 120.216 387.213C120.675 387.213 121.077 387.307 121.424 387.493C121.771 387.68 122.037 387.941 122.224 388.277C122.411 388.613 122.504 389 122.504 389.437C122.504 389.859 122.413 390.235 122.232 390.565C122.051 390.901 121.792 391.16 121.456 391.341C121.125 391.528 120.744 391.621 120.312 391.621ZM120.632 390.461C120.92 390.456 121.149 390.352 121.32 390.149C121.496 389.947 121.584 389.699 121.584 389.405C121.584 389.128 121.499 388.893 121.328 388.701C121.163 388.515 120.931 388.4 120.632 388.357L120.632 390.461Z" fill="#051B29"/>
<path d="M97.5 357L97.5 369.5" stroke="black" stroke-width="2" stroke-linecap="round"/>
<rect x="145.5" y="414.5" width="35" height="49" transform="rotate(90 145.5 414.5)" fill="#CCE4F2" stroke="#051B29"/>
<path d="M117.944 423.257C117.944 422.735 118.067 422.255 118.312 421.817C118.557 421.38 118.896 421.033 119.328 420.777C119.765 420.521 120.259 420.393 120.808 420.393C121.352 420.393 121.84 420.521 122.272 420.777C122.709 421.033 123.051 421.38 123.296 421.817C123.541 422.255 123.664 422.735 123.664 423.257C123.664 423.785 123.541 424.265 123.296 424.697C123.051 425.135 122.709 425.479 122.272 425.729C121.84 425.985 121.352 426.113 120.808 426.113C120.259 426.113 119.765 425.985 119.328 425.729C118.896 425.479 118.557 425.135 118.312 424.697C118.067 424.26 117.944 423.78 117.944 423.257ZM118.944 423.257C118.944 423.593 119.019 423.889 119.168 424.145C119.323 424.401 119.541 424.601 119.824 424.745C120.107 424.889 120.435 424.961 120.808 424.961C121.181 424.961 121.507 424.889 121.784 424.745C122.067 424.601 122.283 424.401 122.432 424.145C122.581 423.889 122.656 423.593 122.656 423.257C122.656 422.921 122.581 422.623 122.432 422.361C122.283 422.105 122.067 421.905 121.784 421.761C121.507 421.617 121.181 421.545 120.808 421.545C120.435 421.545 120.107 421.617 119.824 421.761C119.541 421.905 119.323 422.105 119.168 422.361C119.019 422.623 118.944 422.921 118.944 423.257ZM121.512 428.979L121.512 428.203L118 428.203L118 427.067L121.512 427.067L121.512 426.563L122.432 426.563L122.432 427.067L122.656 427.067C123.2 427.067 123.6 427.221 123.856 427.531C124.112 427.84 124.232 428.307 124.216 428.931L123.272 428.931C123.277 428.659 123.232 428.469 123.136 428.363C123.04 428.256 122.867 428.203 122.616 428.203L122.432 428.203L122.432 428.979L121.512 428.979ZM121.512 431.736L121.512 430.96L118 430.96L118 429.824L121.512 429.824L121.512 429.32L122.432 429.32L122.432 429.824L122.656 429.824C123.2 429.824 123.6 429.979 123.856 430.288C124.112 430.598 124.232 431.064 124.216 431.688L123.272 431.688C123.277 431.416 123.232 431.227 123.136 431.12C123.04 431.014 122.867 430.96 122.616 430.96L122.432 430.96L122.432 431.736L121.512 431.736ZM122.96 433.03C122.96 432.833 123.021 432.667 123.144 432.534C123.272 432.406 123.429 432.342 123.616 432.342C123.803 432.342 123.957 432.406 124.08 432.534C124.208 432.667 124.272 432.833 124.272 433.03C124.272 433.227 124.208 433.39 124.08 433.518C123.957 433.651 123.803 433.718 123.616 433.718C123.429 433.718 123.272 433.651 123.144 433.518C123.021 433.39 122.96 433.227 122.96 433.03ZM122.432 433.582L118 433.582L118 432.462L122.432 432.462L122.432 433.582ZM120.216 434.401C120.675 434.401 121.075 434.494 121.416 434.681C121.763 434.867 122.029 435.126 122.216 435.457C122.408 435.787 122.504 436.166 122.504 436.593C122.504 437.142 122.365 437.595 122.088 437.953C121.816 438.315 121.432 438.558 120.936 438.681L120.936 437.473C121.128 437.409 121.277 437.299 121.384 437.145C121.496 436.995 121.552 436.809 121.552 436.585C121.552 436.265 121.435 436.011 121.2 435.825C120.971 435.638 120.643 435.545 120.216 435.545C119.795 435.545 119.467 435.638 119.232 435.825C119.003 436.011 118.888 436.265 118.888 436.585C118.888 437.038 119.091 437.334 119.496 437.473L119.496 438.681C119.016 438.558 118.635 438.315 118.352 437.953C118.069 437.59 117.928 437.137 117.928 436.593C117.928 436.166 118.021 435.787 118.208 435.457C118.4 435.126 118.667 434.867 119.008 434.681C119.355 434.494 119.757 434.401 120.216 434.401ZM120.312 443.621C120.152 443.621 120.008 443.611 119.88 443.589L119.88 440.349C119.56 440.376 119.309 440.488 119.128 440.685C118.947 440.883 118.856 441.125 118.856 441.413C118.856 441.829 119.035 442.125 119.392 442.301L119.392 443.509C118.965 443.381 118.613 443.136 118.336 442.773C118.064 442.411 117.928 441.965 117.928 441.437C117.928 441.011 118.021 440.627 118.208 440.285C118.4 439.949 118.669 439.685 119.016 439.493C119.363 439.307 119.763 439.213 120.216 439.213C120.675 439.213 121.077 439.307 121.424 439.493C121.771 439.68 122.037 439.941 122.224 440.277C122.411 440.613 122.504 441 122.504 441.437C122.504 441.859 122.413 442.235 122.232 442.565C122.051 442.901 121.792 443.16 121.456 443.341C121.125 443.528 120.744 443.621 120.312 443.621ZM120.632 442.461C120.92 442.456 121.149 442.352 121.32 442.149C121.496 441.947 121.584 441.699 121.584 441.405C121.584 441.128 121.499 440.893 121.328 440.701C121.163 440.515 120.931 440.4 120.632 440.357L120.632 442.461Z" fill="#051B29"/>
<path d="M98 427L98 439.5" stroke="black" stroke-width="2" stroke-linecap="round"/>
<rect x="49.5" y="449.5" width="36" height="49" transform="rotate(90 49.5 449.5)" fill="#E6F1F9" stroke="#051B29"/>
<path d="M33.584 463.824L28 462.264L28 460.944L31.976 459.896L28 458.8L27.992 457.488L33.584 455.984L33.584 457.184L29.248 458.168L33.584 459.304L33.584 460.552L29.272 461.624L33.584 462.616L33.584 463.824ZM30.232 464.268C30.68 464.268 31.0773 464.356 31.424 464.532C31.7707 464.713 32.0373 464.956 32.224 465.26C32.4107 465.569 32.504 465.913 32.504 466.292C32.504 466.622 32.4373 466.91 32.304 467.156C32.1707 467.406 32.0027 467.606 31.8 467.756L32.432 467.756L32.432 468.884L28 468.884L28 467.756L28.648 467.756C28.44 467.612 28.2667 467.412 28.128 467.156C27.9947 466.905 27.928 466.614 27.928 466.284C27.928 465.91 28.024 465.569 28.216 465.26C28.408 464.956 28.6773 464.713 29.024 464.532C29.376 464.356 29.7787 464.268 30.232 464.268ZM30.216 467.756C30.488 467.756 30.72 467.702 30.912 467.596C31.1093 467.489 31.2587 467.345 31.36 467.164C31.4667 466.982 31.52 466.788 31.52 466.58C31.52 466.372 31.4693 466.18 31.368 466.004C31.2667 465.828 31.1173 465.684 30.92 465.572C30.728 465.465 30.4987 465.412 30.232 465.412C29.9653 465.412 29.7307 465.465 29.528 465.572C29.3307 465.684 29.1787 465.828 29.072 466.004C28.9653 466.185 28.912 466.377 28.912 466.58C28.912 466.788 28.9627 466.982 29.064 467.164C29.1707 467.345 29.32 467.489 29.512 467.596C29.7093 467.702 29.944 467.756 30.216 467.756ZM27.928 471.674C27.928 471.311 27.992 470.986 28.12 470.698C28.2533 470.41 28.432 470.18 28.656 470.01C28.88 469.844 29.128 469.754 29.4 469.738L29.4 470.866C29.2293 470.887 29.088 470.97 28.976 471.114C28.864 471.263 28.808 471.447 28.808 471.666C28.808 471.879 28.8507 472.044 28.936 472.162C29.0213 472.284 29.1307 472.346 29.264 472.346C29.408 472.346 29.5147 472.271 29.584 472.122C29.6587 471.978 29.7387 471.746 29.824 471.426C29.904 471.095 29.9867 470.823 30.072 470.61C30.1573 470.402 30.288 470.22 30.464 470.066C30.64 469.916 30.8773 469.842 31.176 469.842C31.4213 469.842 31.6453 469.911 31.848 470.05C32.0507 470.194 32.2107 470.396 32.328 470.658C32.4453 470.924 32.504 471.236 32.504 471.594C32.504 472.122 32.3707 472.543 32.104 472.858C31.8427 473.172 31.488 473.346 31.04 473.378L31.04 472.306C31.216 472.29 31.3547 472.215 31.456 472.082C31.5627 471.954 31.616 471.78 31.616 471.562C31.616 471.359 31.5787 471.202 31.504 471.09C31.4293 470.983 31.3253 470.93 31.192 470.93C31.0427 470.93 30.928 471.004 30.848 471.154C30.7733 471.303 30.696 471.535 30.616 471.85C30.536 472.17 30.4533 472.434 30.368 472.642C30.2827 472.85 30.1493 473.028 29.968 473.178C29.792 473.332 29.5573 473.412 29.264 473.418C29.008 473.418 28.7787 473.346 28.576 473.202C28.3733 473.063 28.2133 472.86 28.096 472.594C27.984 472.332 27.928 472.026 27.928 471.674ZM32.496 476.833C32.496 477.169 32.4213 477.468 32.272 477.729C32.128 477.99 31.912 478.193 31.624 478.337C31.3413 478.486 31 478.561 30.6 478.561L28 478.561L28 477.441L30.448 477.441C30.8 477.441 31.0693 477.353 31.256 477.177C31.448 477.001 31.544 476.761 31.544 476.457C31.544 476.148 31.448 475.902 31.256 475.721C31.0693 475.545 30.8 475.457 30.448 475.457L28 475.457L28 474.337L33.92 474.337L33.92 475.457L31.88 475.457C32.072 475.601 32.2213 475.793 32.328 476.033C32.44 476.273 32.496 476.54 32.496 476.833ZM16 459.018L18.176 457.786L18.176 457.258L16 457.258L16 456.138L21.584 456.138L21.584 458.234C21.584 458.666 21.5067 459.034 21.352 459.338C21.2027 459.642 20.9973 459.868 20.736 460.018C20.48 460.172 20.192 460.25 19.872 460.25C19.504 460.25 19.1707 460.143 18.872 459.93C18.5787 459.716 18.376 459.399 18.264 458.978L16 460.314L16 459.018ZM19.016 457.258L19.016 458.194C19.016 458.498 19.088 458.724 19.232 458.874C19.3813 459.023 19.5867 459.098 19.848 459.098C20.104 459.098 20.3013 459.023 20.44 458.874C20.584 458.724 20.656 458.498 20.656 458.194L20.656 457.258L19.016 457.258ZM15.928 463.231C15.928 462.804 16.0213 462.42 16.208 462.079C16.4 461.737 16.6693 461.468 17.016 461.271C17.3627 461.079 17.7627 460.983 18.216 460.983C18.6693 460.983 19.0693 461.081 19.416 461.279C19.7627 461.481 20.0293 461.756 20.216 462.103C20.408 462.449 20.504 462.836 20.504 463.263C20.504 463.689 20.408 464.076 20.216 464.423C20.0293 464.769 19.7627 465.041 19.416 465.239C19.0693 465.441 18.6693 465.543 18.216 465.543C17.7627 465.543 17.3627 465.439 17.016 465.231C16.6693 465.028 16.4 464.751 16.208 464.399C16.0213 464.052 15.928 463.663 15.928 463.231ZM16.904 463.231C16.904 463.433 16.952 463.623 17.048 463.799C17.1493 463.98 17.2987 464.124 17.496 464.231C17.6933 464.337 17.9333 464.391 18.216 464.391C18.6373 464.391 18.96 464.279 19.184 464.055C19.4133 463.836 19.528 463.567 19.528 463.247C19.528 462.927 19.4133 462.657 19.184 462.439C18.96 462.225 18.6373 462.119 18.216 462.119C17.7947 462.119 17.4693 462.223 17.24 462.431C17.016 462.644 16.904 462.911 16.904 463.231ZM15.928 468.332C15.928 467.906 16.0213 467.522 16.208 467.18C16.4 466.839 16.6693 466.57 17.016 466.372C17.3627 466.18 17.7627 466.084 18.216 466.084C18.6693 466.084 19.0693 466.183 19.416 466.38C19.7627 466.583 20.0293 466.858 20.216 467.204C20.408 467.551 20.504 467.938 20.504 468.364C20.504 468.791 20.408 469.178 20.216 469.524C20.0293 469.871 19.7627 470.143 19.416 470.34C19.0693 470.543 18.6693 470.644 18.216 470.644C17.7627 470.644 17.3627 470.54 17.016 470.332C16.6693 470.13 16.4 469.852 16.208 469.5C16.0213 469.154 15.928 468.764 15.928 468.332ZM16.904 468.332C16.904 468.535 16.952 468.724 17.048 468.9C17.1493 469.082 17.2987 469.226 17.496 469.332C17.6933 469.439 17.9333 469.492 18.216 469.492C18.6373 469.492 18.96 469.38 19.184 469.156C19.4133 468.938 19.528 468.668 19.528 468.348C19.528 468.028 19.4133 467.759 19.184 467.54C18.96 467.327 18.6373 467.22 18.216 467.22C17.7947 467.22 17.4693 467.324 17.24 467.532C17.016 467.746 16.904 468.012 16.904 468.332ZM20.496 476.97C20.496 477.514 20.328 477.951 19.992 478.282C19.6613 478.618 19.1973 478.786 18.6 478.786L16 478.786L16 477.666L18.448 477.666C18.7947 477.666 19.0587 477.578 19.24 477.402C19.4267 477.226 19.52 476.986 19.52 476.682C19.52 476.378 19.4267 476.135 19.24 475.954C19.0587 475.778 18.7947 475.69 18.448 475.69L16 475.69L16 474.57L18.448 474.57C18.7947 474.57 19.0587 474.482 19.24 474.306C19.4267 474.13 19.52 473.89 19.52 473.586C19.52 473.277 19.4267 473.031 19.24 472.85C19.0587 472.674 18.7947 472.586 18.448 472.586L16 472.586L16 471.466L20.432 471.466L20.432 472.586L19.896 472.586C20.0827 472.73 20.2293 472.914 20.336 473.138C20.4427 473.367 20.496 473.618 20.496 473.89C20.496 474.237 20.4213 474.546 20.272 474.818C20.128 475.09 19.92 475.301 19.648 475.45C19.904 475.594 20.1093 475.802 20.264 476.074C20.4187 476.351 20.496 476.65 20.496 476.97Z" fill="#051B29"/>
<path d="M48 462L48 474.847" stroke="black" stroke-width="2" stroke-linecap="round"/>
<rect x="49.5" y="0.5" width="137" height="49" transform="rotate(90 49.5 0.5)" fill="#CCE4F2" stroke="#051B29"/>
<path d="M23.264 63.694C23.6907 64.206 24.0454 64.614 24.328 64.918C24.616 65.222 24.9147 65.4753 25.224 65.678C25.5334 65.8806 25.8374 65.982 26.136 65.982C26.408 65.982 26.6214 65.918 26.776 65.79C26.9307 65.662 27.008 65.4646 27.008 65.198C27.008 64.9313 26.9174 64.726 26.736 64.582C26.56 64.438 26.3174 64.3633 26.008 64.358L26.008 63.27C26.648 63.2913 27.1334 63.4806 27.464 63.838C27.7947 64.2006 27.96 64.6593 27.96 65.214C27.96 65.822 27.7974 66.2886 27.472 66.614C27.152 66.9393 26.728 67.102 26.2 67.102C25.784 67.102 25.3867 66.99 25.008 66.766C24.6294 66.542 24.2987 66.286 24.016 65.998C23.7387 65.71 23.4027 65.334 23.008 64.87L23.008 67.23L22.08 67.23L22.08 63.278L22.912 63.278L23.264 63.694ZM24.992 67.9357C25.9147 67.9357 26.6374 68.1011 27.16 68.4317C27.6827 68.7677 27.944 69.3224 27.944 70.0957C27.944 70.8691 27.6827 71.4211 27.16 71.7517C26.6374 72.0877 25.9147 72.2557 24.992 72.2557C24.064 72.2557 23.336 72.0877 22.808 71.7517C22.28 71.4211 22.016 70.8691 22.016 70.0957C22.016 69.3224 22.28 68.7677 22.808 68.4317C23.336 68.1011 24.064 67.9357 24.992 67.9357ZM24.992 71.1517C25.3867 71.1517 25.7174 71.1251 25.984 71.0717C26.256 71.0237 26.4774 70.9224 26.648 70.7677C26.8187 70.6184 26.904 70.3944 26.904 70.0957C26.904 69.7971 26.8187 69.5704 26.648 69.4157C26.4774 69.2664 26.256 69.1651 25.984 69.1117C25.7174 69.0637 25.3867 69.0397 24.992 69.0397C24.5867 69.0397 24.2454 69.0637 23.968 69.1117C23.696 69.1597 23.4747 69.2611 23.304 69.4157C23.1387 69.5704 23.056 69.7971 23.056 70.0957C23.056 70.3944 23.1387 70.6211 23.304 70.7757C23.4747 70.9304 23.696 71.0317 23.968 71.0797C24.2454 71.1277 24.5867 71.1517 24.992 71.1517ZM26.8 72.9716L27.832 72.9716L27.832 74.8996L22 74.8996L22 73.7476L26.8 73.7476L26.8 72.9716Z" fill="#051B29"/>
<path d="M48 115L48 127.5" stroke="black" stroke-width="2" stroke-linecap="round"/>
<rect x="49.5" y="276.5" width="173" height="49" transform="rotate(90 49.5 276.5)" fill="#0076BE" stroke="#051B29"/>
<path d="M22 359.693L24.176 358.461L24.176 357.933L22 357.933L22 356.813L27.584 356.813L27.584 358.909C27.584 359.341 27.5067 359.709 27.352 360.013C27.2027 360.317 26.9974 360.543 26.736 360.693C26.48 360.847 26.192 360.925 25.872 360.925C25.504 360.925 25.1707 360.818 24.872 360.605C24.5787 360.391 24.376 360.074 24.264 359.653L22 360.989L22 359.693ZM25.016 357.933L25.016 358.869C25.016 359.173 25.088 359.399 25.232 359.549C25.3814 359.698 25.5867 359.773 25.848 359.773C26.104 359.773 26.3014 359.698 26.44 359.549C26.584 359.399 26.656 359.173 26.656 358.869L26.656 357.933L25.016 357.933ZM27.584 363.89C27.584 364.476 27.4694 364.991 27.24 365.434C27.0107 365.882 26.6827 366.226 26.256 366.466C25.8347 366.711 25.344 366.834 24.784 366.834C24.224 366.834 23.7334 366.711 23.312 366.466C22.896 366.226 22.5734 365.882 22.344 365.434C22.1147 364.991 22 364.476 22 363.89L22 361.938L27.584 361.938L27.584 363.89ZM22.952 363.85C22.952 364.436 23.112 364.89 23.432 365.21C23.752 365.53 24.2027 365.69 24.784 365.69C25.3654 365.69 25.8187 365.53 26.144 365.21C26.4747 364.89 26.64 364.436 26.64 363.85L26.64 363.058L22.952 363.058L22.952 363.85ZM21.944 372.17C21.944 371.648 22.0667 371.168 22.312 370.73C22.5574 370.293 22.896 369.946 23.328 369.69C23.7654 369.434 24.2587 369.306 24.808 369.306C25.352 369.306 25.84 369.434 26.272 369.69C26.7094 369.946 27.0507 370.293 27.296 370.73C27.5414 371.168 27.664 371.648 27.664 372.17C27.664 372.698 27.5414 373.178 27.296 373.61C27.0507 374.048 26.7094 374.392 26.272 374.642C25.84 374.898 25.352 375.026 24.808 375.026C24.2587 375.026 23.7654 374.898 23.328 374.642C22.896 374.392 22.5574 374.048 22.312 373.61C22.0667 373.173 21.944 372.693 21.944 372.17ZM22.944 372.17C22.944 372.506 23.0187 372.802 23.168 373.058C23.3227 373.314 23.5414 373.514 23.824 373.658C24.1067 373.802 24.4347 373.874 24.808 373.874C25.1814 373.874 25.5067 373.802 25.784 373.658C26.0667 373.514 26.2827 373.314 26.432 373.058C26.5814 372.802 26.656 372.506 26.656 372.17C26.656 371.834 26.5814 371.536 26.432 371.274C26.2827 371.018 26.0667 370.818 25.784 370.674C25.5067 370.53 25.1814 370.458 24.808 370.458C24.4347 370.458 24.1067 370.53 23.824 370.674C23.5414 370.818 23.3227 371.018 23.168 371.274C23.0187 371.536 22.944 371.834 22.944 372.17ZM25.512 377.891L25.512 377.115L22 377.115L22 375.979L25.512 375.979L25.512 375.475L26.432 375.475L26.432 375.979L26.656 375.979C27.2 375.979 27.6 376.134 27.856 376.443C28.112 376.753 28.232 377.219 28.216 377.843L27.272 377.843C27.2774 377.571 27.232 377.382 27.136 377.275C27.04 377.169 26.8667 377.115 26.616 377.115L26.432 377.115L26.432 377.891L25.512 377.891ZM25.512 380.649L25.512 379.873L22 379.873L22 378.737L25.512 378.737L25.512 378.233L26.432 378.233L26.432 378.737L26.656 378.737C27.2 378.737 27.6 378.892 27.856 379.201C28.112 379.511 28.232 379.977 28.216 380.601L27.272 380.601C27.2774 380.329 27.232 380.14 27.136 380.033C27.04 379.927 26.8667 379.873 26.616 379.873L26.432 379.873L26.432 380.649L25.512 380.649ZM26.96 381.943C26.96 381.746 27.0214 381.58 27.144 381.447C27.272 381.319 27.4294 381.255 27.616 381.255C27.8027 381.255 27.9574 381.319 28.08 381.447C28.208 381.58 28.272 381.746 28.272 381.943C28.272 382.14 28.208 382.303 28.08 382.431C27.9574 382.564 27.8027 382.631 27.616 382.631C27.4294 382.631 27.272 382.564 27.144 382.431C27.0214 382.303 26.96 382.14 26.96 381.943ZM26.432 382.495L22 382.495L22 381.375L26.432 381.375L26.432 382.495ZM24.216 383.314C24.6747 383.314 25.0747 383.407 25.416 383.594C25.7627 383.78 26.0294 384.039 26.216 384.37C26.408 384.7 26.504 385.079 26.504 385.506C26.504 386.055 26.3654 386.508 26.088 386.866C25.816 387.228 25.432 387.471 24.936 387.594L24.936 386.386C25.128 386.322 25.2774 386.212 25.384 386.058C25.496 385.908 25.552 385.722 25.552 385.498C25.552 385.178 25.4347 384.924 25.2 384.738C24.9707 384.551 24.6427 384.458 24.216 384.458C23.7947 384.458 23.4667 384.551 23.232 384.738C23.0027 384.924 22.888 385.178 22.888 385.498C22.888 385.951 23.0907 386.247 23.496 386.386L23.496 387.594C23.016 387.471 22.6347 387.228 22.352 386.866C22.0694 386.503 21.928 386.05 21.928 385.506C21.928 385.079 22.0214 384.7 22.208 384.37C22.4 384.039 22.6667 383.78 23.008 383.594C23.3547 383.407 23.7574 383.314 24.216 383.314ZM24.312 392.534C24.152 392.534 24.008 392.524 23.88 392.502L23.88 389.262C23.56 389.289 23.3094 389.401 23.128 389.598C22.9467 389.796 22.856 390.038 22.856 390.326C22.856 390.742 23.0347 391.038 23.392 391.214L23.392 392.422C22.9654 392.294 22.6134 392.049 22.336 391.686C22.064 391.324 21.928 390.878 21.928 390.35C21.928 389.924 22.0214 389.54 22.208 389.198C22.4 388.862 22.6694 388.598 23.016 388.406C23.3627 388.22 23.7627 388.126 24.216 388.126C24.6747 388.126 25.0774 388.22 25.424 388.406C25.7707 388.593 26.0374 388.854 26.224 389.19C26.4107 389.526 26.504 389.913 26.504 390.35C26.504 390.772 26.4134 391.148 26.232 391.478C26.0507 391.814 25.792 392.073 25.456 392.254C25.1254 392.441 24.744 392.534 24.312 392.534ZM24.632 391.374C24.92 391.369 25.1494 391.265 25.32 391.062C25.496 390.86 25.584 390.612 25.584 390.318C25.584 390.041 25.4987 389.806 25.328 389.614C25.1627 389.428 24.9307 389.313 24.632 389.27L24.632 391.374Z" fill="#E6F1F9"/>
<path d="M48 289.062L48 301.622" stroke="black" stroke-width="2" stroke-linecap="round"/>
<mask id="path-27-inside-1_102_398" fill="white">
<path d="M107 277L107 207L145 207L145 277L107 277Z"/>
</mask>
<path d="M107 277L107 207L145 207L145 277L107 277Z" fill="#E6F1F9"/>
<path d="M145 207L146 207L146 206L145 206L145 207ZM145 277L145 278L146 278L146 277L145 277ZM107 208L145 208L145 206L107 206L107 208ZM144 207L144 277L146 277L146 207L144 207ZM145 276L107 276L107 278L145 278L145 276Z" fill="black" mask="url(#path-27-inside-1_102_398)"/>
<mask id="path-29-inside-2_102_398" fill="white">
<path d="M145 208L145 276L96 276L96 208L145 208Z"/>
</mask>
<path d="M145 208L145 276L96 276L96 208L145 208Z" fill="#E6F1F9"/>
<path d="M145 208L146 208L146 207L145 207L145 208ZM145 276L145 277L146 277L146 276L145 276ZM144 208L144 276L146 276L146 208L144 208ZM145 275L96 275L96 277L145 277L145 275ZM96 209L145 209L145 207L96 207L96 209Z" fill="black" mask="url(#path-29-inside-2_102_398)"/>
<line x1="127" y1="243.5" x2="96" y2="243.5" stroke="black"/>
<line x1="127" y1="239.5" x2="96" y2="239.5" stroke="black"/>
<line x1="127.5" y1="239" x2="127.5" y2="244" stroke="black"/>
<line x1="127.25" y1="244" x2="127.25" y2="275" stroke="black" stroke-width="0.5"/>
<line x1="127.25" y1="209" x2="127.25" y2="240" stroke="black" stroke-width="0.5"/>
<line x1="124.25" y1="244" x2="124.25" y2="275" stroke="black" stroke-width="0.5"/>
<line x1="124.25" y1="209" x2="124.25" y2="240" stroke="black" stroke-width="0.5"/>
<line x1="121.25" y1="244" x2="121.25" y2="275" stroke="black" stroke-width="0.5"/>
<line x1="121.25" y1="209" x2="121.25" y2="240" stroke="black" stroke-width="0.5"/>
<line x1="118.25" y1="244" x2="118.25" y2="275" stroke="black" stroke-width="0.5"/>
<line x1="118.25" y1="209" x2="118.25" y2="240" stroke="black" stroke-width="0.5"/>
<line x1="115.25" y1="244" x2="115.25" y2="275" stroke="black" stroke-width="0.5"/>
<line x1="115.25" y1="209" x2="115.25" y2="240" stroke="black" stroke-width="0.5"/>
<line x1="112.25" y1="244" x2="112.25" y2="275" stroke="black" stroke-width="0.5"/>
<line x1="112.25" y1="209" x2="112.25" y2="240" stroke="black" stroke-width="0.5"/>
<line x1="109.25" y1="244" x2="109.25" y2="275" stroke="black" stroke-width="0.5"/>
<line x1="109.25" y1="209" x2="109.25" y2="240" stroke="black" stroke-width="0.5"/>
<line x1="106.25" y1="244" x2="106.25" y2="275" stroke="black" stroke-width="0.5"/>
<line x1="106.25" y1="209" x2="106.25" y2="240" stroke="black" stroke-width="0.5"/>
<line x1="103.25" y1="244" x2="103.25" y2="275" stroke="black" stroke-width="0.5"/>
<line x1="103.25" y1="209" x2="103.25" y2="240" stroke="black" stroke-width="0.5"/>
<line x1="100.25" y1="244" x2="100.25" y2="275" stroke="black" stroke-width="0.5"/>
<line x1="100.25" y1="209" x2="100.25" y2="240" stroke="black" stroke-width="0.5"/>
<line x1="97.25" y1="244" x2="97.25" y2="275" stroke="black" stroke-width="0.5"/>
<line x1="97.25" y1="209" x2="97.25" y2="240" stroke="black" stroke-width="0.5"/>
<line x1="49.5" y1="138" x2="49.5" y2="276" stroke="#E6F1F9"/>
<rect x="145.5" y="449.5" width="36" height="49" transform="rotate(90 145.5 449.5)" fill="#E6F1F9" stroke="#051B29"/>
<path d="M129.584 463.824L124 462.264L124 460.944L127.976 459.896L124 458.8L123.992 457.488L129.584 455.984L129.584 457.184L125.248 458.168L129.584 459.304L129.584 460.552L125.272 461.624L129.584 462.616L129.584 463.824ZM126.232 464.268C126.68 464.268 127.077 464.356 127.424 464.532C127.771 464.713 128.037 464.956 128.224 465.26C128.411 465.569 128.504 465.913 128.504 466.292C128.504 466.622 128.437 466.91 128.304 467.156C128.171 467.406 128.003 467.606 127.8 467.756L128.432 467.756L128.432 468.884L124 468.884L124 467.756L124.648 467.756C124.44 467.612 124.267 467.412 124.128 467.156C123.995 466.905 123.928 466.614 123.928 466.284C123.928 465.91 124.024 465.569 124.216 465.26C124.408 464.956 124.677 464.713 125.024 464.532C125.376 464.356 125.779 464.268 126.232 464.268ZM126.216 467.756C126.488 467.756 126.72 467.702 126.912 467.596C127.109 467.489 127.259 467.345 127.36 467.164C127.467 466.982 127.52 466.788 127.52 466.58C127.52 466.372 127.469 466.18 127.368 466.004C127.267 465.828 127.117 465.684 126.92 465.572C126.728 465.465 126.499 465.412 126.232 465.412C125.965 465.412 125.731 465.465 125.528 465.572C125.331 465.684 125.179 465.828 125.072 466.004C124.965 466.185 124.912 466.377 124.912 466.58C124.912 466.788 124.963 466.982 125.064 467.164C125.171 467.345 125.32 467.489 125.512 467.596C125.709 467.702 125.944 467.756 126.216 467.756ZM123.928 471.674C123.928 471.311 123.992 470.986 124.12 470.698C124.253 470.41 124.432 470.18 124.656 470.01C124.88 469.844 125.128 469.754 125.4 469.738L125.4 470.866C125.229 470.887 125.088 470.97 124.976 471.114C124.864 471.263 124.808 471.447 124.808 471.666C124.808 471.879 124.851 472.044 124.936 472.162C125.021 472.284 125.131 472.346 125.264 472.346C125.408 472.346 125.515 472.271 125.584 472.122C125.659 471.978 125.739 471.746 125.824 471.426C125.904 471.095 125.987 470.823 126.072 470.61C126.157 470.402 126.288 470.22 126.464 470.066C126.64 469.916 126.877 469.842 127.176 469.842C127.421 469.842 127.645 469.911 127.848 470.05C128.051 470.194 128.211 470.396 128.328 470.658C128.445 470.924 128.504 471.236 128.504 471.594C128.504 472.122 128.371 472.543 128.104 472.858C127.843 473.172 127.488 473.346 127.04 473.378L127.04 472.306C127.216 472.29 127.355 472.215 127.456 472.082C127.563 471.954 127.616 471.78 127.616 471.562C127.616 471.359 127.579 471.202 127.504 471.09C127.429 470.983 127.325 470.93 127.192 470.93C127.043 470.93 126.928 471.004 126.848 471.154C126.773 471.303 126.696 471.535 126.616 471.85C126.536 472.17 126.453 472.434 126.368 472.642C126.283 472.85 126.149 473.028 125.968 473.178C125.792 473.332 125.557 473.412 125.264 473.418C125.008 473.418 124.779 473.346 124.576 473.202C124.373 473.063 124.213 472.86 124.096 472.594C123.984 472.332 123.928 472.026 123.928 471.674ZM128.496 476.833C128.496 477.169 128.421 477.468 128.272 477.729C128.128 477.99 127.912 478.193 127.624 478.337C127.341 478.486 127 478.561 126.6 478.561L124 478.561L124 477.441L126.448 477.441C126.8 477.441 127.069 477.353 127.256 477.177C127.448 477.001 127.544 476.761 127.544 476.457C127.544 476.148 127.448 475.902 127.256 475.721C127.069 475.545 126.8 475.457 126.448 475.457L124 475.457L124 474.337L129.92 474.337L129.92 475.457L127.88 475.457C128.072 475.601 128.221 475.793 128.328 476.033C128.44 476.273 128.496 476.54 128.496 476.833ZM112 459.018L114.176 457.786L114.176 457.258L112 457.258L112 456.138L117.584 456.138L117.584 458.234C117.584 458.666 117.507 459.034 117.352 459.338C117.203 459.642 116.997 459.868 116.736 460.018C116.48 460.172 116.192 460.25 115.872 460.25C115.504 460.25 115.171 460.143 114.872 459.93C114.579 459.716 114.376 459.399 114.264 458.978L112 460.314L112 459.018ZM115.016 457.258L115.016 458.194C115.016 458.498 115.088 458.724 115.232 458.874C115.381 459.023 115.587 459.098 115.848 459.098C116.104 459.098 116.301 459.023 116.44 458.874C116.584 458.724 116.656 458.498 116.656 458.194L116.656 457.258L115.016 457.258ZM111.928 463.231C111.928 462.804 112.021 462.42 112.208 462.079C112.4 461.737 112.669 461.468 113.016 461.271C113.363 461.079 113.763 460.983 114.216 460.983C114.669 460.983 115.069 461.081 115.416 461.279C115.763 461.481 116.029 461.756 116.216 462.103C116.408 462.449 116.504 462.836 116.504 463.263C116.504 463.689 116.408 464.076 116.216 464.423C116.029 464.769 115.763 465.041 115.416 465.239C115.069 465.441 114.669 465.543 114.216 465.543C113.763 465.543 113.363 465.439 113.016 465.231C112.669 465.028 112.4 464.751 112.208 464.399C112.021 464.052 111.928 463.663 111.928 463.231ZM112.904 463.231C112.904 463.433 112.952 463.623 113.048 463.799C113.149 463.98 113.299 464.124 113.496 464.231C113.693 464.337 113.933 464.391 114.216 464.391C114.637 464.391 114.96 464.279 115.184 464.055C115.413 463.836 115.528 463.567 115.528 463.247C115.528 462.927 115.413 462.657 115.184 462.439C114.96 462.225 114.637 462.119 114.216 462.119C113.795 462.119 113.469 462.223 113.24 462.431C113.016 462.644 112.904 462.911 112.904 463.231ZM111.928 468.332C111.928 467.906 112.021 467.522 112.208 467.18C112.4 466.839 112.669 466.57 113.016 466.372C113.363 466.18 113.763 466.084 114.216 466.084C114.669 466.084 115.069 466.183 115.416 466.38C115.763 466.583 116.029 466.858 116.216 467.204C116.408 467.551 116.504 467.938 116.504 468.364C116.504 468.791 116.408 469.178 116.216 469.524C116.029 469.871 115.763 470.143 115.416 470.34C115.069 470.543 114.669 470.644 114.216 470.644C113.763 470.644 113.363 470.54 113.016 470.332C112.669 470.13 112.4 469.852 112.208 469.5C112.021 469.154 111.928 468.764 111.928 468.332ZM112.904 468.332C112.904 468.535 112.952 468.724 113.048 468.9C113.149 469.082 113.299 469.226 113.496 469.332C113.693 469.439 113.933 469.492 114.216 469.492C114.637 469.492 114.96 469.38 115.184 469.156C115.413 468.938 115.528 468.668 115.528 468.348C115.528 468.028 115.413 467.759 115.184 467.54C114.96 467.327 114.637 467.22 114.216 467.22C113.795 467.22 113.469 467.324 113.24 467.532C113.016 467.746 112.904 468.012 112.904 468.332ZM116.496 476.97C116.496 477.514 116.328 477.951 115.992 478.282C115.661 478.618 115.197 478.786 114.6 478.786L112 478.786L112 477.666L114.448 477.666C114.795 477.666 115.059 477.578 115.24 477.402C115.427 477.226 115.52 476.986 115.52 476.682C115.52 476.378 115.427 476.135 115.24 475.954C115.059 475.778 114.795 475.69 114.448 475.69L112 475.69L112 474.57L114.448 474.57C114.795 474.57 115.059 474.482 115.24 474.306C115.427 474.13 115.52 473.89 115.52 473.586C115.52 473.277 115.427 473.031 115.24 472.85C115.059 472.674 114.795 472.586 114.448 472.586L112 472.586L112 471.466L116.432 471.466L116.432 472.586L115.896 472.586C116.083 472.73 116.229 472.914 116.336 473.138C116.443 473.367 116.496 473.618 116.496 473.89C116.496 474.237 116.421 474.546 116.272 474.818C116.128 475.09 115.92 475.301 115.648 475.45C115.904 475.594 116.109 475.802 116.264 476.074C116.419 476.351 116.496 476.65 116.496 476.97Z" fill="#051B29"/>
<path d="M98 462L98 474.847" stroke="black" stroke-width="2" stroke-linecap="round"/>
<path d="M69 260L69 295" stroke="#B3D6EC" stroke-width="5" stroke-linecap="round" stroke-dasharray="10 10"/>
<path d="M91 260L69 260" stroke="#B3D6EC" stroke-width="5" stroke-linecap="round" stroke-dasharray="10 10"/>
<path d="M69 295L54 295" stroke="#B3D6EC" stroke-width="5" stroke-linecap="round" stroke-dasharray="10 10"/>
</svg>
