<svg width="147" height="487" viewBox="0 0 147 487" fill="none" xmlns="http://www.w3.org/2000/svg">
<rect x="146" y="0.999989" width="485" height="96" transform="rotate(90 146 0.999989)" fill="#E6F1F9" stroke="#051B29"/>
<path d="M48.5 143.5L48.5 270.5" stroke="black" stroke-width="2" stroke-linecap="round"/>
<path d="M42.5 143.5L42.5 270.5" stroke="black" stroke-opacity="0.5" stroke-width="2" stroke-linecap="round"/>
<path d="M36.5 143.5L36.5 270.5" stroke="black" stroke-opacity="0.3" stroke-width="2" stroke-linecap="round"/>
<rect x="146" y="0.999989" width="69" height="49" transform="rotate(90 146 0.999989)" fill="#78BFEC" stroke="#051B29"/>
<path d="M118.444 21.769C118.444 21.2463 118.567 20.7663 118.812 20.329C119.057 19.8917 119.396 19.545 119.828 19.289C120.265 19.033 120.759 18.905 121.308 18.905C121.852 18.905 122.34 19.033 122.772 19.289C123.209 19.545 123.551 19.8917 123.796 20.329C124.041 20.7663 124.164 21.2463 124.164 21.769C124.164 22.297 124.041 22.777 123.796 23.209C123.551 23.6463 123.209 23.9903 122.772 24.241C122.34 24.497 121.852 24.625 121.308 24.625C120.759 24.625 120.265 24.497 119.828 24.241C119.396 23.9903 119.057 23.6463 118.812 23.209C118.567 22.7717 118.444 22.2917 118.444 21.769ZM119.444 21.769C119.444 22.105 119.519 22.401 119.668 22.657C119.823 22.913 120.041 23.113 120.324 23.257C120.607 23.401 120.935 23.473 121.308 23.473C121.681 23.473 122.007 23.401 122.284 23.257C122.567 23.113 122.783 22.913 122.932 22.657C123.081 22.401 123.156 22.105 123.156 21.769C123.156 21.433 123.081 21.1343 122.932 20.873C122.783 20.617 122.567 20.417 122.284 20.273C122.007 20.129 121.681 20.057 121.308 20.057C120.935 20.057 120.607 20.129 120.324 20.273C120.041 20.417 119.823 20.617 119.668 20.873C119.519 21.1343 119.444 21.433 119.444 21.769ZM122.012 27.4902L122.012 26.7142L118.5 26.7142L118.5 25.5782L122.012 25.5782L122.012 25.0742L122.932 25.0742L122.932 25.5782L123.156 25.5782C123.7 25.5782 124.1 25.7329 124.356 26.0422C124.612 26.3516 124.732 26.8182 124.716 27.4422L123.772 27.4422C123.777 27.1702 123.732 26.9809 123.636 26.8742C123.54 26.7676 123.367 26.7142 123.116 26.7142L122.932 26.7142L122.932 27.4902L122.012 27.4902ZM122.012 30.2481L122.012 29.4721L118.5 29.4721L118.5 28.3361L122.012 28.3361L122.012 27.8321L122.932 27.8321L122.932 28.3361L123.156 28.3361C123.7 28.3361 124.1 28.4907 124.356 28.8001C124.612 29.1094 124.732 29.5761 124.716 30.2001L123.772 30.2001C123.777 29.9281 123.732 29.7387 123.636 29.6321C123.54 29.5254 123.367 29.4721 123.116 29.4721L122.932 29.4721L122.932 30.2481L122.012 30.2481ZM123.46 31.5419C123.46 31.3445 123.521 31.1792 123.644 31.0459C123.772 30.9179 123.929 30.8539 124.116 30.8539C124.303 30.8539 124.457 30.9179 124.58 31.0459C124.708 31.1792 124.772 31.3445 124.772 31.5419C124.772 31.7392 124.708 31.9019 124.58 32.0299C124.457 32.1632 124.303 32.2299 124.116 32.2299C123.929 32.2299 123.772 32.1632 123.644 32.0299C123.521 31.9019 123.46 31.7392 123.46 31.5419ZM122.932 32.0939L118.5 32.0939L118.5 30.9739L122.932 30.9739L122.932 32.0939ZM120.716 32.9124C121.175 32.9124 121.575 33.0058 121.916 33.1924C122.263 33.3791 122.529 33.6378 122.716 33.9684C122.908 34.2991 123.004 34.6778 123.004 35.1044C123.004 35.6538 122.865 36.1071 122.588 36.4644C122.316 36.8271 121.932 37.0698 121.436 37.1924L121.436 35.9844C121.628 35.9204 121.777 35.8111 121.884 35.6564C121.996 35.5071 122.052 35.3204 122.052 35.0964C122.052 34.7764 121.935 34.5231 121.7 34.3364C121.471 34.1498 121.143 34.0564 120.716 34.0564C120.295 34.0564 119.967 34.1498 119.732 34.3364C119.503 34.5231 119.388 34.7764 119.388 35.0964C119.388 35.5498 119.591 35.8458 119.996 35.9844L119.996 37.1924C119.516 37.0698 119.135 36.8271 118.852 36.4644C118.569 36.1018 118.428 35.6484 118.428 35.1044C118.428 34.6778 118.521 34.2991 118.708 33.9684C118.9 33.6378 119.167 33.3791 119.508 33.1924C119.855 33.0058 120.257 32.9124 120.716 32.9124ZM120.812 42.1329C120.652 42.1329 120.508 42.1223 120.38 42.1009L120.38 38.8609C120.06 38.8876 119.809 38.9996 119.628 39.1969C119.447 39.3943 119.356 39.6369 119.356 39.9249C119.356 40.3409 119.535 40.6369 119.892 40.8129L119.892 42.0209C119.465 41.8929 119.113 41.6476 118.836 41.2849C118.564 40.9223 118.428 40.4769 118.428 39.9489C118.428 39.5223 118.521 39.1383 118.708 38.7969C118.9 38.4609 119.169 38.1969 119.516 38.0049C119.863 37.8183 120.263 37.7249 120.716 37.7249C121.175 37.7249 121.577 37.8183 121.924 38.0049C122.271 38.1916 122.537 38.4529 122.724 38.7889C122.911 39.1249 123.004 39.5116 123.004 39.9489C123.004 40.3703 122.913 40.7463 122.732 41.0769C122.551 41.4129 122.292 41.6716 121.956 41.8529C121.625 42.0396 121.244 42.1329 120.812 42.1329ZM121.132 40.9729C121.42 40.9676 121.649 40.8636 121.82 40.6609C121.996 40.4583 122.084 40.2103 122.084 39.9169C122.084 39.6396 121.999 39.4049 121.828 39.2129C121.663 39.0263 121.431 38.9116 121.132 38.8689L121.132 40.9729ZM121.492 44.7287C122.415 44.7287 123.137 44.894 123.66 45.2247C124.183 45.5607 124.444 46.1153 124.444 46.8887C124.444 47.662 124.183 48.214 123.66 48.5447C123.137 48.8807 122.415 49.0487 121.492 49.0487C120.564 49.0487 119.836 48.8807 119.308 48.5447C118.78 48.214 118.516 47.662 118.516 46.8887C118.516 46.1153 118.78 45.5607 119.308 45.2247C119.836 44.894 120.564 44.7287 121.492 44.7287ZM121.492 47.9447C121.887 47.9447 122.217 47.918 122.484 47.8647C122.756 47.8167 122.977 47.7153 123.148 47.5607C123.319 47.4113 123.404 47.1873 123.404 46.8887C123.404 46.59 123.319 46.3633 123.148 46.2087C122.977 46.0593 122.756 45.958 122.484 45.9047C122.217 45.8567 121.887 45.8327 121.492 45.8327C121.087 45.8327 120.745 45.8567 120.468 45.9047C120.196 45.9527 119.975 46.054 119.804 46.2087C119.639 46.3633 119.556 46.59 119.556 46.8887C119.556 47.1873 119.639 47.414 119.804 47.5687C119.975 47.7233 120.196 47.8247 120.468 47.8727C120.745 47.9207 121.087 47.9447 121.492 47.9447ZM123.3 49.7646L124.332 49.7646L124.332 51.6926L118.5 51.6926L118.5 50.5406L123.3 50.5406L123.3 49.7646Z" fill="#051B29"/>
<path d="M98.5 48L98.5 60.5" stroke="black" stroke-width="2" stroke-linecap="round"/>
<rect x="146" y="70" width="69" height="49" transform="rotate(90 146 70)" fill="#78BFEC" stroke="#051B29"/>
<path d="M98.5 117.5L98.5 130" stroke="black" stroke-width="2" stroke-linecap="round"/>
<path d="M118.444 89.9213C118.444 89.3987 118.567 88.9187 118.812 88.4813C119.057 88.044 119.396 87.6973 119.828 87.4413C120.265 87.1853 120.759 87.0573 121.308 87.0573C121.852 87.0573 122.34 87.1853 122.772 87.4413C123.209 87.6973 123.551 88.044 123.796 88.4813C124.041 88.9187 124.164 89.3987 124.164 89.9213C124.164 90.4493 124.041 90.9293 123.796 91.3613C123.551 91.7987 123.209 92.1427 122.772 92.3933C122.34 92.6493 121.852 92.7773 121.308 92.7773C120.759 92.7773 120.265 92.6493 119.828 92.3933C119.396 92.1427 119.057 91.7987 118.812 91.3613C118.567 90.924 118.444 90.444 118.444 89.9213ZM119.444 89.9213C119.444 90.2573 119.519 90.5533 119.668 90.8093C119.823 91.0653 120.041 91.2653 120.324 91.4093C120.607 91.5533 120.935 91.6253 121.308 91.6253C121.681 91.6253 122.007 91.5533 122.284 91.4093C122.567 91.2653 122.783 91.0653 122.932 90.8093C123.081 90.5533 123.156 90.2573 123.156 89.9213C123.156 89.5853 123.081 89.2867 122.932 89.0253C122.783 88.7693 122.567 88.5693 122.284 88.4253C122.007 88.2813 121.681 88.2093 121.308 88.2093C120.935 88.2093 120.607 88.2813 120.324 88.4253C120.041 88.5693 119.823 88.7693 119.668 89.0253C119.519 89.2867 119.444 89.5853 119.444 89.9213ZM122.012 95.6426L122.012 94.8666L118.5 94.8666L118.5 93.7306L122.012 93.7306L122.012 93.2266L122.932 93.2266L122.932 93.7306L123.156 93.7306C123.7 93.7306 124.1 93.8852 124.356 94.1946C124.612 94.5039 124.732 94.9706 124.716 95.5946L123.772 95.5946C123.777 95.3226 123.732 95.1332 123.636 95.0266C123.54 94.9199 123.367 94.8666 123.116 94.8666L122.932 94.8666L122.932 95.6426L122.012 95.6426ZM122.012 98.4004L122.012 97.6244L118.5 97.6244L118.5 96.4884L122.012 96.4884L122.012 95.9844L122.932 95.9844L122.932 96.4884L123.156 96.4884C123.7 96.4884 124.1 96.6431 124.356 96.9524C124.612 97.2617 124.732 97.7284 124.716 98.3524L123.772 98.3524C123.777 98.0804 123.732 97.8911 123.636 97.7844C123.54 97.6777 123.367 97.6244 123.116 97.6244L122.932 97.6244L122.932 98.4004L122.012 98.4004ZM123.46 99.6942C123.46 99.4969 123.521 99.3315 123.644 99.1982C123.772 99.0702 123.929 99.0062 124.116 99.0062C124.303 99.0062 124.457 99.0702 124.58 99.1982C124.708 99.3315 124.772 99.4969 124.772 99.6942C124.772 99.8915 124.708 100.054 124.58 100.182C124.457 100.316 124.303 100.382 124.116 100.382C123.929 100.382 123.772 100.316 123.644 100.182C123.521 100.054 123.46 99.8915 123.46 99.6942ZM122.932 100.246L118.5 100.246L118.5 99.1262L122.932 99.1262L122.932 100.246ZM120.716 101.065C121.175 101.065 121.575 101.158 121.916 101.345C122.263 101.531 122.529 101.79 122.716 102.121C122.908 102.451 123.004 102.83 123.004 103.257C123.004 103.806 122.865 104.259 122.588 104.617C122.316 104.979 121.932 105.222 121.436 105.345L121.436 104.137C121.628 104.073 121.777 103.963 121.884 103.809C121.996 103.659 122.052 103.473 122.052 103.249C122.052 102.929 121.935 102.675 121.7 102.489C121.471 102.302 121.143 102.209 120.716 102.209C120.295 102.209 119.967 102.302 119.732 102.489C119.503 102.675 119.388 102.929 119.388 103.249C119.388 103.702 119.591 103.998 119.996 104.137L119.996 105.345C119.516 105.222 119.135 104.979 118.852 104.617C118.569 104.254 118.428 103.801 118.428 103.257C118.428 102.83 118.521 102.451 118.708 102.121C118.9 101.79 119.167 101.531 119.508 101.345C119.855 101.158 120.257 101.065 120.716 101.065ZM120.812 110.285C120.652 110.285 120.508 110.275 120.38 110.253L120.38 107.013C120.06 107.04 119.809 107.152 119.628 107.349C119.447 107.547 119.356 107.789 119.356 108.077C119.356 108.493 119.535 108.789 119.892 108.965L119.892 110.173C119.465 110.045 119.113 109.8 118.836 109.437C118.564 109.075 118.428 108.629 118.428 108.101C118.428 107.675 118.521 107.291 118.708 106.949C118.9 106.613 119.169 106.349 119.516 106.157C119.863 105.971 120.263 105.877 120.716 105.877C121.175 105.877 121.577 105.971 121.924 106.157C122.271 106.344 122.537 106.605 122.724 106.941C122.911 107.277 123.004 107.664 123.004 108.101C123.004 108.523 122.913 108.899 122.732 109.229C122.551 109.565 122.292 109.824 121.956 110.005C121.625 110.192 121.244 110.285 120.812 110.285ZM121.132 109.125C121.42 109.12 121.649 109.016 121.82 108.813C121.996 108.611 122.084 108.363 122.084 108.069C122.084 107.792 121.999 107.557 121.828 107.365C121.663 107.179 121.431 107.064 121.132 107.021L121.132 109.125ZM121.492 112.881C122.415 112.881 123.137 113.046 123.66 113.377C124.183 113.713 124.444 114.268 124.444 115.041C124.444 115.814 124.183 116.366 123.66 116.697C123.137 117.033 122.415 117.201 121.492 117.201C120.564 117.201 119.836 117.033 119.308 116.697C118.78 116.366 118.516 115.814 118.516 115.041C118.516 114.268 118.78 113.713 119.308 113.377C119.836 113.046 120.564 112.881 121.492 112.881ZM121.492 116.097C121.887 116.097 122.217 116.07 122.484 116.017C122.756 115.969 122.977 115.868 123.148 115.713C123.319 115.564 123.404 115.34 123.404 115.041C123.404 114.742 123.319 114.516 123.148 114.361C122.977 114.212 122.756 114.11 122.484 114.057C122.217 114.009 121.887 113.985 121.492 113.985C121.087 113.985 120.745 114.009 120.468 114.057C120.196 114.105 119.975 114.206 119.804 114.361C119.639 114.516 119.556 114.742 119.556 115.041C119.556 115.34 119.639 115.566 119.804 115.721C119.975 115.876 120.196 115.977 120.468 116.025C120.745 116.073 121.087 116.097 121.492 116.097ZM119.764 118.405C120.191 118.917 120.545 119.325 120.828 119.629C121.116 119.933 121.415 120.186 121.724 120.389C122.033 120.592 122.337 120.693 122.636 120.693C122.908 120.693 123.121 120.629 123.276 120.501C123.431 120.373 123.508 120.176 123.508 119.909C123.508 119.642 123.417 119.437 123.236 119.293C123.06 119.149 122.817 119.074 122.508 119.069L122.508 117.981C123.148 118.002 123.633 118.192 123.964 118.549C124.295 118.912 124.46 119.37 124.46 119.925C124.46 120.533 124.297 121 123.972 121.325C123.652 121.65 123.228 121.813 122.7 121.813C122.284 121.813 121.887 121.701 121.508 121.477C121.129 121.253 120.799 120.997 120.516 120.709C120.239 120.421 119.903 120.045 119.508 119.581L119.508 121.941L118.58 121.941L118.58 117.989L119.412 117.989L119.764 118.405Z" fill="#051B29"/>
<rect x="146" y="139" width="69" height="49" transform="rotate(90 146 139)" fill="#78BFEC" stroke="#051B29"/>
<path d="M127.3 154.581C127.849 154.581 128.34 154.703 128.772 154.949C129.209 155.199 129.548 155.538 129.788 155.965C130.033 156.397 130.156 156.879 130.156 157.413C130.156 158.037 129.996 158.583 129.676 159.053C129.356 159.522 128.913 159.85 128.348 160.037L128.348 158.749C128.615 158.621 128.815 158.439 128.948 158.205C129.081 157.975 129.148 157.709 129.148 157.405C129.148 157.079 129.071 156.789 128.916 156.533C128.767 156.282 128.553 156.085 128.276 155.941C127.999 155.802 127.673 155.733 127.3 155.733C126.932 155.733 126.607 155.802 126.324 155.941C126.047 156.085 125.831 156.282 125.676 156.533C125.527 156.789 125.452 157.079 125.452 157.405C125.452 157.709 125.519 157.975 125.652 158.205C125.791 158.439 125.993 158.621 126.26 158.749L126.26 160.037C125.689 159.85 125.244 159.522 124.924 159.053C124.609 158.589 124.452 158.042 124.452 157.413C124.452 156.879 124.572 156.397 124.812 155.965C125.057 155.538 125.396 155.199 125.828 154.949C126.26 154.703 126.751 154.581 127.3 154.581ZM124.428 162.961C124.428 162.535 124.521 162.151 124.708 161.809C124.9 161.468 125.169 161.199 125.516 161.001C125.863 160.809 126.263 160.713 126.716 160.713C127.169 160.713 127.569 160.812 127.916 161.009C128.263 161.212 128.529 161.487 128.716 161.833C128.908 162.18 129.004 162.567 129.004 162.993C129.004 163.42 128.908 163.807 128.716 164.153C128.529 164.5 128.263 164.772 127.916 164.969C127.569 165.172 127.169 165.273 126.716 165.273C126.263 165.273 125.863 165.169 125.516 164.961C125.169 164.759 124.9 164.481 124.708 164.129C124.521 163.783 124.428 163.393 124.428 162.961ZM125.404 162.961C125.404 163.164 125.452 163.353 125.548 163.529C125.649 163.711 125.799 163.855 125.996 163.961C126.193 164.068 126.433 164.121 126.716 164.121C127.137 164.121 127.46 164.009 127.684 163.785C127.913 163.567 128.028 163.297 128.028 162.977C128.028 162.657 127.913 162.388 127.684 162.169C127.46 161.956 127.137 161.849 126.716 161.849C126.295 161.849 125.969 161.953 125.74 162.161C125.516 162.375 125.404 162.641 125.404 162.961ZM128.996 171.599C128.996 172.143 128.828 172.58 128.492 172.911C128.161 173.247 127.697 173.415 127.1 173.415L124.5 173.415L124.5 172.295L126.948 172.295C127.295 172.295 127.559 172.207 127.74 172.031C127.927 171.855 128.02 171.615 128.02 171.311C128.02 171.007 127.927 170.764 127.74 170.583C127.559 170.407 127.295 170.319 126.948 170.319L124.5 170.319L124.5 169.199L126.948 169.199C127.295 169.199 127.559 169.111 127.74 168.935C127.927 168.759 128.02 168.519 128.02 168.215C128.02 167.906 127.927 167.66 127.74 167.479C127.559 167.303 127.295 167.215 126.948 167.215L124.5 167.215L124.5 166.095L128.932 166.095L128.932 167.215L128.396 167.215C128.583 167.359 128.729 167.543 128.836 167.767C128.943 167.996 128.996 168.247 128.996 168.519C128.996 168.866 128.921 169.175 128.772 169.447C128.628 169.719 128.42 169.93 128.148 170.079C128.404 170.223 128.609 170.431 128.764 170.703C128.919 170.98 128.996 171.279 128.996 171.599ZM128.996 179.982C128.996 180.526 128.828 180.963 128.492 181.294C128.161 181.63 127.697 181.798 127.1 181.798L124.5 181.798L124.5 180.678L126.948 180.678C127.295 180.678 127.559 180.59 127.74 180.414C127.927 180.238 128.02 179.998 128.02 179.694C128.02 179.39 127.927 179.147 127.74 178.966C127.559 178.79 127.295 178.702 126.948 178.702L124.5 178.702L124.5 177.582L126.948 177.582C127.295 177.582 127.559 177.494 127.74 177.318C127.927 177.142 128.02 176.902 128.02 176.598C128.02 176.288 127.927 176.043 127.74 175.862C127.559 175.686 127.295 175.598 126.948 175.598L124.5 175.598L124.5 174.478L128.932 174.478L128.932 175.598L128.396 175.598C128.583 175.742 128.729 175.926 128.836 176.15C128.943 176.379 128.996 176.63 128.996 176.902C128.996 177.248 128.921 177.558 128.772 177.83C128.628 178.102 128.42 178.312 128.148 178.462C128.404 178.606 128.609 178.814 128.764 179.086C128.919 179.363 128.996 179.662 128.996 179.982ZM124.428 184.829C124.428 184.402 124.521 184.018 124.708 183.677C124.9 183.335 125.169 183.066 125.516 182.869C125.863 182.677 126.263 182.581 126.716 182.581C127.169 182.581 127.569 182.679 127.916 182.877C128.263 183.079 128.529 183.354 128.716 183.701C128.908 184.047 129.004 184.434 129.004 184.861C129.004 185.287 128.908 185.674 128.716 186.021C128.529 186.367 128.263 186.639 127.916 186.837C127.569 187.039 127.169 187.141 126.716 187.141C126.263 187.141 125.863 187.037 125.516 186.829C125.169 186.626 124.9 186.349 124.708 185.997C124.521 185.65 124.428 185.261 124.428 184.829ZM125.404 184.829C125.404 185.031 125.452 185.221 125.548 185.397C125.649 185.578 125.799 185.722 125.996 185.829C126.193 185.935 126.433 185.989 126.716 185.989C127.137 185.989 127.46 185.877 127.684 185.653C127.913 185.434 128.028 185.165 128.028 184.845C128.028 184.525 127.913 184.255 127.684 184.037C127.46 183.823 127.137 183.717 126.716 183.717C126.295 183.717 125.969 183.821 125.74 184.029C125.516 184.242 125.404 184.509 125.404 184.829ZM128.996 190.418C128.996 190.946 128.828 191.373 128.492 191.698C128.161 192.023 127.697 192.186 127.1 192.186L124.5 192.186L124.5 191.066L126.948 191.066C127.3 191.066 127.569 190.978 127.756 190.802C127.948 190.626 128.044 190.386 128.044 190.082C128.044 189.773 127.948 189.527 127.756 189.346C127.569 189.17 127.3 189.082 126.948 189.082L124.5 189.082L124.5 187.962L128.932 187.962L128.932 189.082L128.38 189.082C128.572 189.231 128.721 189.421 128.828 189.65C128.94 189.885 128.996 190.141 128.996 190.418ZM112.5 165.077L114.676 163.845L114.676 163.317L112.5 163.317L112.5 162.197L118.084 162.197L118.084 164.293C118.084 164.725 118.007 165.093 117.852 165.397C117.703 165.701 117.497 165.927 117.236 166.077C116.98 166.231 116.692 166.309 116.372 166.309C116.004 166.309 115.671 166.202 115.372 165.989C115.079 165.775 114.876 165.458 114.764 165.037L112.5 166.373L112.5 165.077ZM115.516 163.317L115.516 164.253C115.516 164.557 115.588 164.783 115.732 164.933C115.881 165.082 116.087 165.157 116.348 165.157C116.604 165.157 116.801 165.082 116.94 164.933C117.084 164.783 117.156 164.557 117.156 164.253L117.156 163.317L115.516 163.317ZM112.428 169.29C112.428 168.863 112.521 168.479 112.708 168.138C112.9 167.796 113.169 167.527 113.516 167.33C113.863 167.138 114.263 167.042 114.716 167.042C115.169 167.042 115.569 167.14 115.916 167.338C116.263 167.54 116.529 167.815 116.716 168.162C116.908 168.508 117.004 168.895 117.004 169.322C117.004 169.748 116.908 170.135 116.716 170.482C116.529 170.828 116.263 171.1 115.916 171.298C115.569 171.5 115.169 171.602 114.716 171.602C114.263 171.602 113.863 171.498 113.516 171.29C113.169 171.087 112.9 170.81 112.708 170.458C112.521 170.111 112.428 169.722 112.428 169.29ZM113.404 169.29C113.404 169.492 113.452 169.682 113.548 169.858C113.649 170.039 113.799 170.183 113.996 170.29C114.193 170.396 114.433 170.45 114.716 170.45C115.137 170.45 115.46 170.338 115.684 170.114C115.913 169.895 116.028 169.626 116.028 169.306C116.028 168.986 115.913 168.716 115.684 168.498C115.46 168.284 115.137 168.178 114.716 168.178C114.295 168.178 113.969 168.282 113.74 168.49C113.516 168.703 113.404 168.97 113.404 169.29ZM112.428 174.391C112.428 173.964 112.521 173.58 112.708 173.239C112.9 172.898 113.169 172.628 113.516 172.431C113.863 172.239 114.263 172.143 114.716 172.143C115.169 172.143 115.569 172.242 115.916 172.439C116.263 172.642 116.529 172.916 116.716 173.263C116.908 173.61 117.004 173.996 117.004 174.423C117.004 174.85 116.908 175.236 116.716 175.583C116.529 175.93 116.263 176.202 115.916 176.399C115.569 176.602 115.169 176.703 114.716 176.703C114.263 176.703 113.863 176.599 113.516 176.391C113.169 176.188 112.9 175.911 112.708 175.559C112.521 175.212 112.428 174.823 112.428 174.391ZM113.404 174.391C113.404 174.594 113.452 174.783 113.548 174.959C113.649 175.14 113.799 175.284 113.996 175.391C114.193 175.498 114.433 175.551 114.716 175.551C115.137 175.551 115.46 175.439 115.684 175.215C115.913 174.996 116.028 174.727 116.028 174.407C116.028 174.087 115.913 173.818 115.684 173.599C115.46 173.386 115.137 173.279 114.716 173.279C114.295 173.279 113.969 173.383 113.74 173.591C113.516 173.804 113.404 174.071 113.404 174.391ZM116.996 183.029C116.996 183.573 116.828 184.01 116.492 184.341C116.161 184.677 115.697 184.845 115.1 184.845L112.5 184.845L112.5 183.725L114.948 183.725C115.295 183.725 115.559 183.637 115.74 183.461C115.927 183.285 116.02 183.045 116.02 182.741C116.02 182.437 115.927 182.194 115.74 182.013C115.559 181.837 115.295 181.749 114.948 181.749L112.5 181.749L112.5 180.629L114.948 180.629C115.295 180.629 115.559 180.541 115.74 180.365C115.927 180.189 116.02 179.949 116.02 179.645C116.02 179.335 115.927 179.09 115.74 178.909C115.559 178.733 115.295 178.645 114.948 178.645L112.5 178.645L112.5 177.525L116.932 177.525L116.932 178.645L116.396 178.645C116.583 178.789 116.729 178.973 116.836 179.197C116.943 179.426 116.996 179.677 116.996 179.949C116.996 180.295 116.921 180.605 116.772 180.877C116.628 181.149 116.42 181.359 116.148 181.509C116.404 181.653 116.609 181.861 116.764 182.133C116.919 182.41 116.996 182.709 116.996 183.029Z" fill="#051B29"/>
<path d="M98.5 182.5L98.5 195" stroke="black" stroke-width="2" stroke-linecap="round"/>
<rect x="146" y="277" width="69" height="49" transform="rotate(90 146 277)" fill="#78BFEC" stroke="#051B29"/>
<path d="M118.444 302.757C118.444 302.235 118.567 301.755 118.812 301.317C119.057 300.88 119.396 300.533 119.828 300.277C120.265 300.021 120.759 299.893 121.308 299.893C121.852 299.893 122.34 300.021 122.772 300.277C123.209 300.533 123.551 300.88 123.796 301.317C124.041 301.755 124.164 302.235 124.164 302.757C124.164 303.285 124.041 303.765 123.796 304.197C123.551 304.635 123.209 304.979 122.772 305.229C122.34 305.485 121.852 305.613 121.308 305.613C120.759 305.613 120.265 305.485 119.828 305.229C119.396 304.979 119.057 304.635 118.812 304.197C118.567 303.76 118.444 303.28 118.444 302.757ZM119.444 302.757C119.444 303.093 119.519 303.389 119.668 303.645C119.823 303.901 120.041 304.101 120.324 304.245C120.607 304.389 120.935 304.461 121.308 304.461C121.681 304.461 122.007 304.389 122.284 304.245C122.567 304.101 122.783 303.901 122.932 303.645C123.081 303.389 123.156 303.093 123.156 302.757C123.156 302.421 123.081 302.123 122.932 301.861C122.783 301.605 122.567 301.405 122.284 301.261C122.007 301.117 121.681 301.045 121.308 301.045C120.935 301.045 120.607 301.117 120.324 301.261C120.041 301.405 119.823 301.605 119.668 301.861C119.519 302.123 119.444 302.421 119.444 302.757ZM122.012 308.479L122.012 307.703L118.5 307.703L118.5 306.567L122.012 306.567L122.012 306.063L122.932 306.063L122.932 306.567L123.156 306.567C123.7 306.567 124.1 306.721 124.356 307.031C124.612 307.34 124.732 307.807 124.716 308.431L123.772 308.431C123.777 308.159 123.732 307.969 123.636 307.863C123.54 307.756 123.367 307.703 123.116 307.703L122.932 307.703L122.932 308.479L122.012 308.479ZM122.012 311.236L122.012 310.46L118.5 310.46L118.5 309.324L122.012 309.324L122.012 308.82L122.932 308.82L122.932 309.324L123.156 309.324C123.7 309.324 124.1 309.479 124.356 309.788C124.612 310.098 124.732 310.564 124.716 311.188L123.772 311.188C123.777 310.916 123.732 310.727 123.636 310.62C123.54 310.514 123.367 310.46 123.116 310.46L122.932 310.46L122.932 311.236L122.012 311.236ZM123.46 312.53C123.46 312.333 123.521 312.167 123.644 312.034C123.772 311.906 123.929 311.842 124.116 311.842C124.303 311.842 124.457 311.906 124.58 312.034C124.708 312.167 124.772 312.333 124.772 312.53C124.772 312.727 124.708 312.89 124.58 313.018C124.457 313.151 124.303 313.218 124.116 313.218C123.929 313.218 123.772 313.151 123.644 313.018C123.521 312.89 123.46 312.727 123.46 312.53ZM122.932 313.082L118.5 313.082L118.5 311.962L122.932 311.962L122.932 313.082ZM120.716 313.901C121.175 313.901 121.575 313.994 121.916 314.181C122.263 314.367 122.529 314.626 122.716 314.957C122.908 315.287 123.004 315.666 123.004 316.093C123.004 316.642 122.865 317.095 122.588 317.453C122.316 317.815 121.932 318.058 121.436 318.181L121.436 316.973C121.628 316.909 121.777 316.799 121.884 316.645C121.996 316.495 122.052 316.309 122.052 316.085C122.052 315.765 121.935 315.511 121.7 315.325C121.471 315.138 121.143 315.045 120.716 315.045C120.295 315.045 119.967 315.138 119.732 315.325C119.503 315.511 119.388 315.765 119.388 316.085C119.388 316.538 119.591 316.834 119.996 316.973L119.996 318.181C119.516 318.058 119.135 317.815 118.852 317.453C118.569 317.09 118.428 316.637 118.428 316.093C118.428 315.666 118.521 315.287 118.708 314.957C118.9 314.626 119.167 314.367 119.508 314.181C119.855 313.994 120.257 313.901 120.716 313.901ZM120.812 323.121C120.652 323.121 120.508 323.111 120.38 323.089L120.38 319.849C120.06 319.876 119.809 319.988 119.628 320.185C119.447 320.383 119.356 320.625 119.356 320.913C119.356 321.329 119.535 321.625 119.892 321.801L119.892 323.009C119.465 322.881 119.113 322.636 118.836 322.273C118.564 321.911 118.428 321.465 118.428 320.937C118.428 320.511 118.521 320.127 118.708 319.785C118.9 319.449 119.169 319.185 119.516 318.993C119.863 318.807 120.263 318.713 120.716 318.713C121.175 318.713 121.577 318.807 121.924 318.993C122.271 319.18 122.537 319.441 122.724 319.777C122.911 320.113 123.004 320.5 123.004 320.937C123.004 321.359 122.913 321.735 122.732 322.065C122.551 322.401 122.292 322.66 121.956 322.841C121.625 323.028 121.244 323.121 120.812 323.121ZM121.132 321.961C121.42 321.956 121.649 321.852 121.82 321.649C121.996 321.447 122.084 321.199 122.084 320.905C122.084 320.628 121.999 320.393 121.828 320.201C121.663 320.015 121.431 319.9 121.132 319.857L121.132 321.961Z" fill="#051B29"/>
<path d="M98.5 324.5L98.5 337" stroke="black" stroke-width="2" stroke-linecap="round"/>
<rect x="146" y="346" width="69" height="49" transform="rotate(90 146 346)" fill="#78BFEC" stroke="#051B29"/>
<path d="M118.444 371.757C118.444 371.235 118.567 370.755 118.812 370.317C119.057 369.88 119.396 369.533 119.828 369.277C120.265 369.021 120.759 368.893 121.308 368.893C121.852 368.893 122.34 369.021 122.772 369.277C123.209 369.533 123.551 369.88 123.796 370.317C124.041 370.755 124.164 371.235 124.164 371.757C124.164 372.285 124.041 372.765 123.796 373.197C123.551 373.635 123.209 373.979 122.772 374.229C122.34 374.485 121.852 374.613 121.308 374.613C120.759 374.613 120.265 374.485 119.828 374.229C119.396 373.979 119.057 373.635 118.812 373.197C118.567 372.76 118.444 372.28 118.444 371.757ZM119.444 371.757C119.444 372.093 119.519 372.389 119.668 372.645C119.823 372.901 120.041 373.101 120.324 373.245C120.607 373.389 120.935 373.461 121.308 373.461C121.681 373.461 122.007 373.389 122.284 373.245C122.567 373.101 122.783 372.901 122.932 372.645C123.081 372.389 123.156 372.093 123.156 371.757C123.156 371.421 123.081 371.123 122.932 370.861C122.783 370.605 122.567 370.405 122.284 370.261C122.007 370.117 121.681 370.045 121.308 370.045C120.935 370.045 120.607 370.117 120.324 370.261C120.041 370.405 119.823 370.605 119.668 370.861C119.519 371.123 119.444 371.421 119.444 371.757ZM122.012 377.479L122.012 376.703L118.5 376.703L118.5 375.567L122.012 375.567L122.012 375.063L122.932 375.063L122.932 375.567L123.156 375.567C123.7 375.567 124.1 375.721 124.356 376.031C124.612 376.34 124.732 376.807 124.716 377.431L123.772 377.431C123.777 377.159 123.732 376.969 123.636 376.863C123.54 376.756 123.367 376.703 123.116 376.703L122.932 376.703L122.932 377.479L122.012 377.479ZM122.012 380.236L122.012 379.46L118.5 379.46L118.5 378.324L122.012 378.324L122.012 377.82L122.932 377.82L122.932 378.324L123.156 378.324C123.7 378.324 124.1 378.479 124.356 378.788C124.612 379.098 124.732 379.564 124.716 380.188L123.772 380.188C123.777 379.916 123.732 379.727 123.636 379.62C123.54 379.514 123.367 379.46 123.116 379.46L122.932 379.46L122.932 380.236L122.012 380.236ZM123.46 381.53C123.46 381.333 123.521 381.167 123.644 381.034C123.772 380.906 123.929 380.842 124.116 380.842C124.303 380.842 124.457 380.906 124.58 381.034C124.708 381.167 124.772 381.333 124.772 381.53C124.772 381.727 124.708 381.89 124.58 382.018C124.457 382.151 124.303 382.218 124.116 382.218C123.929 382.218 123.772 382.151 123.644 382.018C123.521 381.89 123.46 381.727 123.46 381.53ZM122.932 382.082L118.5 382.082L118.5 380.962L122.932 380.962L122.932 382.082ZM120.716 382.901C121.175 382.901 121.575 382.994 121.916 383.181C122.263 383.367 122.529 383.626 122.716 383.957C122.908 384.287 123.004 384.666 123.004 385.093C123.004 385.642 122.865 386.095 122.588 386.453C122.316 386.815 121.932 387.058 121.436 387.181L121.436 385.973C121.628 385.909 121.777 385.799 121.884 385.645C121.996 385.495 122.052 385.309 122.052 385.085C122.052 384.765 121.935 384.511 121.7 384.325C121.471 384.138 121.143 384.045 120.716 384.045C120.295 384.045 119.967 384.138 119.732 384.325C119.503 384.511 119.388 384.765 119.388 385.085C119.388 385.538 119.591 385.834 119.996 385.973L119.996 387.181C119.516 387.058 119.135 386.815 118.852 386.453C118.569 386.09 118.428 385.637 118.428 385.093C118.428 384.666 118.521 384.287 118.708 383.957C118.9 383.626 119.167 383.367 119.508 383.181C119.855 382.994 120.257 382.901 120.716 382.901ZM120.812 392.121C120.652 392.121 120.508 392.111 120.38 392.089L120.38 388.849C120.06 388.876 119.809 388.988 119.628 389.185C119.447 389.383 119.356 389.625 119.356 389.913C119.356 390.329 119.535 390.625 119.892 390.801L119.892 392.009C119.465 391.881 119.113 391.636 118.836 391.273C118.564 390.911 118.428 390.465 118.428 389.937C118.428 389.511 118.521 389.127 118.708 388.785C118.9 388.449 119.169 388.185 119.516 387.993C119.863 387.807 120.263 387.713 120.716 387.713C121.175 387.713 121.577 387.807 121.924 387.993C122.271 388.18 122.537 388.441 122.724 388.777C122.911 389.113 123.004 389.5 123.004 389.937C123.004 390.359 122.913 390.735 122.732 391.065C122.551 391.401 122.292 391.66 121.956 391.841C121.625 392.028 121.244 392.121 120.812 392.121ZM121.132 390.961C121.42 390.956 121.649 390.852 121.82 390.649C121.996 390.447 122.084 390.199 122.084 389.905C122.084 389.628 121.999 389.393 121.828 389.201C121.663 389.015 121.431 388.9 121.132 388.857L121.132 390.961Z" fill="#051B29"/>
<path d="M98 357.5L98 370" stroke="black" stroke-width="2" stroke-linecap="round"/>
<rect x="146" y="415" width="35" height="49" transform="rotate(90 146 415)" fill="#78BFEC" stroke="#051B29"/>
<path d="M118.444 423.757C118.444 423.235 118.567 422.755 118.812 422.317C119.057 421.88 119.396 421.533 119.828 421.277C120.265 421.021 120.759 420.893 121.308 420.893C121.852 420.893 122.34 421.021 122.772 421.277C123.209 421.533 123.551 421.88 123.796 422.317C124.041 422.755 124.164 423.235 124.164 423.757C124.164 424.285 124.041 424.765 123.796 425.197C123.551 425.635 123.209 425.979 122.772 426.229C122.34 426.485 121.852 426.613 121.308 426.613C120.759 426.613 120.265 426.485 119.828 426.229C119.396 425.979 119.057 425.635 118.812 425.197C118.567 424.76 118.444 424.28 118.444 423.757ZM119.444 423.757C119.444 424.093 119.519 424.389 119.668 424.645C119.823 424.901 120.041 425.101 120.324 425.245C120.607 425.389 120.935 425.461 121.308 425.461C121.681 425.461 122.007 425.389 122.284 425.245C122.567 425.101 122.783 424.901 122.932 424.645C123.081 424.389 123.156 424.093 123.156 423.757C123.156 423.421 123.081 423.123 122.932 422.861C122.783 422.605 122.567 422.405 122.284 422.261C122.007 422.117 121.681 422.045 121.308 422.045C120.935 422.045 120.607 422.117 120.324 422.261C120.041 422.405 119.823 422.605 119.668 422.861C119.519 423.123 119.444 423.421 119.444 423.757ZM122.012 429.479L122.012 428.703L118.5 428.703L118.5 427.567L122.012 427.567L122.012 427.063L122.932 427.063L122.932 427.567L123.156 427.567C123.7 427.567 124.1 427.721 124.356 428.031C124.612 428.34 124.732 428.807 124.716 429.431L123.772 429.431C123.777 429.159 123.732 428.969 123.636 428.863C123.54 428.756 123.367 428.703 123.116 428.703L122.932 428.703L122.932 429.479L122.012 429.479ZM122.012 432.236L122.012 431.46L118.5 431.46L118.5 430.324L122.012 430.324L122.012 429.82L122.932 429.82L122.932 430.324L123.156 430.324C123.7 430.324 124.1 430.479 124.356 430.788C124.612 431.098 124.732 431.564 124.716 432.188L123.772 432.188C123.777 431.916 123.732 431.727 123.636 431.62C123.54 431.514 123.367 431.46 123.116 431.46L122.932 431.46L122.932 432.236L122.012 432.236ZM123.46 433.53C123.46 433.333 123.521 433.167 123.644 433.034C123.772 432.906 123.929 432.842 124.116 432.842C124.303 432.842 124.457 432.906 124.58 433.034C124.708 433.167 124.772 433.333 124.772 433.53C124.772 433.727 124.708 433.89 124.58 434.018C124.457 434.151 124.303 434.218 124.116 434.218C123.929 434.218 123.772 434.151 123.644 434.018C123.521 433.89 123.46 433.727 123.46 433.53ZM122.932 434.082L118.5 434.082L118.5 432.962L122.932 432.962L122.932 434.082ZM120.716 434.901C121.175 434.901 121.575 434.994 121.916 435.181C122.263 435.367 122.529 435.626 122.716 435.957C122.908 436.287 123.004 436.666 123.004 437.093C123.004 437.642 122.865 438.095 122.588 438.453C122.316 438.815 121.932 439.058 121.436 439.181L121.436 437.973C121.628 437.909 121.777 437.799 121.884 437.645C121.996 437.495 122.052 437.309 122.052 437.085C122.052 436.765 121.935 436.511 121.7 436.325C121.471 436.138 121.143 436.045 120.716 436.045C120.295 436.045 119.967 436.138 119.732 436.325C119.503 436.511 119.388 436.765 119.388 437.085C119.388 437.538 119.591 437.834 119.996 437.973L119.996 439.181C119.516 439.058 119.135 438.815 118.852 438.453C118.569 438.09 118.428 437.637 118.428 437.093C118.428 436.666 118.521 436.287 118.708 435.957C118.9 435.626 119.167 435.367 119.508 435.181C119.855 434.994 120.257 434.901 120.716 434.901ZM120.812 444.121C120.652 444.121 120.508 444.111 120.38 444.089L120.38 440.849C120.06 440.876 119.809 440.988 119.628 441.185C119.447 441.383 119.356 441.625 119.356 441.913C119.356 442.329 119.535 442.625 119.892 442.801L119.892 444.009C119.465 443.881 119.113 443.636 118.836 443.273C118.564 442.911 118.428 442.465 118.428 441.937C118.428 441.511 118.521 441.127 118.708 440.785C118.9 440.449 119.169 440.185 119.516 439.993C119.863 439.807 120.263 439.713 120.716 439.713C121.175 439.713 121.577 439.807 121.924 439.993C122.271 440.18 122.537 440.441 122.724 440.777C122.911 441.113 123.004 441.5 123.004 441.937C123.004 442.359 122.913 442.735 122.732 443.065C122.551 443.401 122.292 443.66 121.956 443.841C121.625 444.028 121.244 444.121 120.812 444.121ZM121.132 442.961C121.42 442.956 121.649 442.852 121.82 442.649C121.996 442.447 122.084 442.199 122.084 441.905C122.084 441.628 121.999 441.393 121.828 441.201C121.663 441.015 121.431 440.9 121.132 440.857L121.132 442.961Z" fill="#051B29"/>
<path d="M98.5 427.5L98.5 440" stroke="black" stroke-width="2" stroke-linecap="round"/>
<rect x="146" y="450" width="36" height="49" transform="rotate(90 146 450)" fill="#0076BE" stroke="#051B29"/>
<path d="M130.084 464.324L124.5 462.764L124.5 461.444L128.476 460.396L124.5 459.3L124.492 457.988L130.084 456.484L130.084 457.684L125.748 458.668L130.084 459.804L130.084 461.052L125.772 462.124L130.084 463.116L130.084 464.324ZM126.732 464.768C127.18 464.768 127.577 464.856 127.924 465.032C128.271 465.213 128.537 465.456 128.724 465.76C128.911 466.069 129.004 466.413 129.004 466.792C129.004 467.122 128.937 467.41 128.804 467.656C128.671 467.906 128.503 468.106 128.3 468.256L128.932 468.256L128.932 469.384L124.5 469.384L124.5 468.256L125.148 468.256C124.94 468.112 124.767 467.912 124.628 467.656C124.495 467.405 124.428 467.114 124.428 466.784C124.428 466.41 124.524 466.069 124.716 465.76C124.908 465.456 125.177 465.213 125.524 465.032C125.876 464.856 126.279 464.768 126.732 464.768ZM126.716 468.256C126.988 468.256 127.22 468.202 127.412 468.096C127.609 467.989 127.759 467.845 127.86 467.664C127.967 467.482 128.02 467.288 128.02 467.08C128.02 466.872 127.969 466.68 127.868 466.504C127.767 466.328 127.617 466.184 127.42 466.072C127.228 465.965 126.999 465.912 126.732 465.912C126.465 465.912 126.231 465.965 126.028 466.072C125.831 466.184 125.679 466.328 125.572 466.504C125.465 466.685 125.412 466.877 125.412 467.08C125.412 467.288 125.463 467.482 125.564 467.664C125.671 467.845 125.82 467.989 126.012 468.096C126.209 468.202 126.444 468.256 126.716 468.256ZM124.428 472.174C124.428 471.811 124.492 471.486 124.62 471.198C124.753 470.91 124.932 470.68 125.156 470.51C125.38 470.344 125.628 470.254 125.9 470.238L125.9 471.366C125.729 471.387 125.588 471.47 125.476 471.614C125.364 471.763 125.308 471.947 125.308 472.166C125.308 472.379 125.351 472.544 125.436 472.662C125.521 472.784 125.631 472.846 125.764 472.846C125.908 472.846 126.015 472.771 126.084 472.622C126.159 472.478 126.239 472.246 126.324 471.926C126.404 471.595 126.487 471.323 126.572 471.11C126.657 470.902 126.788 470.72 126.964 470.566C127.14 470.416 127.377 470.342 127.676 470.342C127.921 470.342 128.145 470.411 128.348 470.55C128.551 470.694 128.711 470.896 128.828 471.158C128.945 471.424 129.004 471.736 129.004 472.094C129.004 472.622 128.871 473.043 128.604 473.358C128.343 473.672 127.988 473.846 127.54 473.878L127.54 472.806C127.716 472.79 127.855 472.715 127.956 472.582C128.063 472.454 128.116 472.28 128.116 472.062C128.116 471.859 128.079 471.702 128.004 471.59C127.929 471.483 127.825 471.43 127.692 471.43C127.543 471.43 127.428 471.504 127.348 471.654C127.273 471.803 127.196 472.035 127.116 472.35C127.036 472.67 126.953 472.934 126.868 473.142C126.783 473.35 126.649 473.528 126.468 473.678C126.292 473.832 126.057 473.912 125.764 473.918C125.508 473.918 125.279 473.846 125.076 473.702C124.873 473.563 124.713 473.36 124.596 473.094C124.484 472.832 124.428 472.526 124.428 472.174ZM128.996 477.333C128.996 477.669 128.921 477.968 128.772 478.229C128.628 478.49 128.412 478.693 128.124 478.837C127.841 478.986 127.5 479.061 127.1 479.061L124.5 479.061L124.5 477.941L126.948 477.941C127.3 477.941 127.569 477.853 127.756 477.677C127.948 477.501 128.044 477.261 128.044 476.957C128.044 476.648 127.948 476.402 127.756 476.221C127.569 476.045 127.3 475.957 126.948 475.957L124.5 475.957L124.5 474.837L130.42 474.837L130.42 475.957L128.38 475.957C128.572 476.101 128.721 476.293 128.828 476.533C128.94 476.773 128.996 477.04 128.996 477.333ZM112.5 459.518L114.676 458.286L114.676 457.758L112.5 457.758L112.5 456.638L118.084 456.638L118.084 458.734C118.084 459.166 118.007 459.534 117.852 459.838C117.703 460.142 117.497 460.368 117.236 460.518C116.98 460.672 116.692 460.75 116.372 460.75C116.004 460.75 115.671 460.643 115.372 460.43C115.079 460.216 114.876 459.899 114.764 459.478L112.5 460.814L112.5 459.518ZM115.516 457.758L115.516 458.694C115.516 458.998 115.588 459.224 115.732 459.374C115.881 459.523 116.087 459.598 116.348 459.598C116.604 459.598 116.801 459.523 116.94 459.374C117.084 459.224 117.156 458.998 117.156 458.694L117.156 457.758L115.516 457.758ZM112.428 463.731C112.428 463.304 112.521 462.92 112.708 462.579C112.9 462.237 113.169 461.968 113.516 461.771C113.863 461.579 114.263 461.483 114.716 461.483C115.169 461.483 115.569 461.581 115.916 461.779C116.263 461.981 116.529 462.256 116.716 462.603C116.908 462.949 117.004 463.336 117.004 463.763C117.004 464.189 116.908 464.576 116.716 464.923C116.529 465.269 116.263 465.541 115.916 465.739C115.569 465.941 115.169 466.043 114.716 466.043C114.263 466.043 113.863 465.939 113.516 465.731C113.169 465.528 112.9 465.251 112.708 464.899C112.521 464.552 112.428 464.163 112.428 463.731ZM113.404 463.731C113.404 463.933 113.452 464.123 113.548 464.299C113.649 464.48 113.799 464.624 113.996 464.731C114.193 464.837 114.433 464.891 114.716 464.891C115.137 464.891 115.46 464.779 115.684 464.555C115.913 464.336 116.028 464.067 116.028 463.747C116.028 463.427 115.913 463.157 115.684 462.939C115.46 462.725 115.137 462.619 114.716 462.619C114.295 462.619 113.969 462.723 113.74 462.931C113.516 463.144 113.404 463.411 113.404 463.731ZM112.428 468.832C112.428 468.406 112.521 468.022 112.708 467.68C112.9 467.339 113.169 467.07 113.516 466.872C113.863 466.68 114.263 466.584 114.716 466.584C115.169 466.584 115.569 466.683 115.916 466.88C116.263 467.083 116.529 467.358 116.716 467.704C116.908 468.051 117.004 468.438 117.004 468.864C117.004 469.291 116.908 469.678 116.716 470.024C116.529 470.371 116.263 470.643 115.916 470.84C115.569 471.043 115.169 471.144 114.716 471.144C114.263 471.144 113.863 471.04 113.516 470.832C113.169 470.63 112.9 470.352 112.708 470C112.521 469.654 112.428 469.264 112.428 468.832ZM113.404 468.832C113.404 469.035 113.452 469.224 113.548 469.4C113.649 469.582 113.799 469.726 113.996 469.832C114.193 469.939 114.433 469.992 114.716 469.992C115.137 469.992 115.46 469.88 115.684 469.656C115.913 469.438 116.028 469.168 116.028 468.848C116.028 468.528 115.913 468.259 115.684 468.04C115.46 467.827 115.137 467.72 114.716 467.72C114.295 467.72 113.969 467.824 113.74 468.032C113.516 468.246 113.404 468.512 113.404 468.832ZM116.996 477.47C116.996 478.014 116.828 478.451 116.492 478.782C116.161 479.118 115.697 479.286 115.1 479.286L112.5 479.286L112.5 478.166L114.948 478.166C115.295 478.166 115.559 478.078 115.74 477.902C115.927 477.726 116.02 477.486 116.02 477.182C116.02 476.878 115.927 476.635 115.74 476.454C115.559 476.278 115.295 476.19 114.948 476.19L112.5 476.19L112.5 475.07L114.948 475.07C115.295 475.07 115.559 474.982 115.74 474.806C115.927 474.63 116.02 474.39 116.02 474.086C116.02 473.777 115.927 473.531 115.74 473.35C115.559 473.174 115.295 473.086 114.948 473.086L112.5 473.086L112.5 471.966L116.932 471.966L116.932 473.086L116.396 473.086C116.583 473.23 116.729 473.414 116.836 473.638C116.943 473.867 116.996 474.118 116.996 474.39C116.996 474.737 116.921 475.046 116.772 475.318C116.628 475.59 116.42 475.801 116.148 475.95C116.404 476.094 116.609 476.302 116.764 476.574C116.919 476.851 116.996 477.15 116.996 477.47Z" fill="#E6F1F9"/>
<path d="M98 455.314L98 468.161" stroke="black" stroke-width="2" stroke-linecap="round"/>
<rect x="50" y="0.999985" width="137" height="49" transform="rotate(90 50 0.999985)" fill="#CCE4F2" stroke="#051B29"/>
<path d="M22.5 61.2172L24.676 59.9852L24.676 59.4572L22.5 59.4572L22.5 58.3372L28.084 58.3372L28.084 60.4332C28.084 60.8652 28.0067 61.2332 27.852 61.5372C27.7027 61.8412 27.4973 62.0678 27.236 62.2172C26.98 62.3718 26.692 62.4492 26.372 62.4492C26.004 62.4492 25.6707 62.3425 25.372 62.1292C25.0787 61.9158 24.876 61.5985 24.764 61.1772L22.5 62.5132L22.5 61.2172ZM25.516 59.4572L25.516 60.3932C25.516 60.6972 25.588 60.9238 25.732 61.0732C25.8813 61.2225 26.0867 61.2972 26.348 61.2972C26.604 61.2972 26.8013 61.2225 26.94 61.0732C27.084 60.9238 27.156 60.6972 27.156 60.3932L27.156 59.4572L25.516 59.4572ZM28.084 65.4142C28.084 66.0008 27.9693 66.5155 27.74 66.9582C27.5107 67.4062 27.1827 67.7502 26.756 67.9902C26.3347 68.2355 25.844 68.3582 25.284 68.3582C24.724 68.3582 24.2333 68.2355 23.812 67.9902C23.396 67.7502 23.0733 67.4062 22.844 66.9582C22.6147 66.5155 22.5 66.0008 22.5 65.4142L22.5 63.4622L28.084 63.4622L28.084 65.4142ZM23.452 65.3742C23.452 65.9608 23.612 66.4142 23.932 66.7342C24.252 67.0542 24.7027 67.2142 25.284 67.2142C25.8653 67.2142 26.3187 67.0542 26.644 66.7342C26.9747 66.4142 27.14 65.9608 27.14 65.3742L27.14 64.5822L23.452 64.5822L23.452 65.3742ZM25.828 74.5108L24.884 74.5108L24.884 71.1188L25.828 71.1188L25.828 74.5108ZM23.764 77.8971C24.1907 78.4091 24.5453 78.8171 24.828 79.1211C25.116 79.4251 25.4147 79.6784 25.724 79.8811C26.0333 80.0838 26.3373 80.1851 26.636 80.1851C26.908 80.1851 27.1213 80.1211 27.276 79.9931C27.4307 79.8651 27.508 79.6678 27.508 79.4011C27.508 79.1344 27.4173 78.9291 27.236 78.7851C27.06 78.6411 26.8173 78.5664 26.508 78.5611L26.508 77.4731C27.148 77.4944 27.6333 77.6838 27.964 78.0411C28.2947 78.4038 28.46 78.8624 28.46 79.4171C28.46 80.0251 28.2973 80.4918 27.972 80.8171C27.652 81.1424 27.228 81.3051 26.7 81.3051C26.284 81.3051 25.8867 81.1931 25.508 80.9691C25.1293 80.7451 24.7987 80.4891 24.516 80.2011C24.2387 79.9131 23.9027 79.5371 23.508 79.0731L23.508 81.4331L22.58 81.4331L22.58 77.4811L23.412 77.4811L23.764 77.8971Z" fill="#051B29"/>
<path d="M48.5 115.5L48.5 128" stroke="black" stroke-width="2" stroke-linecap="round"/>
<rect x="50" y="277" width="209" height="49" transform="rotate(90 50 277)" fill="#CCE4F2" stroke="#051B29"/>
<path d="M22.5 376.698L24.676 375.466L24.676 374.938L22.5 374.938L22.5 373.818L28.084 373.818L28.084 375.914C28.084 376.346 28.0067 376.714 27.852 377.018C27.7027 377.322 27.4973 377.549 27.236 377.698C26.98 377.853 26.692 377.93 26.372 377.93C26.004 377.93 25.6707 377.823 25.372 377.61C25.0787 377.397 24.876 377.079 24.764 376.658L22.5 377.994L22.5 376.698ZM25.516 374.938L25.516 375.874C25.516 376.178 25.588 376.405 25.732 376.554C25.8813 376.703 26.0867 376.778 26.348 376.778C26.604 376.778 26.8013 376.703 26.94 376.554C27.084 376.405 27.156 376.178 27.156 375.874L27.156 374.938L25.516 374.938ZM28.084 380.895C28.084 381.482 27.9693 381.996 27.74 382.439C27.5107 382.887 27.1827 383.231 26.756 383.471C26.3347 383.716 25.844 383.839 25.284 383.839C24.724 383.839 24.2333 383.716 23.812 383.471C23.396 383.231 23.0733 382.887 22.844 382.439C22.6147 381.996 22.5 381.482 22.5 380.895L22.5 378.943L28.084 378.943L28.084 380.895ZM23.452 380.855C23.452 381.442 23.612 381.895 23.932 382.215C24.252 382.535 24.7027 382.695 25.284 382.695C25.8653 382.695 26.3187 382.535 26.644 382.215C26.9747 381.895 27.14 381.442 27.14 380.855L27.14 380.063L23.452 380.063L23.452 380.855ZM25.828 389.992L24.884 389.992L24.884 386.6L25.828 386.6L25.828 389.992ZM27.3 392.89L28.332 392.89L28.332 394.818L22.5 394.818L22.5 393.666L27.3 393.666L27.3 392.89Z" fill="#051B29"/>
<path d="M48.5 461.001L48.5 473.56" stroke="black" stroke-width="2" stroke-linecap="round"/>
<path d="M48.5 289.562L48.5 302.122" stroke="black" stroke-width="2" stroke-linecap="round"/>
<mask id="path-33-inside-1_101_1221" fill="white">
<path d="M107.5 277.5L107.5 207.5L145.5 207.5L145.5 277.5L107.5 277.5Z"/>
</mask>
<path d="M107.5 277.5L107.5 207.5L145.5 207.5L145.5 277.5L107.5 277.5Z" fill="#E6F1F9"/>
<path d="M145.5 207.5L146.5 207.5L146.5 206.5L145.5 206.5L145.5 207.5ZM145.5 277.5L145.5 278.5L146.5 278.5L146.5 277.5L145.5 277.5ZM107.5 208.5L145.5 208.5L145.5 206.5L107.5 206.5L107.5 208.5ZM144.5 207.5L144.5 277.5L146.5 277.5L146.5 207.5L144.5 207.5ZM145.5 276.5L107.5 276.5L107.5 278.5L145.5 278.5L145.5 276.5Z" fill="black" mask="url(#path-33-inside-1_101_1221)"/>
<mask id="path-35-inside-2_101_1221" fill="white">
<path d="M145.5 208.5L145.5 276.5L96.5 276.5L96.5 208.5L145.5 208.5Z"/>
</mask>
<path d="M145.5 208.5L145.5 276.5L96.5 276.5L96.5 208.5L145.5 208.5Z" fill="#E6F1F9"/>
<path d="M145.5 208.5L146.5 208.5L146.5 207.5L145.5 207.5L145.5 208.5ZM145.5 276.5L145.5 277.5L146.5 277.5L146.5 276.5L145.5 276.5ZM144.5 208.5L144.5 276.5L146.5 276.5L146.5 208.5L144.5 208.5ZM145.5 275.5L96.5 275.5L96.5 277.5L145.5 277.5L145.5 275.5ZM96.5 209.5L145.5 209.5L145.5 207.5L96.5 207.5L96.5 209.5Z" fill="black" mask="url(#path-35-inside-2_101_1221)"/>
<line x1="127.5" y1="244" x2="96.5" y2="244" stroke="black"/>
<line x1="127.5" y1="240" x2="96.5" y2="240" stroke="black"/>
<line x1="128" y1="239.5" x2="128" y2="244.5" stroke="black"/>
<line x1="127.75" y1="244.5" x2="127.75" y2="275.5" stroke="black" stroke-width="0.5"/>
<line x1="127.75" y1="209.5" x2="127.75" y2="240.5" stroke="black" stroke-width="0.5"/>
<line x1="124.75" y1="244.5" x2="124.75" y2="275.5" stroke="black" stroke-width="0.5"/>
<line x1="124.75" y1="209.5" x2="124.75" y2="240.5" stroke="black" stroke-width="0.5"/>
<line x1="121.75" y1="244.5" x2="121.75" y2="275.5" stroke="black" stroke-width="0.5"/>
<line x1="121.75" y1="209.5" x2="121.75" y2="240.5" stroke="black" stroke-width="0.5"/>
<line x1="118.75" y1="244.5" x2="118.75" y2="275.5" stroke="black" stroke-width="0.5"/>
<line x1="118.75" y1="209.5" x2="118.75" y2="240.5" stroke="black" stroke-width="0.5"/>
<line x1="115.75" y1="244.5" x2="115.75" y2="275.5" stroke="black" stroke-width="0.5"/>
<line x1="115.75" y1="209.5" x2="115.75" y2="240.5" stroke="black" stroke-width="0.5"/>
<line x1="112.75" y1="244.5" x2="112.75" y2="275.5" stroke="black" stroke-width="0.5"/>
<line x1="112.75" y1="209.5" x2="112.75" y2="240.5" stroke="black" stroke-width="0.5"/>
<line x1="109.75" y1="244.5" x2="109.75" y2="275.5" stroke="black" stroke-width="0.5"/>
<line x1="109.75" y1="209.5" x2="109.75" y2="240.5" stroke="black" stroke-width="0.5"/>
<line x1="106.75" y1="244.5" x2="106.75" y2="275.5" stroke="black" stroke-width="0.5"/>
<line x1="106.75" y1="209.5" x2="106.75" y2="240.5" stroke="black" stroke-width="0.5"/>
<line x1="103.75" y1="244.5" x2="103.75" y2="275.5" stroke="black" stroke-width="0.5"/>
<line x1="103.75" y1="209.5" x2="103.75" y2="240.5" stroke="black" stroke-width="0.5"/>
<line x1="100.75" y1="244.5" x2="100.75" y2="275.5" stroke="black" stroke-width="0.5"/>
<line x1="100.75" y1="209.5" x2="100.75" y2="240.5" stroke="black" stroke-width="0.5"/>
<line x1="97.75" y1="244.5" x2="97.75" y2="275.5" stroke="black" stroke-width="0.5"/>
<line x1="97.75" y1="209.5" x2="97.75" y2="240.5" stroke="black" stroke-width="0.5"/>
<line x1="50" y1="138.5" x2="50" y2="276.5" stroke="#E6F1F9"/>
<path d="M71.5 207.5L71.5 461.5" stroke="#B3D6EC" stroke-width="5" stroke-linecap="round" stroke-dasharray="10 10"/>
<path d="M71.5 207.5L56.5 207.5" stroke="#B3D6EC" stroke-width="5" stroke-linecap="round" stroke-dasharray="10 10"/>
<path d="M93.5 461.5L71.5 461.5" stroke="#B3D6EC" stroke-width="5" stroke-linecap="round" stroke-dasharray="10 10"/>
</svg>
