<svg width="208" height="33" viewBox="0 0 208 33" fill="none" xmlns="http://www.w3.org/2000/svg">
<g filter="url(#filter0_b_3_147)">
<path d="M40.82 24.154C39.7493 24.154 38.7813 23.9707 37.916 23.604C37.0653 23.2373 36.3907 22.7093 35.892 22.02C35.3933 21.3307 35.1367 20.5167 35.122 19.578H38.422C38.466 20.2087 38.686 20.7073 39.082 21.074C39.4927 21.4407 40.05 21.624 40.754 21.624C41.4727 21.624 42.0373 21.4553 42.448 21.118C42.8587 20.766 43.064 20.3113 43.064 19.754C43.064 19.2993 42.9247 18.9253 42.646 18.632C42.3673 18.3387 42.0153 18.1113 41.59 17.95C41.1793 17.774 40.6073 17.5833 39.874 17.378C38.8767 17.0847 38.0627 16.7987 37.432 16.52C36.816 16.2267 36.2807 15.794 35.826 15.222C35.386 14.6353 35.166 13.858 35.166 12.89C35.166 11.9807 35.3933 11.1887 35.848 10.514C36.3027 9.83933 36.9407 9.326 37.762 8.974C38.5833 8.60733 39.522 8.424 40.578 8.424C42.162 8.424 43.4453 8.81267 44.428 9.59C45.4253 10.3527 45.9753 11.4233 46.078 12.802H42.69C42.6607 12.274 42.4333 11.8413 42.008 11.504C41.5973 11.152 41.0473 10.976 40.358 10.976C39.7567 10.976 39.2727 11.13 38.906 11.438C38.554 11.746 38.378 12.1933 38.378 12.78C38.378 13.1907 38.51 13.5353 38.774 13.814C39.0527 14.078 39.39 14.298 39.786 14.474C40.1967 14.6353 40.7687 14.826 41.502 15.046C42.4993 15.3393 43.3133 15.6327 43.944 15.926C44.5747 16.2193 45.1173 16.6593 45.572 17.246C46.0267 17.8327 46.254 18.6027 46.254 19.556C46.254 20.3773 46.0413 21.14 45.616 21.844C45.1907 22.548 44.5673 23.1127 43.746 23.538C42.9247 23.9487 41.9493 24.154 40.82 24.154ZM50.2883 24.154C49.7309 24.154 49.2689 23.9853 48.9023 23.648C48.5503 23.296 48.3743 22.8633 48.3743 22.35C48.3743 21.8367 48.5503 21.4113 48.9023 21.074C49.2689 20.722 49.7309 20.546 50.2883 20.546C50.8309 20.546 51.2783 20.722 51.6303 21.074C51.9823 21.4113 52.1583 21.8367 52.1583 22.35C52.1583 22.8633 51.9823 23.296 51.6303 23.648C51.2783 23.9853 50.8309 24.154 50.2883 24.154ZM65.8371 13.396C65.8371 14.2173 65.6391 14.9873 65.2431 15.706C64.8618 16.4247 64.2531 17.004 63.4171 17.444C62.5958 17.884 61.5544 18.104 60.2931 18.104H57.7191V24H54.6391V8.644H60.2931C61.4811 8.644 62.4931 8.84933 63.3291 9.26C64.1651 9.67067 64.7884 10.2353 65.1991 10.954C65.6244 11.6727 65.8371 12.4867 65.8371 13.396ZM60.1611 15.618C61.0118 15.618 61.6424 15.4273 62.0531 15.046C62.4638 14.65 62.6691 14.1 62.6691 13.396C62.6691 11.9 61.8331 11.152 60.1611 11.152H57.7191V15.618H60.1611ZM69.3879 24.154C68.8305 24.154 68.3685 23.9853 68.0019 23.648C67.6499 23.296 67.4739 22.8633 67.4739 22.35C67.4739 21.8367 67.6499 21.4113 68.0019 21.074C68.3685 20.722 68.8305 20.546 69.3879 20.546C69.9305 20.546 70.3779 20.722 70.7299 21.074C71.0819 21.4113 71.2579 21.8367 71.2579 22.35C71.2579 22.8633 71.0819 23.296 70.7299 23.648C70.3779 23.9853 69.9305 24.154 69.3879 24.154ZM76.8187 8.644V24H73.7387V8.644H76.8187ZM98.2379 24H95.1579L88.1839 13.462V24H85.1039V8.622H88.1839L95.1579 19.182V8.622H98.2379V24ZM100.49 17.862C100.49 16.63 100.732 15.5373 101.216 14.584C101.714 13.6307 102.382 12.8973 103.218 12.384C104.068 11.8707 105.014 11.614 106.056 11.614C106.965 11.614 107.757 11.7973 108.432 12.164C109.121 12.5307 109.671 12.9927 110.082 13.55V11.812H113.184V24H110.082V22.218C109.686 22.79 109.136 23.2667 108.432 23.648C107.742 24.0147 106.943 24.198 106.034 24.198C105.007 24.198 104.068 23.934 103.218 23.406C102.382 22.878 101.714 22.1373 101.216 21.184C100.732 20.216 100.49 19.1087 100.49 17.862ZM110.082 17.906C110.082 17.158 109.935 16.52 109.642 15.992C109.348 15.4493 108.952 15.0387 108.454 14.76C107.955 14.4667 107.42 14.32 106.848 14.32C106.276 14.32 105.748 14.4593 105.264 14.738C104.78 15.0167 104.384 15.4273 104.076 15.97C103.782 16.498 103.636 17.1287 103.636 17.862C103.636 18.5953 103.782 19.2407 104.076 19.798C104.384 20.3407 104.78 20.7587 105.264 21.052C105.762 21.3453 106.29 21.492 106.848 21.492C107.42 21.492 107.955 21.3527 108.454 21.074C108.952 20.7807 109.348 20.37 109.642 19.842C109.935 19.2993 110.082 18.654 110.082 17.906ZM121.274 21.162L124.354 11.812H127.632L123.122 24H119.382L114.894 11.812H118.194L121.274 21.162ZM130.924 10.36C130.381 10.36 129.926 10.1913 129.56 9.854C129.208 9.502 129.032 9.06933 129.032 8.556C129.032 8.04267 129.208 7.61733 129.56 7.28C129.926 6.928 130.381 6.752 130.924 6.752C131.466 6.752 131.914 6.928 132.266 7.28C132.632 7.61733 132.816 8.04267 132.816 8.556C132.816 9.06933 132.632 9.502 132.266 9.854C131.914 10.1913 131.466 10.36 130.924 10.36ZM132.442 11.812V24H129.362V11.812H132.442ZM140.259 11.614C141.168 11.614 141.967 11.7973 142.657 12.164C143.346 12.516 143.889 12.978 144.285 13.55V11.812H147.387V24.088C147.387 25.2173 147.159 26.222 146.705 27.102C146.25 27.9967 145.568 28.7007 144.659 29.214C143.749 29.742 142.649 30.006 141.359 30.006C139.628 30.006 138.205 29.6027 137.091 28.796C135.991 27.9893 135.367 26.8893 135.221 25.496H138.279C138.44 26.0533 138.785 26.4933 139.313 26.816C139.855 27.1533 140.508 27.322 141.271 27.322C142.165 27.322 142.891 27.0507 143.449 26.508C144.006 25.98 144.285 25.1733 144.285 24.088V22.196C143.889 22.768 143.339 23.2447 142.635 23.626C141.945 24.0073 141.153 24.198 140.259 24.198C139.232 24.198 138.293 23.934 137.443 23.406C136.592 22.878 135.917 22.1373 135.419 21.184C134.935 20.216 134.693 19.1087 134.693 17.862C134.693 16.63 134.935 15.5373 135.419 14.584C135.917 13.6307 136.585 12.8973 137.421 12.384C138.271 11.8707 139.217 11.614 140.259 11.614ZM144.285 17.906C144.285 17.158 144.138 16.52 143.845 15.992C143.551 15.4493 143.155 15.0387 142.657 14.76C142.158 14.4667 141.623 14.32 141.051 14.32C140.479 14.32 139.951 14.4593 139.467 14.738C138.983 15.0167 138.587 15.4273 138.279 15.97C137.985 16.498 137.839 17.1287 137.839 17.862C137.839 18.5953 137.985 19.2407 138.279 19.798C138.587 20.3407 138.983 20.7587 139.467 21.052C139.965 21.3453 140.493 21.492 141.051 21.492C141.623 21.492 142.158 21.3527 142.657 21.074C143.155 20.7807 143.551 20.37 143.845 19.842C144.138 19.2993 144.285 18.654 144.285 17.906ZM149.603 17.862C149.603 16.63 149.845 15.5373 150.329 14.584C150.828 13.6307 151.495 12.8973 152.331 12.384C153.182 11.8707 154.128 11.614 155.169 11.614C156.078 11.614 156.87 11.7973 157.545 12.164C158.234 12.5307 158.784 12.9927 159.195 13.55V11.812H162.297V24H159.195V22.218C158.799 22.79 158.249 23.2667 157.545 23.648C156.856 24.0147 156.056 24.198 155.147 24.198C154.12 24.198 153.182 23.934 152.331 23.406C151.495 22.878 150.828 22.1373 150.329 21.184C149.845 20.216 149.603 19.1087 149.603 17.862ZM159.195 17.906C159.195 17.158 159.048 16.52 158.755 15.992C158.462 15.4493 158.066 15.0387 157.567 14.76C157.068 14.4667 156.533 14.32 155.961 14.32C155.389 14.32 154.861 14.4593 154.377 14.738C153.893 15.0167 153.497 15.4273 153.189 15.97C152.896 16.498 152.749 17.1287 152.749 17.862C152.749 18.5953 152.896 19.2407 153.189 19.798C153.497 20.3407 153.893 20.7587 154.377 21.052C154.876 21.3453 155.404 21.492 155.961 21.492C156.533 21.492 157.068 21.3527 157.567 21.074C158.066 20.7807 158.462 20.37 158.755 19.842C159.048 19.2993 159.195 18.654 159.195 17.906ZM168.891 14.342V20.238C168.891 20.6487 168.986 20.9493 169.177 21.14C169.382 21.316 169.72 21.404 170.189 21.404H171.619V24H169.683C167.087 24 165.789 22.7387 165.789 20.216V14.342H164.337V11.812H165.789V8.798H168.891V11.812H171.619V14.342H168.891ZM175.396 10.36C174.854 10.36 174.399 10.1913 174.032 9.854C173.68 9.502 173.504 9.06933 173.504 8.556C173.504 8.04267 173.68 7.61733 174.032 7.28C174.399 6.928 174.854 6.752 175.396 6.752C175.939 6.752 176.386 6.928 176.738 7.28C177.105 7.61733 177.288 8.04267 177.288 8.556C177.288 9.06933 177.105 9.502 176.738 9.854C176.386 10.1913 175.939 10.36 175.396 10.36ZM176.914 11.812V24H173.834V11.812H176.914ZM185.369 24.198C184.196 24.198 183.14 23.9413 182.201 23.428C181.263 22.9 180.522 22.1593 179.979 21.206C179.451 20.2527 179.187 19.1527 179.187 17.906C179.187 16.6593 179.459 15.5593 180.001 14.606C180.559 13.6527 181.314 12.9193 182.267 12.406C183.221 11.878 184.284 11.614 185.457 11.614C186.631 11.614 187.694 11.878 188.647 12.406C189.601 12.9193 190.349 13.6527 190.891 14.606C191.449 15.5593 191.727 16.6593 191.727 17.906C191.727 19.1527 191.441 20.2527 190.869 21.206C190.312 22.1593 189.549 22.9 188.581 23.428C187.628 23.9413 186.557 24.198 185.369 24.198ZM185.369 21.514C185.927 21.514 186.447 21.382 186.931 21.118C187.43 20.8393 187.826 20.4287 188.119 19.886C188.413 19.3433 188.559 18.6833 188.559 17.906C188.559 16.7473 188.251 15.86 187.635 15.244C187.034 14.6133 186.293 14.298 185.413 14.298C184.533 14.298 183.793 14.6133 183.191 15.244C182.605 15.86 182.311 16.7473 182.311 17.906C182.311 19.0647 182.597 19.9593 183.169 20.59C183.756 21.206 184.489 21.514 185.369 21.514ZM200.741 11.636C202.193 11.636 203.366 12.098 204.261 13.022C205.155 13.9313 205.603 15.2073 205.603 16.85V24H202.523V17.268C202.523 16.3 202.281 15.5593 201.797 15.046C201.313 14.518 200.653 14.254 199.817 14.254C198.966 14.254 198.291 14.518 197.793 15.046C197.309 15.5593 197.067 16.3 197.067 17.268V24H193.987V11.812H197.067V13.33C197.477 12.802 197.998 12.3913 198.629 12.098C199.274 11.79 199.978 11.636 200.741 11.636Z" fill="#051B29"/>
<path d="M19.435 12.9351C20.5363 11.8348 21.3366 10.4702 21.7596 8.97206C22.1825 7.47388 22.2138 5.89222 21.8504 4.37849L25.0939 2.98749C25.1928 2.94509 25.3007 2.92791 25.4079 2.93749C25.5151 2.94708 25.6182 2.98313 25.708 3.04241C25.7979 3.10168 25.8716 3.18234 25.9225 3.27713C25.9735 3.37191 26.0001 3.47787 26 3.58549V22.1001L16.9 26.0001L9.1 22.1001L0.9061 25.6114C0.807188 25.6538 0.699295 25.671 0.592105 25.6614C0.484916 25.6518 0.381783 25.6157 0.291963 25.5565C0.202144 25.4972 0.128448 25.4165 0.0774891 25.3218C0.0265306 25.227 -9.54932e-05 25.121 2.57335e-07 25.0134V6.50009L4.0677 4.75679C3.7815 6.22004 3.85958 7.73123 4.29508 9.15719C4.73057 10.5832 5.51011 11.8801 6.565 12.9338L13 19.3701L19.435 12.9351ZM17.5968 11.0969L13 15.6911L8.4032 11.0956C7.49433 10.1865 6.87544 9.02829 6.62477 7.76746C6.3741 6.50663 6.50293 5.19978 6.99495 4.01216C7.48697 2.82454 8.32009 1.80948 9.38897 1.09533C10.4579 0.381175 11.7145 0 13 0C14.2855 0 15.5421 0.381175 16.611 1.09533C17.6799 1.80948 18.513 2.82454 19.0051 4.01216C19.4971 5.19978 19.6259 6.50663 19.3752 7.76746C19.1246 9.02829 18.5057 10.1865 17.5968 11.0956V11.0969Z" fill="#051B29"/>
</g>
<defs>
<filter id="filter0_b_3_147" x="-5" y="-5" width="215.603" height="40.006" filterUnits="userSpaceOnUse" color-interpolation-filters="sRGB">
<feFlood flood-opacity="0" result="BackgroundImageFix"/>
<feGaussianBlur in="BackgroundImageFix" stdDeviation="2.5"/>
<feComposite in2="SourceAlpha" operator="in" result="effect1_backgroundBlur_3_147"/>
<feBlend mode="normal" in="SourceGraphic" in2="effect1_backgroundBlur_3_147" result="shape"/>
</filter>
</defs>
</svg>
