<svg width="196" height="33" viewBox="0 0 196 33" fill="none" xmlns="http://www.w3.org/2000/svg">
<g filter="url(#filter0_b_156_1621)">
<path d="M40.82 24.154C39.7493 24.154 38.7813 23.9707 37.916 23.604C37.0653 23.2373 36.3907 22.7093 35.892 22.02C35.3933 21.3307 35.1367 20.5167 35.122 19.578H38.422C38.466 20.2087 38.686 20.7073 39.082 21.074C39.4927 21.4407 40.05 21.624 40.754 21.624C41.4727 21.624 42.0373 21.4553 42.448 21.118C42.8587 20.766 43.064 20.3113 43.064 19.754C43.064 19.2993 42.9247 18.9253 42.646 18.632C42.3673 18.3387 42.0153 18.1113 41.59 17.95C41.1793 17.774 40.6073 17.5833 39.874 17.378C38.8767 17.0847 38.0627 16.7987 37.432 16.52C36.816 16.2267 36.2807 15.794 35.826 15.222C35.386 14.6353 35.166 13.858 35.166 12.89C35.166 11.9807 35.3933 11.1887 35.848 10.514C36.3027 9.83933 36.9407 9.326 37.762 8.974C38.5833 8.60733 39.522 8.424 40.578 8.424C42.162 8.424 43.4453 8.81267 44.428 9.59C45.4253 10.3527 45.9753 11.4233 46.078 12.802H42.69C42.6607 12.274 42.4333 11.8413 42.008 11.504C41.5973 11.152 41.0473 10.976 40.358 10.976C39.7567 10.976 39.2727 11.13 38.906 11.438C38.554 11.746 38.378 12.1933 38.378 12.78C38.378 13.1907 38.51 13.5353 38.774 13.814C39.0527 14.078 39.39 14.298 39.786 14.474C40.1967 14.6353 40.7687 14.826 41.502 15.046C42.4993 15.3393 43.3133 15.6327 43.944 15.926C44.5747 16.2193 45.1173 16.6593 45.572 17.246C46.0267 17.8327 46.254 18.6027 46.254 19.556C46.254 20.3773 46.0413 21.14 45.616 21.844C45.1907 22.548 44.5673 23.1127 43.746 23.538C42.9247 23.9487 41.9493 24.154 40.82 24.154ZM60.1223 13.396C60.1223 14.2173 59.9243 14.9873 59.5282 15.706C59.1469 16.4247 58.5383 17.004 57.7023 17.444C56.8809 17.884 55.8396 18.104 54.5783 18.104H52.0043V24H48.9243V8.644H54.5783C55.7663 8.644 56.7783 8.84933 57.6143 9.26C58.4503 9.67067 59.0736 10.2353 59.4843 10.954C59.9096 11.6727 60.1223 12.4867 60.1223 13.396ZM54.4463 15.618C55.2969 15.618 55.9276 15.4273 56.3383 15.046C56.7489 14.65 56.9543 14.1 56.9543 13.396C56.9543 11.9 56.1183 11.152 54.4463 11.152H52.0043V15.618H54.4463ZM65.389 8.644V24H62.309V8.644H65.389ZM86.8083 24H83.7283L76.7543 13.462V24H73.6743V8.622H76.7543L83.7283 19.182V8.622H86.8083V24ZM89.06 17.862C89.06 16.63 89.302 15.5373 89.786 14.584C90.2847 13.6307 90.952 12.8973 91.788 12.384C92.6387 11.8707 93.5847 11.614 94.626 11.614C95.5353 11.614 96.3273 11.7973 97.002 12.164C97.6913 12.5307 98.2413 12.9927 98.652 13.55V11.812H101.754V24H98.652V22.218C98.256 22.79 97.706 23.2667 97.002 23.648C96.3127 24.0147 95.5133 24.198 94.604 24.198C93.5773 24.198 92.6387 23.934 91.788 23.406C90.952 22.878 90.2847 22.1373 89.786 21.184C89.302 20.216 89.06 19.1087 89.06 17.862ZM98.652 17.906C98.652 17.158 98.5053 16.52 98.212 15.992C97.9187 15.4493 97.5227 15.0387 97.024 14.76C96.5253 14.4667 95.99 14.32 95.418 14.32C94.846 14.32 94.318 14.4593 93.834 14.738C93.35 15.0167 92.954 15.4273 92.646 15.97C92.3527 16.498 92.206 17.1287 92.206 17.862C92.206 18.5953 92.3527 19.2407 92.646 19.798C92.954 20.3407 93.35 20.7587 93.834 21.052C94.3327 21.3453 94.8607 21.492 95.418 21.492C95.99 21.492 96.5253 21.3527 97.024 21.074C97.5227 20.7807 97.9187 20.37 98.212 19.842C98.5053 19.2993 98.652 18.654 98.652 17.906ZM109.844 21.162L112.924 11.812H116.202L111.692 24H107.952L103.464 11.812H106.764L109.844 21.162ZM119.494 10.36C118.951 10.36 118.497 10.1913 118.13 9.854C117.778 9.502 117.602 9.06933 117.602 8.556C117.602 8.04267 117.778 7.61733 118.13 7.28C118.497 6.928 118.951 6.752 119.494 6.752C120.037 6.752 120.484 6.928 120.836 7.28C121.203 7.61733 121.386 8.04267 121.386 8.556C121.386 9.06933 121.203 9.502 120.836 9.854C120.484 10.1913 120.037 10.36 119.494 10.36ZM121.012 11.812V24H117.932V11.812H121.012ZM128.829 11.614C129.738 11.614 130.538 11.7973 131.227 12.164C131.916 12.516 132.459 12.978 132.855 13.55V11.812H135.957V24.088C135.957 25.2173 135.73 26.222 135.275 27.102C134.82 27.9967 134.138 28.7007 133.229 29.214C132.32 29.742 131.22 30.006 129.929 30.006C128.198 30.006 126.776 29.6027 125.661 28.796C124.561 27.9893 123.938 26.8893 123.791 25.496H126.849C127.01 26.0533 127.355 26.4933 127.883 26.816C128.426 27.1533 129.078 27.322 129.841 27.322C130.736 27.322 131.462 27.0507 132.019 26.508C132.576 25.98 132.855 25.1733 132.855 24.088V22.196C132.459 22.768 131.909 23.2447 131.205 23.626C130.516 24.0073 129.724 24.198 128.829 24.198C127.802 24.198 126.864 23.934 126.013 23.406C125.162 22.878 124.488 22.1373 123.989 21.184C123.505 20.216 123.263 19.1087 123.263 17.862C123.263 16.63 123.505 15.5373 123.989 14.584C124.488 13.6307 125.155 12.8973 125.991 12.384C126.842 11.8707 127.788 11.614 128.829 11.614ZM132.855 17.906C132.855 17.158 132.708 16.52 132.415 15.992C132.122 15.4493 131.726 15.0387 131.227 14.76C130.728 14.4667 130.193 14.32 129.621 14.32C129.049 14.32 128.521 14.4593 128.037 14.738C127.553 15.0167 127.157 15.4273 126.849 15.97C126.556 16.498 126.409 17.1287 126.409 17.862C126.409 18.5953 126.556 19.2407 126.849 19.798C127.157 20.3407 127.553 20.7587 128.037 21.052C128.536 21.3453 129.064 21.492 129.621 21.492C130.193 21.492 130.728 21.3527 131.227 21.074C131.726 20.7807 132.122 20.37 132.415 19.842C132.708 19.2993 132.855 18.654 132.855 17.906ZM138.173 17.862C138.173 16.63 138.415 15.5373 138.899 14.584C139.398 13.6307 140.065 12.8973 140.901 12.384C141.752 11.8707 142.698 11.614 143.739 11.614C144.649 11.614 145.441 11.7973 146.115 12.164C146.805 12.5307 147.355 12.9927 147.765 13.55V11.812H150.867V24H147.765V22.218C147.369 22.79 146.819 23.2667 146.115 23.648C145.426 24.0147 144.627 24.198 143.717 24.198C142.691 24.198 141.752 23.934 140.901 23.406C140.065 22.878 139.398 22.1373 138.899 21.184C138.415 20.216 138.173 19.1087 138.173 17.862ZM147.765 17.906C147.765 17.158 147.619 16.52 147.325 15.992C147.032 15.4493 146.636 15.0387 146.137 14.76C145.639 14.4667 145.103 14.32 144.531 14.32C143.959 14.32 143.431 14.4593 142.947 14.738C142.463 15.0167 142.067 15.4273 141.759 15.97C141.466 16.498 141.319 17.1287 141.319 17.862C141.319 18.5953 141.466 19.2407 141.759 19.798C142.067 20.3407 142.463 20.7587 142.947 21.052C143.446 21.3453 143.974 21.492 144.531 21.492C145.103 21.492 145.639 21.3527 146.137 21.074C146.636 20.7807 147.032 20.37 147.325 19.842C147.619 19.2993 147.765 18.654 147.765 17.906ZM157.461 14.342V20.238C157.461 20.6487 157.557 20.9493 157.747 21.14C157.953 21.316 158.29 21.404 158.759 21.404H160.189V24H158.253C155.657 24 154.359 22.7387 154.359 20.216V14.342H152.907V11.812H154.359V8.798H157.461V11.812H160.189V14.342H157.461ZM163.967 10.36C163.424 10.36 162.969 10.1913 162.603 9.854C162.251 9.502 162.075 9.06933 162.075 8.556C162.075 8.04267 162.251 7.61733 162.603 7.28C162.969 6.928 163.424 6.752 163.967 6.752C164.509 6.752 164.957 6.928 165.309 7.28C165.675 7.61733 165.859 8.04267 165.859 8.556C165.859 9.06933 165.675 9.502 165.309 9.854C164.957 10.1913 164.509 10.36 163.967 10.36ZM165.485 11.812V24H162.405V11.812H165.485ZM173.94 24.198C172.766 24.198 171.71 23.9413 170.772 23.428C169.833 22.9 169.092 22.1593 168.55 21.206C168.022 20.2527 167.758 19.1527 167.758 17.906C167.758 16.6593 168.029 15.5593 168.572 14.606C169.129 13.6527 169.884 12.9193 170.838 12.406C171.791 11.878 172.854 11.614 174.028 11.614C175.201 11.614 176.264 11.878 177.218 12.406C178.171 12.9193 178.919 13.6527 179.462 14.606C180.019 15.5593 180.298 16.6593 180.298 17.906C180.298 19.1527 180.012 20.2527 179.44 21.206C178.882 22.1593 178.12 22.9 177.152 23.428C176.198 23.9413 175.128 24.198 173.94 24.198ZM173.94 21.514C174.497 21.514 175.018 21.382 175.502 21.118C176 20.8393 176.396 20.4287 176.69 19.886C176.983 19.3433 177.13 18.6833 177.13 17.906C177.13 16.7473 176.822 15.86 176.206 15.244C175.604 14.6133 174.864 14.298 173.984 14.298C173.104 14.298 172.363 14.6133 171.762 15.244C171.175 15.86 170.882 16.7473 170.882 17.906C170.882 19.0647 171.168 19.9593 171.74 20.59C172.326 21.206 173.06 21.514 173.94 21.514ZM189.311 11.636C190.763 11.636 191.936 12.098 192.831 13.022C193.726 13.9313 194.173 15.2073 194.173 16.85V24H191.093V17.268C191.093 16.3 190.851 15.5593 190.367 15.046C189.883 14.518 189.223 14.254 188.387 14.254C187.536 14.254 186.862 14.518 186.363 15.046C185.879 15.5593 185.637 16.3 185.637 17.268V24H182.557V11.812H185.637V13.33C186.048 12.802 186.568 12.3913 187.199 12.098C187.844 11.79 188.548 11.636 189.311 11.636Z" fill="#051B29"/>
<path d="M19.435 12.9351C20.5363 11.8348 21.3366 10.4702 21.7596 8.97206C22.1825 7.47388 22.2138 5.89222 21.8504 4.37849L25.0939 2.98749C25.1928 2.94509 25.3007 2.92791 25.4079 2.93749C25.5151 2.94708 25.6182 2.98313 25.708 3.04241C25.7979 3.10168 25.8716 3.18234 25.9225 3.27713C25.9735 3.37191 26.0001 3.47787 26 3.58549V22.1001L16.9 26.0001L9.1 22.1001L0.9061 25.6114C0.807188 25.6538 0.699295 25.671 0.592105 25.6614C0.484916 25.6518 0.381783 25.6157 0.291963 25.5565C0.202144 25.4972 0.128448 25.4165 0.0774891 25.3218C0.0265306 25.227 -9.54932e-05 25.121 2.57335e-07 25.0134V6.50009L4.0677 4.75679C3.7815 6.22004 3.85958 7.73123 4.29508 9.15719C4.73057 10.5832 5.51011 11.8801 6.565 12.9338L13 19.3701L19.435 12.9351ZM17.5968 11.0969L13 15.6911L8.4032 11.0956C7.49433 10.1865 6.87544 9.02829 6.62477 7.76746C6.3741 6.50663 6.50293 5.19978 6.99495 4.01216C7.48697 2.82454 8.32009 1.80948 9.38897 1.09533C10.4579 0.381175 11.7145 0 13 0C14.2855 0 15.5421 0.381175 16.611 1.09533C17.6799 1.80948 18.513 2.82454 19.0051 4.01216C19.4971 5.19978 19.6259 6.50663 19.3752 7.76746C19.1246 9.02829 18.5057 10.1865 17.5968 11.0956V11.0969Z" fill="#051B29"/>
</g>
<defs>
<filter id="filter0_b_156_1621" x="-5" y="-5" width="204.173" height="40.006" filterUnits="userSpaceOnUse" color-interpolation-filters="sRGB">
<feFlood flood-opacity="0" result="BackgroundImageFix"/>
<feGaussianBlur in="BackgroundImageFix" stdDeviation="2.5"/>
<feComposite in2="SourceAlpha" operator="in" result="effect1_backgroundBlur_156_1621"/>
<feBlend mode="normal" in="SourceGraphic" in2="effect1_backgroundBlur_156_1621" result="shape"/>
</filter>
</defs>
</svg>
