<svg width="65" height="70" viewBox="0 0 65 70" fill="none" xmlns="http://www.w3.org/2000/svg">
<path d="M6.09375 0.29015C5.80358 0.58033 5.80358 0.768948 5.80358 14.7991V29.0178H4.35268C2.23438 29.0178 2.32143 28.8727 2.32143 32.5C2.32143 35.2131 2.33594 35.4163 2.61161 35.6919C2.90179 35.9821 3.09041 35.9821 32.5 35.9821C61.9096 35.9821 62.0982 35.9821 62.3884 35.6919C62.6641 35.4163 62.6786 35.2131 62.6786 32.5C62.6786 28.8727 62.7656 29.0178 60.6473 29.0178H59.1964V14.7991C59.1964 0.768948 59.1964 0.58033 58.9063 0.29015C58.6161 -2.67029e-05 58.4275 -2.67029e-05 32.5 -2.67029e-05C6.57255 -2.67029e-05 6.38393 -2.67029e-05 6.09375 0.29015ZM56.875 15.6696V29.0178H41.7857H26.6964V26.4062C26.6964 23.9832 26.6819 23.7801 26.4063 23.5044C26.1306 23.2288 25.9275 23.2143 20.8929 23.2143C15.8583 23.2143 15.6551 23.2288 15.3795 23.5044C15.1038 23.7801 15.0893 23.9832 15.0893 26.4062V29.0178H11.6071H8.125V15.6696V2.3214H32.5H56.875V15.6696ZM24.375 27.2768V29.0178H20.8929H17.4107V27.2768V25.5357H20.8929H24.375V27.2768ZM60.3571 32.5V33.6607H32.5H4.64286V32.5V31.3393H32.5H60.3571V32.5Z" fill="#0076BE"/>
<path d="M14.2333 38.5792C14.0737 38.7388 13.8415 39.2611 13.6964 39.7399L13.4498 40.625H7.02232C0.768973 40.625 0.565848 40.6395 0.290179 40.9151C0.0145089 41.1908 0 41.3939 0 44.1071C0 47.5747 0 47.5893 1.45089 47.5893H2.32143V58.3259C2.32143 68.8738 2.32143 69.0625 2.61161 69.3526C2.87277 69.6138 3.0904 69.6428 4.64286 69.6428C6.60156 69.6428 6.87723 69.5268 7.02232 68.5982C7.06585 68.337 7.57366 63.6506 8.125 58.1808C8.69085 52.7109 9.18415 48.0971 9.22768 47.9084C9.28571 47.6183 9.37277 47.5893 10.3158 47.5893C11.2154 47.5893 11.3315 47.6183 11.2589 47.8359C11.2154 47.981 11.0123 48.6629 10.8092 49.3739C10.4464 50.5636 10.4319 50.7812 10.4754 53.2187C10.519 55.7723 10.519 55.8158 10.9252 56.4107C11.2734 56.9475 12.231 57.789 12.6373 57.9196C12.7243 57.9486 13.0145 60.2555 13.2902 63.0413C13.885 69.0915 13.8705 69.0044 14.2333 69.3672C14.4799 69.6138 14.7121 69.6428 16.25 69.6428C17.7879 69.6428 18.0201 69.6138 18.2667 69.3672C18.6295 69.0044 18.6295 69.0189 19.1518 63.5491C19.3984 61.039 19.6306 58.7611 19.6741 58.5145L19.7467 58.0357H20.8929H22.0391L22.1116 58.5145C22.1551 58.7611 22.3873 61.039 22.6339 63.5491C23.1562 69.0189 23.1562 69.0044 23.519 69.3672C23.7656 69.6138 23.9978 69.6428 25.5357 69.6428C27.0737 69.6428 27.3058 69.6138 27.5525 69.3672C27.9152 69.0044 27.9007 69.0915 28.4955 63.0413C28.7712 60.2555 29.0614 57.9486 29.1484 57.9196C29.5547 57.789 30.5123 56.9475 30.8605 56.4107C31.2667 55.8158 31.2667 55.7723 31.3103 53.2187C31.3538 50.7812 31.3393 50.5636 30.9766 49.3739C30.7734 48.6629 30.5703 47.981 30.5268 47.8359C30.4542 47.6038 30.6138 47.5893 32.5 47.5893C34.3862 47.5893 34.5458 47.6038 34.4732 47.8359C34.4297 47.981 34.2266 48.6629 34.0234 49.3739C33.6607 50.5636 33.6462 50.7812 33.6897 53.2187C33.7333 55.7723 33.7333 55.8158 34.1395 56.4107C34.4877 56.9475 35.4453 57.789 35.8516 57.9196C35.9386 57.9486 36.2288 60.2555 36.5045 63.0413C37.0993 69.0915 37.0848 69.0044 37.4475 69.3672C37.6942 69.6138 37.9263 69.6428 39.4643 69.6428C41.0022 69.6428 41.2344 69.6138 41.481 69.3672C41.8438 69.0044 41.8438 69.0189 42.3661 63.5491C42.6127 61.039 42.8449 58.7611 42.8884 58.5145L42.9609 58.0357H44.1071H45.2533L45.3259 58.5C45.3694 58.7611 45.6016 61.039 45.8482 63.5491C46.3705 69.0189 46.3705 69.0044 46.7333 69.3672C46.9799 69.6138 47.2121 69.6428 48.75 69.6428C50.2879 69.6428 50.5201 69.6138 50.7667 69.3672C51.1295 69.0044 51.115 69.0915 51.7098 63.0413C51.9855 60.2555 52.2757 57.9486 52.3627 57.9196C52.769 57.789 53.7266 56.9475 54.0748 56.4107C54.481 55.8158 54.481 55.7723 54.5246 53.2187C54.5681 50.7812 54.5536 50.5636 54.1908 49.3739C53.9877 48.6629 53.7846 47.981 53.7411 47.8359C53.6685 47.6183 53.7846 47.5893 54.6842 47.5893C55.6272 47.5893 55.7143 47.6183 55.7723 47.9084C55.8158 48.0971 56.3092 52.7109 56.875 58.1808C57.4263 63.6506 57.9342 68.337 57.9777 68.5982C58.1228 69.5268 58.3984 69.6428 60.3571 69.6428C61.9096 69.6428 62.1272 69.6138 62.3884 69.3526C62.6786 69.0625 62.6786 68.8738 62.6786 58.3259V47.5893H63.5491C65 47.5893 65 47.5747 65 44.1071C65 41.3939 64.9855 41.1908 64.7098 40.9151C64.4342 40.6395 64.231 40.625 57.9777 40.625H51.5502L51.3036 39.7399C50.8683 38.1875 51.4342 38.3035 44.1071 38.3035C36.7801 38.3035 37.346 38.1875 36.9107 39.7399L36.6641 40.625H32.5H28.3359L28.0893 39.7399C27.654 38.1875 28.2199 38.3035 20.8929 38.3035C14.7846 38.3035 14.4944 38.318 14.2333 38.5792ZM27.3929 46.1093C28.9743 51.4341 29.0179 51.6227 29.0179 52.9721C29.0179 54.7131 28.8438 55.25 28.2054 55.5111C27.567 55.7723 14.3929 55.8158 13.6384 55.5547C12.971 55.308 12.7679 54.7276 12.7679 53.0011C12.7679 51.6082 12.7969 51.4631 14.3929 46.1093L16.0324 40.625H20.8929H25.7533L27.3929 46.1093ZM50.6071 46.1093C52.1886 51.4341 52.2321 51.6227 52.2321 52.9721C52.2321 54.7131 52.058 55.25 51.4196 55.5111C50.7812 55.7723 37.6071 55.8158 36.8527 55.5547C36.1853 55.308 35.9821 54.7276 35.9821 53.0011C35.9821 51.6082 36.0112 51.4631 37.6071 46.1093L39.2467 40.625H44.1071H48.9676L50.6071 46.1093ZM12.6228 43.3381C12.5502 43.5703 12.3906 44.0926 12.26 44.4989L12.0134 45.2678H7.16741H2.32143V44.1071V42.9464H7.53013H12.7533L12.6228 43.3381ZM35.8371 43.3381C35.7645 43.5703 35.6049 44.0926 35.4743 44.4989L35.2277 45.2678H32.5H29.7723L29.5257 44.4989C29.3951 44.0926 29.2355 43.5703 29.1629 43.3381L29.0324 42.9464H32.5H35.9676L35.8371 43.3381ZM62.6786 44.1071V45.2678H57.8326H52.9866L52.74 44.4989C52.6094 44.0926 52.4498 43.5703 52.3772 43.3381L52.2467 42.9464H57.4699H62.6786V44.1071ZM5.78906 56.8314C5.23772 61.9241 4.77344 66.3203 4.74442 66.5959C4.7154 66.8716 4.68638 62.7076 4.67188 57.3393L4.64286 47.5893H5.70201H6.76116L5.78906 56.8314ZM60.3281 57.3393C60.3136 62.7076 60.2846 66.8716 60.2556 66.5959C60.2266 66.3203 59.7623 61.9241 59.2109 56.8314L58.2388 47.5893H59.298H60.3571L60.3281 57.3393ZM16.7723 62.4609C16.5257 64.8984 16.2935 66.8861 16.25 66.8861C16.2065 66.8861 15.9743 64.8984 15.7277 62.4609L15.2924 58.0357H16.25H17.2076L16.7723 62.4609ZM26.058 62.4609C25.8114 64.8984 25.5792 66.8861 25.5357 66.8861C25.4922 66.8861 25.26 64.8984 25.0134 62.4609L24.5781 58.0357H25.5357H26.4933L26.058 62.4609ZM39.9866 62.4609C39.74 64.8984 39.5078 66.8861 39.4643 66.8861C39.4208 66.8861 39.1886 64.8984 38.942 62.4609L38.5067 58.0357H39.4643H40.4219L39.9866 62.4609ZM49.2723 62.4609C49.0257 64.8984 48.7935 66.8861 48.75 66.8861C48.7065 66.8861 48.4743 64.8984 48.2277 62.4609L47.7924 58.0357H48.75H49.7076L49.2723 62.4609Z" fill="#0076BE"/>
<path d="M18.5715 44.1071V45.2678H20.8929H23.2143V44.1071V42.9464H20.8929H18.5715V44.1071Z" fill="#0076BE"/>
<path d="M41.7857 44.1071V45.2678H44.1071H46.4286V44.1071V42.9464H44.1071H41.7857V44.1071Z" fill="#0076BE"/>
</svg>
