<svg width="26" height="26" viewBox="0 0 26 26" fill="none" xmlns="http://www.w3.org/2000/svg">
<path d="M19.435 12.9351C20.5363 11.8348 21.3366 10.4702 21.7596 8.97206C22.1825 7.47388 22.2138 5.89222 21.8504 4.37849L25.0939 2.98749C25.1928 2.94509 25.3007 2.92791 25.4079 2.93749C25.5151 2.94708 25.6182 2.98313 25.708 3.04241C25.7979 3.10168 25.8716 3.18234 25.9225 3.27713C25.9735 3.37191 26.0001 3.47787 26 3.58549V22.1001L16.9 26.0001L9.1 22.1001L0.9061 25.6114C0.807188 25.6538 0.699295 25.671 0.592105 25.6614C0.484916 25.6518 0.381783 25.6157 0.291963 25.5565C0.202144 25.4972 0.128448 25.4165 0.0774891 25.3218C0.0265306 25.227 -9.54932e-05 25.121 2.57335e-07 25.0134V6.50009L4.0677 4.75679C3.7815 6.22004 3.85958 7.73123 4.29508 9.15719C4.73057 10.5832 5.51011 11.8801 6.565 12.9338L13 19.3701L19.435 12.9351ZM17.5968 11.0969L13 15.6911L8.4032 11.0956C7.49433 10.1865 6.87544 9.02829 6.62477 7.76746C6.3741 6.50663 6.50293 5.19978 6.99495 4.01216C7.48697 2.82454 8.32009 1.80948 9.38897 1.09533C10.4579 0.381175 11.7145 0 13 0C14.2855 0 15.5421 0.381175 16.611 1.09533C17.6799 1.80948 18.513 2.82454 19.0051 4.01216C19.4971 5.19978 19.6259 6.50663 19.3752 7.76746C19.1246 9.02829 18.5057 10.1865 17.5968 11.0956V11.0969Z" fill="#051B29"/>
</svg>
