<svg width="29" height="19" viewBox="0 0 29 19" fill="none" xmlns="http://www.w3.org/2000/svg">
<path d="M1.58333 19H26.9167C27.7875 19 28.5 18.2875 28.5 17.4167C28.5 16.5458 27.7875 15.8333 26.9167 15.8333H1.58333C0.7125 15.8333 0 16.5458 0 17.4167C0 18.2875 0.7125 19 1.58333 19ZM1.58333 11.0833H26.9167C27.7875 11.0833 28.5 10.3708 28.5 9.5C28.5 8.62917 27.7875 7.91667 26.9167 7.91667H1.58333C0.7125 7.91667 0 8.62917 0 9.5C0 10.3708 0.7125 11.0833 1.58333 11.0833ZM0 1.58333C0 2.45417 0.7125 3.16667 1.58333 3.16667H26.9167C27.7875 3.16667 28.5 2.45417 28.5 1.58333C28.5 0.7125 27.7875 0 26.9167 0H1.58333C0.7125 0 0 0.7125 0 1.58333Z" fill="#051B29"/>
</svg>
