<svg width="65" height="65" viewBox="0 0 65 65" fill="none" xmlns="http://www.w3.org/2000/svg">
<path d="M16.6309 0.203125C16.0596 0.457031 15.5264 0.952148 15.2217 1.54883C14.917 2.13281 14.9043 3.36426 15.1836 4.03711C15.4121 4.6084 16.0342 5.26855 16.5166 5.47168L16.8848 5.61133V6.80469V7.99805H9.75C2.83105 7.99805 2.58984 8.01074 2.03125 8.26465C1.26953 8.60742 0.672852 9.2041 0.304688 9.96582C0.0126953 10.5879 0 10.6641 0 14.4346C0 18.2559 0 18.2686 0.279297 18.459C0.660156 18.7256 1.30762 18.7129 1.6377 18.4336C1.87891 18.2305 1.8916 18.0781 1.92969 14.6631C1.96777 10.7656 1.98047 10.7021 2.75488 10.1943C3.07227 9.97852 3.65625 9.96582 9.99121 9.92773L16.8848 9.88965V10.8545V11.8066H10.7402H4.5957L4.20215 12.2002L3.80859 12.5938V28.5771V44.5605H2.85645H1.9043V33.1475V21.7217L1.57422 21.4678C1.38379 21.3154 1.10449 21.2012 0.952148 21.2012C0.799805 21.2012 0.520508 21.3154 0.330078 21.4678L0 21.7217V35.9658V50.21L0.304688 50.8447C0.672852 51.6064 1.26953 52.2031 2.03125 52.5459C2.57715 52.7998 2.84375 52.8125 9.49609 52.8125H16.377V56.0498V59.2871H15.2471C14.2949 59.2871 14.0664 59.3252 13.7109 59.5791C12.8477 60.1631 12.7588 60.4043 12.7588 62.1436C12.7588 63.8828 12.8477 64.124 13.7109 64.7207L14.1299 65H32.5H50.8701L51.2891 64.7207C52.1523 64.124 52.2412 63.8828 52.2412 62.1436C52.2412 60.4043 52.1523 60.1631 51.2891 59.5791C50.9336 59.3252 50.7051 59.2871 49.7529 59.2871H48.623V56.0498V52.8125H51.2129H53.8154L54.0693 52.4824C54.4121 52.0508 54.4121 51.6699 54.0693 51.2383L53.8154 50.9082L28.4502 50.8828C4.48145 50.8447 3.08496 50.832 2.75488 50.6162C2.08203 50.1846 1.98047 49.8545 1.92969 48.0898L1.87891 46.4648H32.5H63.1211L63.0703 48.0898C63.0195 49.8545 62.918 50.1846 62.2451 50.6162C61.9531 50.8066 61.5342 50.8574 59.5918 50.8828C57.4844 50.9336 57.2559 50.959 57.0527 51.1748C56.7607 51.5049 56.7607 52.2158 57.0654 52.5586C57.2812 52.7998 57.4336 52.8125 59.8457 52.8125C62.2705 52.8125 62.4355 52.7998 63.0322 52.5078C63.7939 52.1396 64.3906 51.543 64.7334 50.7812C64.9873 50.21 65 50.0449 65 30.4053C65 10.7656 64.9873 10.6006 64.7334 10.0293C64.3906 9.26758 63.7939 8.6709 63.0322 8.30273C62.4102 8.01074 62.334 7.99805 58.627 7.99805H54.8438V7.13477C54.8438 6.2334 54.5645 5.44629 54.1328 5.05273C53.4473 4.44336 53.3711 4.44336 46.1855 4.44336C39.8887 4.44336 39.3809 4.46875 38.9111 4.68457C37.9844 5.10352 37.5781 5.86523 37.5781 7.17285V7.99805H31.9922H26.4062V6.80469V5.61133L26.7744 5.47168C26.9648 5.38281 27.3076 5.12891 27.5234 4.91309C28.6025 3.7959 28.5771 1.77734 27.4727 0.736328C26.6982 0.0126953 26.5713 0 21.6201 0C17.8496 0.0126953 16.999 0.0380859 16.6309 0.203125ZM26.0127 2.20898C26.3682 2.52637 26.3682 3.18652 26.0127 3.50391C25.7588 3.73242 25.4922 3.74512 21.6455 3.74512C17.7988 3.74512 17.5322 3.73242 17.2783 3.50391C16.7578 3.03418 17.0117 2.1709 17.71 1.99316C17.8496 1.95508 19.7158 1.94238 21.8486 1.94238C25.4922 1.96777 25.7588 1.98047 26.0127 2.20898ZM24.502 11.5146V17.3291L24.8701 18.0908C25.3018 18.9922 25.873 19.5508 27.2061 20.3633C28.9326 21.417 30.4688 23.1943 31.3066 25.0986C31.5732 25.6826 32.1191 27.6123 32.1191 27.9551C32.1191 28.0186 27.4092 28.0566 21.6455 28.0566C15.8818 28.0566 11.1719 28.0312 11.1719 27.9805C11.1719 27.9424 11.2607 27.5234 11.375 27.0283C12.0098 24.248 13.6475 21.9121 16.085 20.3633C17.5576 19.4238 17.9893 19.0049 18.4209 18.0908L18.7891 17.3291V11.5146V5.71289H21.6455H24.502V11.5146ZM52.749 13.0762V19.6143H46.2109H39.6729L39.6348 13.2031C39.6221 9.67383 39.6348 6.71582 39.6729 6.62695C39.7109 6.5 41.0947 6.47461 46.2363 6.5L52.749 6.53809V13.0762ZM37.5781 10.8545V11.8066H31.9922H26.4062V10.8545V9.90234H31.9922H37.5781V10.8545ZM62.2451 10.1943C62.4355 10.3086 62.6895 10.5625 62.8037 10.7529C63.0195 11.083 63.0322 12.0859 63.0703 27.8281L63.0957 44.5605H62.1436H61.1914V28.5771V12.5938L60.7979 12.2002L60.4043 11.8066H57.624H54.8438V10.8418V9.88965L58.373 9.92773C61.4834 9.96582 61.9404 9.99121 62.2451 10.1943ZM16.8594 15.2598C16.7832 17.3291 16.6182 17.6211 15.1074 18.5352C13.1523 19.7031 11.4639 21.5439 10.4102 23.6768C9.39453 25.708 9.2168 26.5586 9.2041 29.2627C9.2041 31.2812 9.24219 31.6621 9.49609 32.5508C10.5498 36.1816 13.0762 39.1396 16.4404 40.7012C18.2432 41.5264 19.0811 41.6914 21.6455 41.7041C24.3242 41.7041 25.1113 41.5391 27.2314 40.498C29.6943 39.292 31.6748 37.3115 32.8809 34.8486C33.9092 32.7412 34.0869 31.9414 34.0869 29.2627C34.0869 27.2568 34.0488 26.8506 33.7949 25.9619C32.9189 22.8896 30.8115 20.0967 28.1836 18.5352C26.6729 17.6211 26.5078 17.3291 26.4316 15.2598L26.3682 13.7109H31.9795H37.5781V16.7578C37.5781 20.5029 37.6924 20.9092 38.9111 21.4678C39.3809 21.6836 39.8887 21.709 46.1855 21.709C51.9873 21.709 53.0156 21.6836 53.4092 21.5186C54.0439 21.252 54.3232 20.9854 54.6025 20.376C54.8057 19.9316 54.8438 19.5 54.8438 16.7832V13.7109H57.0654H59.2871V29.1357V44.5605H32.5H5.71289V29.1357V13.7109H11.3115H16.9229L16.8594 15.2598ZM32.1191 30.3037C32.1191 30.9131 31.6367 32.7031 31.2432 33.5664C30.2021 35.8643 28.2471 37.8193 25.9365 38.8604C23.4102 40.0156 20.0078 40.041 17.4941 38.9365C15.1201 37.8828 12.9111 35.6357 11.9463 33.2871C11.5654 32.3604 11.1719 30.8369 11.1719 30.291V29.9609H21.6455H32.1191V30.3037ZM46.7188 56.0498V59.2871H43.6338H40.5615L40.0029 57.9795C39.3555 56.4814 38.5303 55.5166 37.6289 55.25C36.8926 55.0342 28.1074 55.0342 27.3711 55.25C26.4697 55.5166 25.6445 56.4814 24.9971 57.9795L24.4385 59.2871H21.3662H18.2812V56.0498V52.8125H32.5H46.7188V56.0498ZM37.3115 57.4717C37.5273 57.6748 37.832 58.1572 38.0098 58.5508L38.3271 59.2871H32.5H26.6729L26.9902 58.5508C27.168 58.1572 27.4727 57.6748 27.6885 57.4717L28.0566 57.1289H32.5H36.9434L37.3115 57.4717ZM50.21 62.1436V63.0322H32.5H14.79L14.752 62.2832C14.7266 61.877 14.7393 61.458 14.7773 61.3691C14.8408 61.2168 17.6846 61.1914 32.5254 61.2168L50.21 61.2549V62.1436Z" fill="#0076BE"/>
<path d="M41.7041 8.56934C41.501 8.75977 41.3867 9.02637 41.3867 9.26758C41.3867 9.50879 41.501 9.77539 41.7041 9.96582C41.9961 10.2705 42.0596 10.2832 43.9512 10.2832C46.0332 10.2705 46.2236 10.2197 46.4521 9.61035C46.6045 9.2168 46.4521 8.68359 46.1094 8.42969C45.957 8.30273 45.3477 8.26465 43.9512 8.25195C42.0596 8.25195 41.9961 8.26465 41.7041 8.56934Z" fill="#0076BE"/>
<path d="M41.7041 12.3779C41.501 12.5684 41.3867 12.835 41.3867 13.0762C41.3867 13.3174 41.501 13.584 41.7041 13.7744L42.0088 14.0918H46.2109H50.4131L50.7178 13.7744C50.9209 13.584 51.0352 13.3174 51.0352 13.0762C51.0352 12.835 50.9209 12.5684 50.7178 12.3779L50.4131 12.0605H46.2109H42.0088L41.7041 12.3779Z" fill="#0076BE"/>
<path d="M41.7041 16.1865C41.501 16.377 41.3867 16.6436 41.3867 16.8848C41.3867 17.126 41.501 17.3926 41.7041 17.583L42.0088 17.9004H45.1064C48.0518 17.9004 48.2295 17.8877 48.5469 17.6338C48.9912 17.291 49.0039 16.542 48.585 16.1484C48.293 15.8818 48.2041 15.8691 45.1445 15.8691H42.0088L41.7041 16.1865Z" fill="#0076BE"/>
<path d="M38.708 33.1729C38.4795 33.3252 38.1494 33.6553 37.9971 33.8838C37.7178 34.3027 37.7051 34.4043 37.7051 37.3242C37.7051 40.2441 37.7178 40.3457 37.9971 40.7646C38.1494 40.9932 38.4795 41.3232 38.708 41.4756L39.1396 41.7676H46.2744H53.4092L53.8408 41.4756C54.0693 41.3232 54.3994 40.9932 54.5518 40.7646C54.8311 40.3457 54.8438 40.2441 54.8438 37.3242C54.8438 34.4043 54.8311 34.3027 54.5518 33.8838C54.3994 33.6553 54.0693 33.3252 53.8408 33.1729L53.4092 32.8809H46.2744H39.1396L38.708 33.1729ZM52.7363 34.9883C53.041 35.2803 53.041 39.3682 52.7363 39.6602C52.5586 39.8379 51.7969 39.8633 46.2744 39.8633C40.752 39.8633 39.9902 39.8379 39.8125 39.6602C39.6475 39.4951 39.6094 39.1016 39.6094 37.3242C39.6094 35.5469 39.6475 35.1533 39.8125 34.9883C39.9902 34.8105 40.752 34.7852 46.2744 34.7852C51.7969 34.7852 52.5586 34.8105 52.7363 34.9883Z" fill="#0076BE"/>
</svg>
