<svg width="21" height="21" viewBox="0 0 21 21" fill="none" xmlns="http://www.w3.org/2000/svg">
<path opacity="0.946" fill-rule="evenodd" clip-rule="evenodd" d="M11.9355 0C12.25 0 12.5644 0 12.8789 0C14.1337 0.31158 14.8857 1.10455 15.1348 2.37891C16.6658 2.41308 18.1971 2.43359 19.7285 2.44043C20.3835 2.58286 20.8073 2.97251 21 3.60938C21 9.00978 21 14.4101 21 19.8105C20.7782 20.4015 20.368 20.798 19.7695 21C13.5762 21 7.38281 21 1.18945 21C0.587889 20.8086 0.191406 20.4121 0 19.8105C0 14.4101 0 9.00978 0 3.60938C0.192671 2.97251 0.616498 2.58286 1.27148 2.44043C4.07418 2.41992 6.87693 2.41308 9.67969 2.41992C9.88144 1.09716 10.6334 0.290517 11.9355 0ZM11.9766 0.65625C12.9788 0.538769 13.7376 0.90791 14.2529 1.76367C14.4599 2.20693 14.5283 2.67177 14.458 3.1582C14.2683 4.37013 13.8445 5.49125 13.1865 6.52148C12.9805 6.84374 12.7139 7.1035 12.3867 7.30078C12.1298 7.16014 11.9179 6.96872 11.751 6.72656C10.9372 5.52267 10.4518 4.19651 10.2949 2.74805C10.3905 1.66889 10.951 0.971627 11.9766 0.65625ZM12.1406 2.00977C12.9104 1.96586 13.2453 2.32132 13.1455 3.07617C12.8452 3.61096 12.4282 3.72718 11.8945 3.4248C11.5292 3.02603 11.5156 2.61587 11.8535 2.19434C11.9519 2.13182 12.0476 2.0703 12.1406 2.00977ZM1.35352 3.07617C2.00991 3.06934 2.66616 3.07618 3.32227 3.09668C6.28905 6.06346 9.25587 9.03029 12.2227 11.9971C12.3812 12.084 12.5316 12.0703 12.6738 11.9561C13.9658 10.6367 15.2578 9.3174 16.5498 7.99805C16.7108 7.7602 16.663 7.57563 16.4062 7.44434C16.3242 7.41698 16.2422 7.41698 16.1602 7.44434C14.9232 8.72087 13.6723 9.98554 12.4072 11.2383C9.69335 8.5244 6.97951 5.81056 4.26562 3.09668C6.07027 3.07617 7.87496 3.06933 9.67969 3.07617C9.87164 4.55335 10.3843 5.90687 11.2178 7.13672C11.4492 7.46398 11.7431 7.71688 12.0996 7.89551C12.4272 7.99612 12.728 7.94145 13.002 7.73145C13.6595 7.08016 14.1585 6.32137 14.499 5.45508C14.8264 4.6926 15.0383 3.89961 15.1348 3.07617C16.6387 3.06933 18.1426 3.07617 19.6465 3.09668C19.8361 3.15043 20.0002 3.24613 20.1387 3.38379C19.16 4.3488 18.1961 5.32633 17.2471 6.31641C17.1415 6.60048 17.2371 6.77824 17.5342 6.84961C17.5957 6.8291 17.6572 6.80859 17.7188 6.78809C18.6147 5.90445 19.4965 5.00895 20.3643 4.10156C20.3916 4.8535 20.3916 5.60548 20.3643 6.35742C18.1917 8.62575 16.0042 10.8816 13.8018 13.125C13.7197 13.2754 13.7197 13.4258 13.8018 13.5762C15.9209 15.6953 18.04 17.8144 20.1592 19.9336C20.087 20.1283 19.9434 20.2582 19.7285 20.3232C19.2928 20.3852 18.8553 20.3989 18.416 20.3643C14.368 16.3026 10.3075 12.2557 6.23438 8.22363C6.12499 8.19628 6.01564 8.19628 5.90625 8.22363C4.14943 9.98046 2.39258 11.7373 0.635742 13.4941C0.608397 12.7422 0.608397 11.9902 0.635742 11.2383C2.0166 9.85741 3.39746 8.47658 4.77832 7.0957C4.81183 6.95363 4.79813 6.81688 4.7373 6.68555C3.56096 5.51603 2.39201 4.34027 1.23047 3.1582C1.27565 3.13049 1.31667 3.10315 1.35352 3.07617ZM0.697266 3.60938C1.8101 4.7017 2.91752 5.80228 4.01953 6.91113C2.8916 8.03906 1.76367 9.16699 0.635742 10.2949C0.608397 8.18947 0.608397 6.08397 0.635742 3.97852C0.65634 3.85493 0.676848 3.73188 0.697266 3.60938ZM20.3438 7.3418C20.3916 11.2861 20.3984 15.2373 20.3643 19.1953C18.416 17.2471 16.4678 15.2988 14.5195 13.3506C16.4692 11.353 18.4107 9.35013 20.3438 7.3418ZM6.07031 8.98242C9.87652 12.7681 13.6773 16.5621 17.4727 20.3643C12.1543 20.3916 6.83595 20.3916 1.51758 20.3643C0.985839 20.2837 0.691893 19.9761 0.635742 19.4414C0.608397 17.7734 0.608397 16.1055 0.635742 14.4375C2.45553 12.6246 4.26706 10.8062 6.07031 8.98242ZM6.11133 13.7402C6.79383 13.8338 7.06043 14.2166 6.91113 14.8887C6.65889 15.3259 6.29655 15.4557 5.82422 15.2783C5.22264 14.7998 5.22264 14.3213 5.82422 13.8428C5.92692 13.8141 6.02261 13.78 6.11133 13.7402Z" fill="#051B29"/>
<path opacity="0.927" fill-rule="evenodd" clip-rule="evenodd" d="M12.0585 1.35346C12.9371 1.23514 13.5182 1.59061 13.8017 2.41987C13.9429 3.49044 13.478 4.10567 12.4072 4.26557C11.3425 4.13292 10.864 3.53138 10.9716 2.46088C11.123 1.87887 11.4853 1.50973 12.0585 1.35346ZM12.1406 2.00971C12.0475 2.07024 11.9518 2.13176 11.8535 2.19428C11.5155 2.61582 11.5292 3.02597 11.8945 3.42475C12.4282 3.72712 12.8451 3.61091 13.1454 3.07612C13.2453 2.32127 12.9103 1.9658 12.1406 2.00971Z" fill="#051B29"/>
<path opacity="0.924" fill-rule="evenodd" clip-rule="evenodd" d="M6.02939 11.7305C6.5185 11.7258 6.98337 11.8283 7.42392 12.0381C7.52375 12.1905 7.5306 12.3477 7.44443 12.5098C7.37905 12.5835 7.29702 12.6245 7.19833 12.6328C6.03718 12.1678 5.09382 12.4412 4.36825 13.4532C4.07627 14.0727 4.02158 14.7153 4.20419 15.3809C4.47194 16.5586 4.95047 17.6386 5.63974 18.6211C5.79457 18.8103 5.97914 18.9607 6.19345 19.0723C6.45033 18.9317 6.66226 18.7402 6.82919 18.4981C7.65898 17.301 8.14432 15.9748 8.28525 14.5196C8.28012 14.1877 8.2049 13.8732 8.05966 13.5762C8.01118 13.1462 8.18894 13.0095 8.59286 13.166C8.95392 13.8993 9.03596 14.6649 8.83896 15.4629C8.54656 16.9431 7.91081 18.2487 6.93173 19.3799C6.48925 19.8047 6.02438 19.832 5.5372 19.4619C4.89272 18.8096 4.40738 18.0508 4.08114 17.1856C3.62853 16.194 3.42346 15.155 3.46591 14.0684C3.78323 12.6912 4.63773 11.9119 6.02939 11.7305ZM6.11142 13.7403C6.0227 13.78 5.92701 13.8142 5.82431 13.8428C5.22273 14.3213 5.22273 14.7998 5.82431 15.2784C6.29664 15.4557 6.65898 15.3259 6.91122 14.8887C7.06052 14.2167 6.79392 13.8338 6.11142 13.7403Z" fill="#051B29"/>
<path opacity="0.925" fill-rule="evenodd" clip-rule="evenodd" d="M6.11133 13.084C7.05046 13.1345 7.55635 13.6267 7.62891 14.5605C7.56463 15.4656 7.0793 15.9578 6.17285 16.0371C5.29491 15.9317 4.80957 15.4395 4.7168 14.5605C4.80605 13.7059 5.27088 13.2137 6.11133 13.084ZM6.11133 13.7402C6.02261 13.78 5.92692 13.8141 5.82422 13.8428C5.22264 14.3213 5.22264 14.7998 5.82422 15.2783C6.29655 15.4557 6.65889 15.3259 6.91113 14.8887C7.06043 14.2166 6.79383 13.8338 6.11133 13.7402Z" fill="#051B29"/>
</svg>
