<svg width="65" height="66" viewBox="0 0 65 66" fill="none" xmlns="http://www.w3.org/2000/svg">
<path d="M4.28012 0.27825C3.96092 0.423338 3.49664 0.771553 3.23548 1.03271C2.27789 2.04834 2.32142 1.30838 2.32142 15.1209C2.32142 27.0037 2.33592 27.6711 2.59709 28.2224C2.74217 28.5416 3.09039 29.0059 3.35155 29.2671C4.17856 30.0361 4.70088 30.1812 6.81918 30.1812C8.51673 30.1812 8.73436 30.1521 8.99552 29.891C9.38726 29.4992 9.38726 28.5416 8.99552 28.1499C8.74887 27.9033 8.51673 27.8597 7.327 27.8597C5.19418 27.8597 4.64284 27.4825 4.64284 26.0316V25.5383H6.67409C8.51673 25.5383 8.73436 25.5093 8.99552 25.2481C9.38726 24.8564 9.38726 23.8988 8.99552 23.507C8.73436 23.2459 8.51673 23.2169 6.67409 23.2169H4.64284V13.4233C4.64284 2.59968 4.62834 2.8028 5.51338 2.48361C6.1953 2.25146 58.8047 2.25146 59.4866 2.48361C60.3716 2.8028 60.3571 2.59968 60.3571 13.4233V23.2169H58.3259C56.4832 23.2169 56.2656 23.2459 56.0045 23.507C55.6127 23.8988 55.6127 24.8564 56.0045 25.2481C56.2656 25.5093 56.4832 25.5383 58.3259 25.5383H60.3571V26.0461C60.3571 26.8731 60.0234 27.5115 59.4866 27.7001C59.2254 27.7872 58.3984 27.8597 57.6585 27.8597C56.4832 27.8597 56.2511 27.9033 56.0045 28.1499C55.6127 28.5416 55.6127 29.4992 56.0045 29.891C56.2656 30.1521 56.4832 30.1812 58.1808 30.1812C60.2991 30.1812 60.8214 30.0361 61.6484 29.2671C61.9096 29.0059 62.2578 28.5416 62.4029 28.2224C62.6641 27.6711 62.6786 27.0182 62.6786 15.0919C62.6786 3.16553 62.6641 2.51262 62.4029 1.96128C62.2578 1.64209 61.9096 1.1778 61.6484 0.916643C60.6038 -0.0699654 62.9542 0.00258064 32.471 0.00258064C5.89061 0.00258064 4.84597 0.0170879 4.28012 0.27825Z" fill="#0076BE"/>
<path d="M7.25447 4.9356C6.9788 5.21127 6.96429 5.41439 6.96429 12.7704C6.96429 20.1264 6.9788 20.3296 7.25447 20.6052C7.44308 20.7939 7.73326 20.8954 8.125 20.8954C8.51674 20.8954 8.80692 20.7939 8.99554 20.6052C9.27121 20.3296 9.28572 20.1264 9.28572 13.641V6.96685H32.5H55.7143V13.641C55.7143 20.1264 55.7288 20.3296 56.0045 20.6052C56.3962 20.997 57.3538 20.997 57.7455 20.6052C58.0212 20.3296 58.0357 20.1264 58.0357 12.7704C58.0357 5.41439 58.0212 5.21127 57.7455 4.9356C57.4554 4.64542 57.2667 4.64542 32.5 4.64542C7.73326 4.64542 7.54464 4.64542 7.25447 4.9356Z" fill="#0076BE"/>
<path d="M30.6429 10.7537C28.9598 11.4066 27.8571 13.1186 27.8571 15.0918C27.8571 16.978 28.7857 18.5159 30.3962 19.2994C31.4409 19.8218 33.1384 19.8798 34.2846 19.4445C36.0402 18.7771 37.1429 17.1086 37.1429 15.0918C37.1429 12.3351 35.2277 10.4345 32.4565 10.4635C31.7746 10.4635 31.1507 10.5651 30.6429 10.7537ZM33.6317 13.2057C35.5179 14.3519 34.7054 17.2682 32.5 17.2682C31.2667 17.2682 30.3237 16.3251 30.3237 15.0918C30.3237 14.3084 30.7154 13.6119 31.3683 13.2057C31.6585 13.0316 32.1083 12.9155 32.5 12.9155C32.8917 12.9155 33.3415 13.0316 33.6317 13.2057Z" fill="#0076BE"/>
<path d="M27.3493 19.6767C25.5067 20.1264 24.6362 21.2436 24.375 23.5215C24.3025 24.1889 24.2299 27.0037 24.2299 29.7604V34.795L23.8672 34.882C23.6641 34.9401 23.4464 35.0852 23.4029 35.2302C23.3449 35.3753 23.2288 35.0852 23.1127 34.4613C22.8661 33.1119 22.3292 32.2849 21.3426 31.7336C20.1964 31.0807 19.1518 31.0952 17.7009 31.7626C16.2645 32.43 14.596 32.5461 13.3192 32.0818C12.8549 31.9077 12.1004 31.632 11.6507 31.4724C10.9107 31.1968 10.7076 31.1823 9.93862 31.3273C8.09598 31.661 7.09487 32.9959 6.9933 35.2593C6.93527 36.4055 6.96429 36.5651 7.23995 36.8407C7.57366 37.1744 8.38616 37.247 8.85045 37.0003C9.15513 36.8407 9.4308 36.0282 9.4308 35.2593C9.4308 34.5919 9.70647 34.0695 10.1998 33.8374C10.548 33.6778 10.6931 33.6923 11.5781 34.084C12.8984 34.6644 13.6239 34.824 15.0893 34.824C16.5547 34.824 17.2801 34.6644 18.5859 34.084C19.6016 33.6488 20.0223 33.6488 20.4286 34.1276C20.6607 34.4177 20.8929 36.1008 20.8929 37.6532V38.959L17.8315 43.5584L14.7556 48.1577L14.1607 47.853C13.2031 47.3597 12.0714 47.4177 10.7366 48.0271C9.72098 48.5059 9.56138 48.5349 8.125 48.5349C6.68862 48.5349 6.54353 48.5059 5.51339 48.0271C4.64286 47.6209 4.26562 47.5193 3.55469 47.5338C2.45201 47.5483 1.29129 48.1287 0.768973 48.9122C0.0290179 50.0439 0 50.3195 0 57.632C0 64.2336 0.0145089 64.4367 0.290179 64.7124C0.565848 64.9881 0.768973 65.0026 3.48214 65.0026C6.19531 65.0026 6.39844 64.9881 6.67411 64.7124C6.86272 64.5238 6.96429 64.2336 6.96429 63.8418C6.96429 63.4501 6.86272 63.1599 6.67411 62.9713C6.41295 62.7102 6.19531 62.6811 4.33817 62.6811H2.29241L2.35045 56.9066C2.39397 50.6387 2.42299 50.4791 3.22098 50.0874C3.58371 49.9133 3.72879 49.9423 4.61384 50.334C5.93415 50.9144 6.6596 51.074 8.125 51.074C9.5904 51.074 10.3158 50.9144 11.6217 50.334C12.4196 49.9858 12.6663 49.9423 12.9855 50.0584C13.3772 50.2035 13.3772 50.2035 13.1161 50.6097C12.9855 50.8273 12.0569 52.2057 11.0703 53.6856L9.28571 56.3698V60.3887C9.28571 64.2336 9.30022 64.4367 9.57589 64.7124C9.86607 65.0026 10.0547 65.0026 31.3393 65.0026C52.6239 65.0026 52.8125 65.0026 53.1027 64.7124C53.3783 64.4367 53.3929 64.2336 53.3929 60.4032V56.3843L52.0871 54.0193C51.3761 52.728 50.7812 51.6253 50.7812 51.5818C50.7812 51.5238 50.9844 51.1901 51.231 50.8418C51.8839 49.8988 52.1886 49.8262 53.3783 50.334C54.6842 50.9144 55.4096 51.074 56.875 51.074C58.3404 51.074 59.0658 50.9144 60.3717 50.334C61.3873 49.8988 61.808 49.8988 62.2143 50.3776C62.548 50.7983 62.6786 52.6845 62.6786 57.632V62.6811H59.4866C56.4833 62.6811 56.2801 62.6956 56.0045 62.9713C55.8158 63.1599 55.7143 63.4501 55.7143 63.8418C55.7143 64.2336 55.8158 64.5238 56.0045 64.7124C56.2801 64.9881 56.4833 65.0026 60.3571 65.0026C64.231 65.0026 64.4342 64.9881 64.7098 64.7124C64.9855 64.4367 65 64.2336 65 57.632C65 50.3195 64.971 50.0439 64.231 48.9122C63.7087 48.1287 62.548 47.5483 61.4453 47.5338C60.7344 47.5193 60.3571 47.6209 59.4866 48.0271C58.4565 48.5059 58.3114 48.5349 56.875 48.5349C55.4386 48.5349 55.2935 48.5059 54.2634 48.0271C53.3783 47.6064 53.0156 47.5193 52.3047 47.5338C51.2746 47.5483 50.2589 47.9691 49.7076 48.6075C49.4464 48.9267 49.3158 48.9847 49.2143 48.8541C49.1417 48.7526 47.952 46.6343 46.5737 44.1242L44.0636 39.5684L44.1507 37.218C44.2232 34.6499 44.3538 34.1566 45.0067 33.8374C45.3694 33.6633 45.5145 33.6923 46.3996 34.084C47.7199 34.6644 48.4453 34.824 49.9107 34.824C51.3761 34.824 52.1016 34.6644 53.4074 34.084C54.1618 33.7648 54.4665 33.6923 54.7277 33.7939C55.2645 33.997 55.4096 34.2581 55.5692 35.3898C55.7868 36.9423 55.9464 37.1454 56.9621 37.1454C57.76 37.1454 58.0357 36.7537 58.0357 35.5785C58.0357 33.6778 57.4118 32.401 56.135 31.7191C54.9888 31.0807 53.9442 31.1097 52.5223 31.7771C51.4922 32.2559 51.3471 32.2849 49.9107 32.2849C48.4743 32.2849 48.3292 32.2559 47.3136 31.7771C45.6886 31.0227 44.3828 31.0952 43.135 32.0383C42.5402 32.4735 41.9453 33.6633 41.8438 34.6354C41.7567 35.3463 41.7422 35.3608 41.481 35.0997C41.3214 34.9401 41.0748 34.824 40.9152 34.824C40.625 34.824 40.625 34.7224 40.625 28.9044C40.625 22.5349 40.596 22.1722 39.856 21.055C39.3337 20.2715 38.173 19.6912 37.0703 19.6767C36.3594 19.6622 35.9821 19.7637 35.1116 20.17C34.0815 20.6488 33.9364 20.6778 32.5 20.6778C31.0781 20.6778 30.904 20.6488 29.99 20.2135C29.0324 19.7492 27.9442 19.5316 27.3493 19.6767ZM29.0469 22.4769C29.6272 22.709 30.3527 22.9557 30.6574 22.9992C30.9475 23.0573 31.1942 23.1443 31.1942 23.2023C31.1942 23.2459 30.7009 24.8854 30.106 26.8296C29.5112 28.7738 29.0179 30.5294 29.0179 30.747C29.0324 31.2548 29.1629 31.3999 30.6574 32.6186C32.3839 34.026 32.5725 34.026 34.3571 32.6477C35.75 31.574 36.1272 31.1532 36.1272 30.718C36.1272 30.5148 34.154 24.0874 33.8493 23.2749C33.8203 23.1733 34.0234 23.0573 34.3426 22.9992C34.6473 22.9557 35.3728 22.709 35.9531 22.4769C36.8962 22.0997 37.0703 22.0706 37.404 22.2448C38.202 22.622 38.231 22.7816 38.2746 29.0494L38.3326 34.824H32.5871H26.8415V28.9769C26.8415 22.7381 26.856 22.6075 27.567 22.2448C27.7701 22.1432 27.9442 22.0561 27.9587 22.0561C27.9732 22.0561 28.452 22.2448 29.0469 22.4769ZM44.9632 46.3731C47.7779 51.4367 50.0558 55.6153 50.0268 55.6588C49.9833 55.6878 41.5971 55.7023 31.3683 55.6878L12.7679 55.6443L18.9342 46.3876L25.1004 37.1454H32.471H39.8415L44.9632 46.3731ZM51.0714 60.3597V62.6811H31.3393H11.6071V60.3597V58.0383H31.3393H51.0714V60.3597Z" fill="#0076BE"/>
<path d="M26.029 39.7135C25.7098 40.0327 18.0781 51.4948 17.9475 51.8575C17.8024 52.2347 18.0926 53.0763 18.4263 53.2504C18.6004 53.3374 23.4174 53.3954 31.8326 53.3954H44.9632L45.2533 53.0182C45.4274 52.8006 45.558 52.4524 45.558 52.2492C45.558 51.7995 39.0435 39.9457 38.6373 39.641C38.4486 39.5104 36.9542 39.4669 32.3404 39.4669C26.8415 39.4669 26.2611 39.4959 26.029 39.7135ZM39.6674 46.3876L42.221 51.0015L37.0848 51.045C34.2556 51.0595 29.5837 51.0595 26.7109 51.045L21.4732 51.0015L24.5491 46.3876L27.6105 41.7883H32.3549H37.1138L39.6674 46.3876Z" fill="#0076BE"/>
<path d="M13.2321 22.3608C11.5491 23.0137 10.4464 24.7257 10.4464 26.699C10.4464 28.5851 11.375 30.1231 12.9855 30.9065C14.0301 31.4289 15.7277 31.4869 16.8739 31.0516C20.6752 29.6298 20.6897 23.7827 16.9029 22.3608C15.8292 21.9545 14.2913 21.9545 13.2321 22.3608ZM16.221 24.8128C18.1071 25.959 17.2946 28.8753 15.0893 28.8753C13.856 28.8753 12.9129 27.9322 12.9129 26.699C12.9129 25.4657 13.856 24.5226 15.0893 24.5226C15.481 24.5226 15.9308 24.6387 16.221 24.8128Z" fill="#0076BE"/>
<path d="M48.0536 22.3608C46.3705 23.0137 45.2679 24.7257 45.2679 26.699C45.2679 28.5851 46.1964 30.1231 47.8069 30.9065C48.8516 31.4289 50.5491 31.4869 51.6953 31.0516C53.4509 30.3842 54.5536 28.7157 54.5536 26.699C54.5536 23.9423 52.6384 22.0416 49.8672 22.0706C49.1853 22.0706 48.5614 22.1722 48.0536 22.3608ZM51.0424 24.8128C52.9286 25.959 52.1161 28.8753 49.9107 28.8753C48.6775 28.8753 47.7344 27.9322 47.7344 26.699C47.7344 25.4657 48.6775 24.5226 49.9107 24.5226C50.3025 24.5226 50.7522 24.6387 51.0424 24.8128Z" fill="#0076BE"/>
<path d="M6.26785 38.6108C4.58482 39.2637 3.48214 40.9757 3.48214 42.949C3.48214 44.8351 4.41071 46.3731 6.0212 47.1565C7.06584 47.6789 8.76339 47.7369 9.90959 47.3016C13.7109 45.8798 13.7254 40.0327 9.93861 38.6108C8.86495 38.2045 7.32701 38.2045 6.26785 38.6108ZM9.25669 41.0628C11.1429 42.209 10.3304 45.1253 8.125 45.1253C5.91964 45.1253 5.10714 42.209 6.9933 41.0628C7.61718 40.6856 8.63281 40.6856 9.25669 41.0628Z" fill="#0076BE"/>
<path d="M55.0179 38.6108C53.3348 39.2637 52.2321 40.9757 52.2321 42.949C52.2321 44.8351 53.1607 46.3731 54.7712 47.1565C55.8159 47.6789 57.5134 47.7369 58.6596 47.3016C62.4609 45.8798 62.4755 40.0327 58.6886 38.6108C57.615 38.2045 56.077 38.2045 55.0179 38.6108ZM58.0067 41.0628C59.8929 42.209 59.0804 45.1253 56.875 45.1253C54.6696 45.1253 53.8571 42.209 55.7433 41.0628C56.3672 40.6856 57.3828 40.6856 58.0067 41.0628Z" fill="#0076BE"/>
</svg>
