<svg width="60" height="60" viewBox="0 0 60 60" fill="none" xmlns="http://www.w3.org/2000/svg">
<path d="M5.79036 0.228216C3.14679 0.926012 0.905792 3.19385 0.221416 5.85084C-0.0738053 7.03172 -0.0738053 21.3097 0.221416 22.4906C0.919211 25.2012 3.10653 27.4154 5.79036 28.1266C6.90415 28.4218 21.4908 28.4218 22.618 28.1266C25.2481 27.4422 27.422 25.2549 28.1601 22.5442C28.3748 21.7659 28.4016 20.9339 28.4016 14.1707C28.4016 5.83742 28.4016 5.86425 27.4891 4.10635C26.8987 2.96572 25.275 1.38226 24.1746 0.845497C22.4569 0.0135098 22.4569 0.0135098 14.1102 0.0269299C7.95084 0.0269299 6.39422 0.0671864 5.79036 0.228216ZM22.4972 3.63668C23.356 4.05267 24.2954 4.99201 24.7113 5.85084L25.0468 6.52179L25.0871 13.9828C25.1139 21.3902 25.1139 21.4707 24.8321 22.2356C24.4295 23.3091 23.3158 24.4229 22.2422 24.8255C21.4773 25.1073 21.3968 25.1073 13.9895 25.0805L6.52841 25.0402L5.85746 24.7047C4.99863 24.2887 4.05929 23.3494 3.6433 22.4906L3.30782 21.8196V14.1707V6.52179L3.67014 5.83742C4.16664 4.89808 4.63631 4.36131 5.34753 3.94532C6.58209 3.22068 6.36738 3.2341 14.3786 3.27436L21.8262 3.3012L22.4972 3.63668Z" fill="#0076BE"/>
<path d="M37.1954 0.228224C34.5384 0.92602 32.3377 3.12676 31.6265 5.78375C31.3179 6.92438 31.3313 21.4305 31.6399 22.6114C32.3109 25.2147 34.525 27.4422 37.1418 28.1266C37.7993 28.3011 39.1412 28.3279 45.5556 28.3279C53.9694 28.3279 54.0365 28.3279 55.6468 27.4825C56.7874 26.8921 58.3708 25.2683 58.9076 24.168C59.6188 22.7053 59.7396 21.9807 59.7396 19.1626V16.6264L59.2833 16.1702C58.9076 15.7944 58.7197 15.7139 58.2769 15.7139C57.6059 15.7139 57.0021 15.9957 56.7605 16.4251C56.6398 16.6264 56.5593 17.5658 56.519 19.27C56.4519 21.6183 56.4116 21.8733 56.1164 22.4906C55.7004 23.336 54.7611 24.2887 53.9425 24.6913C52.8824 25.2013 51.7686 25.2683 44.8578 25.2147C38.3495 25.1744 38.3361 25.161 37.5309 24.8524C36.4305 24.4095 35.3302 23.3092 34.9276 22.2356C34.6458 21.4707 34.6458 21.3902 34.6726 13.9828L34.7129 6.5218L35.0484 5.85085C35.4644 4.99202 36.4037 4.05268 37.2625 3.63669L37.9335 3.30121H45.5824H53.2313L53.9425 3.67694C54.8819 4.17345 55.6602 4.9786 56.0896 5.90452C56.4116 6.56206 56.4519 6.8707 56.519 8.53467C56.5727 9.84975 56.6532 10.5073 56.7874 10.7086C57.3376 11.554 58.6929 11.6479 59.3773 10.883C59.7396 10.4804 59.7396 10.467 59.7396 8.56151C59.7396 7.28669 59.6725 6.37419 59.5383 5.85085C58.8539 3.1536 56.5995 0.899181 53.9023 0.214806C52.7482 -0.0804157 38.3092 -0.0669975 37.1954 0.228224Z" fill="#0076BE"/>
<path d="M5.73668 31.5632C3.09311 32.2878 0.905792 34.5154 0.221416 37.1992C-0.0738053 38.3801 -0.0738053 52.6581 0.221416 53.839C0.905792 56.5362 3.16021 58.7906 5.85746 59.475C6.51499 59.6495 7.88375 59.6763 14.1773 59.6763C22.4435 59.6763 22.4569 59.6763 24.1746 58.8443C25.275 58.3075 26.8987 56.7241 27.4891 55.5835C28.4016 53.8256 28.4016 53.8524 28.4016 45.5191C28.4016 38.7559 28.3748 37.9239 28.1601 37.1456C27.422 34.4349 25.2481 32.2476 22.618 31.5632C21.531 31.2814 6.76996 31.2814 5.73668 31.5632ZM22.2556 34.8777C23.3158 35.2669 24.4295 36.3807 24.8321 37.4542C25.1139 38.2191 25.1139 38.2996 25.0871 45.707L25.0468 53.168L24.7113 53.839C24.2954 54.6978 23.356 55.6371 22.4972 56.0531L21.8262 56.3886H14.1773H6.52841L5.68301 55.9324C4.78392 55.4493 4.15322 54.7917 3.62988 53.7719L3.30782 53.168L3.26756 45.8009C3.2273 37.6018 3.2273 37.6689 4.11297 36.4343C4.60948 35.75 5.50856 35.079 6.30029 34.7838C6.70286 34.6362 8.25948 34.5959 14.1371 34.5959C21.3431 34.5825 21.4908 34.5825 22.2556 34.8777Z" fill="#0076BE"/>
<path d="M44.5121 31.6303C44.3108 31.7914 44.0961 32.1403 44.0156 32.4086C43.9351 32.7173 43.8814 35.0388 43.8814 38.3667V43.8417H38.4198C35.0785 43.8417 32.7569 43.8954 32.4483 43.9759C31.7639 44.1638 31.4016 44.6737 31.4016 45.4118C31.4016 46.1364 31.67 46.6866 32.1397 46.9013C32.3946 47.0221 34.0586 47.0623 38.1783 47.0623H43.868L43.9083 52.8728C43.9485 59.153 43.9351 59.0054 44.7 59.4616C44.9013 59.5824 45.3173 59.6763 45.6259 59.6763C46.0822 59.6763 46.27 59.5958 46.6458 59.2201L47.102 58.7638V52.9131V47.0623H52.9528H58.8035L59.2597 46.6061C59.6355 46.2304 59.716 46.0425 59.716 45.5862C59.716 45.2776 59.6221 44.8616 59.5013 44.6603C59.045 43.8954 59.1927 43.9088 52.9125 43.8686L47.102 43.8283V38.1386C47.102 34.0189 47.0617 32.355 46.941 32.1C46.6055 31.3619 45.1965 31.0936 44.5121 31.6303Z" fill="#0076BE"/>
</svg>
