<svg width="19" height="20" viewBox="0 0 19 20" fill="none" xmlns="http://www.w3.org/2000/svg">
<path opacity="0.955" fill-rule="evenodd" clip-rule="evenodd" d="M1.38172 0C5.72603 0 10.0704 0 14.4147 0C15.1371 0.193389 15.5915 0.653964 15.7777 1.38172C15.8205 4.1816 15.8516 6.98239 15.8711 9.78406C16.2333 9.916 16.4761 10.165 16.5993 10.5309C17.1824 10.3095 17.6803 10.434 18.093 10.9044C18.1761 11.0456 18.2384 11.1949 18.2798 11.3525C18.3047 12.4728 18.3047 13.5931 18.2798 14.7134C18.1431 16.2007 17.502 17.4144 16.3566 18.3545C15.8142 18.744 15.2167 18.9992 14.5641 19.12C14.2155 19.12 13.867 19.12 13.5184 19.12C12.9566 19.0218 12.4338 18.8164 11.95 18.5038C8.57663 18.4914 5.20322 18.4789 1.82984 18.4665C1.50849 18.3568 1.3031 18.1389 1.21367 17.813C1.195 13.0828 1.18878 8.35256 1.195 3.62234C0.641705 3.72231 0.249595 3.52314 0.0186728 3.02484C-0.00622427 2.47713 -0.00622427 1.92943 0.0186728 1.38172C0.205955 0.652974 0.660306 0.192403 1.38172 0ZM1.75516 0.746875C5.35263 0.74065 8.95007 0.746875 12.5475 0.765547C12.395 0.998878 12.3017 1.25406 12.2674 1.53109C12.2608 1.96339 12.2421 2.39284 12.2114 2.81945C11.0164 2.8319 9.82141 2.84435 8.62641 2.8568C8.43834 2.90892 8.35122 3.0334 8.365 3.23023C8.3507 3.42565 8.43782 3.55013 8.62641 3.60367C9.87119 3.62857 11.116 3.62857 12.3608 3.60367C12.7031 3.51031 12.9209 3.29248 13.0143 2.95016C13.0267 2.50203 13.0392 2.05391 13.0516 1.60578C13.2326 0.977465 13.6497 0.709834 14.3027 0.802891C14.7343 0.937504 14.977 1.23003 15.0309 1.68047C15.0495 4.38165 15.0558 7.08284 15.0495 9.78406C15.0002 9.77771 14.9566 9.79015 14.9188 9.82141C14.6188 9.13383 14.1023 8.88486 13.3691 9.07453C13.338 8.31552 13.3193 7.55621 13.313 6.79656C13.1242 5.99864 12.62 5.65631 11.8006 5.76961C11.2554 5.91659 10.9504 6.27136 10.8857 6.83391C10.8733 8.82556 10.8608 10.8173 10.8484 12.8089C10.5321 12.4553 10.2022 12.1129 9.85875 11.782C8.97662 11.3 8.29819 11.5054 7.82352 12.3981C7.62261 12.9603 7.6973 13.4831 8.04758 13.9666C9.01053 15.2159 9.98766 16.4544 10.9791 17.6823C7.99156 17.7072 5.00406 17.7072 2.01656 17.6823C1.97926 12.9982 1.96681 8.3116 1.97922 3.62234C3.14939 3.62857 4.31948 3.62234 5.48953 3.60367C5.67386 3.54096 5.77342 3.41026 5.78828 3.21156C5.75986 3.04852 5.67274 2.93027 5.52688 2.8568C3.95844 2.84435 2.39 2.8319 0.821563 2.81945C0.798194 2.79143 0.779522 2.76031 0.765548 2.72609C0.725493 2.27335 0.750386 1.82522 0.840235 1.38172C1.03557 1.00745 1.34055 0.795836 1.75516 0.746875ZM4.1825 5.71359C4.63063 5.71359 5.07875 5.71359 5.52688 5.71359C5.52688 6.16172 5.52688 6.60984 5.52688 7.05797C5.07875 7.05797 4.63063 7.05797 4.1825 7.05797C4.1825 6.60984 4.1825 6.16172 4.1825 5.71359ZM11.95 6.53516C12.2402 6.49016 12.4332 6.60219 12.5288 6.87125C12.5413 8.75087 12.5537 10.6305 12.5662 12.5102C12.6885 12.7196 12.869 12.7881 13.1077 12.7155C13.2152 12.6688 13.2837 12.5879 13.313 12.4728C13.3255 11.6762 13.338 10.8795 13.3504 10.0828C13.5102 9.78895 13.7405 9.7205 14.0413 9.87742C14.0988 9.93639 14.1424 10.0049 14.172 10.0828C14.1844 10.8546 14.1969 11.6263 14.2093 12.3981C14.2822 12.6806 14.4627 12.7864 14.7508 12.7155C14.8441 12.672 14.9126 12.6035 14.9562 12.5102C14.9686 11.9749 14.9811 11.4396 14.9935 10.9044C15.0855 10.5565 15.3033 10.4383 15.647 10.5496C15.7172 10.6072 15.7732 10.6757 15.8151 10.755C15.8631 11.3251 15.888 11.8977 15.8898 12.4728C15.99 12.7177 16.1706 12.7986 16.4313 12.7155C16.5388 12.6688 16.6073 12.5879 16.6366 12.4728C16.6491 12.1616 16.6616 11.8504 16.674 11.5392C16.8095 11.2011 17.0398 11.1201 17.3648 11.2965C17.4227 11.3418 17.4662 11.3978 17.4955 11.4645C17.5205 12.5226 17.5205 13.5807 17.4955 14.6388C17.3811 15.8438 16.8769 16.8459 15.9831 17.6449C14.9015 18.4519 13.7564 18.5515 12.5475 17.9437C12.0496 17.6451 11.6201 17.2655 11.2591 16.8047C10.4394 15.7235 9.60537 14.6529 8.75711 13.5931C8.41743 13.1701 8.4361 12.7656 8.81313 12.3795C8.98741 12.255 9.16166 12.255 9.33594 12.3795C9.80991 12.8907 10.2954 13.3887 10.7923 13.8732C11.0765 14.0681 11.3316 14.037 11.5579 13.7798C11.632 13.5693 11.6755 13.3514 11.6886 13.1263C11.6454 11.0544 11.6392 8.98184 11.6699 6.90859C11.701 6.73341 11.7943 6.60891 11.95 6.53516Z" fill="black"/>
<path opacity="0.891" fill-rule="evenodd" clip-rule="evenodd" d="M6.946 2.83819C7.24233 2.80449 7.41657 2.93519 7.46881 3.2303C7.36776 3.60428 7.1437 3.70386 6.79663 3.52905C6.68982 3.39157 6.65872 3.23597 6.70327 3.06225C6.75689 2.95239 6.83782 2.8777 6.946 2.83819Z" fill="black"/>
<path opacity="0.951" fill-rule="evenodd" clip-rule="evenodd" d="M3.92102 4.92934C4.54354 4.9231 5.16594 4.92934 5.7882 4.94801C6.04337 5.02894 6.21142 5.19698 6.29234 5.45215C6.31725 6.07456 6.31725 6.69693 6.29234 7.31934C6.19547 7.57806 6.01499 7.74611 5.75086 7.82348C5.15336 7.84839 4.55586 7.84839 3.95836 7.82348C3.68231 7.75906 3.50183 7.59102 3.41687 7.31934C3.39197 6.6845 3.39197 6.04965 3.41687 5.41481C3.50807 5.16789 3.67611 5.00608 3.92102 4.92934ZM4.18242 5.71356C4.18242 6.16168 4.18242 6.60981 4.18242 7.05793C4.63055 7.05793 5.07867 7.05793 5.5268 7.05793C5.5268 6.60981 5.5268 6.16168 5.5268 5.71356C5.07867 5.71356 4.63055 5.71356 4.18242 5.71356Z" fill="black"/>
<path opacity="0.941" fill-rule="evenodd" clip-rule="evenodd" d="M7.31963 4.92934C8.42758 4.9231 9.53542 4.92934 10.6432 4.94801C10.8495 5.05702 10.918 5.22507 10.8486 5.45215C10.7893 5.57374 10.696 5.65467 10.5685 5.69489C9.51047 5.7198 8.45237 5.7198 7.39431 5.69489C7.09538 5.55104 7.02693 5.33321 7.18892 5.04137C7.24561 5.01661 7.28919 4.97927 7.31963 4.92934Z" fill="black"/>
<path opacity="0.938" fill-rule="evenodd" clip-rule="evenodd" d="M7.39373 7.058C8.25271 7.05177 9.11161 7.058 9.97045 7.07668C10.2152 7.17862 10.2961 7.35911 10.2132 7.61816C10.1665 7.72575 10.0856 7.7942 9.97045 7.82355C9.0991 7.84846 8.22773 7.84846 7.35638 7.82355C7.11746 7.69184 7.04901 7.49892 7.15099 7.24472C7.2184 7.15786 7.29932 7.09565 7.39373 7.058Z" fill="black"/>
<path opacity="0.948" fill-rule="evenodd" clip-rule="evenodd" d="M3.73432 9.18654C5.66379 9.18031 7.5932 9.18654 9.5226 9.20522C9.856 9.29428 9.94936 9.49967 9.80268 9.82139C9.75734 9.87923 9.70133 9.92278 9.63463 9.95209C7.6305 9.977 5.62641 9.977 3.62229 9.95209C3.41283 9.82971 3.34437 9.64923 3.4169 9.41061C3.49943 9.29604 3.60522 9.22135 3.73432 9.18654Z" fill="black"/>
<path opacity="0.941" fill-rule="evenodd" clip-rule="evenodd" d="M3.62216 11.3526C4.75498 11.3463 5.88773 11.3526 7.02044 11.3712C7.24032 11.5149 7.29633 11.7078 7.18849 11.9501C7.12735 12.0363 7.04643 12.0923 6.94575 12.1181C5.86278 12.143 4.77981 12.143 3.69684 12.1181C3.39824 12.007 3.31732 11.8016 3.45411 11.5019C3.50628 11.4433 3.5623 11.3935 3.62216 11.3526Z" fill="black"/>
<path opacity="0.939" fill-rule="evenodd" clip-rule="evenodd" d="M3.65973 13.4811C4.64318 13.4749 5.62659 13.4811 6.60989 13.4998C6.83623 13.6104 6.91715 13.7909 6.85262 14.0413C6.80557 14.1506 6.72465 14.219 6.60989 14.2466C5.61404 14.2716 4.61823 14.2716 3.62239 14.2466C3.46174 14.1744 3.38705 14.0499 3.39833 13.8732C3.39056 13.6761 3.47768 13.5454 3.65973 13.4811Z" fill="black"/>
<path opacity="0.946" fill-rule="evenodd" clip-rule="evenodd" d="M3.77183 15.6098C5.10381 15.6035 6.43575 15.6098 7.76761 15.6284C8.11498 15.707 8.22081 15.9124 8.08503 16.2446C8.0397 16.3025 7.98368 16.346 7.91699 16.3753C6.48549 16.4002 5.05395 16.4002 3.62245 16.3753C3.41613 16.2663 3.34768 16.0983 3.41706 15.8712C3.49119 15.7151 3.60946 15.628 3.77183 15.6098Z" fill="black"/>
</svg>
