<svg width="65" height="59" viewBox="0 0 65 59" fill="none" xmlns="http://www.w3.org/2000/svg">
<path d="M10.2304 0.259529C9.18961 0.627621 8.59305 0.983021 7.86956 1.64305C6.46065 2.93772 5.8514 4.48624 5.8514 6.74557C5.8514 8.26871 6.0291 9.05566 6.61297 10.1599C6.84144 10.5915 7.00644 10.9596 6.98106 10.9723C6.95567 10.9977 6.57489 11.1246 6.14333 11.2515C4.91213 11.6069 3.63015 12.3812 2.61472 13.3966C1.61199 14.3867 0.990041 15.364 0.431556 16.7983L0.076157 17.7249L0.0380785 25.569L0 33.4259L0.304628 34.0732C0.67272 34.8729 1.37083 35.5837 2.15778 35.9645C2.62742 36.2056 2.95743 36.2564 3.84593 36.2564H4.9629L4.98828 45.7126L5.02636 55.1687L5.34368 55.7907C5.74985 56.5903 6.57489 57.4154 7.33646 57.7961C7.85686 58.0373 8.13611 58.0881 9.215 58.0881C10.3447 58.0881 10.5604 58.05 11.1316 57.7454C11.4743 57.5677 11.8424 57.3138 11.944 57.1996C12.0963 57.0219 12.1343 57.0219 12.3755 57.2503C13.0736 57.885 13.721 58.0881 15.0537 58.0881C16.158 58.0881 16.3991 58.05 16.9449 57.7708C17.7954 57.3392 18.5062 56.603 18.8996 55.7653C19.2423 55.0418 19.2423 55.0291 19.2804 51.5893L19.3185 48.1369L18.9504 47.7307C18.6585 47.4007 18.4935 47.3246 18.0873 47.3246C17.4526 47.3246 16.9576 47.6419 16.7799 48.1496C16.6911 48.3907 16.6403 49.7108 16.6403 51.4497C16.6403 53.9248 16.6149 54.4198 16.4372 54.7245C15.8153 55.7526 14.2921 55.7399 13.6829 54.6864C13.5686 54.4706 13.5179 52.0971 13.4671 44.6718L13.4036 34.9237L13.0482 34.5809C12.5532 34.0732 11.7155 34.0732 11.2205 34.5809L10.8651 34.9237L10.8016 44.6718C10.7508 52.1224 10.7001 54.4706 10.5858 54.6864C9.98926 55.7145 8.44073 55.7399 7.83148 54.7245C7.65378 54.4072 7.62839 53.2902 7.62839 42.8694V31.3697H12.1343H16.6403V34.8475C16.6403 36.7514 16.6784 38.4903 16.7165 38.7188C16.9195 39.7469 18.1888 40.115 18.9377 39.3788C19.2931 39.0107 19.3058 38.9854 19.3058 37.6272V36.2564H20.4101C21.3113 36.2564 21.6413 36.2056 22.1109 35.9645C22.809 35.6218 23.5452 34.911 23.9133 34.2255C24.1925 33.7305 24.1925 33.6163 24.2306 26.1656C24.2687 17.5599 24.2687 17.5979 23.266 15.5925C22.2759 13.5997 20.3466 11.9496 18.2269 11.2896C17.7446 11.1373 17.313 10.9977 17.2876 10.9723C17.2623 10.9596 17.4146 10.6042 17.6303 10.198C18.2015 9.13182 18.4173 8.16716 18.4173 6.65672C18.4173 4.47355 17.6684 2.73463 16.2087 1.49073C15.4726 0.868786 15.0029 0.602238 14.0002 0.259529C13.0736 -0.0577927 11.1316 -0.0577927 10.2304 0.259529ZM13.6829 2.9758C14.3683 3.34389 14.9902 3.95314 15.3456 4.63856C15.6122 5.17165 15.6883 5.50167 15.7264 6.49171C15.7899 7.97677 15.5106 8.82719 14.7237 9.63953C13.9367 10.4265 13.2005 10.7438 12.1343 10.7438C11.0682 10.7438 10.332 10.4265 9.54501 9.63953C8.83421 8.91604 8.51689 8.02754 8.51689 6.72018C8.51689 6.1617 8.58036 5.48898 8.65651 5.23512C8.94845 4.24508 9.9131 3.21696 10.8778 2.86156C11.5251 2.6204 13.1244 2.69655 13.6829 2.9758ZM16.8053 13.6632C19.0139 14.2343 20.702 15.8463 21.3493 17.966C21.5651 18.6768 21.5905 19.2988 21.5905 25.8737V32.9943L21.197 33.3244C20.5751 33.8575 19.8389 33.6798 19.4454 32.9309C19.3439 32.7405 19.3058 30.6842 19.3058 26.1148V19.5907L18.9885 19.2099C18.595 18.7403 18.0365 18.6134 17.4526 18.8672C16.6657 19.1972 16.6403 19.3876 16.6403 24.3251V28.7042H12.1343H7.62839L7.6157 24.3505C7.6157 21.3423 7.56493 19.87 7.46339 19.5653C7.15876 18.6895 5.97832 18.4611 5.28022 19.1465L4.97559 19.4638L4.93751 26.1529C4.89943 33.3371 4.91213 33.2101 4.23941 33.5147C3.75708 33.7305 3.47784 33.6798 3.03359 33.2863L2.61472 32.9182V25.8229C2.61472 19.2353 2.62742 18.6895 2.85589 18.0422C3.60476 15.8336 5.25483 14.247 7.41261 13.6632C8.38996 13.3966 15.7899 13.3966 16.8053 13.6632Z" fill="#0076BE"/>
<path d="M30.3359 0.386471L29.9678 0.754562V29.085V57.4154L30.3359 57.7835C31.0848 58.5196 32.354 58.1515 32.5571 57.1234C32.6587 56.603 32.6587 1.56691 32.5571 1.0465C32.354 0.0183792 31.0848 -0.349712 30.3359 0.386471Z" fill="#0076BE"/>
<path d="M48.4993 0.259537C46.3669 0.932259 44.7676 2.68387 44.2472 4.86703C43.8664 6.49172 44.0695 8.58604 44.7422 9.93148L45.1484 10.7692L44.1203 10.9596C41.5817 11.4419 39.5001 13.2062 38.7385 15.529C38.5989 15.9733 37.8754 19.2099 37.1265 22.7385C35.6415 29.7831 35.5399 30.57 36.0223 31.6362C36.568 32.842 37.7104 33.6671 39.0812 33.8448C39.4366 33.8955 39.7413 33.9844 39.7413 34.0479C39.7413 34.1113 39.4874 35.3298 39.1701 36.7768C38.4847 39.9119 38.472 40.1531 38.967 40.6481L39.3351 41.0162H41.5056H43.6633L43.7014 48.2131L43.7395 55.4226L44.0314 55.9684C44.7295 57.2884 45.8846 58.0373 47.357 58.1262C48.4612 58.1896 49.1593 58.0373 49.8321 57.5677L50.3144 57.2504L51.2029 57.6946C51.9645 58.1008 52.1929 58.1516 52.9926 58.1516C53.5003 58.1516 54.173 58.0627 54.5157 57.9485C55.3281 57.6692 56.3816 56.6792 56.7623 55.8415C57.0543 55.1941 57.067 55.0545 57.067 52.224V49.2666L56.7243 48.9366C56.2419 48.4415 55.3534 48.4415 54.8711 48.9366L54.5284 49.2666L54.4649 52.0082L54.4015 54.7499L53.9826 55.118C53.2084 55.8161 52.0787 55.4987 51.7994 54.496C51.7233 54.2041 51.6725 51.5894 51.6725 47.515V41.0162H56.4831H61.2937L61.6745 40.6989C61.8902 40.5212 62.0933 40.2166 62.1441 40.0262C62.1949 39.7469 61.3191 35.1902 60.9891 34.1494C60.9383 33.9844 61.0652 33.9209 61.5983 33.8575C62.5757 33.7178 63.4007 33.3117 63.9846 32.6897C64.6954 31.9155 65 31.1539 65 30.1639C65 29.25 62.3472 16.4048 61.9283 15.2879C61.116 13.092 58.9201 11.3023 56.5593 10.9215C56.0389 10.8454 55.6073 10.7565 55.6073 10.7311C55.6073 10.7057 55.7215 10.5027 55.8612 10.2742C56.0008 10.0457 56.2292 9.48723 56.3689 9.04298C56.7243 7.92601 56.7243 5.43821 56.3816 4.44817C55.6454 2.30309 54.2365 0.89418 52.1802 0.246845C51.2537 -0.057785 49.4386 -0.0450897 48.4993 0.259537ZM51.7994 2.95042C52.4976 3.26774 53.2591 3.97854 53.6145 4.65126C53.8303 5.05743 53.8938 5.4509 53.9318 6.5298C53.9826 7.86255 53.9699 7.92601 53.5764 8.72566C52.6753 10.5661 50.5809 11.2896 48.7912 10.3757C47.522 9.72839 46.8492 8.61142 46.7477 6.98674C46.6335 5.13359 47.3316 3.80084 48.7659 3.07735C49.7432 2.58232 50.8983 2.54425 51.7994 2.95042ZM57.1558 13.8789C58.0443 14.2851 58.9709 15.1863 59.3136 15.9733C59.5802 16.5825 62.3345 29.4404 62.3345 30.0877C62.3345 30.5319 61.941 31.065 61.5222 31.1666C61.116 31.2681 60.621 31.065 60.3798 30.7096C60.2783 30.5446 59.669 27.9934 59.0344 25.0233C58.387 22.0531 57.7778 19.4765 57.6889 19.2861C57.4604 18.8418 57.1431 18.6768 56.5212 18.6768C55.8865 18.6768 55.3915 19.0576 55.29 19.6161C55.2138 20.0096 55.8612 23.1574 58.4759 35.076C58.844 36.8149 59.1613 38.2619 59.1613 38.3C59.1613 38.3253 55.2265 38.3507 50.4032 38.3507C43.181 38.3507 41.6452 38.3253 41.6452 38.1857C41.6452 38.0842 42.5083 34.0606 43.5491 29.2246C44.6026 24.4013 45.453 20.2 45.453 19.8954C45.453 19.0957 45.0342 18.6768 44.2091 18.6768C43.5237 18.6768 43.1429 18.9561 42.9272 19.6288C42.851 19.8446 42.3052 22.2943 41.7086 25.0867C41.1121 27.8791 40.5282 30.3416 40.4267 30.57C40.0078 31.3824 38.8274 31.3316 38.472 30.4812C38.2562 29.9608 40.9471 17.1029 41.5309 15.9225C42.0006 14.9578 42.8637 14.1582 43.8918 13.7647C44.6153 13.4855 44.6915 13.4855 50.5302 13.5109L56.4323 13.5362L57.1558 13.8789ZM49.007 47.7815C49.007 53.9375 48.9816 54.5722 48.7912 54.8514C48.4485 55.3464 48.2201 55.4734 47.6489 55.4861C47.23 55.4861 47.0396 55.4099 46.735 55.0926L46.3415 54.6991V47.8577V41.0162H47.6743H49.007V47.7815Z" fill="#0076BE"/>
<path d="M17.3384 42.3109C16.7546 42.6409 16.5515 43.339 16.818 43.999C17.0338 44.5195 17.4146 44.7352 18.0873 44.7352C19.1916 44.7352 19.7374 43.3263 18.9377 42.5267C18.5316 42.1205 17.8334 42.0317 17.3384 42.3109Z" fill="#0076BE"/>
<path d="M55.4169 43.5167C54.668 43.7071 54.2873 44.6083 54.6553 45.3699C55.0996 46.3219 56.4323 46.3472 56.9401 45.3953C57.4858 44.3925 56.5593 43.2375 55.4169 43.5167Z" fill="#0076BE"/>
</svg>
