<svg width="65" height="72" viewBox="0 0 65 72" fill="none" xmlns="http://www.w3.org/2000/svg">
<path d="M63.8885 71.6407C64.1418 71.4719 64.5076 71.0779 64.6905 70.7684C64.9859 70.2338 65 70.0931 64.9719 67.5887L64.9297 64.9719L64.5357 64.4654C64.0574 63.8463 63.5368 63.5509 62.6786 63.4242L62.0455 63.3398V56.6991C62.0455 50.1851 62.0455 50.0584 61.7641 49.8052C61.3842 49.4675 60.5963 49.4675 60.2165 49.8052C59.9351 50.0584 59.9351 50.1851 59.9351 56.7273V63.382L32.5 63.382H5.06494V41.8561L5.06494 20.3301H13.0422H21.0195L20.6537 20.71C20.4567 20.9351 20.2035 21.2587 20.0768 21.4556C19.7814 21.8777 19.7673 23.0173 20.0346 23.5379C20.2738 23.9881 23.2987 26.9848 23.7348 27.21C24.1288 27.4069 25.2543 27.4069 25.6483 27.21C25.8171 27.1255 26.2532 26.7597 26.619 26.408L27.2662 25.7749L27.8149 25.9859C28.3496 26.211 28.3496 26.211 28.3918 27.0693C28.4199 27.8009 28.3918 27.9275 28.1948 27.9275C27.7024 27.9275 25.3387 28.8279 23.8755 29.5736C22.2576 30.4037 20.724 31.4729 19.3734 32.697L18.5714 33.4426V32.908C18.5574 31.6981 17.6147 30.5162 16.3766 30.1786C15.1526 29.8268 13.7738 30.3474 13.0141 31.4167L12.592 32.0357L12.5076 42.8831C12.4372 52.1688 12.395 53.8853 12.1981 54.7294C11.7478 56.671 11.9448 57.6699 12.9437 58.5844C13.4502 59.0487 13.5487 59.2597 13.9286 60.6245C14.3647 62.2284 14.4913 62.4957 15.026 62.6926C15.6169 62.9177 15.9827 62.6786 17.3333 61.1591C19.0216 59.2597 19.3452 58.7392 19.6407 57.6136C19.9502 56.3896 19.8236 55.3485 19.1905 53.9134C18.9232 53.2803 18.6558 52.6613 18.5996 52.5487C18.5574 52.4361 19.0216 52.8019 19.6407 53.3647C25.0152 58.3312 33.4567 60.0054 40.9416 57.5996C47.3712 55.5314 52 50.6775 52.9004 45.0498C53.1677 43.4037 53.013 40.829 52.5487 39.2673C50.8745 33.5411 45.4719 29.039 38.592 27.6602C37.8182 27.4913 37.0303 27.3647 36.8615 27.3647C36.5942 27.3647 36.566 27.2944 36.6082 26.7738C36.6504 26.2251 36.6926 26.1688 37.1851 25.9719L37.7197 25.7749L38.381 26.408C38.7468 26.7597 39.1829 27.1255 39.3517 27.21C39.7738 27.421 40.8853 27.4069 41.3355 27.1677C41.7857 26.9286 44.7825 23.9037 45.0076 23.4675C45.1905 23.1017 45.2045 22.1591 45.0357 21.6948C44.9654 21.4978 44.6981 21.118 44.4589 20.8366L44.0087 20.3301L51.9719 20.3301H59.9351L59.9351 33.2738C59.9351 46.0346 59.9351 46.2175 60.2165 46.4989C60.3853 46.6677 60.6807 46.7803 60.9903 46.7803C61.2998 46.7803 61.5952 46.6677 61.7641 46.4989C62.0455 46.2175 62.0455 46.0346 62.0455 33.2738L62.0455 20.3301H62.7348C63.5649 20.3301 64.2262 19.9221 64.6764 19.1342C64.9719 18.6136 65 18.4026 65 16.1374C65 14.4069 64.9437 13.5768 64.803 13.2532C64.5639 12.6623 63.8745 12.0855 63.1991 11.8885C62.8755 11.8041 59.8506 11.7478 54.9968 11.7478C47.3712 11.7478 47.3149 11.7478 47.0476 11.4524C46.5833 10.9318 46.0628 10.763 44.9935 10.763H43.9524L43.7695 10.2565C43.5866 9.76407 43.6006 9.75 44.2338 9.07468C44.5996 8.69481 44.9513 8.21645 45.0216 8.01948C45.2045 7.52706 45.2045 6.59848 45.0076 6.21861C44.7825 5.78247 41.7857 2.75758 41.3355 2.5184C40.8853 2.27922 39.7738 2.26515 39.3517 2.47619C39.1829 2.56061 38.7468 2.92641 38.381 3.27814L37.7338 3.91126L37.1851 3.70022L36.6504 3.47511L36.5801 2.37771C36.5097 1.18182 36.3972 0.900433 35.8063 0.351732L35.4264 0L32.5 0L29.5736 0L29.1937 0.351732C28.6028 0.900433 28.4903 1.18182 28.4199 2.37771L28.3496 3.47511L27.8149 3.70022L27.2662 3.91126L26.5206 3.16558C25.8593 2.5184 25.6905 2.41991 25.0714 2.34957C24.4805 2.29329 24.3398 2.3355 24.0725 2.61688C23.9037 2.79978 23.7771 3.12338 23.7771 3.37662C23.7771 3.82684 24.1147 4.43182 24.368 4.43182C24.4524 4.43182 24.987 4.88203 25.5639 5.43074C26.5487 6.35931 26.6613 6.42965 27.1396 6.35931C28.04 6.24675 30.3052 5.2197 30.4881 4.83983C30.5866 4.64286 30.671 3.96753 30.671 3.27814V2.04004H32.5L34.329 2.04004V3.27814C34.329 3.96753 34.4134 4.64286 34.5119 4.83983C34.6948 5.2197 36.96 6.24675 37.8604 6.35931C38.3387 6.42965 38.4513 6.35931 39.3517 5.50108L40.3225 4.58658L41.6169 5.88095L42.9113 7.17532L41.9827 8.08983C41.1104 8.96212 41.0682 9.03247 41.1245 9.5671C41.2089 10.3268 42.1234 12.4654 42.5032 12.7749C42.7424 12.9578 43.0801 13.0141 44.1212 13.0141H45.4437V14.8431V16.6721H44.1212C43.0801 16.6721 42.7424 16.7284 42.5032 16.9253C42.1234 17.2208 41.2089 19.3593 41.1245 20.119C41.0682 20.6537 41.1104 20.724 41.9827 21.5963L42.9113 22.5108L41.6169 23.8052L40.3225 25.0996L39.3658 24.1851C38.4654 23.3128 38.3669 23.2565 37.8745 23.3268C36.974 23.4394 34.6948 24.4664 34.5119 24.8463C34.4134 25.0292 34.329 25.7045 34.329 26.3517V27.5054H32.5H30.671V26.3517C30.671 25.7045 30.5866 25.0292 30.4881 24.8463C30.3052 24.4664 28.026 23.4394 27.1255 23.3268C26.6331 23.2565 26.5346 23.3128 25.6342 24.1851L24.6775 25.0996L23.3831 23.8052L22.0887 22.5108L23.0173 21.5963C23.8896 20.724 23.9318 20.6537 23.8755 20.119C23.7911 19.3593 22.8766 17.2208 22.4968 16.9253C22.2576 16.7284 21.9199 16.6721 20.8788 16.6721H19.5563V14.8431V13.0141H20.8788C21.9199 13.0141 22.2576 12.9578 22.4968 12.7749C22.8626 12.4794 23.7771 10.355 23.8755 9.58117C23.9459 9.07468 23.9037 8.99026 23.0595 8.1461C22.2013 7.27381 22.1732 7.2316 22.2154 6.57035C22.2435 5.85281 22.0465 5.54329 21.4416 5.36039C20.6678 5.12121 19.8377 6.00758 19.8377 7.06277C19.8377 7.87879 20.0206 8.27273 20.7662 9.07468C21.3994 9.75 21.4134 9.76407 21.2305 10.2565L21.0476 10.763H20.0065C18.9372 10.763 18.4167 10.9318 17.9524 11.4524C17.6851 11.7478 17.6288 11.7478 10.0032 11.7478C5.14935 11.7478 2.12446 11.8041 1.80087 11.8885C1.12554 12.0855 0.43615 12.6623 0.196968 13.2532C0.0562744 13.5768 0 14.3929 0 16.0812C0 18.2478 0.0281372 18.487 0.323593 19.0639C0.745674 19.8939 1.22403 20.2175 2.18074 20.3019L2.95455 20.3582L2.95455 41.8561V63.3539L2.29329 63.4524C1.40693 63.579 0.942642 63.8322 0.464287 64.4654L0.0703506 64.9719L0.0281372 67.5887C0 70.0931 0.0140686 70.2338 0.309525 70.7684C0.492424 71.0779 0.858223 71.4719 1.11147 71.6407L1.58983 71.9643L32.5 71.9643H63.4102L63.8885 71.6407ZM2.41991 69.7413C2.29329 69.6429 2.25108 69.1364 2.27922 67.6591L2.32143 65.7035L30.8117 65.6613C46.4848 65.6331 60.0758 65.6613 61.0184 65.7035L62.7489 65.8019V67.7435C62.7489 69.1645 62.7067 69.7132 62.566 69.7554C62.2706 69.882 2.61688 69.8539 2.41991 69.7413ZM15.6872 58.4719C15.5465 58.0216 15.2511 57.5855 14.8431 57.2056C14.1537 56.5584 14.1396 56.5022 14.3647 55.2781C14.6039 53.8712 14.5195 53.9556 15.6732 53.9556H16.7002L17.1082 54.842C17.5866 55.855 17.6288 56.868 17.2489 57.5855C17.0379 57.9935 16.0812 59.1613 15.9686 59.1613C15.9405 59.1613 15.8139 58.8517 15.6872 58.4719ZM32.1483 56.3474C26.5346 55.8128 21.4838 53.0271 19.0076 49.1158L18.5714 48.4123V42.9113V37.3961L19.303 36.369C21.3853 33.4004 24.79 31.1493 28.8279 30.0942C29.9675 29.7987 30.4459 29.7565 32.5703 29.7565C33.8929 29.7565 35.1732 29.6861 35.3983 29.6158C36.3409 29.2922 40.632 30.3615 42.8268 31.4729C46.7803 33.4708 49.6364 36.8333 50.5227 40.5195C50.9026 42.1515 50.8463 44.487 50.368 46.0065C48.6234 51.5779 42.9957 55.6017 35.961 56.3474C34.4697 56.5022 33.8507 56.5022 32.1483 56.3474ZM14.7727 42.2781C14.7727 33.0346 14.7727 32.8517 15.0541 32.5703C15.3918 32.2327 15.5887 32.2186 16.0108 32.5141L16.3203 32.7251V42.2219V51.7045H15.5465H14.7727V42.2781ZM47.3431 17.8398C47.5823 17.2348 47.6948 16.5173 47.6948 15.2933V13.9989L55.1797 14.0271L62.6786 14.0693L62.7208 16.0812L62.763 18.079H54.9968C47.6667 18.079 47.2446 18.0649 47.3431 17.8398ZM2.27922 16.0812L2.32143 14.0693L9.80628 14.0271L17.3052 13.9989V15.2933C17.3052 16.5173 17.4178 17.2348 17.6569 17.8398C17.7554 18.0649 17.3333 18.079 10.0032 18.079H2.23701L2.27922 16.0812Z" fill="#0076BE"/>
<path d="M39.1547 54.4621C40.0693 54.1245 40.8431 53.421 41.3355 52.4784C41.6591 51.8734 41.7154 51.592 41.7154 50.579C41.7154 49.5098 41.6731 49.2987 41.2933 48.6375C40.8431 47.8074 40.3647 47.3572 39.4783 46.8788C39.0141 46.6256 38.6623 46.5693 37.6353 46.5693C36.4957 46.5693 36.2987 46.6115 35.6234 46.9914C34.7933 47.4416 34.3431 47.9199 33.8647 48.8063C33.6255 49.2706 33.5552 49.6223 33.5552 50.579C33.5552 51.6061 33.6115 51.8734 33.9351 52.4924C34.329 53.2522 35.0184 53.9275 35.7781 54.3355C36.3831 54.6591 38.4231 54.7294 39.1547 54.4621ZM36.5941 52.1266C36.1721 51.9156 35.7359 51.1559 35.7359 50.6775C35.7359 49.6504 36.6223 48.75 37.6353 48.75C38.9859 48.75 39.9426 50.2414 39.3376 51.4091C38.8171 52.408 37.6634 52.7035 36.5941 52.1266Z" fill="#0076BE"/>
<path d="M28.3214 54.2229C29.7002 54.0119 30.7132 53.2662 31.4026 51.9437C31.8388 51.1277 31.8528 49.3831 31.4307 48.4545C31.0649 47.6807 30.3193 46.8929 29.5033 46.4708C28.6591 46.0065 26.6472 46.0065 25.803 46.4567C24.8604 46.9632 24.382 47.4416 23.9318 48.3561C22.9048 50.4102 23.7489 52.9004 25.789 53.8712C26.6331 54.2652 27.3647 54.3636 28.3214 54.2229ZM26.4221 51.6061C24.8463 50.1851 26.3377 47.7089 28.3214 48.4545C28.8279 48.6515 29.3907 49.3128 29.4892 49.8333C29.5877 50.368 29.3485 51.1558 28.9827 51.4935C28.2933 52.1126 27.0552 52.1829 26.4221 51.6061Z" fill="#0076BE"/>
<path d="M45.908 47.7089C47.1602 47.2586 48.131 46.2597 48.539 45.0357C48.8203 44.1775 48.6656 42.5736 48.2154 41.842C47.4134 40.4632 46.1894 39.7316 44.6981 39.7175C42.9957 39.7034 41.8139 40.3366 40.9838 41.7013C39.9426 43.4318 40.3225 45.6125 41.9123 47.0054C42.7987 47.8073 44.6981 48.1309 45.908 47.7089ZM43.3896 45.2186C42.8409 44.698 42.5877 44.1353 42.6721 43.5725C42.8409 42.5876 43.6007 41.9545 44.6418 41.9686C46.4426 41.9967 47.0758 44.4166 45.5422 45.3874C44.9372 45.7673 43.8961 45.6829 43.3896 45.2186Z" fill="#0076BE"/>
<path d="M29.8269 41.5606C32.7111 41.237 35.0606 39.0844 35.0747 36.7489C35.0888 35.2435 34.5541 34.1601 33.3301 33.2034C32.3593 32.4578 31.3604 32.1201 29.8128 32.0357C27.6321 31.9231 26.0985 32.4296 24.6916 33.7099C22.8485 35.3982 22.5953 37.7337 24.0585 39.5909C25.2544 41.1104 27.3929 41.842 29.8269 41.5606ZM27.3085 39.0985C26.0141 38.6904 25.2262 37.6915 25.4091 36.7067C25.5498 35.9329 26.5909 34.9339 27.6461 34.54C28.8842 34.0898 30.4741 34.1742 31.5293 34.7792C32.5422 35.356 33.0347 36.2283 32.7814 37.0021C32.4156 38.1277 31.1212 39.0703 29.658 39.2954C28.7998 39.4361 28.1808 39.3798 27.3085 39.0985Z" fill="#0076BE"/>
<path d="M33.4567 20.4708C35.2576 20.2035 37.1991 18.6699 37.8604 16.9957C38.1136 16.3485 38.184 15.8983 38.184 14.8431C38.184 13.1126 37.8463 12.2121 36.763 11.0444C34.4275 8.5119 30.5725 8.5119 28.237 11.0444C27.7305 11.5931 27.3506 12.1558 27.1537 12.6905C25.5638 16.9394 28.9545 21.118 33.4567 20.4708ZM31.0931 17.9805C29.9675 17.5303 28.9827 16.053 28.9827 14.8431C28.9827 13.4502 30.1363 11.9589 31.5292 11.5509C32.4437 11.2695 32.5563 11.2695 33.4708 11.5509C34.8636 11.9589 36.0173 13.4502 36.0173 14.8431C36.0173 15.6872 35.4967 16.7565 34.7933 17.3896C34.2868 17.8539 33.8366 18.0649 32.9924 18.2619C32.5985 18.3604 31.6699 18.2197 31.0931 17.9805Z" fill="#0076BE"/>
</svg>
